<svg width="392" height="399" viewBox="0 0 392 399" fill="none" xmlns="http://www.w3.org/2000/svg">
<path d="M124.454 398.497C126.897 395.239 130.154 391.168 132.597 387.91L135.04 384.653V380.582C133.412 361.852 127.712 343.937 117.94 327.651L112.239 317.065L101.653 323.579C94.3245 328.465 86.9955 333.351 78.8523 338.237L66.6376 327.651L80.4811 304.85L86.9955 294.264L75.5951 289.378C57.6801 282.049 38.9509 277.163 20.2216 276.349H15.3356L12.0784 278.792C8.82112 282.049 4.74933 284.492 0.677734 286.121C15.3355 264.134 31.6218 243.776 49.5368 225.047C65.0089 209.575 98.3959 181.888 98.3959 181.888C98.3959 181.888 100.025 181.074 100.839 181.888C101.653 182.702 100.839 184.331 100.839 184.331C100.839 184.331 86.1812 203.874 78.038 212.832L64.1947 228.304L85.367 230.747C95.9532 231.561 106.539 233.19 117.125 234.819L123.64 235.633L128.526 229.933C148.884 203.06 174.128 179.445 195.3 152.572C249.045 89.0556 315.819 37.7536 391.551 0.294922C352.463 71.1406 303.604 137.915 245.788 197.36C222.172 221.789 196.929 244.59 170.87 266.577L165.17 270.649L165.984 277.163C168.427 288.564 170.87 297.521 171.685 308.107L174.942 329.279L190.414 314.622C199.372 306.479 218.915 291.821 218.915 291.821C218.915 291.821 220.544 291.007 221.358 291.821C222.172 292.635 221.358 294.264 221.358 294.264C221.358 294.264 195.3 328.465 180.642 343.937C165.984 365.11 146.441 383.839 124.454 398.497Z" fill="#00AEE8"/>
</svg>
