<svg width="60" height="60" fill="none" xmlns="http://www.w3.org/2000/svg"><rect width="60" height="60" rx="12" fill="#79B1FC"/><path d="M15 20a4 4 0 0 1 4-4h20a4 4 0 0 1 4 4v9a4.978 4.978 0 0 0-3-1h-4a4.992 4.992 0 0 0-4 2h-4a1 1 0 0 0 0 2h3.1l-.016.084A5 5 0 0 0 27 37v7h-8a4 4 0 0 1-4-4V20zm7.5 6a1.5 1.5 0 1 0 0-3 1.5 1.5 0 0 0 0 3zM21 30.5a1.5 1.5 0 1 0 3 0 1.5 1.5 0 0 0-3 0zm1.5 7.5a1.5 1.5 0 1 0 0-3 1.5 1.5 0 0 0 0 3zM36 24h-8a1 1 0 0 0 0 2h8a1 1 0 0 0 0-2zm-3 10v-1a3 3 0 0 1 3-3h4a3 3 0 0 1 3 3v1h1a3 3 0 0 1 3 3v3h-4v-1a1 1 0 0 0-2 0v1h-6v-1a1 1 0 0 0-2 0v1h-4v-3a3 3 0 0 1 3-3h1zm2-1v1h6v-1a1 1 0 0 0-1-1h-4a1 1 0 0 0-1 1zm8 9h4v3a3 3 0 0 1-3 3H32a3 3 0 0 1-3-3v-3h4v1a1 1 0 0 0 2 0v-1h6v1a1 1 0 0 0 2 0v-1z" fill="#fff"/></svg>