<svg width="60" height="60" fill="none" xmlns="http://www.w3.org/2000/svg"><rect width="60" height="60" rx="12" fill="#79B1FC"/><path d="M30 13.75c-8.975 0-16.25 7.275-16.25 16.247 0 2.594.607 5.048 1.69 7.225l-2.12 6.36c-.639 1.914 1.14 3.758 3.076 3.187l6.816-2.004A16.197 16.197 0 0 0 30 46.246c8.974 0 16.25-7.275 16.25-16.249 0-8.972-7.278-16.247-16.25-16.247zm-6.251 13.749a1.25 1.25 0 0 1 1.25-1.25h10a1.25 1.25 0 1 1 0 2.5h-10a1.25 1.25 0 0 1-1.25-1.25zm1.25 3.75h7.5a1.25 1.25 0 1 1 0 2.499h-7.5a1.25 1.25 0 0 1 0-2.5z" fill="#fff"/></svg>