<svg width="60" height="60" fill="none" xmlns="http://www.w3.org/2000/svg"><rect width="60" height="60" rx="12" fill="#79B1FC"/><path d="M16 23v-6a1 1 0 1 1 2 0v2.414a15.956 15.956 0 0 1 10.812-5.37c1.7-.13 3.409.015 5.062.428a16.005 16.005 0 0 1 3.426 29.77 15.906 15.906 0 0 1-6.294 1.726 15.9 15.9 0 0 1-10.3-2.944 15.954 15.954 0 0 1-6.56-10.852 16.059 16.059 0 0 1-.118-3.208 1 1 0 1 1 1.996.128c-.018.302-.026.605-.024.908 0 6.2 4.03 11.46 9.616 13.3a13.99 13.99 0 0 0 6.282.57c1.626-.22 3.2-.726 4.65-1.492a14.006 14.006 0 0 0-7.59-26.34c-1.314.1-2.609.383-3.846.84A14.04 14.04 0 0 0 18.51 22H22a1 1 0 1 1 0 2h-5a1.004 1.004 0 0 1-1-1zm9 2.934c0-1.86 1.96-3.07 3.624-2.234l8.08 4.066c1.834.924 1.834 3.544 0 4.468l-8.08 4.064A2.5 2.5 0 0 1 25 34.068v-8.134z" fill="#fff"/></svg>