<svg width="417" height="275" viewBox="0 0 417 275" fill="none" xmlns="http://www.w3.org/2000/svg">
<rect x="75" y="77" width="257" height="156" rx="14" fill="white" fill-opacity="0.06"/>
<rect x="56" y="44" width="295.394" height="207.925" rx="22" stroke="white" stroke-opacity="0.1" stroke-width="2"/>
<circle cx="78.0619" cy="61.0614" r="3.0614" fill="white" fill-opacity="0.19"/>
<circle cx="87.6527" cy="61.0614" r="3.0614" fill="white" fill-opacity="0.19"/>
<circle cx="97.2435" cy="61.0614" r="3.0614" fill="white" fill-opacity="0.19"/>
<mask id="mask0_204_7" style="mask-type:alpha" maskUnits="userSpaceOnUse" x="75" y="77" width="257" height="156">
<rect x="75" y="77" width="257" height="156" rx="14" fill="white" fill-opacity="0.06"/>
</mask>
<g mask="url(#mask0_204_7)">
<path opacity="0.5" d="M459.961 28.0468L147.293 21L142 29.8085V55.8286L285.483 304L536 159.566L459.961 28.0468Z" fill="#EAEEF9"/>
<path d="M234 233.118C232.859 235.021 230.958 236.163 229.057 237.305C210.807 254.433 186.094 264.709 159.479 264.709C138.187 264.709 118.036 257.858 101.307 246.44C96.3646 243.395 92.1823 239.208 88 235.402C90.2812 232.357 94.0833 230.454 102.068 227.409L105.109 226.267C111.193 223.983 119.937 220.939 130.964 215.991C132.865 215.229 134.005 214.087 135.146 212.946C135.906 212.184 136.286 211.804 136.286 210.662C137.047 209.52 137.427 207.617 137.427 206.475V185.541C136.667 184.78 136.667 184.78 136.286 184.4C134.385 182.116 133.245 179.071 133.245 175.265L132.104 174.504C126.781 175.645 127.161 170.317 126.021 159.279C125.26 155.092 126.021 153.95 128.302 153.189L130.203 150.905C126.401 142.151 124.88 134.539 124.88 128.069C124.88 117.792 129.063 110.941 135.146 107.896C131.344 100.664 131.344 98 131.344 98C131.344 98 152.635 101.806 160.24 100.284C169.365 98.3806 184.193 101.045 189.516 113.225C198.641 117.031 201.682 122.359 202.823 128.449C203.964 138.345 198.641 148.622 197.5 152.809V153.57C198.641 154.331 199.401 155.473 198.641 159.66C197.5 169.936 197.5 176.026 192.557 174.884L187.615 183.638C187.615 184.78 187.615 184.78 186.854 185.541C186.854 187.444 186.854 190.489 186.854 206.856C186.854 208.759 187.615 211.043 188.755 212.184C189.516 212.946 189.516 213.326 189.896 213.326C191.036 214.468 192.177 215.61 193.698 215.61C205.865 220.558 214.609 224.364 221.073 226.648C227.536 229.312 231.719 231.215 234 233.118Z" fill="white"/>
<path d="M234 233.744C232.859 235.61 230.958 236.729 229.057 237.848C210.807 254.636 186.094 264.709 159.479 264.709C138.187 264.709 118.036 257.994 101.307 246.802C96.3646 243.817 92.1823 239.714 88 235.983C90.2812 232.998 94.0833 231.133 102.068 228.148L105.109 227.029C111.193 224.791 119.937 221.806 130.964 216.956C132.865 216.21 134.005 215.091 135.146 213.972C141.229 222.552 151.115 227.775 162.521 227.775C173.547 227.775 183.432 222.552 189.516 214.718C190.656 215.837 191.797 216.956 193.318 216.956C205.484 221.806 214.229 225.537 220.693 227.775C227.536 230.014 231.719 231.879 234 233.744Z" fill="#636E85"/>
<path d="M196.805 152.879C197.566 150.577 196.045 146.739 194.905 144.82C194.905 144.053 194.144 144.053 194.144 143.669C189.963 134.842 180.839 131.772 172.096 131.388C149.287 130.237 147.767 134.458 140.924 128.318C143.205 131.388 143.205 137.145 139.784 143.285C137.503 147.507 132.941 150.193 128.76 151.344C118.496 127.934 123.818 112.967 133.701 107.978C129.9 100.686 129.9 98 129.9 98C129.9 98 151.188 101.838 158.791 100.303C167.914 98.3838 182.74 101.07 188.062 113.351C197.186 117.189 200.227 122.561 201.367 128.702C203.648 138.296 197.946 148.658 196.805 152.879Z" fill="#AAB2C5"/>
<path d="M137.817 207.271V185.304C137.05 184.505 137.05 184.505 136.667 184.106V182.908C137.817 184.905 138.968 186.902 140.885 188.1L157.376 200.481C161.211 203.676 166.58 203.676 170.415 200.481L185.755 186.502C186.522 185.703 186.906 185.703 187.673 185.304C187.673 187.301 187.673 190.496 187.673 207.67C187.673 208.868 187.673 209.667 188.44 210.865H137.817C137.05 209.268 137.817 208.469 137.817 207.271Z" fill="url(#paint0_linear_204_7)"/>
</g>
<g filter="url(#filter0_di_204_7)">
<rect x="254" y="30.5327" width="123.293" height="123.293" rx="28" transform="rotate(-11.4773 254 30.5327)" fill="url(#paint1_linear_204_7)"/>
<rect x="254" y="30.5327" width="123.293" height="123.293" rx="28" transform="rotate(-11.4773 254 30.5327)" fill="url(#paint2_linear_204_7)"/>
</g>
<path d="M335.322 65.3692C337.524 64.922 338.948 62.7789 338.502 60.5824C338.056 58.3859 335.909 56.9678 333.706 57.4149C331.504 57.8621 330.08 60.0052 330.526 62.2017C330.972 64.3982 333.119 65.8163 335.322 65.3692Z" fill="white"/>
<path d="M340.794 91.1447L310.371 97.3219C308.408 97.7204 306.802 95.6812 307.65 93.9883L318.579 69.8052C319.297 68.3078 321.26 67.9093 322.504 69.0082L341.999 87.0141C343.474 88.4043 342.757 90.7462 340.794 91.1447Z" fill="white"/>
<path opacity="0.7" d="M351.298 88.5642L336.324 91.6043C334.05 92.0661 332.434 89.9385 333.24 88.0747L338.605 76.5953C339.448 74.913 341.533 74.4897 342.965 75.7102L352.382 84.188C354.42 85.4745 353.572 88.1024 351.298 88.5642Z" fill="white"/>
<g filter="url(#filter1_di_204_7)">
<rect x="34.6943" y="139" width="81.6208" height="81.6208" rx="19" transform="rotate(17.6105 34.6943 139)" fill="#D9D9D9"/>
<rect x="34.6943" y="139" width="81.6208" height="81.6208" rx="19" transform="rotate(17.6105 34.6943 139)" fill="url(#paint3_radial_204_7)"/>
</g>
<path fill-rule="evenodd" clip-rule="evenodd" d="M53.4196 205C36.4334 209.083 29.5559 197.5 43.4147 185.418C39.2678 167.99 51.3208 161.856 62.9961 175.413C80.4242 171.267 86.558 183.32 73.001 194.995C77.1542 212.935 64.7692 218.243 53.4196 205ZM57.8655 176.987C56.1183 177.635 54.357 178.408 52.6174 179.295C50.879 180.185 49.2231 181.158 47.6719 182.195C46.9342 177.34 47.7945 173.956 49.4565 173.108C51.8973 172.051 55.429 174.62 57.8655 176.987ZM41.0811 198.984C40.2311 197.323 41.5168 194.077 44.9597 190.574C46.2443 194.059 48.0988 197.686 50.168 200.768C46.8117 201.262 42.4272 201.265 41.0811 198.984ZM67.5319 193.252C66.3073 189.307 63.7044 184.212 61.2255 180.906C57.2814 182.133 52.1852 184.736 48.8809 187.215C50.1056 191.161 52.7091 196.253 55.1885 199.557C55.1883 199.558 55.1884 199.558 55.1886 199.559C55.189 199.559 55.1898 199.56 55.1898 199.56C59.1321 198.332 64.2283 195.73 67.5319 193.252ZM56.9726 194.046C54.8676 193.364 53.7131 191.105 54.3945 189C56.233 184.008 63.4548 186.348 62.0184 191.468C61.3371 193.572 59.0775 194.727 56.9726 194.046ZM68.7391 198.272C69.4786 203.127 68.6183 206.511 66.9564 207.359C65.2957 208.209 62.0494 206.923 58.5473 203.48C62.032 202.196 65.6574 200.345 68.7391 198.272ZM71.4533 189.893C74.8961 186.391 76.1818 183.144 75.3318 181.484C73.9857 179.203 69.6013 179.205 66.245 179.699C68.3142 182.781 70.1687 186.408 71.4533 189.893Z" fill="white"/>
<path d="M295.877 207.575L297.575 206.82C298.141 206.631 298.141 205.876 297.575 205.687L295.877 204.932C293.801 203.988 292.103 202.289 291.16 200.212L290.405 198.512C290.216 197.946 289.462 197.946 289.273 198.512L288.518 200.212C287.575 202.289 285.877 203.988 283.801 204.932L282.103 205.687C281.537 205.876 281.537 206.631 282.103 206.82L283.801 207.575C285.877 208.519 287.575 210.219 288.518 212.296L289.273 213.995C289.462 214.562 290.216 214.562 290.405 213.995L291.16 212.296C291.915 210.219 293.613 208.519 295.877 207.575Z" fill="#989FB0"/>
<path d="M277.575 196.813L278.708 196.247C279.085 196.058 279.085 195.68 278.708 195.491L277.575 195.114C276.066 194.547 274.934 193.414 274.368 191.904L273.802 190.771C273.613 190.393 273.236 190.393 273.047 190.771L272.67 191.904C271.915 193.414 270.783 194.547 269.462 195.114L268.142 195.68C267.953 195.68 267.953 196.247 268.142 196.247L269.274 196.813C270.783 197.38 271.915 198.512 272.67 200.023L273.236 201.156C273.425 201.533 273.802 201.533 273.991 201.156L274.368 200.023C274.934 198.512 276.066 197.38 277.575 196.813Z" fill="#989FB0"/>
<path d="M292.103 185.862L293.047 185.484C293.235 185.296 293.235 185.107 293.047 184.918L292.103 184.54C290.971 184.163 290.217 183.219 289.65 182.086L289.273 181.142C289.084 180.953 288.896 180.953 288.707 181.142L288.33 182.086C287.952 183.219 287.009 183.974 285.877 184.54L285.311 184.918C284.933 185.107 284.933 185.484 285.311 185.484L286.254 185.862C287.386 186.24 288.141 187.184 288.707 188.317L289.084 189.261C289.273 189.449 289.462 189.449 289.65 189.261L290.028 188.317C290.217 187.184 291.16 186.24 292.103 185.862Z" fill="#989FB0"/>
<defs>
<filter id="filter0_di_204_7" x="237.006" y="0.00634766" width="179.348" height="179.348" filterUnits="userSpaceOnUse" color-interpolation-filters="sRGB">
<feFlood flood-opacity="0" result="BackgroundImageFix"/>
<feColorMatrix in="SourceAlpha" type="matrix" values="0 0 0 0 0 0 0 0 0 0 0 0 0 0 0 0 0 0 127 0" result="hardAlpha"/>
<feOffset dy="11"/>
<feGaussianBlur stdDeviation="11"/>
<feColorMatrix type="matrix" values="0 0 0 0 0.397708 0 0 0 0 0.47749 0 0 0 0 0.575 0 0 0 0.27 0"/>
<feBlend mode="normal" in2="BackgroundImageFix" result="effect1_dropShadow_204_7"/>
<feBlend mode="normal" in="SourceGraphic" in2="effect1_dropShadow_204_7" result="shape"/>
<feColorMatrix in="SourceAlpha" type="matrix" values="0 0 0 0 0 0 0 0 0 0 0 0 0 0 0 0 0 0 127 0" result="hardAlpha"/>
<feOffset/>
<feGaussianBlur stdDeviation="10"/>
<feComposite in2="hardAlpha" operator="arithmetic" k2="-1" k3="1"/>
<feColorMatrix type="matrix" values="0 0 0 0 1 0 0 0 0 1 0 0 0 0 1 0 0 0 0.3 0"/>
<feBlend mode="normal" in2="shape" result="effect2_innerShadow_204_7"/>
</filter>
<filter id="filter1_di_204_7" x="0.853516" y="143.853" width="120.784" height="130.784" filterUnits="userSpaceOnUse" color-interpolation-filters="sRGB">
<feFlood flood-opacity="0" result="BackgroundImageFix"/>
<feColorMatrix in="SourceAlpha" type="matrix" values="0 0 0 0 0 0 0 0 0 0 0 0 0 0 0 0 0 0 127 0" result="hardAlpha"/>
<feMorphology radius="16" operator="erode" in="SourceAlpha" result="effect1_dropShadow_204_7"/>
<feOffset dy="24"/>
<feGaussianBlur stdDeviation="15"/>
<feComposite in2="hardAlpha" operator="out"/>
<feColorMatrix type="matrix" values="0 0 0 0 0.588235 0 0 0 0 0.164706 0 0 0 0 0.917647 0 0 0 0.5 0"/>
<feBlend mode="normal" in2="BackgroundImageFix" result="effect1_dropShadow_204_7"/>
<feBlend mode="normal" in="SourceGraphic" in2="effect1_dropShadow_204_7" result="shape"/>
<feColorMatrix in="SourceAlpha" type="matrix" values="0 0 0 0 0 0 0 0 0 0 0 0 0 0 0 0 0 0 127 0" result="hardAlpha"/>
<feOffset/>
<feGaussianBlur stdDeviation="20"/>
<feComposite in2="hardAlpha" operator="arithmetic" k2="-1" k3="1"/>
<feColorMatrix type="matrix" values="0 0 0 0 1 0 0 0 0 1 0 0 0 0 1 0 0 0 0.5 0"/>
<feBlend mode="normal" in2="shape" result="effect2_innerShadow_204_7"/>
</filter>
<linearGradient id="paint0_linear_204_7" x1="162.453" y1="209.995" x2="162.453" y2="195.35" gradientUnits="userSpaceOnUse">
<stop stop-color="white"/>
<stop offset="1" stop-color="#6F6F6F"/>
</linearGradient>
<linearGradient id="paint1_linear_204_7" x1="315.606" y1="27.6808" x2="315.606" y2="155.154" gradientUnits="userSpaceOnUse">
<stop stop-color="#FDFEFF"/>
<stop offset="0.9964" stop-color="#ECF0F5"/>
</linearGradient>
<linearGradient id="paint2_linear_204_7" x1="212.465" y1="15.277" x2="287.352" y2="197.636" gradientUnits="userSpaceOnUse">
<stop stop-color="#B670D3"/>
<stop offset="0.9964" stop-color="#0F0FF2"/>
</linearGradient>
<radialGradient id="paint3_radial_204_7" cx="0" cy="0" r="1" gradientUnits="userSpaceOnUse" gradientTransform="translate(23.7141 149.196) rotate(24.9483) scale(137.119 107.316)">
<stop offset="0.03125" stop-color="#D83575"/>
<stop offset="0.591558" stop-color="#7E03F4"/>
<stop offset="1" stop-color="#1010F2"/>
</radialGradient>
</defs>
</svg>
