<svg width="382" height="308" viewBox="0 0 382 308" fill="none" xmlns="http://www.w3.org/2000/svg">
<g filter="url(#filter0_d_55_4512)">
<rect x="261.45" y="72.5549" width="109.241" height="140.204" rx="18.5" transform="rotate(20.3721 261.45 72.5549)" stroke="white" stroke-opacity="0.1"/>
</g>
<rect opacity="0.7" x="238.301" y="179.641" width="78.0874" height="16.1287" rx="2" transform="rotate(20.3721 238.301 179.641)" fill="#525765"/>
<path d="M246.321 158.042L318.448 184.825" stroke="#525765" stroke-width="2" stroke-miterlimit="10"/>
<path d="M250.411 147.028L322.537 173.812" stroke="#525765" stroke-width="2" stroke-miterlimit="10"/>
<path d="M242.495 168.348L284.479 183.939" stroke="#525765" stroke-width="2" stroke-miterlimit="10"/>
<path d="M310.305 115.05C311.517 115.5 312.881 114.838 313.352 113.57C313.823 112.302 313.222 110.909 312.01 110.459C310.797 110.009 309.433 110.672 308.962 111.94C308.491 113.207 309.092 114.6 310.305 115.05Z" fill="#525765"/>
<path d="M304.898 130.002L288.151 123.783C287.071 123.382 286.928 121.837 287.871 121.228L300.766 112.162C301.584 111.613 302.664 112.014 302.926 112.964L306.778 128.249C307.061 129.42 305.979 130.403 304.898 130.002Z" fill="#525765"/>
<path opacity="0.7" d="M310.821 131.919L302.579 128.859C301.327 128.394 301.207 126.8 302.183 126.09L308.39 121.841C309.327 121.236 310.475 121.662 310.79 122.732L312.72 130.003C313.309 131.294 312.073 132.384 310.821 131.919Z" fill="#525765"/>
<g filter="url(#filter1_d_55_4512)">
<rect x="18.6151" y="70.0866" width="118.548" height="152.126" rx="18.5" transform="rotate(-15.4402 18.6151 70.0866)" stroke="white" stroke-opacity="0.1"/>
</g>
<rect opacity="0.7" x="66.2607" y="178.977" width="84.68" height="17.4904" rx="2" transform="rotate(-15.4402 66.2607 178.977)" fill="#525765"/>
<path d="M59.6079 154.892L140.031 132.679" stroke="#525765" stroke-width="2" stroke-miterlimit="10"/>
<path d="M56.2163 142.612L136.64 120.399" stroke="#525765" stroke-width="2" stroke-miterlimit="10"/>
<path d="M62.7827 166.384L109.596 153.454" stroke="#525765" stroke-width="2" stroke-miterlimit="10"/>
<path d="M88.6638 76.4671C90.0155 76.0938 90.7948 74.6451 90.4044 73.2315C90.0139 71.8179 88.6016 70.9745 87.2498 71.3479C85.8981 71.7213 85.1188 73.1699 85.5092 74.5835C85.8997 75.9972 87.312 76.8405 88.6638 76.4671Z" fill="#525765"/>
<path d="M93.3975 93.0464L74.7244 98.2039C73.5197 98.5367 72.4132 97.2687 72.8563 96.1347L78.4431 79.9799C78.8147 78.978 80.0194 78.6453 80.8525 79.3144L93.9388 90.3117C94.93 91.1619 94.6022 92.7136 93.3975 93.0464Z" fill="#525765"/>
<path opacity="0.7" d="M99.8189 90.9751L90.6288 93.5135C89.2328 93.899 88.1156 92.5739 88.5233 91.3302L91.2864 83.6551C91.7264 82.5282 93.0061 82.1747 93.9621 82.9161L100.273 88.085C101.61 88.8467 101.215 90.5896 99.8189 90.9751Z" fill="#525765"/>
<rect x="130.612" width="180.128" height="229.637" rx="20" transform="rotate(9.01545 130.612 0)" fill="url(#paint0_linear_55_4512)"/>
<rect x="130.612" width="180.128" height="229.637" rx="20" transform="rotate(9.01545 130.612 0)" fill="url(#paint1_linear_55_4512)"/>
<circle cx="205.123" cy="70.1153" r="30.9803" transform="rotate(8.91597 205.123 70.1153)" stroke="white" stroke-opacity="0.1" stroke-width="2"/>
<g clip-path="url(#clip0_55_4512)">
<path d="M205.56 69.7496C207.034 70.0564 208.421 69.7934 209.681 68.9672C210.941 68.1412 211.735 66.975 212.042 65.5005C212.349 64.0266 212.086 62.6401 211.26 61.3795C210.434 60.1194 209.267 59.325 207.793 59.0182C206.319 58.7113 204.932 58.9744 203.672 59.8004C202.412 60.6264 201.617 61.7928 201.311 63.2669C201.004 64.7414 201.267 66.1279 202.093 67.3881C202.919 68.6482 204.086 69.4428 205.56 69.7496Z" fill="white"/>
<path d="M213.617 78.1032C213.677 77.6628 213.715 77.1766 213.729 76.6579C213.744 76.1353 213.726 75.6348 213.678 75.1705C213.627 74.6907 213.524 74.2056 213.371 73.7295C213.211 73.2353 212.996 72.7891 212.731 72.4035C212.454 72.0002 212.085 71.6456 211.636 71.3493C211.187 71.0544 210.666 70.8438 210.087 70.7233C209.86 70.676 209.621 70.7235 209.138 70.9116C208.841 71.0277 208.495 71.1612 208.108 71.3083C207.777 71.4335 207.346 71.5254 206.825 71.5815C206.316 71.6365 205.816 71.614 205.339 71.5146C204.861 71.4152 204.394 71.2364 203.949 70.983C203.494 70.7239 203.135 70.4674 202.882 70.2208C202.589 69.9344 202.324 69.6736 202.095 69.4455C201.728 69.0806 201.527 68.9415 201.3 68.8942C200.721 68.7736 200.159 68.7591 199.631 68.8508C199.1 68.9428 198.621 69.1209 198.205 69.3804C197.808 69.6283 197.433 69.9515 197.09 70.341C196.76 70.7165 196.472 71.1198 196.234 71.5401C196.004 71.9464 195.788 72.3982 195.593 72.8832C195.4 73.3639 195.24 73.825 195.12 74.2538C195.001 74.6739 194.894 75.1132 194.801 75.5601C194.559 76.723 194.733 77.7414 195.317 78.5874C195.895 79.4224 196.775 79.9683 197.934 80.2094L208.661 82.4421C209.819 82.6832 210.844 82.534 211.707 81.9986C212.58 81.4565 213.146 80.5918 213.388 79.4284C213.481 78.9795 213.558 78.5336 213.617 78.1032Z" fill="white"/>
</g>
<rect x="128.796" y="179.105" width="127.591" height="26.2297" rx="13.1148" transform="rotate(9.01545 128.796 179.105)" fill="#DBD6FA" fill-opacity="0.55"/>
<path d="M134.667 142.098L258.829 161.797" stroke="white" stroke-opacity="0.27" stroke-width="2" stroke-miterlimit="10"/>
<path d="M137.662 123.229L261.823 142.928" stroke="white" stroke-opacity="0.27" stroke-width="2" stroke-miterlimit="10"/>
<path d="M159.877 166.771L232.15 178.237" stroke="white" stroke-opacity="0.27" stroke-width="2" stroke-miterlimit="10"/>
<g filter="url(#filter2_di_55_4512)">
<rect x="18" y="193.327" width="81.6208" height="81.6208" rx="19" transform="rotate(-13.0405 18 193.327)" fill="#E5643D"/>
</g>
<g clip-path="url(#clip1_55_4512)">
<path d="M53.2549 222.435L49.8497 223.244C48.2041 223.635 47.1871 225.286 47.578 226.931L51.2187 242.255C51.6096 243.9 53.2606 244.917 54.9061 244.526L58.3113 243.717C59.9569 243.326 60.974 241.675 60.583 240.03L56.9424 224.706C56.5514 223.061 54.9005 222.044 53.2549 222.435Z" fill="white"/>
<path d="M79.631 217.967L74.1827 219.261C74.1148 219.279 74.0436 219.278 73.9761 219.259C73.9085 219.241 73.8471 219.205 73.7977 219.155C73.7506 219.103 73.7175 219.039 73.7012 218.971C73.6849 218.903 73.6861 218.831 73.7046 218.763L75.0873 209.441C75.1949 208.694 75.1176 207.931 74.862 207.22C74.6063 206.509 74.1803 205.871 73.6211 205.363C73.0619 204.855 72.3866 204.492 71.6544 204.306C70.9223 204.119 70.1556 204.115 69.4215 204.294C68.5642 204.5 67.7832 204.946 67.1694 205.579C66.5555 206.212 66.1341 207.007 65.9542 207.87C65.4001 210.406 64.5551 212.871 63.436 215.213C62.5113 217.131 61.4099 218.958 60.146 220.672C59.8832 221.032 59.7013 221.445 59.6126 221.882C59.524 222.319 59.5308 222.77 59.6325 223.204L63.3095 238.681C63.545 239.662 64.0823 240.546 64.8458 241.206C65.6094 241.867 66.5607 242.272 67.5662 242.364L69.4064 242.538C70.2949 242.615 71.19 242.548 72.0574 242.34L82.4433 239.873C83.3217 239.629 84.0876 239.086 84.6092 238.338C85.1308 237.591 85.3755 236.685 85.3012 235.776L84.5509 221.565C84.5164 220.989 84.3567 220.429 84.0829 219.922C83.809 219.415 83.4277 218.974 82.9655 218.629C82.5034 218.285 81.9716 218.046 81.4074 217.929C80.8432 217.812 80.2602 217.819 79.6991 217.951L79.631 217.967Z" fill="white"/>
</g>
<defs>
<filter id="filter0_d_55_4512" x="195.42" y="66.3325" width="185.66" height="203.908" filterUnits="userSpaceOnUse" color-interpolation-filters="sRGB">
<feFlood flood-opacity="0" result="BackgroundImageFix"/>
<feColorMatrix in="SourceAlpha" type="matrix" values="0 0 0 0 0 0 0 0 0 0 0 0 0 0 0 0 0 0 127 0" result="hardAlpha"/>
<feOffset dy="11"/>
<feGaussianBlur stdDeviation="11"/>
<feColorMatrix type="matrix" values="0 0 0 0 0.397708 0 0 0 0 0.47749 0 0 0 0 0.575 0 0 0 0.27 0"/>
<feBlend mode="normal" in2="BackgroundImageFix" result="effect1_dropShadow_55_4512"/>
<feBlend mode="normal" in="SourceGraphic" in2="effect1_dropShadow_55_4512" result="shape"/>
</filter>
<filter id="filter1_d_55_4512" x="0.367676" y="31.2778" width="191.265" height="214.691" filterUnits="userSpaceOnUse" color-interpolation-filters="sRGB">
<feFlood flood-opacity="0" result="BackgroundImageFix"/>
<feColorMatrix in="SourceAlpha" type="matrix" values="0 0 0 0 0 0 0 0 0 0 0 0 0 0 0 0 0 0 127 0" result="hardAlpha"/>
<feOffset dy="11"/>
<feGaussianBlur stdDeviation="11"/>
<feColorMatrix type="matrix" values="0 0 0 0 0.397708 0 0 0 0 0.47749 0 0 0 0 0.575 0 0 0 0.27 0"/>
<feBlend mode="normal" in2="BackgroundImageFix" result="effect1_dropShadow_55_4512"/>
<feBlend mode="normal" in="SourceGraphic" in2="effect1_dropShadow_55_4512" result="shape"/>
</filter>
<filter id="filter2_di_55_4512" x="7.79297" y="178.703" width="118.347" height="128.347" filterUnits="userSpaceOnUse" color-interpolation-filters="sRGB">
<feFlood flood-opacity="0" result="BackgroundImageFix"/>
<feColorMatrix in="SourceAlpha" type="matrix" values="0 0 0 0 0 0 0 0 0 0 0 0 0 0 0 0 0 0 127 0" result="hardAlpha"/>
<feMorphology radius="16" operator="erode" in="SourceAlpha" result="effect1_dropShadow_55_4512"/>
<feOffset dy="24"/>
<feGaussianBlur stdDeviation="15"/>
<feComposite in2="hardAlpha" operator="out"/>
<feColorMatrix type="matrix" values="0 0 0 0 0.588235 0 0 0 0 0.164706 0 0 0 0 0.917647 0 0 0 0.5 0"/>
<feBlend mode="normal" in2="BackgroundImageFix" result="effect1_dropShadow_55_4512"/>
<feBlend mode="normal" in="SourceGraphic" in2="effect1_dropShadow_55_4512" result="shape"/>
<feColorMatrix in="SourceAlpha" type="matrix" values="0 0 0 0 0 0 0 0 0 0 0 0 0 0 0 0 0 0 127 0" result="hardAlpha"/>
<feOffset/>
<feGaussianBlur stdDeviation="20"/>
<feComposite in2="hardAlpha" operator="arithmetic" k2="-1" k3="1"/>
<feColorMatrix type="matrix" values="0 0 0 0 1 0 0 0 0 1 0 0 0 0 1 0 0 0 0.5 0"/>
<feBlend mode="normal" in2="shape" result="effect2_innerShadow_55_4512"/>
</filter>
<linearGradient id="paint0_linear_55_4512" x1="220.618" y1="-5.31172" x2="220.618" y2="232.113" gradientUnits="userSpaceOnUse">
<stop stop-color="#FDFEFF"/>
<stop offset="0.9964" stop-color="#ECF0F5"/>
</linearGradient>
<linearGradient id="paint1_linear_55_4512" x1="69.9306" y1="-28.4143" x2="233.031" y2="283.127" gradientUnits="userSpaceOnUse">
<stop stop-color="#B670D3"/>
<stop offset="0.9964" stop-color="#0F0FF2"/>
</linearGradient>
<clipPath id="clip0_55_4512">
<rect width="22.7555" height="22.7555" fill="white" transform="translate(196.813 56.7329) rotate(11.7573)"/>
</clipPath>
<clipPath id="clip1_55_4512">
<rect width="42" height="42" fill="white" transform="translate(41 208.708) rotate(-13.3649)"/>
</clipPath>
</defs>
</svg>
