<svg width="706" height="701" fill="none" xmlns="http://www.w3.org/2000/svg"><path d="M498.065 547.805a246.498 246.498 0 0 1-387.563-135.298 246.498 246.498 0 0 1 12.205-158.333" stroke="url(#a)" stroke-opacity=".3"/><path d="M215.415 146.987a246.505 246.505 0 0 1 300.337 14.326 246.508 246.508 0 0 1 81.543 136.269 246.509 246.509 0 0 1-18.488 157.723" stroke="url(#b)" stroke-opacity=".3"/><path d="m219.131 99 .822 29.752c.264 9.585 7.972 17.293 17.558 17.558l29.752.821-29.752.822c-9.586.264-17.294 7.972-17.558 17.558l-.822 29.752-.821-29.752c-.265-9.586-7.973-17.294-17.558-17.558L171 147.131l29.752-.821c9.585-.265 17.293-7.973 17.558-17.558L219.131 99z" fill="url(#c)"/><path d="m624.237 439.81-27.403 11.617c-8.828 3.743-13.193 13.731-9.943 22.753l10.088 28.001-11.618-27.402c-3.743-8.828-13.731-13.193-22.752-9.943l-28.002 10.087 27.402-11.617c8.828-3.743 13.194-13.731 9.944-22.753l-10.088-28.001 11.617 27.402c3.743 8.828 13.732 13.193 22.753 9.943l28.002-10.087z" fill="url(#d)"/><path d="m499.813 598.085-1.338-29.734c-.431-9.579-8.272-17.152-17.86-17.25l-29.762-.304 29.733-1.338c9.579-.432 17.152-8.272 17.25-17.861l.304-29.762 1.339 29.734c.431 9.579 8.272 17.152 17.86 17.25l29.762.304-29.733 1.338c-9.579.432-17.152 8.272-17.25 17.861l-.305 29.762z" fill="url(#e)"/><path d="m172.047 249.832-29.475 4.131c-9.496 1.331-16.297 9.85-15.492 19.405l2.499 29.658-4.132-29.475c-1.331-9.496-9.85-16.297-19.405-15.492l-29.658 2.499 29.475-4.131c9.496-1.332 16.297-9.85 15.492-19.405l-2.499-29.659 4.132 29.476c1.331 9.496 9.85 16.297 19.405 15.491l29.658-2.498z" fill="url(#f)"/><circle cx="353" cy="351" r="134.5" stroke="url(#g)" stroke-opacity=".3"/><path d="M335.5 326.5a6.999 6.999 0 0 0-7 7v35a6.999 6.999 0 0 0 7 7h14.77l.742-2.957a11.16 11.16 0 0 1 2.94-5.198l2.345-2.345h-5.047c-.464 0-.909-.184-1.237-.513a1.746 1.746 0 0 1 0-2.474 1.746 1.746 0 0 1 1.237-.513h8.55l11.057-11.06a10.012 10.012 0 0 1 6.643-2.926V333.5a7.003 7.003 0 0 0-7-7h-35zm8.75 14.875a2.626 2.626 0 1 1-5.252-.001 2.626 2.626 0 0 1 5.252.001zm-2.625 13.125a2.626 2.626 0 1 1 .001-5.252 2.626 2.626 0 0 1-.001 5.252zm2.625 7.875a2.626 2.626 0 1 1-5.252-.001 2.626 2.626 0 0 1 5.252.001zm7-21.875h14c.464 0 .909.184 1.237.513a1.746 1.746 0 0 1 0 2.474 1.746 1.746 0 0 1-1.237.513h-14c-.464 0-.909-.184-1.237-.513a1.746 1.746 0 0 1 0-2.474 1.746 1.746 0 0 1 1.237-.513zm-1.75 12.25c0-.464.184-.909.513-1.237a1.746 1.746 0 0 1 1.237-.513h14c.464 0 .909.184 1.237.513a1.746 1.746 0 0 1 0 2.474 1.746 1.746 0 0 1-1.237.513h-14c-.464 0-.909-.184-1.237-.513a1.746 1.746 0 0 1-.513-1.237zm6.93 17.069 16.905-16.905a6.562 6.562 0 0 1 2.124-1.418 6.544 6.544 0 0 1 9.049 6.051 6.544 6.544 0 0 1-1.919 4.628l-16.905 16.902a7.698 7.698 0 0 1-3.57 2.023l-5.243 1.309a3.108 3.108 0 0 1-2.955-.819 3.115 3.115 0 0 1-.821-2.954l1.312-5.243a7.632 7.632 0 0 1 2.023-3.57v-.004z" fill="#8FC2F6"/><defs><linearGradient id="a" x1="344.309" y1="2" x2="698.551" y2="346.308" gradientUnits="userSpaceOnUse"><stop stop-color="#0A4392"/><stop offset="1" stop-color="#0C90D1"/></linearGradient><linearGradient id="b" x1="351.309" y1="0" x2="705.551" y2="344.308" gradientUnits="userSpaceOnUse"><stop stop-color="#0A4392"/><stop offset="1" stop-color="#0C90D1"/></linearGradient><linearGradient id="c" x1="206.2" y1="122.653" x2="219.131" y2="195.263" gradientUnits="userSpaceOnUse"><stop stop-color="#78CFF4"/><stop offset="1" stop-color="#B9A6F9"/></linearGradient><linearGradient id="d" x1="597.496" y1="436.397" x2="534.607" y2="474.923" gradientUnits="userSpaceOnUse"><stop stop-color="#78CFF4"/><stop offset="1" stop-color="#B9A6F9"/></linearGradient><linearGradient id="e" x1="512.332" y1="574.21" x2="498.14" y2="501.836" gradientUnits="userSpaceOnUse"><stop stop-color="#78CFF4"/><stop offset="1" stop-color="#B9A6F9"/></linearGradient><linearGradient id="f" x1="147.1" y1="239.616" x2="76.384" y2="260.558" gradientUnits="userSpaceOnUse"><stop stop-color="#78CFF4"/><stop offset="1" stop-color="#B9A6F9"/></linearGradient><linearGradient id="g" x1="218" y1="216" x2="488" y2="216" gradientUnits="userSpaceOnUse"><stop stop-color="#0A4392"/><stop offset="1" stop-color="#0C90D1"/></linearGradient></defs></svg>