<svg width="214" height="213" viewBox="0 0 214 213" fill="none" xmlns="http://www.w3.org/2000/svg">
<g filter="url(#filter0_di_55_4466)">
<path d="M52.7167 99.3475C44.0335 75.3447 39.6919 63.3434 44.451 53.1891C49.2102 43.0349 61.2116 38.6933 85.2143 30.0101L90.1418 28.2275C114.145 19.5442 126.146 15.2026 136.3 19.9618C146.454 24.7209 150.796 36.7223 159.479 60.725L161.262 65.6525C169.945 89.6553 174.287 101.657 169.527 111.811C164.768 121.965 152.767 126.307 128.764 134.99L123.837 136.773C99.834 145.456 87.8326 149.797 77.6784 145.038C67.5242 140.279 63.1825 128.278 54.4993 104.275L52.7167 99.3475Z" fill="url(#paint0_linear_55_4466)"/>
<path d="M52.7167 99.3475C44.0335 75.3447 39.6919 63.3434 44.451 53.1891C49.2102 43.0349 61.2116 38.6933 85.2143 30.0101L90.1418 28.2275C114.145 19.5442 126.146 15.2026 136.3 19.9618C146.454 24.7209 150.796 36.7223 159.479 60.725L161.262 65.6525C169.945 89.6553 174.287 101.657 169.527 111.811C164.768 121.965 152.767 126.307 128.764 134.99L123.837 136.773C99.834 145.456 87.8326 149.797 77.6784 145.038C67.5242 140.279 63.1825 128.278 54.4993 104.275L52.7167 99.3475Z" fill="#0270F1"/>
<path d="M52.7167 99.3475C44.0335 75.3447 39.6919 63.3434 44.451 53.1891C49.2102 43.0349 61.2116 38.6933 85.2143 30.0101L90.1418 28.2275C114.145 19.5442 126.146 15.2026 136.3 19.9618C146.454 24.7209 150.796 36.7223 159.479 60.725L161.262 65.6525C169.945 89.6553 174.287 101.657 169.527 111.811C164.768 121.965 152.767 126.307 128.764 134.99L123.837 136.773C99.834 145.456 87.8326 149.797 77.6784 145.038C67.5242 140.279 63.1825 128.278 54.4993 104.275L52.7167 99.3475Z" fill="url(#paint1_radial_55_4466)"/>
</g>
<g clip-path="url(#clip0_55_4466)">
<path d="M123.545 71.3584L125.842 90.0569C125.894 90.4466 125.809 90.8424 125.601 91.176C125.393 91.5097 125.075 91.7604 124.702 91.8851L94.2206 102.832C93.8536 102.973 93.4489 102.981 93.0761 102.856C92.7034 102.731 92.3859 102.48 92.1784 102.146L82.1818 86.2127C82.0131 85.9434 81.9238 85.632 81.924 85.3143C81.9243 84.9965 82.0141 84.6852 82.1832 84.4162C82.3526 84.1462 82.595 83.9297 82.8823 83.7916C83.1695 83.6535 83.49 83.5994 83.8067 83.6356L94.7144 84.8013L97.5238 68.418C97.5747 68.1233 97.7027 67.8474 97.895 67.6184C98.0873 67.3894 98.3369 67.2155 98.6183 67.1144C98.8997 67.0134 99.2029 66.9888 99.4969 67.0431C99.791 67.0975 100.065 67.2289 100.292 67.4239L112.888 78.2927L120.614 70.3993C120.834 70.1584 121.118 69.986 121.433 69.9029C121.748 69.8198 122.08 69.8295 122.39 69.9308C122.7 70.0321 122.973 70.2208 123.178 70.474C123.383 70.7273 123.511 71.0344 123.545 71.3584Z" fill="white"/>
</g>
<defs>
<filter id="filter0_di_55_4466" x="0.489258" y="0" width="213" height="213" filterUnits="userSpaceOnUse" color-interpolation-filters="sRGB">
<feFlood flood-opacity="0" result="BackgroundImageFix"/>
<feColorMatrix in="SourceAlpha" type="matrix" values="0 0 0 0 0 0 0 0 0 0 0 0 0 0 0 0 0 0 127 0" result="hardAlpha"/>
<feMorphology radius="23" operator="erode" in="SourceAlpha" result="effect1_dropShadow_55_4466"/>
<feOffset dy="24"/>
<feGaussianBlur stdDeviation="32.5"/>
<feComposite in2="hardAlpha" operator="out"/>
<feColorMatrix type="matrix" values="0 0 0 0 0.588235 0 0 0 0 0.164706 0 0 0 0 0.917647 0 0 0 0.22 0"/>
<feBlend mode="normal" in2="BackgroundImageFix" result="effect1_dropShadow_55_4466"/>
<feBlend mode="normal" in="SourceGraphic" in2="effect1_dropShadow_55_4466" result="shape"/>
<feColorMatrix in="SourceAlpha" type="matrix" values="0 0 0 0 0 0 0 0 0 0 0 0 0 0 0 0 0 0 127 0" result="hardAlpha"/>
<feOffset/>
<feGaussianBlur stdDeviation="30.5"/>
<feComposite in2="hardAlpha" operator="arithmetic" k2="-1" k3="1"/>
<feColorMatrix type="matrix" values="0 0 0 0 1 0 0 0 0 1 0 0 0 0 1 0 0 0 0.7 0"/>
<feBlend mode="normal" in2="shape" result="effect2_innerShadow_55_4466"/>
</filter>
<linearGradient id="paint0_linear_55_4466" x1="168.823" y1="140.465" x2="37.5201" y2="39.3692" gradientUnits="userSpaceOnUse">
<stop stop-color="#0B85DA"/>
<stop offset="1" stop-color="#03C3FF"/>
</linearGradient>
<radialGradient id="paint1_radial_55_4466" cx="0" cy="0" r="1" gradientUnits="userSpaceOnUse" gradientTransform="translate(25.1352 34.1144) rotate(24.9483) scale(216.714 169.61)">
<stop offset="0.03125" stop-color="#D83575"/>
<stop offset="0.591558" stop-color="#7E03F4"/>
<stop offset="1" stop-color="#1010F2"/>
</radialGradient>
<clipPath id="clip0_55_4466">
<rect width="54.0921" height="54.0921" fill="white" transform="translate(69.502 65.9087) rotate(-19.7541)"/>
</clipPath>
</defs>
</svg>
