<svg width="56" height="56" viewBox="0 0 56 56" fill="none" xmlns="http://www.w3.org/2000/svg">
<g clip-path="url(#clip0_55_4904)">
<path d="M41.9154 37.9253L34.418 36.5242L34.5279 38.3661C34.6431 40.3133 34.1546 42.2486 33.1292 43.908C32.1039 45.5673 30.5914 46.8698 28.7984 47.6378C28.0612 47.954 27.2626 48.1014 26.4611 48.0692C25.6596 48.037 24.8755 47.826 24.166 47.4517C23.4566 47.0773 22.8398 46.5491 22.3609 45.9056C21.8819 45.2621 21.5529 44.5197 21.3978 43.7327L20.9245 41.3272C20.2435 37.9245 18.986 34.6631 17.2062 31.6841C15.7762 32.4608 14.1235 32.7249 12.5226 32.4324C10.6456 32.0816 8.98475 30.9996 7.90551 29.4242C6.82627 27.8489 6.41702 25.9094 6.76781 24.0323L9.41307 9.87738C9.68309 8.39 10.4159 7.02589 11.5071 5.97963C12.5982 4.93337 13.9918 4.25841 15.4892 4.05104C16.9866 3.84366 18.5113 4.11446 19.8457 4.82481C21.1801 5.53516 22.2561 6.64877 22.9201 8.00678C25.1213 6.5334 27.8134 5.98423 30.4158 6.4777L40.9518 8.44666C42.1543 8.66788 43.3011 9.12551 44.3255 9.79306C45.3499 10.4606 46.2317 11.3248 46.9198 12.3355C48.4165 14.5073 49.4675 16.9543 50.012 19.535C50.5566 22.1157 50.5837 24.7788 50.0919 27.3701L49.0303 33.051C48.7314 34.6399 47.8145 36.0454 46.4807 36.9592C45.1469 37.873 43.505 38.2205 41.9154 37.9253ZM16.9314 8.84085C16.3057 8.72392 15.6592 8.86033 15.1341 9.22008C14.609 9.57983 14.2483 10.1334 14.1314 10.7591L11.4861 24.9141C11.3692 25.5398 11.5056 26.1863 11.8654 26.7114C12.2251 27.2365 12.7787 27.5972 13.4044 27.7141C14.0301 27.831 14.6766 27.6946 15.2017 27.3349C15.7268 26.9751 16.0875 26.4215 16.2044 25.7958L18.8497 11.6409C18.9666 11.0152 18.8302 10.3687 18.4705 9.84358C18.1107 9.31847 17.5571 8.95778 16.9314 8.84085ZM45.3736 26.4884C45.7474 24.5169 45.7265 22.491 45.3122 20.5277C44.8979 18.5644 44.0985 16.7027 42.9601 15.0504C42.6269 14.5608 42.1998 14.1423 41.7036 13.819C41.2075 13.4958 40.652 13.2743 40.0696 13.1673L29.5336 11.1984C28.8397 11.0668 28.1266 11.0741 27.4355 11.2198C26.7444 11.3656 26.0891 11.647 25.5075 12.0476L23.3855 13.4993L20.9228 26.6776C20.8375 27.1166 20.7114 27.5467 20.546 27.9622C23.0218 31.7404 24.749 35.9588 25.6339 40.3883L26.113 42.8022C26.1282 42.8878 26.163 42.9687 26.2148 43.0386C26.2666 43.1084 26.3339 43.1653 26.4113 43.2047C26.4883 43.2447 26.5732 43.2673 26.6598 43.2709C26.7465 43.2744 26.8329 43.2588 26.9129 43.2252C27.7964 42.8469 28.5417 42.2052 29.0471 41.3878C29.5525 40.5703 29.7933 39.6168 29.7369 38.6574L29.4338 33.747C29.4112 33.382 29.4723 33.0166 29.6125 32.6789C29.7527 32.3411 29.9682 32.0399 30.2425 31.7981C30.5169 31.5564 30.8429 31.3805 31.1956 31.284C31.5483 31.1875 31.9184 31.1728 32.2777 31.2411L42.7972 33.207C43.1356 33.2696 43.485 33.1955 43.7689 33.001C44.0529 32.8065 44.2481 32.5074 44.312 32.1692L45.3736 26.4884Z" fill="white"/>
</g>
<defs>
<clipPath id="clip0_55_4904">
<rect width="48" height="48" fill="white" transform="matrix(0.982983 0.183699 0.183699 -0.982983 0 47.183)"/>
</clipPath>
</defs>
</svg>
