<svg width="111" height="117" fill="none" xmlns="http://www.w3.org/2000/svg"><g clip-path="url(#a)"><path d="M110.541 0H0v117h110.541V0z" fill="#D71A21"/><path d="M60.14 29.012a5.164 5.164 0 0 0-1.082 3.145v9.873a3.704 3.704 0 0 1-.799 2.036c-.258.258-1.779 1.624-1.907 1.779l.85.025c.284-.257 3.222-2.86 3.506-3.222a5.048 5.048 0 0 0 1.34-3.403V29.76a3.638 3.638 0 0 1 1.006-2.603c.36-.387 1.495-1.34 1.701-1.573l-.902-.025c-.18.232-3.403 3.145-3.712 3.454zM52.898 64.92l3.583 3.119h2.398a8.681 8.681 0 0 0 6.135-2.526c1.47-1.47 2.01-3.454 2.01-5.31v-5.13a4.167 4.167 0 0 0-1.391-3.042c-.155-.155-1.212-1.16-1.212-1.16v3.944s1.16 1.186 1.366 1.418c1.057 1.134 1.057 3.196-2.32 6.47-.593.567-2.268 2.165-4.588 2.165l-5.98.052z" fill="#fff"/><path d="M62.87 43.86c-.386.412-.773 1.443-.773 2.371v1.934h1.959c.773 0 1.779-.696 1.985-1.057v-1.934c.283.413.644.8 1.057 1.109.206-.258 2.01-2.423 3.505-2.45 2.5-.025 1.934 3.146.928 4.151-.335.335-1.804 1.676-2.268 2.114-1.186 1.134-3.222.593-3.222-2.32 0 0-2.165 2.062-2.5 2.346-.336.283-1.444 1.469-1.444 1.469v5.13c0 2.449-.8 3.273-1.47 4.021-.257.284-3.015 2.81-3.402 3.093l-.902.026s1.624-1.47 1.933-1.804c.36-.387.8-1.16.8-2.45 0-.334-.052-8.042-.052-8.042h-12.58c-4.382 0-5.31-4.846-5.336-6.16v-4.873c0-.799-.516-2.14-1.315-2.552h1.238c.154.052.928.361.928 3.352 0 0-.052 3.454-.052 3.66 0 1.52 1.212 3.248 2.939 3.248l14.23-.026c0-.386.386-1.83 1.082-2.603.386-.439 3.454-3.223 3.79-3.506h.901c-.129.129-1.624 1.443-1.933 1.804l-.026-.051zm4.666 2.913c.36.49.773.98 1.212 1.417 1.546 1.238 2.268-.103 1.237-1.495-.413-.567-1.985-.412-2.45.078z" fill="#fff"/><path d="M52.279 55.95c0 .695-2.191 2.525-2.32 2.629-.155-.748-.722-1.547-2.346-3.197l2.398-2.397c1.624 1.624 2.268 1.985 2.268 2.964zM56.454 28.393c.49.49 1.521 1.779.903 2.423a170.5 170.5 0 0 0-1.392 1.418c-.052-.31-.851-1.083-.851-1.083v2.604c-.026 1.057-.412 1.34-.412 1.34s1.933 1.908 1.933 4.382v2.527c.026.464-.155.953-.49 1.288-.18.207-1.959 2.011-2.242 2.243-.413.361-.928.567-1.47.542h-6.676c-1.057 0-2.14-.825-2.14-1.65 0-.206.026-2.475.026-2.475.335.387.696.85 1.52.85.671 0 1.341-.515 1.522-.721.18-.206 5.052-5.259 5.052-5.259s-2.268-2.113-3.763-3.119c-.722-.49-1.702.13-1.856.774-.464 2.01 0 5.052 0 5.052l-1.83-1.83c-.748-.748-.722-2.423.18-3.3.129-.154 1.495-1.65 3.196-1.65h2.655c1.779 0 3.738 1.78 3.738 1.78a1.14 1.14 0 0 0 .284-.62c0-.928-.026-3.376-.026-3.376-1.34-1.34-1.521-2.733-.877-3.377 1.212-1.212 1.65-1.624 1.65-1.624s-.051 1.47 1.366 2.861zm-8.377 13.404c-.67.696-.774.851-1.392 1.238h7.527c2.036 0 1.624-1.263 1.263-1.908-.748-1.315-3.12-3.738-3.12-3.738s-4.15 4.28-4.278 4.408z" fill="#fff"/><path d="M39.495 48.654h-1.237s1.314.722 1.314 2.604v6.006c0 3.892 3.223 7.501 7.14 7.501h3.275c1.959 0 2.655-.464 3.84-1.52.439-.387 1.006-1.032 1.212-1.264.67-.773 1.418-1.392 1.418-3.402v-1.96c0-1.7-.98-2.397-1.47-2.886-.309-.31-1.134-1.109-1.134-1.109v4.021s.825.877 1.186 1.16c1.701 1.34.36 3.66-1.237 3.66H46.61c-2.63.052-6.213-2.293-6.213-6.263v-3.248c.026-3.3-.902-3.3-.902-3.3z" fill="#fff"/><path d="M47.385 55.975c0 .696-2.192 2.526-2.32 2.63-.155-.748-.722-1.547-2.346-3.197l2.397-2.397c1.598 1.598 2.269 1.959 2.269 2.964zM22.248 82.655H18.38c-1.211 0-1.108-1.005-1.237-1.856v-5.517s.85-.025 1.804-.025c1.057 0 2.398-.155 3.686.567a3.923 3.923 0 0 0-3.686-2.243H17.17v-1.779s0-1.546-.387-1.984h2.552c2.191 0 3.892-.026 5.671 1.134 0 0-.335-2.913-4.588-2.913h-8.3s1.443 1.237 1.391 3.738l.052 10.053c0 2.526 1.005 2.604 1.005 2.604h8.172c1.856 0 2.5-1.315 2.5-2.037l.026-.954s-.593 1.212-3.016 1.212zM44.005 81.804v-7.037c0-2.732-2.217-3.454-3.893-3.454-2.191 0-2.861 1.83-3.145 2.474-.49-1.7-2.217-2.474-3.609-2.474-2.655 0-3.325 2.526-3.325 2.526s-.052-2.449-2.191-2.449h-2.088s1.211.49 1.211 2.604v7.81c0 2.578 1.032 2.63 1.032 2.63h3.454a3.309 3.309 0 0 1-1.315-2.655v-6.935c.052-.309.567-1.34 2.037-1.34.85 0 1.778.876 1.752 1.856v6.444c0 2.604 1.032 2.63 1.032 2.63h3.454c-.825-.645-1.315-1.599-1.315-2.655v-6.935a1.945 1.945 0 0 1 3.79.542v6.418c.025 2.63 1.03 2.604 1.03 2.604h3.455a3.298 3.298 0 0 1-1.367-2.604zM50.038 81.804c0 1.031.49 2.01 1.315 2.63H47.9s-1.057.025-1.057-2.604v-7.862c0-2.062-1.186-2.604-1.186-2.604h2.088c.748 0 2.269 0 2.269 2.913v7.476l.025.051zM60.655 72.37s-.335-.928-1.753-.928c-2.165 0-2.68 2.578-2.68 2.578-.181-2.037-.723-2.63-2.243-2.63H51.89s1.211.49 1.211 2.604v7.81c0 2.578 1.031 2.63 1.031 2.63h3.454a3.296 3.296 0 0 1-1.314-2.63v-6.418a1.846 1.846 0 0 1 .85-1.315c1.16-.773 2.681-.541 3.584.516l-.052-2.217zM76.712 72.834c.722 0 1.418.18 2.037.515V71.39h-2.887V68.4a11.139 11.139 0 0 1-2.32 2.603c-.98.8-3.042 1.805-3.042 1.805l2.191.026v9.073c0 2.527 1.057 2.527 1.057 2.527h3.428a3.249 3.249 0 0 1-1.34-2.552v-9.048h.876zM87.183 76.778c-1.933 2.01-3.454 1.701-4.666 3.196 0 0 .207 2.01 1.728 2.707.515.232 2.655 1.005 4.02-1.367v2.114s-.876 1.031-3.685 1.031c-3.377 0-5.697-2.655-5.697-6.264 0-3.557 1.882-6.83 5.465-6.856 3.48-.052 5.387 2.784 2.835 5.439zm-2.114-.825c.568-1.057 1.031-3.738-.928-3.583-2.268.18-1.83 6.186-1.83 6.186.748-.825 1.882-1.005 2.758-2.603zM48.438 70.333a1.596 1.596 0 0 0 1.547-1.598 1.596 1.596 0 0 0-1.599-1.547c-.85.026-1.546.722-1.546 1.573 0 .876.722 1.572 1.598 1.572zM64.24 82.939c-.774 0-1.34-.825-1.34-1.65 0-3.248 2.654-3.712 3.376-4.563v5.49c-.335.259-.644.723-2.036.723zm2.036-7.476c-.799 1.392-7.037 1.701-6.083 6.522.386 1.907 1.65 2.475 3.248 2.475 1.546 0 2.5-.8 2.887-1.573.232 1.444.98 1.547.98 1.547h3.453c-.824-.619-1.34-1.573-1.34-2.604v-7.346c0-1.753-1.933-3.12-3.996-3.12a5.5 5.5 0 0 0-3.222.954v2.269s.722-1.805 2.5-1.805c1.754 0 1.882.877 1.882 1.315.026.464-.051.954-.309 1.366zM94.814 80.876c.025.928-.8 2.14-2.552 2.14-1.805 0-2.527-1.83-2.527-1.83v2.32a6.11 6.11 0 0 0 3.274.928c2.346 0 4.743-1.779 4.692-4.28a3.968 3.968 0 0 0-.8-2.268c-.798-1.057-2.242-1.804-3.376-2.5-.645-.387-.98-1.109-.98-1.34-.026-.439.206-1.315 1.933-1.315 1.702 0 2.45 1.804 2.45 1.804v-2.19a5.752 5.752 0 0 0-3.3-1.032c-2.062 0-3.944 1.366-3.893 3.12.026 1.546.67 2.525 1.934 3.48.567.412 1.16.772 1.778 1.108.98.54 1.34 1.211 1.367 1.855z" fill="#fff"/></g><defs><clipPath id="a"><path fill="#fff" d="M0 0h110.541v117H0z"/></clipPath></defs></svg>