<svg width="520" height="714" viewBox="0 0 520 714" fill="none" xmlns="http://www.w3.org/2000/svg">
<g opacity="0.52">
<g filter="url(#filter0_f_5860_5725)">
<path d="M116 576.001C164.601 576.001 204 525.633 204 463.501C204 401.369 164.601 351.001 116 351.001C67.3989 351.001 28 401.369 28 463.501C28 525.633 67.3989 576.001 116 576.001Z" fill="#BA53F9" fill-opacity="0.36"/>
</g>
<path d="M226.9 573.341H199.43L191.97 536.081C181.27 558.441 168.68 578.001 130.02 578.001C60.16 578.001 35 514.181 35 421.951C35 350.231 51.77 258.001 136.55 258.001C211.55 258.001 223.18 328.331 226.45 363.271L173.81 373.051C168.68 338.581 164.96 313.431 137.01 313.431C120.71 313.431 113.25 321.351 108.14 335.321C101.14 355.821 100.68 400.521 100.68 425.221C100.68 499.741 110.46 522.571 137.48 522.571C155.64 522.571 171.01 514.651 171.48 461.091H132.82V409.391H226.91V573.341H226.9ZM237.15 262.661H300.96V516.061H379.68V573.341H237.15V262.661ZM463.27 455.961L480.04 370.261C483.76 351.161 485.62 333.921 487.49 320.881C488.89 348.831 491.21 360.481 494.01 373.051L511.25 455.961H463.27V455.961ZM458.61 262.661L387.34 573.331H444.64L456.74 506.261H518.23L530.8 573.331H595.08L524.75 262.651H458.6L458.61 262.661ZM600.2 262.661H687.76L711.52 393.551C717.12 422.421 719.44 454.561 721.3 482.521C723.63 448.511 730.62 403.801 734.35 387.021L760.9 262.661H846.6V573.341H785.58V396.341C785.58 376.311 786.05 363.271 788.84 302.241C786.04 322.281 778.6 377.241 775.34 393.541L737.6 573.341H697.54L661.22 390.751C657.02 369.331 652.37 331.591 649.11 302.251C649.58 326.471 650.97 364.661 650.97 388.891V573.341H600.2V262.661Z" fill="#E2007A" fill-opacity="0.3"/>
<g filter="url(#filter1_f_5860_5725)">
<path d="M239.773 489.376C274.438 543.725 382.671 530.482 481.517 459.798C580.363 389.114 632.392 287.755 597.726 233.407C563.061 179.058 454.828 192.301 355.982 262.985C257.136 333.669 205.107 435.028 239.773 489.376Z" fill="#BA53F9" fill-opacity="0.36"/>
</g>
</g>
<defs>
<filter id="filter0_f_5860_5725" x="-171" y="152.001" width="574" height="623" filterUnits="userSpaceOnUse" color-interpolation-filters="sRGB">
<feFlood flood-opacity="0" result="BackgroundImageFix"/>
<feBlend mode="normal" in="SourceGraphic" in2="BackgroundImageFix" result="shape"/>
<feGaussianBlur stdDeviation="99.5" result="effect1_foregroundBlur_5860_5725"/>
</filter>
<filter id="filter1_f_5860_5725" x="30.0332" y="0.939941" width="777.432" height="720.903" filterUnits="userSpaceOnUse" color-interpolation-filters="sRGB">
<feFlood flood-opacity="0" result="BackgroundImageFix"/>
<feBlend mode="normal" in="SourceGraphic" in2="BackgroundImageFix" result="shape"/>
<feGaussianBlur stdDeviation="99.5" result="effect1_foregroundBlur_5860_5725"/>
</filter>
</defs>
</svg>
