<svg width="99" height="101" fill="none" xmlns="http://www.w3.org/2000/svg"><g clip-path="url(#a)"><path d="M30.394 83.99V93.4c0 2.672-1.326 4.098-3.735 4.098-2.424 0-3.758-1.467-3.758-4.212V84h-3.333v9.398c0 4.624 2.568 7.274 7.047 7.274 4.52 0 7.113-2.7 7.113-7.41V83.99h-3.334zm12.266 0-7.24 16.427h3.402l1.398-3.181.1-.239h7.522l1.475 3.42h3.495l-7.173-16.33-.065-.097H42.66zm19.821 0-3.73 11.303-3.633-11.294h-3.547l5.727 16.428h2.76l3.739-10.792 3.735 10.792h2.785l5.712-16.428h-3.457l-3.64 11.294-3.731-11.303h-2.72zm32.624 0v16.413h3.29V83.99h-3.29zm-94.359.001v16.435h3.335v-6.675h7.53v6.675h3.335V83.991H11.61v6.63H4.08v-6.63H.747zm77.972.011v16.413h12.411v-2.993h-9.121v-4.069h6.065V90.36h-6.065v-3.365h8.803v-2.993H78.718zM44.072 88.15l2.377 5.502h-.008l.162.38h-5.044l.16-.38h-.003l2.356-5.502z" fill="#FEFEFE"/><path d="M42.271-.001c-1.322.117-4.897.93-4.897.93h-.001c-8.056 2.083-9.96 9.394-9.96 9.394-.394 1.23-.573 2.49-.625 3.676v1.616c.107 2.496.662 4.36.662 4.36 2.69 11.932 15.922 31.54 18.766 35.658.202.2.363.128.363.128.307-.085.283-.379.283-.379l.006.002c4.38-43.78-4.597-55.385-4.597-55.385zm14.473 0s-9.016 11.61-4.633 55.416h.006c.034.278.231.336.231.336.294.114.444-.168.444-.168l.001.003c2.917-4.224 16.073-23.725 18.753-35.612 0 0 1.452-5.753.05-9.651 0 0-1.992-7.425-10.058-9.387 0 0-2.325-.59-4.794-.937zM15.157 13.142s-7.676 7.285-8.058 15.01h.003v1.17l.016.267c.33 6.228 5.016 9.915 5.016 9.915 7.55 7.357 25.83 16.647 30.077 18.754.06.023.28.094.408-.069 0 0 .067-.05.098-.142v-.194c-.003-.01-.01-.022-.015-.034h.002C31.07 32.407 15.157 13.14 15.157 13.14zm68.683 0S67.974 32.346 56.346 57.707l.005-.001s-.138.294.084.483c0 0 .066.05.158.07h.161a.304.304 0 0 0 .09-.04v.003c4.364-2.165 22.502-11.394 30.016-18.717 0 0 4.758-3.821 5.007-9.957.55-8.52-8.027-16.406-8.027-16.406zM98.12 38.37S72.253 52.25 58.88 61.273v.001l.004.003s-.243.159-.158.444c0 0 .127.23.312.23v.001c4.79.008 22.917.029 23.371-.056 0 0 2.344-.094 5.24-1.206 0 0 6.448-2.05 9.797-9.37 0 0 1.53-3.062 1.553-7.362v-.182a17.472 17.472 0 0 0-.88-5.406zm-97.25.064c-2.354 7.286.815 13.157.82 13.166 3.301 6.976 9.604 9.09 9.604 9.09 2.91 1.196 5.82 1.278 5.82 1.278.455.084 18.099.009 22.826-.014.2-.001.31-.202.31-.202a.259.259 0 0 0 .032-.065v-.182c-.039-.122-.143-.208-.143-.208l.003-.002C26.774 52.278.87 38.436.87 38.436zm38.53 25.76L8.973 65.262c3.3 5.883 8.857 10.454 14.646 9.05 3.995-.998 13.046-7.311 16.034-9.445l-.01-.008c.232-.209.15-.376.15-.376-.077-.273-.391-.273-.391-.273v-.015zm20.154.023-.003.01s-.267.035-.342.235c0 0-.065.273.115.409l-.003.003c2.913 2.089 11.745 8.263 16 9.462 0 0 .644.22 1.724.258h.65c2.85-.1 7.816-1.564 12.328-9.317l-30.469-1.06z" fill="#CF0A2C"/></g><defs><clipPath id="a"><path fill="#fff" d="M0 0h99v100.673H0z"/></clipPath></defs></svg>