<svg width="270" height="40" fill="none" xmlns="http://www.w3.org/2000/svg"><path d="M104.039 6.642v10.05h-11.39V6.641h-6.278v26.37h6.278V22.409h11.39v10.603h6.279V6.642h-6.279zM133.32 6.642l-6.566 10.443-6.558-10.443h-7.407l10.837 17.236v9.134h6.271v-9.134l10.837-17.236h-7.414zM160.914 6.642v19.326a1.3 1.3 0 0 1-1.333 1.326h-10.057V6.642h-6.278v26.37h18.547c1.651 0 2.976-.493 3.946-1.455.961-.969 1.446-2.294 1.446-3.938V6.642h-6.271zM191.547 6.642H173v26.37h6.271v-20.66h10.072c.81 0 1.325.636 1.325 1.317v19.343h6.271V12.034c0-1.651-.492-2.977-1.447-3.938-.977-.97-2.294-1.454-3.945-1.454zM221.305 6.642h-18.547v26.37h18.547c1.651 0 2.968-.493 3.93-1.455.97-.97 1.454-2.294 1.454-3.938V12.034c0-1.651-.485-2.977-1.454-3.938-.962-.97-2.287-1.454-3.93-1.454zm-.886 7.073V25.93c0 .712-.515 1.364-1.333 1.364h-10.065V12.352h10.019c.826 0 1.379.575 1.379 1.363zM237.627 6.642c-1.644 0-2.976.484-3.938 1.454-.97.97-1.447 2.294-1.447 3.938v20.978h6.256v-8.157h11.397v8.157h6.271V6.642h-18.539zm12.268 5.71v6.793h-11.397v-5.453c0-.65.507-1.34 1.34-1.34h10.057zM262.266 33.012h6.278V6.642h-6.278v26.37zM37.32 38.191c19.811 0 35.874-8.224 35.874-18.365 0-10.148-16.063-18.372-35.874-18.372-19.804 0-35.867 8.224-35.867 18.372 0 10.14 16.063 18.365 35.867 18.365zm6.755-9.012c-.598 1.386-1.628 4.347-3.99 5.529-.72.356-1.607.522-2.394.553h-.364c-6.619 0-12.783-.925-17.94-2.492-.04-.017-.16-.06-.198-.076-.477-.159-.72-.379-.72-.651 0-.235.13-.417.296-.583.076-.069.182-.16.326-.288 1.197-.992 4.779-3.59 11.534-6.18 2.37-.901 5.34-2.03 8.444-2.689 1.818-.378 8.573-1.416 5.006 6.877zm18.123-18.517c.128-.22.295-.408.605-.424.167-.016.395.022.743.242 4.21 2.59 6.71 5.832 6.71 9.338 0 6.331-8.142 11.777-19.79 14.154-.741.152-1.241.145-1.408-.043-.12-.114-.151-.319 0-.568.068-.129.152-.243.31-.432 6.34-7.475 11.171-18.502 12.542-21.683.106-.22.204-.439.288-.582v-.002zm-31.52-.233c.598-1.386 1.628-4.347 3.991-5.521.72-.356 1.606-.53 2.393-.553.182-.005.31 0 .357 0 6.626 0 12.783.916 17.948 2.492.038.016.159.06.197.075.477.16.72.38.72.652 0 .234-.13.409-.296.575a5.658 5.658 0 0 1-.326.288c-1.189 1-4.779 3.59-11.534 6.18-2.378.909-5.339 2.03-8.436 2.688-1.825.387-8.58 1.417-5.014-6.876zm-6.505-4.764c.75-.144 1.242-.144 1.424.044.106.121.136.319-.006.568a2.66 2.66 0 0 1-.31.425c-6.34 7.482-11.17 18.501-12.55 21.69-.098.22-.204.439-.287.582-.122.22-.295.41-.599.425-.166.016-.4-.033-.75-.242-4.21-2.59-6.71-5.832-6.71-9.338 0-6.331 8.142-11.777 19.79-14.155" fill="#fff"/></svg>