<svg width="65" height="65" viewBox="0 0 65 65" fill="none" xmlns="http://www.w3.org/2000/svg">
<path d="M60.9375 44.6875V52.8125C60.9375 54.4287 60.2955 55.9786 59.1527 57.1214C58.0099 58.2642 56.4599 58.9062 54.8438 58.9062H42.6562C41.0401 58.9062 39.4901 58.2642 38.3473 57.1214C37.2045 55.9786 36.5625 54.4287 36.5625 52.8125V44.6875C36.5625 43.0713 37.2045 41.5214 38.3473 40.3786C39.4901 39.2358 41.0401 38.5938 42.6562 38.5938H48.75C48.75 38.055 48.536 37.5384 48.1551 37.1574C47.7741 36.7765 47.2575 36.5625 46.7188 36.5625H18.2812C17.7425 36.5625 17.2259 36.7765 16.8449 37.1574C16.464 37.5384 16.25 38.055 16.25 38.5938H22.3438C23.9599 38.5938 25.5099 39.2358 26.6527 40.3786C27.7955 41.5214 28.4375 43.0713 28.4375 44.6875V52.8125C28.4375 54.4287 27.7955 55.9786 26.6527 57.1214C25.5099 58.2642 23.9599 58.9062 22.3438 58.9062H10.1562C8.54009 58.9062 6.99012 58.2642 5.84732 57.1214C4.70452 55.9786 4.0625 54.4287 4.0625 52.8125V44.6875C4.0625 43.0713 4.70452 41.5214 5.84732 40.3786C6.99012 39.2358 8.54009 38.5938 10.1562 38.5938H12.1875C12.1875 36.9776 12.8295 35.4276 13.9723 34.2848C15.1151 33.142 16.6651 32.5 18.2812 32.5H30.4688V26.4062H26.4062C24.7901 26.4062 23.2401 25.7642 22.0973 24.6214C20.9545 23.4786 20.3125 21.9287 20.3125 20.3125V12.1875C20.3125 10.5713 20.9545 9.02137 22.0973 7.87857C23.2401 6.73577 24.7901 6.09375 26.4062 6.09375H38.5938C40.2099 6.09375 41.7599 6.73577 42.9027 7.87857C44.0455 9.02137 44.6875 10.5713 44.6875 12.1875V20.3125C44.6875 21.9287 44.0455 23.4786 42.9027 24.6214C41.7599 25.7642 40.2099 26.4062 38.5938 26.4062H34.5312V32.5H46.7188C48.3349 32.5 49.8849 33.142 51.0277 34.2848C52.1705 35.4276 52.8125 36.9776 52.8125 38.5938H54.8438C56.4599 38.5938 58.0099 39.2358 59.1527 40.3786C60.2955 41.5214 60.9375 43.0713 60.9375 44.6875Z" fill="white"/>
</svg>
