<svg width="31" height="30" viewBox="0 0 31 30" fill="none" xmlns="http://www.w3.org/2000/svg">
<g clip-path="url(#clip0_55_5208)">
<path d="M15.496 9.99787C12.7417 9.99787 10.4939 12.2456 10.4939 15C10.4939 17.7544 12.7417 20.0021 15.496 20.0021C18.2503 20.0021 20.498 17.7544 20.498 15C20.498 12.2456 18.2503 9.99787 15.496 9.99787ZM30.4983 15C30.4983 12.9286 30.5171 10.876 30.4008 8.80832C30.2844 6.40669 29.7366 4.27525 27.9804 2.51907C26.2205 0.759128 24.0929 0.215011 21.6913 0.098682C19.6199 -0.0176466 17.5673 0.00111617 15.4997 0.00111617C13.4284 0.00111617 11.3758 -0.0176466 9.30815 0.098682C6.90658 0.215011 4.77517 0.762881 3.01902 2.51907C1.25911 4.27901 0.715007 6.40669 0.59868 8.80832C0.482354 10.8797 0.501116 12.9324 0.501116 15C0.501116 17.0676 0.482354 19.124 0.59868 21.1917C0.715007 23.5933 1.26287 25.7247 3.01902 27.4809C4.77893 29.2409 6.90658 29.785 9.30815 29.9013C11.3795 30.0176 13.4321 29.9989 15.4997 29.9989C17.5711 29.9989 19.6237 30.0176 21.6913 29.9013C24.0929 29.785 26.2243 29.2371 27.9804 27.4809C29.7403 25.721 30.2844 23.5933 30.4008 21.1917C30.5208 19.124 30.4983 17.0714 30.4983 15ZM15.496 22.6964C11.2369 22.6964 7.79966 19.2591 7.79966 15C7.79966 10.7409 11.2369 7.30355 15.496 7.30355C19.755 7.30355 23.1923 10.7409 23.1923 15C23.1923 19.2591 19.755 22.6964 15.496 22.6964ZM23.5075 8.7858C22.5131 8.7858 21.7101 7.98276 21.7101 6.98834C21.7101 5.99392 22.5131 5.19087 23.5075 5.19087C24.5019 5.19087 25.3049 5.99392 25.3049 6.98834C25.3052 7.22447 25.2589 7.45834 25.1687 7.67655C25.0785 7.89476 24.9461 8.09303 24.7791 8.26C24.6122 8.42697 24.4139 8.55936 24.1957 8.64958C23.9775 8.73981 23.7436 8.7861 23.5075 8.7858Z" fill="#752BDD"/>
<path d="M15.496 9.99787C12.7417 9.99787 10.4939 12.2456 10.4939 15C10.4939 17.7544 12.7417 20.0021 15.496 20.0021C18.2503 20.0021 20.498 17.7544 20.498 15C20.498 12.2456 18.2503 9.99787 15.496 9.99787ZM30.4983 15C30.4983 12.9286 30.5171 10.876 30.4008 8.80832C30.2844 6.40669 29.7366 4.27525 27.9804 2.51907C26.2205 0.759128 24.0929 0.215011 21.6913 0.098682C19.6199 -0.0176466 17.5673 0.00111617 15.4997 0.00111617C13.4284 0.00111617 11.3758 -0.0176466 9.30815 0.098682C6.90658 0.215011 4.77517 0.762881 3.01902 2.51907C1.25911 4.27901 0.715007 6.40669 0.59868 8.80832C0.482354 10.8797 0.501116 12.9324 0.501116 15C0.501116 17.0676 0.482354 19.124 0.59868 21.1917C0.715007 23.5933 1.26287 25.7247 3.01902 27.4809C4.77893 29.2409 6.90658 29.785 9.30815 29.9013C11.3795 30.0176 13.4321 29.9989 15.4997 29.9989C17.5711 29.9989 19.6237 30.0176 21.6913 29.9013C24.0929 29.785 26.2243 29.2371 27.9804 27.4809C29.7403 25.721 30.2844 23.5933 30.4008 21.1917C30.5208 19.124 30.4983 17.0714 30.4983 15ZM15.496 22.6964C11.2369 22.6964 7.79966 19.2591 7.79966 15C7.79966 10.7409 11.2369 7.30355 15.496 7.30355C19.755 7.30355 23.1923 10.7409 23.1923 15C23.1923 19.2591 19.755 22.6964 15.496 22.6964ZM23.5075 8.7858C22.5131 8.7858 21.7101 7.98276 21.7101 6.98834C21.7101 5.99392 22.5131 5.19087 23.5075 5.19087C24.5019 5.19087 25.3049 5.99392 25.3049 6.98834C25.3052 7.22447 25.2589 7.45834 25.1687 7.67655C25.0785 7.89476 24.9461 8.09303 24.7791 8.26C24.6122 8.42697 24.4139 8.55936 24.1957 8.64958C23.9775 8.73981 23.7436 8.7861 23.5075 8.7858Z" fill="url(#paint0_radial_55_5208)"/>
</g>
<defs>
<radialGradient id="paint0_radial_55_5208" cx="0" cy="0" r="1" gradientUnits="userSpaceOnUse" gradientTransform="translate(-3.53583 3.74753) rotate(24.9483) scale(50.3986 39.4442)">
<stop offset="0.03125" stop-color="#D83575"/>
<stop offset="1" stop-color="#7E03F4"/>
</radialGradient>
<clipPath id="clip0_55_5208">
<rect width="30" height="30" fill="white" transform="translate(0.5)"/>
</clipPath>
</defs>
</svg>
