<svg width="39" height="39" viewBox="0 0 39 39" fill="none" xmlns="http://www.w3.org/2000/svg">
<g clip-path="url(#clip0_55_5277)">
<path d="M25.2425 19.3514C25.2112 18.9069 25.0047 18.4931 24.6683 18.2009C24.3319 17.9087 23.8932 17.7621 23.4488 17.7934L14.2764 18.4385C13.6635 18.4815 13.0675 18.6579 12.5299 18.9555C11.9924 19.253 11.5264 19.6645 11.1646 20.1611L4.75624 27.3935C4.36375 27.967 4.21323 28.6722 4.33733 29.3559C4.46143 30.0397 4.85014 30.647 5.41913 31.046L10.9937 34.8342C11.548 35.2148 12.2272 35.3682 12.8912 35.2628C13.5553 35.1573 14.1536 34.801 14.5627 34.2674L15.7443 32.6806L16.0052 32.542L26.1202 31.8306C26.764 31.7913 27.3683 31.5066 27.8085 31.0351L34.1808 24.5721C34.9776 23.6577 35.4278 22.4924 35.4529 21.2798C35.4151 20.7411 35.462 18.8431 34.1312 18.0946C33.4426 17.8088 32.6789 17.7579 31.9584 17.95C31.238 18.142 30.6009 18.5662 30.1459 19.1569L25.5193 23.2867L19.16 23.7339C18.8623 23.7549 18.5686 23.6567 18.3433 23.461C18.1181 23.2654 17.9798 22.9883 17.9588 22.6906C17.9379 22.393 18.036 22.0992 18.2317 21.874C18.4274 21.6487 18.7045 21.5104 19.0021 21.4895L23.6706 21.1611C23.8933 21.1475 24.1111 21.0896 24.3112 20.9908C24.5113 20.8921 24.6898 20.7544 24.8361 20.5859C24.9824 20.4175 25.0938 20.2215 25.1635 20.0096C25.2333 19.7976 25.2601 19.5738 25.2425 19.3514Z" fill="white"/>
<path d="M29.0341 3.7772C28.1412 3.03138 26.9941 2.66035 25.8336 2.74198C24.673 2.8236 23.5892 3.35153 22.8095 4.215L22.6843 4.35914L22.5401 4.23395C21.6472 3.48812 20.5002 3.11709 19.3396 3.19872C18.1791 3.28035 17.0952 3.80828 16.3155 4.67174C15.5222 5.66316 15.147 6.92498 15.2697 8.18879C15.3173 9.43444 15.8417 10.6142 16.7345 11.4841C19.9797 14.8648 22.3226 16.5345 23.5346 16.4493C24.7466 16.364 26.7729 14.387 29.5171 10.6452C30.3124 9.64907 30.6873 8.38174 30.5619 7.11323C30.5065 5.84469 29.9584 4.64781 29.0341 3.7772Z" fill="white"/>
</g>
<defs>
<clipPath id="clip0_55_5277">
<rect width="36" height="36" fill="white" transform="translate(0 2.52588) rotate(-4.02318)"/>
</clipPath>
</defs>
</svg>
