<svg width="53" height="53" viewBox="0 0 53 53" fill="none" xmlns="http://www.w3.org/2000/svg">
<g clip-path="url(#clip0_55_4864)">
<path d="M42.7178 50.199C43.1722 50.199 43.6206 50.3719 43.9617 50.7013C46.1422 52.8069 49.3229 53.508 52.1503 52.6304C50.3306 48.8395 50.0785 44.4964 51.4886 40.4751C53.2387 35.4718 53.6772 30.457 51.6856 25.4275C49.9358 21.0093 46.5591 17.3385 42.2857 15.2452C42.5486 16.6469 42.6811 18.075 42.6811 19.5182C42.6812 25.644 40.3256 31.4055 36.0486 35.7415C31.7711 40.0781 26.0371 42.5165 19.9031 42.6077C18.7635 42.6255 17.629 42.5585 16.5073 42.4106C19.8785 48.3197 26.2364 52.1683 33.2229 52.2719C36.2792 52.3191 39.2138 51.6788 41.9467 50.3737C42.1928 50.2561 42.4563 50.199 42.7178 50.199Z" fill="white"/>
<path d="M19.9534 0.00401627C9.07185 -0.212051 0.0262966 8.59093 5.90035e-05 19.4701C-0.00636921 22.1281 0.51248 24.7052 1.54231 27.13C1.55726 27.1653 1.57117 27.201 1.58376 27.2372C2.9939 31.2585 2.74189 35.6015 0.922049 39.3926C3.74981 40.2697 6.93007 39.569 9.11068 37.4633C9.64789 36.9444 10.4517 36.8137 11.1257 37.1359C13.8582 38.441 16.7932 39.0833 19.8493 39.0342C30.6457 38.8739 39.1028 30.3014 39.1026 19.5181C39.1028 8.9702 30.5123 0.216279 19.9534 0.00401627ZM9.12249 22.4331C7.55912 22.4331 6.29171 21.1678 6.29171 19.6071C6.29171 18.0463 7.55912 16.781 9.12249 16.781C10.6859 16.781 11.9533 18.0463 11.9533 19.6071C11.9531 21.1678 10.6859 22.4331 9.12249 22.4331ZM19.5514 22.4331C17.988 22.4331 16.7206 21.1678 16.7206 19.6071C16.7206 18.0463 17.988 16.781 19.5514 16.781C21.1148 16.781 22.3822 18.0463 22.3822 19.6071C22.3822 21.1678 21.1148 22.4331 19.5514 22.4331ZM29.9805 22.4331C28.4171 22.4331 27.1497 21.1678 27.1497 19.6071C27.1497 18.0463 28.4171 16.781 29.9805 16.781C31.5438 16.781 32.8113 18.0463 32.8113 19.6071C32.8113 21.1678 31.5438 22.4331 29.9805 22.4331Z" fill="white"/>
</g>
<defs>
<clipPath id="clip0_55_4864">
<rect width="53" height="53" fill="white"/>
</clipPath>
</defs>
</svg>
