<svg width="40" height="40" viewBox="0 0 40 40" fill="none" xmlns="http://www.w3.org/2000/svg">
<g clip-path="url(#clip0_55_5269)">
<path d="M3.94727 16.0391L2.80261 27.3593C2.73586 28.059 2.94772 28.7568 3.39222 29.3013C3.83672 29.8458 4.478 30.1931 5.17691 30.2678L32.3454 33.0149C33.0452 33.0817 33.743 32.8698 34.2875 32.4253C34.832 31.9808 35.1792 31.3395 35.2539 30.6406L36.3986 19.3204L3.94727 16.0391ZM28.3515 27.2743L23.8234 26.8164C23.5232 26.7861 23.2473 26.6377 23.0565 26.4039C22.8657 26.1702 22.7755 25.8702 22.8059 25.5699C22.8362 25.2697 22.9846 24.9938 23.2184 24.803C23.4521 24.6122 23.7521 24.522 24.0524 24.5524L28.5805 25.0102C28.8807 25.0406 29.1566 25.189 29.3474 25.4227C29.5382 25.6565 29.6284 25.9565 29.598 26.2567C29.5677 26.557 29.4193 26.8328 29.1855 27.0237C28.9518 27.2145 28.6518 27.3046 28.3515 27.2743Z" fill="white"/>
<path d="M36.704 16.3016L37.0856 12.5282C37.1523 11.8285 36.9405 11.1307 36.496 10.5862C36.0515 10.0417 35.4102 9.6944 34.7113 9.61972L7.54275 6.87255C6.84303 6.8058 6.14522 7.01766 5.60072 7.46216C5.05622 7.90666 4.70896 8.54794 4.63428 9.24685L4.25273 13.0203L36.704 16.3016Z" fill="white"/>
</g>
<defs>
<clipPath id="clip0_55_5269">
<rect width="36.4094" height="36.4094" fill="white" transform="translate(3.66309) rotate(5.77388)"/>
</clipPath>
</defs>
</svg>
