<svg width="40" height="40" viewBox="0 0 40 40" fill="none" xmlns="http://www.w3.org/2000/svg">
<path d="M18.9423 8.86459C18.6399 8.88738 18.3404 8.79114 18.1079 8.59639C17.8753 8.40164 17.728 8.12376 17.6973 7.82198L17.4274 4.77176C17.4005 4.4684 17.4953 4.1668 17.6908 3.93331C17.8864 3.69981 18.1666 3.55356 18.47 3.52672C18.7734 3.49987 19.075 3.59464 19.3085 3.79017C19.5419 3.9857 19.6882 4.26597 19.715 4.56933L19.985 7.61955C20.0077 7.92203 19.9115 8.22146 19.7167 8.45402C19.522 8.68659 19.2441 8.83391 18.9423 8.86459Z" fill="white"/>
<path d="M27.8902 11.6696C27.7399 11.6863 27.5877 11.6715 27.4434 11.626C27.2991 11.5806 27.1658 11.5055 27.0522 11.4056C26.935 11.31 26.8381 11.1919 26.7673 11.0582C26.6964 10.9246 26.6531 10.7781 26.6397 10.6275C26.6264 10.4768 26.6434 10.325 26.6896 10.181C26.7359 10.037 26.8106 9.90367 26.9092 9.78897L28.8693 7.44829C28.9641 7.32664 29.0824 7.22533 29.2171 7.1504C29.3519 7.07547 29.5004 7.02845 29.6538 7.01215C29.8071 6.99585 29.9622 7.0106 30.1097 7.05553C30.2572 7.10045 30.3941 7.17463 30.5124 7.27364C30.6306 7.37264 30.7277 7.49444 30.7978 7.63178C30.8679 7.76912 30.9097 7.91917 30.9206 8.073C30.9314 8.22682 30.9112 8.38126 30.8611 8.5271C30.811 8.67294 30.7321 8.80719 30.629 8.92185L28.6688 11.2625C28.5727 11.3788 28.4543 11.4747 28.3206 11.5446C28.1869 11.6145 28.0406 11.657 27.8902 11.6696Z" fill="white"/>
<path d="M35.2729 19.7159L32.2227 19.9858C31.9194 20.0126 31.6178 19.9178 31.3843 19.7223C31.1508 19.5268 31.0045 19.2465 30.9777 18.9431C30.9508 18.6398 31.0456 18.3382 31.2411 18.1047C31.4367 17.8712 31.7169 17.7249 32.0203 17.6981L35.0705 17.4282C35.3739 17.4014 35.6755 17.4961 35.909 17.6916C36.1425 17.8872 36.2887 18.1675 36.3156 18.4708C36.3424 18.7742 36.2476 19.0758 36.0521 19.3093C35.8566 19.5428 35.5763 19.689 35.2729 19.7159Z" fill="white"/>
<path d="M10.6262 13.1975C10.476 13.2115 10.3245 13.1953 10.1806 13.15C10.0367 13.1047 9.90327 13.0311 9.78821 12.9335L7.44752 10.9734C7.32588 10.8786 7.22457 10.7603 7.14963 10.6255C7.0747 10.4907 7.02768 10.3422 7.01138 10.1889C6.99508 10.0356 7.00983 9.8805 7.05476 9.73298C7.09969 9.58546 7.17386 9.4485 7.27287 9.33028C7.37187 9.21205 7.49368 9.11498 7.63101 9.04484C7.76835 8.97471 7.91841 8.93296 8.07223 8.92208C8.22605 8.9112 8.38049 8.93141 8.52633 8.98152C8.67217 9.03162 8.80643 9.11058 8.92109 9.21369L11.2618 11.1738C11.379 11.2694 11.4759 11.3875 11.5467 11.5212C11.6176 11.6548 11.6609 11.8013 11.6743 11.952C11.6876 12.1026 11.6706 12.2544 11.6243 12.3984C11.5781 12.5424 11.5034 12.6757 11.4048 12.7904C11.3105 12.9087 11.1925 13.006 11.0585 13.0761C10.9244 13.1462 10.7772 13.1875 10.6262 13.1975Z" fill="white"/>
<path d="M7.82128 22.1451L4.77106 22.415C4.4677 22.4418 4.1661 22.347 3.93261 22.1515C3.69912 21.956 3.55286 21.6757 3.52602 21.3723C3.49918 21.069 3.59394 20.7674 3.78947 20.5339C3.985 20.3004 4.26527 20.1541 4.56864 20.1273L7.61885 19.8574C7.92221 19.8306 8.22382 19.9253 8.45731 20.1208C8.6908 20.3164 8.83705 20.5967 8.8639 20.9C8.89074 21.2034 8.79597 21.505 8.60045 21.7385C8.40492 21.972 8.12464 22.1182 7.82128 22.1451Z" fill="white"/>
<path d="M26.0785 11.6917C24.3042 10.3702 22.1556 9.64727 19.9433 9.6275C17.7311 9.60773 15.5699 10.2921 13.7723 11.5818C11.9112 12.8706 10.5572 14.7677 9.94332 16.9467C9.34119 19.017 9.39862 21.2234 10.1076 23.2595C10.8167 25.2956 12.1421 27.0605 13.8999 28.3089C14.2531 28.5785 14.5435 28.9217 14.7508 29.3148C14.9581 29.7079 15.0774 30.1413 15.1004 30.5851L15.18 31.485C15.2337 32.0917 15.5262 32.6522 15.9932 33.0433C16.4601 33.4343 17.0633 33.6239 17.6701 33.5702L24.5331 32.9629C25.1398 32.9092 25.7003 32.6167 26.0914 32.1497C26.4824 31.6827 26.672 31.0795 26.6183 30.4728L26.5252 29.4205C26.4945 28.9644 26.562 28.507 26.723 28.0791C26.884 27.6513 27.1348 27.2629 27.4585 26.9401C28.5717 25.7674 29.3891 24.3462 29.8429 22.7943C30.4138 20.7801 30.3595 18.6401 29.6873 16.6576C29.0151 14.675 27.7566 12.9433 26.0785 11.6917ZM24.0498 23.5067L21.5754 26.4616L21.6631 27.4529C21.6899 27.7563 21.5951 28.0579 21.3996 28.2914C21.2041 28.5249 20.9238 28.6711 20.6205 28.698C20.3171 28.7248 20.0155 28.63 19.782 28.4345C19.5485 28.239 19.4023 27.9587 19.3754 27.6553L19.2823 26.603L16.4036 24.1218C16.1824 23.9228 16.047 23.6458 16.026 23.349C16.005 23.0522 16.1001 22.7588 16.2911 22.5307C16.4821 22.3026 16.7542 22.1576 17.0501 22.1261C17.346 22.0947 17.6425 22.1793 17.8772 22.3621L20.3175 24.4057L22.361 21.9654C22.56 21.7441 22.837 21.6088 23.1338 21.5878C23.4306 21.5668 23.724 21.6618 23.9521 21.8528C24.1802 22.0439 24.3253 22.316 24.3567 22.6118C24.3882 22.9077 24.3035 23.2042 24.1207 23.4389L24.0498 23.5067Z" fill="white"/>
<path d="M25.1842 35.9795L17.5587 36.6542C17.2553 36.6811 16.9537 36.5863 16.7202 36.3908C16.4867 36.1952 16.3405 35.915 16.3136 35.6116C16.2868 35.3082 16.3815 35.0066 16.5771 34.7731C16.7726 34.5397 17.0529 34.3934 17.3562 34.3666L24.9818 33.6918C25.2851 33.665 25.5867 33.7597 25.8202 33.9552C26.0537 34.1508 26.2 34.4311 26.2268 34.7344C26.2537 35.0378 26.1589 35.3394 25.9634 35.5729C25.7678 35.8064 25.4876 35.9526 25.1842 35.9795Z" fill="white"/>
</svg>
