<svg width="54" height="54" viewBox="0 0 54 54" fill="none" xmlns="http://www.w3.org/2000/svg">
<path d="M43.875 3.375H10.125C8.78234 3.375 7.49468 3.90837 6.54527 4.85777C5.59587 5.80717 5.0625 7.09484 5.0625 8.4375V48.9375C5.06198 49.2584 5.15299 49.5729 5.32485 49.8439C5.49671 50.1149 5.7423 50.3314 6.03281 50.4678C6.32332 50.6042 6.6467 50.6549 6.96502 50.614C7.28335 50.5731 7.5834 50.4423 7.83 50.2369L16.875 42.6937L24.9244 49.3425C25.5308 49.8476 26.2951 50.1242 27.0844 50.1242C27.8736 50.1242 28.6379 49.8476 29.2444 49.3425L37.125 42.6937L46.17 50.2369C46.4736 50.4884 46.8557 50.6258 47.25 50.625C47.4945 50.6263 47.7363 50.5745 47.9588 50.4731C48.2517 50.3376 48.4996 50.1208 48.673 49.8487C48.8465 49.5765 48.9383 49.2603 48.9375 48.9375V8.4375C48.9375 7.09484 48.4041 5.80717 47.4547 4.85777C46.5053 3.90837 45.2177 3.375 43.875 3.375ZM38.8125 32.0625H15.1875C14.7399 32.0625 14.3107 31.8847 13.9943 31.5682C13.6778 31.2518 13.5 30.8226 13.5 30.375C13.5 29.9274 13.6778 29.4982 13.9943 29.1818C14.3107 28.8653 14.7399 28.6875 15.1875 28.6875H38.8125C39.2601 28.6875 39.6893 28.8653 40.0057 29.1818C40.3222 29.4982 40.5 29.9274 40.5 30.375C40.5 30.8226 40.3222 31.2518 40.0057 31.5682C39.6893 31.8847 39.2601 32.0625 38.8125 32.0625ZM38.8125 23.625H15.1875C14.7399 23.625 14.3107 23.4472 13.9943 23.1307C13.6778 22.8143 13.5 22.3851 13.5 21.9375C13.5 21.4899 13.6778 21.0607 13.9943 20.7443C14.3107 20.4278 14.7399 20.25 15.1875 20.25H38.8125C39.2601 20.25 39.6893 20.4278 40.0057 20.7443C40.3222 21.0607 40.5 21.4899 40.5 21.9375C40.5 22.3851 40.3222 22.8143 40.0057 23.1307C39.6893 23.4472 39.2601 23.625 38.8125 23.625ZM38.8125 15.1875H15.1875C14.7399 15.1875 14.3107 15.0097 13.9943 14.6932C13.6778 14.3768 13.5 13.9476 13.5 13.5C13.5 13.0524 13.6778 12.6232 13.9943 12.3068C14.3107 11.9903 14.7399 11.8125 15.1875 11.8125H38.8125C39.2601 11.8125 39.6893 11.9903 40.0057 12.3068C40.3222 12.6232 40.5 13.0524 40.5 13.5C40.5 13.9476 40.3222 14.3768 40.0057 14.6932C39.6893 15.0097 39.2601 15.1875 38.8125 15.1875Z" fill="white"/>
</svg>
