<svg width="31" height="30" viewBox="0 0 31 30" fill="none" xmlns="http://www.w3.org/2000/svg">
<g clip-path="url(#clip0_55_5210)">
<path d="M4.97206 0C2.63356 0 0.750488 1.88307 0.750488 4.22157V25.7785C0.750488 28.117 2.63356 30 4.97206 30H26.5289C28.8674 30 30.7505 28.117 30.7505 25.7785V4.22157C30.7505 1.88307 28.8674 0 26.5289 0H4.97206ZM16.4227 3.06564C19.8272 3.06564 22.5952 5.83476 22.5952 9.23907C22.5952 12.6431 19.8272 15.4106 16.4227 15.4106C13.0181 15.4106 10.2483 12.6431 10.2483 9.23907C10.2483 5.83476 13.0181 3.06564 16.4227 3.06564ZM16.3571 6.68253C14.978 6.71763 13.8661 7.85205 13.8661 9.2391C13.8661 10.6476 15.0133 11.7938 16.4227 11.7938C17.8318 11.7938 18.9774 10.6476 18.9774 9.2391C18.9774 7.83006 17.8318 6.68253 16.4227 6.68253C16.4007 6.68253 16.379 6.68196 16.3571 6.68253ZM11.3114 15.6207C11.6384 15.6218 11.9683 15.7117 12.2658 15.8991C14.7926 17.488 18.05 17.489 20.5777 15.8991C21.424 15.3661 22.5394 15.622 23.0724 16.4682C23.6047 17.3129 23.349 18.4298 22.5033 18.9619C21.4007 19.6549 20.189 20.1567 18.9192 20.446L22.3711 23.8979C23.0778 24.6031 23.0778 25.7491 22.3711 26.4554C21.6641 27.1619 20.5203 27.1619 19.8146 26.4554L16.4208 23.0635L13.0308 26.4554C12.6778 26.8085 12.2146 26.9851 11.7521 26.9851C11.289 26.9851 10.8274 26.8081 10.4733 26.4554C9.76678 25.7487 9.76699 24.6046 10.4733 23.8979L13.9233 20.446C12.667 20.1595 11.4547 19.6623 10.3383 18.9619C9.49429 18.4298 9.24049 17.3141 9.77299 16.4682C10.1048 15.9393 10.6655 15.6406 11.2458 15.6216C11.2677 15.6209 11.2896 15.6206 11.3114 15.6207H11.3114Z" fill="#752BDD"/>
<path d="M4.97206 0C2.63356 0 0.750488 1.88307 0.750488 4.22157V25.7785C0.750488 28.117 2.63356 30 4.97206 30H26.5289C28.8674 30 30.7505 28.117 30.7505 25.7785V4.22157C30.7505 1.88307 28.8674 0 26.5289 0H4.97206ZM16.4227 3.06564C19.8272 3.06564 22.5952 5.83476 22.5952 9.23907C22.5952 12.6431 19.8272 15.4106 16.4227 15.4106C13.0181 15.4106 10.2483 12.6431 10.2483 9.23907C10.2483 5.83476 13.0181 3.06564 16.4227 3.06564ZM16.3571 6.68253C14.978 6.71763 13.8661 7.85205 13.8661 9.2391C13.8661 10.6476 15.0133 11.7938 16.4227 11.7938C17.8318 11.7938 18.9774 10.6476 18.9774 9.2391C18.9774 7.83006 17.8318 6.68253 16.4227 6.68253C16.4007 6.68253 16.379 6.68196 16.3571 6.68253ZM11.3114 15.6207C11.6384 15.6218 11.9683 15.7117 12.2658 15.8991C14.7926 17.488 18.05 17.489 20.5777 15.8991C21.424 15.3661 22.5394 15.622 23.0724 16.4682C23.6047 17.3129 23.349 18.4298 22.5033 18.9619C21.4007 19.6549 20.189 20.1567 18.9192 20.446L22.3711 23.8979C23.0778 24.6031 23.0778 25.7491 22.3711 26.4554C21.6641 27.1619 20.5203 27.1619 19.8146 26.4554L16.4208 23.0635L13.0308 26.4554C12.6778 26.8085 12.2146 26.9851 11.7521 26.9851C11.289 26.9851 10.8274 26.8081 10.4733 26.4554C9.76678 25.7487 9.76699 24.6046 10.4733 23.8979L13.9233 20.446C12.667 20.1595 11.4547 19.6623 10.3383 18.9619C9.49429 18.4298 9.24049 17.3141 9.77299 16.4682C10.1048 15.9393 10.6655 15.6406 11.2458 15.6216C11.2677 15.6209 11.2896 15.6206 11.3114 15.6207H11.3114Z" fill="url(#paint0_radial_55_5210)"/>
</g>
<defs>
<radialGradient id="paint0_radial_55_5210" cx="0" cy="0" r="1" gradientUnits="userSpaceOnUse" gradientTransform="translate(-3.28534 3.74753) rotate(24.9483) scale(50.3987 39.4442)">
<stop offset="0.03125" stop-color="#D83575"/>
<stop offset="1" stop-color="#7E03F4"/>
</radialGradient>
<clipPath id="clip0_55_5210">
<rect width="30" height="30" fill="white" transform="translate(0.75)"/>
</clipPath>
</defs>
</svg>
