<svg width="60" height="60" viewBox="0 0 60 60" fill="none" xmlns="http://www.w3.org/2000/svg">
<g clip-path="url(#clip0_55_4849)">
<path d="M34.9381 16.0154C27.6648 14.4907 21.9799 8.80582 20.4554 1.53246C20.2682 0.639609 19.4807 0 18.5681 0C17.6556 0 16.8681 0.639609 16.681 1.53258C15.1563 8.80582 9.47146 14.4906 2.19822 16.0151C1.30525 16.2022 0.665527 16.9898 0.665527 17.9023C0.665527 18.8147 1.30514 19.6023 2.19822 19.7895C9.47135 21.3142 15.156 26.9989 16.6806 34.2722C16.8678 35.1652 17.6553 35.8049 18.5678 35.8049C19.4802 35.8049 20.2678 35.1653 20.455 34.2722C21.9797 26.9989 27.6647 21.3142 34.938 19.7898C35.8309 19.6027 36.4706 18.8152 36.4706 17.9026C36.4705 16.9902 35.8309 16.2026 34.9381 16.0154Z" fill="white"/>
<path d="M31.7505 47.8692C28.3237 47.151 25.6453 44.4725 24.9268 41.0455C24.7396 40.1525 23.9521 39.5128 23.0396 39.5128C22.1272 39.5128 21.3396 40.1523 21.1524 41.0454C20.4339 44.4723 17.7554 47.1507 14.3286 47.8691C13.4356 48.0563 12.7959 48.8439 12.7959 49.7563C12.7959 50.6687 13.4355 51.4563 14.3286 51.6435C17.7553 52.3618 20.4338 55.0404 21.1522 58.4673C21.3393 59.3603 22.1268 60 23.0394 60C23.9518 60 24.7394 59.3605 24.9266 58.4673C25.645 55.0404 28.3236 52.362 31.7505 51.6436C32.6435 51.4564 33.2832 50.6688 33.2832 49.7564C33.2832 48.844 32.6436 48.0565 31.7505 47.8692Z" fill="white"/>
<path d="M57.8018 30.0158C53.1698 29.0448 49.5496 25.4244 48.5787 20.7926C48.3915 19.8996 47.604 19.2599 46.6915 19.2599C45.779 19.2599 44.9914 19.8994 44.8043 20.7925C43.8333 25.4244 40.213 29.0447 35.581 30.0156C34.6881 30.2027 34.0483 30.9904 34.0483 31.9028C34.0483 32.8152 34.688 33.6027 35.581 33.79C40.2129 34.761 43.8331 38.3813 44.804 43.0132C44.9912 43.9062 45.7787 44.5459 46.6912 44.5459C47.6037 44.5459 48.3913 43.9064 48.5784 43.0132C49.5495 38.3813 53.1698 34.761 57.8017 33.7902C58.6946 33.6029 59.3344 32.8154 59.3344 31.903C59.3344 30.9906 58.6947 30.203 57.8018 30.0158Z" fill="white"/>
</g>
<defs>
<clipPath id="clip0_55_4849">
<rect width="60" height="60" fill="white"/>
</clipPath>
</defs>
</svg>
