<svg width="43" height="43" viewBox="0 0 43 43" fill="none" xmlns="http://www.w3.org/2000/svg">
<path fill-rule="evenodd" clip-rule="evenodd" d="M18.3529 7.07484C19.2191 5.20634 21.1934 3.99493 23.3604 4.19959C25.5258 4.40409 27.2384 5.96369 27.7394 7.96131L32.1731 8.38002C33.2732 8.48392 34.2839 9.01966 34.9886 9.87136C35.695 10.7232 36.0334 11.8199 35.9295 12.92L33.8924 34.4907C33.6759 36.7822 31.6405 38.4632 29.3524 38.2471L11.0986 36.5232C8.80714 36.3068 7.12575 34.2747 7.34216 31.9833L9.37931 10.4126C9.4832 9.31247 10.0193 8.29838 10.871 7.59367C11.7227 6.88896 12.8192 6.55223 13.9193 6.65613L18.3529 7.07484ZM22.5124 30.9048L25.831 31.2182C26.7453 31.3046 27.5605 30.6316 27.647 29.7157C27.7335 28.7997 27.0587 27.986 26.1444 27.8997L22.8258 27.5863C21.9099 27.4998 21.0963 28.1729 21.0098 29.0888C20.9233 30.0048 21.5965 30.8183 22.5124 30.9048ZM16.5021 23.6409L26.4578 24.5811C27.3721 24.6674 28.1873 23.9944 28.2738 23.0785C28.3603 22.1626 27.6855 21.3489 26.7712 21.2625L16.8155 20.3223C15.8996 20.2358 15.086 20.909 14.9995 21.8249C14.913 22.7408 15.5862 23.5544 16.5021 23.6409ZM17.1289 17.0037L27.0846 17.944C27.9989 18.0303 28.8141 17.3573 28.9006 16.4414C28.9871 15.5255 28.3123 14.7117 27.398 14.6254L17.4423 13.6852C16.5264 13.5987 15.7128 14.2718 15.6263 15.1878C15.5398 16.1037 16.213 16.9172 17.1289 17.0037Z" fill="white"/>
</svg>
