<svg width="31" height="30" viewBox="0 0 31 30" fill="none" xmlns="http://www.w3.org/2000/svg">
<g clip-path="url(#clip0_55_5206)">
<path d="M15.2481 0.600098C7.29515 0.600098 0.848145 7.0471 0.848145 15.0001C0.848145 22.9531 7.29515 29.4001 15.2481 29.4001C23.2011 29.4001 29.6481 22.9531 29.6481 15.0001C29.6481 7.0471 23.2011 0.600098 15.2481 0.600098ZM20.7861 16.8466C20.7861 16.8466 22.0596 18.1036 22.3731 18.6871C22.3821 18.6991 22.3866 18.7111 22.3896 18.7171C22.5171 18.9316 22.5471 19.0981 22.4841 19.2226C22.3791 19.4296 22.0191 19.5316 21.8961 19.5406H19.6461C19.4901 19.5406 19.1631 19.5001 18.7671 19.2271C18.4626 19.0141 18.1626 18.6646 17.8701 18.3241C17.4336 17.8171 17.0556 17.3791 16.6746 17.3791C16.6263 17.379 16.5782 17.3866 16.5321 17.4016C16.2441 17.4946 15.8751 17.9056 15.8751 19.0006C15.8751 19.3426 15.6051 19.5391 15.4146 19.5391H14.3841C14.0331 19.5391 12.2046 19.4161 10.5846 17.7076C8.60164 15.6151 6.81664 11.4181 6.80164 11.3791C6.68914 11.1076 6.92164 10.9621 7.17515 10.9621H9.44765C9.75064 10.9621 9.84965 11.1466 9.91864 11.3101C9.99965 11.5006 10.2966 12.2581 10.7841 13.1101C11.5746 14.4991 12.0591 15.0631 12.4476 15.0631C12.5205 15.0622 12.592 15.0437 12.6561 15.0091C13.1631 14.7271 13.0686 12.9196 13.0461 12.5446C13.0461 12.4741 13.0446 11.7361 12.7851 11.3821C12.5991 11.1256 12.2826 11.0281 12.0906 10.9921C12.1684 10.8849 12.2707 10.7979 12.3891 10.7386C12.7371 10.5646 13.3641 10.5391 13.9866 10.5391H14.3331C15.0081 10.5481 15.1821 10.5916 15.4266 10.6531C15.9216 10.7716 15.9321 11.0911 15.8886 12.1846C15.8751 12.4951 15.8616 12.8461 15.8616 13.2601C15.8616 13.3501 15.8571 13.4461 15.8571 13.5481C15.8421 14.1046 15.8241 14.7361 16.2171 14.9956C16.2684 15.0277 16.3276 15.0449 16.3881 15.0451C16.5246 15.0451 16.9356 15.0451 18.0486 13.1356C18.3919 12.521 18.6902 11.8823 18.9411 11.2246C18.9636 11.1856 19.0296 11.0656 19.1076 11.0191C19.1652 10.9898 19.229 10.9748 19.2936 10.9756H21.9651C22.2561 10.9756 22.4556 11.0191 22.4931 11.1316C22.5591 11.3101 22.4811 11.8546 21.2616 13.5061L20.7171 14.2246C19.6116 15.6736 19.6116 15.7471 20.7861 16.8466Z" fill="#752BDD"/>
<path d="M15.2481 0.600098C7.29515 0.600098 0.848145 7.0471 0.848145 15.0001C0.848145 22.9531 7.29515 29.4001 15.2481 29.4001C23.2011 29.4001 29.6481 22.9531 29.6481 15.0001C29.6481 7.0471 23.2011 0.600098 15.2481 0.600098ZM20.7861 16.8466C20.7861 16.8466 22.0596 18.1036 22.3731 18.6871C22.3821 18.6991 22.3866 18.7111 22.3896 18.7171C22.5171 18.9316 22.5471 19.0981 22.4841 19.2226C22.3791 19.4296 22.0191 19.5316 21.8961 19.5406H19.6461C19.4901 19.5406 19.1631 19.5001 18.7671 19.2271C18.4626 19.0141 18.1626 18.6646 17.8701 18.3241C17.4336 17.8171 17.0556 17.3791 16.6746 17.3791C16.6263 17.379 16.5782 17.3866 16.5321 17.4016C16.2441 17.4946 15.8751 17.9056 15.8751 19.0006C15.8751 19.3426 15.6051 19.5391 15.4146 19.5391H14.3841C14.0331 19.5391 12.2046 19.4161 10.5846 17.7076C8.60164 15.6151 6.81664 11.4181 6.80164 11.3791C6.68914 11.1076 6.92164 10.9621 7.17515 10.9621H9.44765C9.75064 10.9621 9.84965 11.1466 9.91864 11.3101C9.99965 11.5006 10.2966 12.2581 10.7841 13.1101C11.5746 14.4991 12.0591 15.0631 12.4476 15.0631C12.5205 15.0622 12.592 15.0437 12.6561 15.0091C13.1631 14.7271 13.0686 12.9196 13.0461 12.5446C13.0461 12.4741 13.0446 11.7361 12.7851 11.3821C12.5991 11.1256 12.2826 11.0281 12.0906 10.9921C12.1684 10.8849 12.2707 10.7979 12.3891 10.7386C12.7371 10.5646 13.3641 10.5391 13.9866 10.5391H14.3331C15.0081 10.5481 15.1821 10.5916 15.4266 10.6531C15.9216 10.7716 15.9321 11.0911 15.8886 12.1846C15.8751 12.4951 15.8616 12.8461 15.8616 13.2601C15.8616 13.3501 15.8571 13.4461 15.8571 13.5481C15.8421 14.1046 15.8241 14.7361 16.2171 14.9956C16.2684 15.0277 16.3276 15.0449 16.3881 15.0451C16.5246 15.0451 16.9356 15.0451 18.0486 13.1356C18.3919 12.521 18.6902 11.8823 18.9411 11.2246C18.9636 11.1856 19.0296 11.0656 19.1076 11.0191C19.1652 10.9898 19.229 10.9748 19.2936 10.9756H21.9651C22.2561 10.9756 22.4556 11.0191 22.4931 11.1316C22.5591 11.3101 22.4811 11.8546 21.2616 13.5061L20.7171 14.2246C19.6116 15.6736 19.6116 15.7471 20.7861 16.8466Z" fill="url(#paint0_radial_55_5206)"/>
</g>
<defs>
<radialGradient id="paint0_radial_55_5206" cx="0" cy="0" r="1" gradientUnits="userSpaceOnUse" gradientTransform="translate(-3.02625 4.19773) rotate(24.9483) scale(48.3827 37.8664)">
<stop offset="0.03125" stop-color="#D83575"/>
<stop offset="1" stop-color="#7E03F4"/>
</radialGradient>
<clipPath id="clip0_55_5206">
<rect width="30" height="30" fill="white" transform="translate(0.25)"/>
</clipPath>
</defs>
</svg>
