<svg width="30" height="30" viewBox="0 0 30 30" fill="none" xmlns="http://www.w3.org/2000/svg">
<g clip-path="url(#clip0_55_5216)">
<path d="M17.8919 17.8929C15.5347 20.325 15.3633 23.3571 15.1597 30C21.3526 30 25.6276 29.9786 27.8347 27.8357C29.9776 25.6286 29.999 21.15 29.999 15.1607C23.3562 15.375 20.324 15.5357 17.8919 17.8929ZM-0.000976562 15.1607C-0.000976562 21.15 0.020452 25.6286 2.16331 27.8357C4.37045 29.9786 8.64545 30 14.8383 30C14.624 23.3571 14.4633 20.325 12.1062 17.8929C9.67402 15.5357 6.64188 15.3643 -0.000976562 15.1607ZM14.8383 0C8.65617 0 4.37045 0.0214285 2.16331 2.16429C0.020452 4.37143 -0.000976562 8.85 -0.000976562 14.8393C6.64188 14.625 9.67402 14.4643 12.1062 12.1071C14.4633 9.675 14.6347 6.64286 14.8383 0ZM17.8919 12.1071C15.5347 9.675 15.3633 6.64286 15.1597 0C21.3526 0 25.6276 0.0214285 27.8347 2.16429C29.9776 4.37143 29.999 8.85 29.999 14.8393C23.3562 14.625 20.324 14.4643 17.8919 12.1071Z" fill="#752BDD"/>
<path d="M17.8919 17.8929C15.5347 20.325 15.3633 23.3571 15.1597 30C21.3526 30 25.6276 29.9786 27.8347 27.8357C29.9776 25.6286 29.999 21.15 29.999 15.1607C23.3562 15.375 20.324 15.5357 17.8919 17.8929ZM-0.000976562 15.1607C-0.000976562 21.15 0.020452 25.6286 2.16331 27.8357C4.37045 29.9786 8.64545 30 14.8383 30C14.624 23.3571 14.4633 20.325 12.1062 17.8929C9.67402 15.5357 6.64188 15.3643 -0.000976562 15.1607ZM14.8383 0C8.65617 0 4.37045 0.0214285 2.16331 2.16429C0.020452 4.37143 -0.000976562 8.85 -0.000976562 14.8393C6.64188 14.625 9.67402 14.4643 12.1062 12.1071C14.4633 9.675 14.6347 6.64286 14.8383 0ZM17.8919 12.1071C15.5347 9.675 15.3633 6.64286 15.1597 0C21.3526 0 25.6276 0.0214285 27.8347 2.16429C29.9776 4.37143 29.999 8.85 29.999 14.8393C23.3562 14.625 20.324 14.4643 17.8919 12.1071Z" fill="url(#paint0_radial_55_5216)"/>
</g>
<defs>
<radialGradient id="paint0_radial_55_5216" cx="0" cy="0" r="1" gradientUnits="userSpaceOnUse" gradientTransform="translate(-4.0368 3.74753) rotate(24.9483) scale(50.3986 39.4442)">
<stop offset="0.03125" stop-color="#D83575"/>
<stop offset="1" stop-color="#7E03F4"/>
</radialGradient>
<clipPath id="clip0_55_5216">
<rect width="30" height="30" fill="white"/>
</clipPath>
</defs>
</svg>
