<svg width="31" height="30" viewBox="0 0 31 30" fill="none" xmlns="http://www.w3.org/2000/svg">
<g clip-path="url(#clip0_55_5212)">
<path d="M29.6243 8.13458C29.4544 7.52862 29.1235 6.98001 28.6668 6.54708C28.1972 6.10083 27.6216 5.78162 26.9943 5.61958C24.6468 5.00083 15.2418 5.00083 15.2418 5.00083C11.321 4.95622 7.40109 5.15242 3.50431 5.58833C2.87704 5.76234 2.30251 6.08869 1.83181 6.53833C1.36931 6.98333 1.03431 7.53208 0.859307 8.13333C0.438923 10.398 0.234672 12.6975 0.249307 15.0008C0.234307 17.3021 0.438057 19.6008 0.859307 21.8683C1.03056 22.4671 1.36431 23.0133 1.82806 23.4546C2.29181 23.8958 2.86931 24.2146 3.50431 24.3833C5.88306 25.0008 15.2418 25.0008 15.2418 25.0008C19.1676 25.0455 23.0925 24.8493 26.9943 24.4133C27.6216 24.2513 28.1972 23.9321 28.6668 23.4858C29.1234 23.053 29.4539 22.5043 29.6231 21.8983C30.0544 19.6345 30.2642 17.3341 30.2493 15.0296C30.2817 12.7153 30.0723 10.404 29.6243 8.13333V8.13458ZM12.2518 19.2808V10.7221L20.0768 15.0021L12.2518 19.2808Z" fill="#752BDD"/>
<path d="M29.6243 8.13458C29.4544 7.52862 29.1235 6.98001 28.6668 6.54708C28.1972 6.10083 27.6216 5.78162 26.9943 5.61958C24.6468 5.00083 15.2418 5.00083 15.2418 5.00083C11.321 4.95622 7.40109 5.15242 3.50431 5.58833C2.87704 5.76234 2.30251 6.08869 1.83181 6.53833C1.36931 6.98333 1.03431 7.53208 0.859307 8.13333C0.438923 10.398 0.234672 12.6975 0.249307 15.0008C0.234307 17.3021 0.438057 19.6008 0.859307 21.8683C1.03056 22.4671 1.36431 23.0133 1.82806 23.4546C2.29181 23.8958 2.86931 24.2146 3.50431 24.3833C5.88306 25.0008 15.2418 25.0008 15.2418 25.0008C19.1676 25.0455 23.0925 24.8493 26.9943 24.4133C27.6216 24.2513 28.1972 23.9321 28.6668 23.4858C29.1234 23.053 29.4539 22.5043 29.6231 21.8983C30.0544 19.6345 30.2642 17.3341 30.2493 15.0296C30.2817 12.7153 30.0723 10.404 29.6243 8.13333V8.13458ZM12.2518 19.2808V10.7221L20.0768 15.0021L12.2518 19.2808Z" fill="url(#paint0_radial_55_5212)"/>
</g>
<defs>
<radialGradient id="paint0_radial_55_5212" cx="0" cy="0" r="1" gradientUnits="userSpaceOnUse" gradientTransform="translate(-3.78783 7.49453) rotate(17.2386) scale(47.8516 27.7168)">
<stop offset="0.03125" stop-color="#D83575"/>
<stop offset="1" stop-color="#7E03F4"/>
</radialGradient>
<clipPath id="clip0_55_5212">
<rect width="30" height="30" fill="white" transform="translate(0.25)"/>
</clipPath>
</defs>
</svg>
