<svg width="42" height="42" viewBox="0 0 42 42" fill="none" xmlns="http://www.w3.org/2000/svg">
<g clip-path="url(#clip0_55_5285)">
<path d="M19.3735 11.962C20.3963 11.7865 21.0831 10.8152 20.9076 9.79247C20.7321 8.76975 19.7608 8.08293 18.738 8.25842C17.7153 8.43391 17.0285 9.40525 17.204 10.428C17.3795 11.4507 18.3508 12.1375 19.3735 11.962Z" fill="white"/>
<path d="M6.5708 21.7843C7.59352 21.6088 8.28034 20.6375 8.10485 19.6147C7.92936 18.592 6.95802 17.9052 5.9353 18.0807C4.91258 18.2562 4.22576 19.2275 4.40125 20.2502C4.57674 21.273 5.54808 21.9598 6.5708 21.7843Z" fill="white"/>
<path d="M34.7183 16.9547C35.741 16.7792 36.4278 15.8079 36.2523 14.7851C36.0768 13.7624 35.1055 13.0756 34.0828 13.2511C33.06 13.4266 32.3732 14.3979 32.5487 15.4206C32.7242 16.4434 33.6955 17.1302 34.7183 16.9547Z" fill="white"/>
<path d="M33.3924 17.7616C32.9333 17.5271 32.4141 17.4369 31.9028 17.5028C31.3915 17.5688 30.9122 17.7878 30.5277 18.1312L27.6976 20.5689C27.6572 20.5975 27.611 20.6166 27.5623 20.625C27.5136 20.6333 27.4636 20.6307 27.4161 20.6172C27.3658 20.6164 27.3163 20.6051 27.2707 20.584C27.2251 20.563 27.1843 20.5326 27.1511 20.4949L22.1004 14.3463C21.8042 14.0023 21.424 13.7409 20.9968 13.5874C20.5696 13.434 20.1099 13.3936 19.6625 13.4704C19.2151 13.5472 18.7952 13.7384 18.4436 14.0255C18.092 14.3126 17.8207 14.6859 17.6561 15.1089L14.944 22.5895C14.9253 22.6361 14.897 22.6783 14.861 22.7134C14.825 22.7485 14.7821 22.7756 14.735 22.7931C14.6946 22.8217 14.6484 22.8409 14.5997 22.8492C14.551 22.8576 14.501 22.8549 14.4535 22.8414L10.9134 21.4968C10.4364 21.3013 9.91145 21.2545 9.40744 21.3628C8.90343 21.471 8.44395 21.7292 8.08935 22.1034C7.72562 22.4687 7.47796 22.9334 7.3775 23.439C7.27704 23.9447 7.32826 24.4688 7.52472 24.9454L12.0067 34.623C12.2097 35.2144 12.6167 35.7142 13.1549 36.0327C13.693 36.3512 14.3271 36.4676 14.9432 36.3609L31.6835 33.4885C32.3 33.3836 32.859 33.0626 33.2601 32.5829C33.6613 32.1032 33.8785 31.4963 33.8727 30.871L34.8721 20.2528C34.8985 19.738 34.772 19.2268 34.5088 18.7836C34.2455 18.3404 33.8571 17.9848 33.3924 17.7616Z" fill="white"/>
</g>
<defs>
<clipPath id="clip0_55_5285">
<rect width="36.0742" height="36.0742" fill="white" transform="translate(0.101562 6.30176) rotate(-9.73656)"/>
</clipPath>
</defs>
</svg>
