<svg width="33" height="32" fill="none" xmlns="http://www.w3.org/2000/svg"><path d="M16.86 11.834A4.174 4.174 0 0 0 12.694 16a4.174 4.174 0 0 0 4.165 4.166A4.174 4.174 0 0 0 21.026 16a4.174 4.174 0 0 0-4.165-4.166zM29.352 16c0-1.725.016-3.434-.081-5.156-.097-2-.553-3.775-2.016-5.238C25.791 4.14 24.02 3.687 22.02 3.59c-1.725-.096-3.434-.08-5.156-.08-1.725 0-3.435-.016-5.157.08-2 .097-3.775.554-5.237 2.016-1.466 1.466-1.919 3.238-2.016 5.238-.097 1.725-.081 3.434-.081 5.156 0 1.722-.016 3.434.081 5.156.097 2 .553 3.775 2.016 5.238 1.466 1.465 3.237 1.918 5.237 2.015 1.725.097 3.435.082 5.157.082 1.725 0 3.434.015 5.156-.082 2-.097 3.775-.553 5.237-2.015 1.466-1.466 1.92-3.238 2.016-5.238.1-1.722.081-3.431.081-5.156zM16.86 22.41A6.4 6.4 0 0 1 10.45 16a6.4 6.4 0 0 1 6.41-6.41A6.4 6.4 0 0 1 23.268 16a6.4 6.4 0 0 1-6.41 6.41zm6.672-11.585a1.495 1.495 0 0 1-1.496-1.497c0-.828.668-1.497 1.496-1.497a1.495 1.495 0 0 1 1.384 2.07 1.496 1.496 0 0 1-1.384.924z" fill="#fff" fill-opacity=".4"/></svg>