<svg width="21" height="20" viewBox="0 0 21 20" fill="none" xmlns="http://www.w3.org/2000/svg">
<g clip-path="url(#clip0_5408_8088)">
<path d="M20.7968 5.88005C20.75 4.81738 20.5781 4.0868 20.332 3.45374C20.078 2.78176 19.6873 2.18014 19.1754 1.68002C18.6753 1.1721 18.0697 0.777435 17.4055 0.527447C16.7688 0.281274 16.042 0.109427 14.9794 0.0625732C13.9088 0.0117516 13.5689 0 10.8535 0C8.13813 0 7.79825 0.0117516 6.73161 0.0586052C5.66893 0.105459 4.93835 0.277459 4.30545 0.523479C3.63332 0.777435 3.0317 1.16814 2.53158 1.68002C2.02366 2.18014 1.62915 2.78573 1.37901 3.44992C1.13284 4.0868 0.960989 4.81341 0.914136 5.87609C0.863314 6.9467 0.851562 7.28658 0.851562 10.002C0.851562 12.7173 0.863314 13.0572 0.910168 14.1239C0.957021 15.1865 1.12902 15.9171 1.37519 16.5502C1.62915 17.2221 2.02366 17.8238 2.53158 18.3239C3.0317 18.8318 3.63729 19.2265 4.30148 19.4765C4.93835 19.7226 5.66497 19.8945 6.72779 19.9413C7.79429 19.9883 8.13432 19.9999 10.8497 19.9999C13.5651 19.9999 13.9049 19.9883 14.9716 19.9413C16.0343 19.8945 16.7648 19.7226 17.3977 19.4765C18.7418 18.9568 19.8045 17.8941 20.3242 16.5502C20.5702 15.9133 20.7422 15.1865 20.7891 14.1239C20.8359 13.0572 20.8477 12.7173 20.8477 10.002C20.8477 7.28658 20.8437 6.9467 20.7968 5.88005ZM18.9958 14.0457C18.9528 15.0225 18.7887 15.5499 18.652 15.9015C18.3159 16.7728 17.6244 17.4643 16.7531 17.8004C16.4015 17.9372 15.8702 18.1012 14.8973 18.1441C13.8424 18.1911 13.526 18.2027 10.8575 18.2027C8.18895 18.2027 7.86861 18.1911 6.81753 18.1441C5.84078 18.1012 5.31334 17.9372 4.9617 17.8004C4.52812 17.6402 4.13345 17.3862 3.81311 17.0541C3.48101 16.7298 3.22705 16.3391 3.06681 15.9055C2.93006 15.5539 2.766 15.0225 2.72311 14.0497C2.6761 12.9948 2.66451 12.6783 2.66451 10.0097C2.66451 7.34122 2.6761 7.02087 2.72311 5.96995C2.766 4.99319 2.93006 4.46575 3.06681 4.11412C3.22705 3.68038 3.48101 3.28586 3.81707 2.96536C4.14123 2.63327 4.53193 2.37931 4.96567 2.21921C5.3173 2.08247 5.84872 1.9184 6.8215 1.87537C7.87639 1.82851 8.19292 1.81676 10.8613 1.81676C13.5338 1.81676 13.8501 1.82851 14.9012 1.87537C15.878 1.9184 16.4054 2.08247 16.7571 2.21921C17.1906 2.37931 17.5853 2.63327 17.9057 2.96536C18.2377 3.28967 18.4917 3.68038 18.652 4.11412C18.7887 4.46575 18.9528 4.99701 18.9958 5.96995C19.0427 7.02484 19.0544 7.34122 19.0544 10.0097C19.0544 12.6783 19.0427 12.9908 18.9958 14.0457Z" fill="white"/>
<path d="M10.8487 4.86328C8.01226 4.86328 5.71094 7.16445 5.71094 10.001C5.71094 12.8376 8.01226 15.1387 10.8487 15.1387C13.6852 15.1387 15.9864 12.8376 15.9864 10.001C15.9864 7.16445 13.6852 4.86328 10.8487 4.86328ZM10.8487 13.3337C9.00855 13.3337 7.51595 11.8413 7.51595 10.001C7.51595 8.16074 9.00855 6.66829 10.8487 6.66829C12.6889 6.66829 14.1814 8.16074 14.1814 10.001C14.1814 11.8413 12.6889 13.3337 10.8487 13.3337Z" fill="white"/>
<path d="M17.3912 4.66134C17.3912 5.3237 16.8541 5.86077 16.1916 5.86077C15.5293 5.86077 14.9922 5.3237 14.9922 4.66134C14.9922 3.99882 15.5293 3.46191 16.1916 3.46191C16.8541 3.46191 17.3912 3.99882 17.3912 4.66134Z" fill="white"/>
</g>
<defs>
<clipPath id="clip0_5408_8088">
<rect width="20" height="20" fill="white" transform="translate(0.8125)"/>
</clipPath>
</defs>
</svg>
