<svg width="120" height="160" viewBox="0 0 120 160" fill="none" xmlns="http://www.w3.org/2000/svg">
<path d="M2.99951 47.5L2.03228 47.7539L2.99951 47.5ZM90.9994 60.5L91.7959 59.8953L90.9994 60.5ZM110.148 159.524C110.437 159.994 111.053 160.141 111.524 159.852L119.188 155.135C119.659 154.845 119.805 154.229 119.516 153.759C119.227 153.289 118.611 153.142 118.14 153.431L111.327 157.624L107.134 150.811C106.845 150.341 106.229 150.194 105.758 150.483C105.288 150.773 105.141 151.389 105.431 151.859L110.148 159.524ZM35.2986 0.0203973C28.6927 1.37545 18.2652 5.06001 10.5298 12.5307C2.72975 20.0639 -2.26305 31.3907 2.03228 47.7539L3.96674 47.2461C-0.137926 31.6093 4.61928 21.0195 11.9192 13.9693C19.2838 6.85665 29.3063 3.29122 35.7005 1.9796L35.2986 0.0203973ZM2.03228 47.7539C4.7594 58.1429 12.4755 64.9644 22.1707 69.1524C31.853 73.3348 43.5997 74.938 54.644 74.875C65.6878 74.812 76.13 73.0822 83.2297 70.5187C86.7563 69.2453 89.5806 67.7235 91.2092 66.0016C92.0331 65.1305 92.6105 64.1451 92.7454 63.0591C92.8835 61.9483 92.5408 60.8765 91.7959 59.8953L90.203 61.1047C90.6918 61.7485 90.8232 62.3095 90.7607 62.8125C90.6951 63.3403 90.3972 63.9496 89.7562 64.6273C88.455 66.003 85.9908 67.3953 82.5504 68.6376C75.7161 71.1053 65.5102 72.813 54.6326 72.875C43.7557 72.937 32.308 71.3527 22.9637 67.3164C13.6323 63.2856 6.48962 56.8571 3.96674 47.2461L2.03228 47.7539ZM91.7959 59.8953C89.1015 56.3466 85.9551 54.4958 82.601 54.1176C79.2722 53.7423 75.8955 54.8354 72.7441 56.862C66.4606 60.903 60.7886 68.8282 57.573 77.5283C54.3595 86.2227 53.5105 95.9381 57.2067 103.546C60.9517 111.255 69.206 116.5 83.4995 116.5V114.5C69.7251 114.5 62.3203 109.495 59.0057 102.672C55.6423 95.7494 56.333 86.6523 59.449 78.2217C62.5629 69.7968 68.0101 62.2845 73.8259 58.5442C76.7243 56.6803 79.6423 55.7967 82.377 56.105C85.0864 56.4105 87.7723 57.9034 90.203 61.1047L91.7959 59.8953ZM83.4995 116.5C90.6229 116.5 96.0999 117.882 100.243 120.215C104.377 122.543 107.239 125.849 109.094 129.8C112.827 137.748 112.506 148.354 110.027 158.768L111.972 159.232C114.493 148.646 114.922 137.502 110.905 128.95C108.885 124.651 105.747 121.019 101.225 118.472C96.7117 115.931 90.8762 114.5 83.4995 114.5V116.5Z" fill="#9029F6"/>
</svg>
