<svg width="202" height="204" viewBox="0 0 202 204" fill="none" xmlns="http://www.w3.org/2000/svg">
<g filter="url(#filter0_di_55_5032)">
<path d="M44.0131 81.1294C42.0439 55.6803 41.0594 42.9558 48.3536 34.4381C55.6479 25.9204 68.3724 24.9358 93.8214 22.9667L99.0458 22.5624C124.495 20.5933 137.219 19.6087 145.737 26.903C154.255 34.1972 155.239 46.9217 157.209 72.3708L157.613 77.5952C159.582 103.044 160.566 115.769 153.272 124.286C145.978 132.804 133.253 133.789 107.804 135.758L102.58 136.162C77.131 138.131 64.4065 139.116 55.8888 131.822C47.371 124.527 46.3865 111.803 44.4173 86.3538L44.0131 81.1294Z" fill="url(#paint0_linear_55_5032)"/>
<path d="M44.0131 81.1294C42.0439 55.6803 41.0594 42.9558 48.3536 34.4381C55.6479 25.9204 68.3724 24.9358 93.8214 22.9667L99.0458 22.5624C124.495 20.5933 137.219 19.6087 145.737 26.903C154.255 34.1972 155.239 46.9217 157.209 72.3708L157.613 77.5952C159.582 103.044 160.566 115.769 153.272 124.286C145.978 132.804 133.253 133.789 107.804 135.758L102.58 136.162C77.131 138.131 64.4065 139.116 55.8888 131.822C47.371 124.527 46.3865 111.803 44.4173 86.3538L44.0131 81.1294Z" fill="#EEAD68"/>
</g>
<g clip-path="url(#clip0_55_5032)">
<g filter="url(#filter1_d_55_5032)">
<path d="M121.61 73.1857C122.371 72.8486 123.006 72.2781 123.422 71.5566C123.838 70.8351 124.014 70 123.925 69.1719L123.183 63.4055C123.048 62.398 122.521 61.4846 121.716 60.8634C120.912 60.2422 119.894 59.9632 118.886 60.0872L79.7177 65.1241C78.7102 65.2594 77.7968 65.7866 77.1756 66.5912C76.5543 67.3958 76.2754 68.4128 76.3994 69.4218L77.1409 75.1881C77.2637 76.012 77.6453 76.7754 78.2304 77.3682C78.8156 77.9609 79.5741 78.3523 80.3963 78.4856C81.2015 78.6285 81.94 79.0248 82.5043 79.6167C83.0685 80.2085 83.4291 80.9651 83.5334 81.7762C83.6377 82.5873 83.4803 83.4105 83.0841 84.1259C82.688 84.8413 82.0737 85.4115 81.3309 85.7534C80.5692 86.0905 79.9344 86.661 79.5183 87.3825C79.1021 88.104 78.9261 88.9392 79.0157 89.7673L79.7573 95.5337C79.8927 96.5411 80.4198 97.4545 81.2244 98.0758C82.029 98.697 83.0461 98.9759 84.055 98.852L123.223 93.8151C124.23 93.6797 125.144 93.1526 125.765 92.348C126.386 91.5434 126.665 90.5263 126.541 89.5174L125.8 83.751C125.677 82.9272 125.295 82.1637 124.71 81.571C124.125 80.9782 123.366 80.5869 122.544 80.4535C121.739 80.3106 121.001 79.9144 120.436 79.3225C119.872 78.7306 119.511 77.974 119.407 77.1629C119.303 76.3519 119.46 75.5287 119.856 74.8133C120.253 74.0979 120.867 73.5277 121.61 73.1857ZM108.407 77.3388L105.734 80.1157C105.622 80.2301 105.548 80.3757 105.521 80.5332C105.494 80.6907 105.515 80.8528 105.582 80.998L107.532 85.326C107.596 85.4802 107.611 85.6506 107.575 85.8138C107.539 85.9769 107.453 86.1249 107.33 86.2376C107.207 86.3503 107.051 86.4221 106.886 86.4432C106.72 86.4644 106.552 86.4339 106.404 86.3559L102.559 84.1517C102.406 84.0735 102.232 84.0434 102.061 84.0653C101.89 84.0873 101.73 84.1603 101.602 84.2748L98.4396 87.38C98.3164 87.4929 98.1613 87.565 97.9955 87.5865C97.8298 87.6079 97.6615 87.5777 97.5136 87.5C97.3656 87.4222 97.2453 87.3007 97.169 87.152C97.0927 87.0033 97.0642 86.8347 97.0873 86.6691L97.8706 81.9233C97.8986 81.7659 97.8782 81.6037 97.8121 81.4582C97.746 81.3127 97.6373 81.1906 97.5003 81.1082L94.2114 79.098C94.0828 79.0032 93.9859 78.8716 93.9337 78.7205C93.8814 78.5695 93.8762 78.4062 93.9187 78.2522C93.9612 78.0981 94.0494 77.9606 94.1717 77.8577C94.294 77.7549 94.4446 77.6916 94.6037 77.6761L98.0417 77.234C98.1951 77.2135 98.339 77.1485 98.4557 77.047C98.5724 76.9455 98.6568 76.8119 98.6983 76.6629L99.9214 72.4135C99.9643 72.2659 100.049 72.134 100.166 72.0341C100.283 71.9341 100.427 71.8704 100.579 71.8508C100.731 71.8312 100.886 71.8565 101.025 71.9237C101.163 71.9908 101.279 72.0968 101.358 72.2288L103.616 76.0305C103.694 76.1642 103.809 76.2721 103.948 76.3407C104.086 76.4094 104.242 76.4359 104.396 76.4169L107.66 75.9971C107.83 75.9494 108.012 75.9605 108.176 76.0288C108.34 76.097 108.476 76.2184 108.562 76.3733C108.649 76.5283 108.68 76.7078 108.652 76.8829C108.624 77.058 108.538 77.2186 108.407 77.3388Z" fill="white"/>
</g>
</g>
<defs>
<filter id="filter0_di_55_5032" x="0.589355" y="3.13892" width="200.447" height="200.447" filterUnits="userSpaceOnUse" color-interpolation-filters="sRGB">
<feFlood flood-opacity="0" result="BackgroundImageFix"/>
<feColorMatrix in="SourceAlpha" type="matrix" values="0 0 0 0 0 0 0 0 0 0 0 0 0 0 0 0 0 0 127 0" result="hardAlpha"/>
<feMorphology radius="23" operator="erode" in="SourceAlpha" result="effect1_dropShadow_55_5032"/>
<feOffset dy="24"/>
<feGaussianBlur stdDeviation="32.5"/>
<feComposite in2="hardAlpha" operator="out"/>
<feColorMatrix type="matrix" values="0 0 0 0 0.588235 0 0 0 0 0.164706 0 0 0 0 0.917647 0 0 0 0.22 0"/>
<feBlend mode="normal" in2="BackgroundImageFix" result="effect1_dropShadow_55_5032"/>
<feBlend mode="normal" in="SourceGraphic" in2="effect1_dropShadow_55_5032" result="shape"/>
<feColorMatrix in="SourceAlpha" type="matrix" values="0 0 0 0 0 0 0 0 0 0 0 0 0 0 0 0 0 0 127 0" result="hardAlpha"/>
<feOffset/>
<feGaussianBlur stdDeviation="30.5"/>
<feComposite in2="hardAlpha" operator="arithmetic" k2="-1" k3="1"/>
<feColorMatrix type="matrix" values="0 0 0 0 1 0 0 0 0 1 0 0 0 0 1 0 0 0 0.7 0"/>
<feBlend mode="normal" in2="shape" result="effect2_innerShadow_55_5032"/>
</filter>
<filter id="filter1_d_55_5032" x="72.3706" y="60.0583" width="58.1992" height="46.8225" filterUnits="userSpaceOnUse" color-interpolation-filters="sRGB">
<feFlood flood-opacity="0" result="BackgroundImageFix"/>
<feColorMatrix in="SourceAlpha" type="matrix" values="0 0 0 0 0 0 0 0 0 0 0 0 0 0 0 0 0 0 127 0" result="hardAlpha"/>
<feOffset dy="4"/>
<feGaussianBlur stdDeviation="2"/>
<feComposite in2="hardAlpha" operator="out"/>
<feColorMatrix type="matrix" values="0 0 0 0 0 0 0 0 0 0 0 0 0 0 0 0 0 0 0.25 0"/>
<feBlend mode="normal" in2="BackgroundImageFix" result="effect1_dropShadow_55_5032"/>
<feBlend mode="normal" in="SourceGraphic" in2="effect1_dropShadow_55_5032" result="shape"/>
</filter>
<linearGradient id="paint0_linear_55_5032" x1="144.953" y1="151.716" x2="45.3584" y2="19.2705" gradientUnits="userSpaceOnUse">
<stop stop-color="#0B85DA"/>
<stop offset="1" stop-color="#03C3FF"/>
</linearGradient>
<clipPath id="clip0_55_5032">
<rect width="52.6539" height="52.6539" fill="white" transform="translate(72.0005 56.7156) rotate(-7.32787)"/>
</clipPath>
</defs>
</svg>
