<svg width="59" height="59" viewBox="0 0 59 59" fill="none" xmlns="http://www.w3.org/2000/svg">
<g clip-path="url(#clip0_55_4898)">
<path d="M42.504 18.4273L35.1367 20.4013L35.1045 18.5564C35.0694 16.6061 34.4335 14.7142 33.2834 13.1387C32.1333 11.5632 30.5251 10.381 28.6783 9.75326C27.9189 9.49472 27.1114 9.40923 26.3147 9.50304C25.5181 9.59684 24.7525 9.86758 24.074 10.2954C23.3954 10.7233 22.8212 11.2974 22.3932 11.9759C21.9652 12.6543 21.6942 13.4198 21.6003 14.2165L21.3135 16.6513C20.8965 20.0963 19.8937 23.4448 18.3485 26.552C16.863 25.8876 15.1948 25.7515 13.6212 26.1664C11.7768 26.6606 10.2041 27.8673 9.24936 29.521C8.29458 31.1748 8.03585 33.14 8.53008 34.9845L12.2571 48.8939C12.6408 50.356 13.4765 51.6597 14.6449 52.6189C15.8133 53.578 17.2548 54.1437 18.7637 54.2352C20.2726 54.3267 21.7719 53.9393 23.0477 53.1284C24.3234 52.3174 25.3105 51.1243 25.8681 49.7192C28.1761 51.0188 30.9025 51.3591 33.4592 50.6668L43.8124 47.8926C44.9943 47.5795 46.1024 47.035 47.0724 46.2905C48.0424 45.5461 48.855 44.6166 49.4633 43.5559C50.7884 41.2754 51.648 38.7547 51.9922 36.1397C52.3364 33.5248 52.1585 30.8675 51.4687 28.3218L49.973 22.7395C49.5527 21.1783 48.5303 19.8475 47.1301 19.0391C45.7299 18.2307 44.0662 18.0106 42.504 18.4273ZM19.8329 49.3486C19.2181 49.5133 18.563 49.4271 18.0117 49.1088C17.4605 48.7906 17.0583 48.2664 16.8935 47.6515L13.1665 33.7422C13.0018 33.1274 13.088 32.4723 13.4063 31.921C13.7245 31.3698 14.2487 30.9676 14.8636 30.8028C15.4784 30.6381 16.1335 30.7243 16.6847 31.0426C17.236 31.3608 17.6382 31.885 17.803 32.4999L21.53 46.4092C21.6947 47.024 21.6085 47.6791 21.2902 48.2304C20.9719 48.7816 20.4477 49.1838 19.8329 49.3486ZM46.8323 29.5641C47.3567 31.5009 47.4918 33.5225 47.2299 35.5118C46.968 37.5012 46.3142 39.4189 45.3064 41.1539C45.0118 41.6677 44.6183 42.1179 44.1484 42.4783C43.6786 42.8388 43.1419 43.1024 42.5694 43.2539L32.2162 46.028C31.5345 46.2126 30.8229 46.2602 30.1227 46.1681C29.4224 46.076 28.7474 45.8459 28.1367 45.4912L25.9092 44.2071L22.4394 31.2575C22.3207 30.8264 22.1618 30.4073 21.9648 30.0057C24.1425 26.0482 25.5399 21.7094 26.0812 17.2248L26.3731 14.7812C26.3816 14.6947 26.4101 14.6114 26.4564 14.5377C26.5026 14.4641 26.5653 14.4023 26.6395 14.357C26.7132 14.3111 26.796 14.2821 26.8822 14.2719C26.9684 14.2617 27.0557 14.2706 27.138 14.298C28.048 14.6071 28.8405 15.1895 29.4073 15.9656C29.9741 16.7418 30.2877 17.6739 30.3052 18.6348L30.381 23.554C30.3866 23.9197 30.4757 24.2792 30.6414 24.6051C30.8072 24.9311 31.0452 25.2149 31.3374 25.4348C31.6296 25.6547 31.9681 25.8049 32.3272 25.874C32.6863 25.9431 33.0564 25.9293 33.4094 25.8335L43.7463 23.0637C44.0789 22.9752 44.433 23.0222 44.7311 23.1943C45.0291 23.3664 45.2468 23.6495 45.3365 23.9818L46.8323 29.5641Z" fill="white"/>
</g>
<defs>
<clipPath id="clip0_55_4898">
<rect width="48" height="48" fill="white" transform="translate(0 12.4235) rotate(-15)"/>
</clipPath>
</defs>
</svg>
