<svg width="51" height="51" viewBox="0 0 51 51" fill="none" xmlns="http://www.w3.org/2000/svg">
<rect x="0.012207" y="0.150391" width="50" height="50" rx="18" fill="white"/>
<g clip-path="url(#clip0_222_32)">
<path d="M32.2144 25.678H30.8725C30.5946 25.678 30.3692 25.9033 30.3692 26.1812V32.2994C30.3692 32.6241 30.105 32.8884 29.7802 32.8884H18.0548C17.7301 32.8884 17.466 32.6241 17.466 32.2994V20.5742C17.466 20.2494 17.7301 19.9851 18.0548 19.9851H24.4862C24.7641 19.9851 24.9895 19.7598 24.9895 19.4818V18.1399C24.9895 17.862 24.7641 17.6367 24.4862 17.6367H18.0548C16.4352 17.6367 15.1177 18.9545 15.1177 20.5742V32.2995C15.1177 33.9191 16.4353 35.2368 18.0548 35.2368H29.7801C31.3998 35.2368 32.7175 33.9191 32.7175 32.2995V26.1813C32.7176 25.9033 32.4923 25.678 32.2144 25.678Z" fill="#981CDA"/>
<path d="M33.6142 16.2368H28.2765C27.9986 16.2368 27.7733 16.4621 27.7733 16.74V18.0819C27.7733 18.3599 27.9986 18.5852 28.2765 18.5852H30.1085L23.2148 25.4788C23.0183 25.6753 23.0183 25.9939 23.2148 26.1904L24.1636 27.1394C24.258 27.2338 24.386 27.2868 24.5195 27.2868C24.653 27.2868 24.781 27.2338 24.8753 27.1394L31.7691 20.2456V22.0776C31.7691 22.3555 31.9944 22.5808 32.2723 22.5808H33.6142C33.8921 22.5808 34.1174 22.3555 34.1174 22.0776V16.74C34.1174 16.4621 33.8921 16.2368 33.6142 16.2368Z" fill="#981CDA"/>
</g>
<defs>
<clipPath id="clip0_222_32">
<rect width="19" height="19" fill="white" transform="translate(15.1177 16.2368)"/>
</clipPath>
</defs>
</svg>
