<svg width="399" height="220" viewBox="0 0 399 220" fill="none" xmlns="http://www.w3.org/2000/svg">
<rect x="74.209" y="10.5142" width="295.394" height="207.925" rx="22" stroke="white" stroke-opacity="0.1" stroke-width="2"/>
<circle cx="96.0614" cy="29.0614" r="3.0614" fill="white" fill-opacity="0.19"/>
<circle cx="105.641" cy="29.0614" r="3.0614" fill="white" fill-opacity="0.19"/>
<circle cx="115.22" cy="29.0614" r="3.0614" fill="white" fill-opacity="0.19"/>
<rect x="93" y="56" width="119" height="40" rx="4" fill="#141724"/>
<path d="M110.366 82.525C105.429 82.525 101.479 78.572 101.479 73.6307C101.479 68.6894 105.429 64.7363 110.366 64.7363C115.304 64.7363 119.254 68.6894 119.254 73.6307C119.254 78.4732 115.304 82.525 110.366 82.525Z" fill="#222531"/>
<path d="M115.699 78.1766C114.316 76.793 113.032 76.0024 110.366 76.0024C107.601 76.0024 106.416 76.8919 105.033 78.1766C106.317 79.659 108.292 80.6473 110.465 80.6473C112.44 80.6473 114.217 79.8567 115.501 78.5719C115.501 78.4731 115.699 78.3743 115.699 78.1766C115.798 78.1766 115.699 78.1766 115.699 78.1766Z" fill="#989FB0"/>
<path d="M110.365 74.3221C112.001 74.3221 113.327 72.9948 113.327 71.3574C113.327 69.72 112.001 68.3926 110.365 68.3926C108.728 68.3926 107.402 69.72 107.402 71.3574C107.402 72.9948 108.728 74.3221 110.365 74.3221Z" fill="#989FB0"/>
<path d="M125.551 76.0918H171.124" stroke="#222531" stroke-width="2" stroke-miterlimit="10"/>
<path d="M125.551 67.9536H171.124" stroke="#222531" stroke-width="2" stroke-miterlimit="10"/>
<path d="M125.551 84.2295H153.22" stroke="#222531" stroke-width="2" stroke-miterlimit="10"/>
<rect x="93" y="104" width="119" height="40" rx="4" fill="#141724"/>
<path d="M110.366 130.525C105.429 130.525 101.479 126.572 101.479 121.631C101.479 116.689 105.429 112.736 110.366 112.736C115.304 112.736 119.254 116.689 119.254 121.631C119.254 126.473 115.304 130.525 110.366 130.525Z" fill="#222531"/>
<path d="M115.699 126.177C114.316 124.793 113.032 124.002 110.366 124.002C107.601 124.002 106.416 124.892 105.033 126.177C106.317 127.659 108.292 128.647 110.465 128.647C112.44 128.647 114.217 127.857 115.501 126.572C115.501 126.473 115.699 126.374 115.699 126.177C115.798 126.177 115.699 126.177 115.699 126.177Z" fill="#989FB0"/>
<path d="M110.365 122.322C112.001 122.322 113.327 120.995 113.327 119.357C113.327 117.72 112.001 116.393 110.365 116.393C108.728 116.393 107.402 117.72 107.402 119.357C107.402 120.995 108.728 122.322 110.365 122.322Z" fill="#989FB0"/>
<path d="M125.551 124.092H171.124" stroke="#222531" stroke-width="2" stroke-miterlimit="10"/>
<path d="M125.551 115.954H171.124" stroke="#222531" stroke-width="2" stroke-miterlimit="10"/>
<path d="M125.551 132.229H153.22" stroke="#222531" stroke-width="2" stroke-miterlimit="10"/>
<rect x="93" y="152" width="119" height="40" rx="4" fill="#141724"/>
<path d="M110.366 178.525C105.429 178.525 101.479 174.572 101.479 169.631C101.479 164.689 105.429 160.736 110.366 160.736C115.304 160.736 119.254 164.689 119.254 169.631C119.254 174.473 115.304 178.525 110.366 178.525Z" fill="#222531"/>
<path d="M115.699 174.177C114.316 172.793 113.032 172.002 110.366 172.002C107.601 172.002 106.416 172.892 105.033 174.177C106.317 175.659 108.292 176.647 110.465 176.647C112.44 176.647 114.217 175.857 115.501 174.572C115.501 174.473 115.699 174.374 115.699 174.177C115.798 174.177 115.699 174.177 115.699 174.177Z" fill="#989FB0"/>
<path d="M110.365 170.322C112.001 170.322 113.327 168.995 113.327 167.357C113.327 165.72 112.001 164.393 110.365 164.393C108.728 164.393 107.402 165.72 107.402 167.357C107.402 168.995 108.728 170.322 110.365 170.322Z" fill="#989FB0"/>
<path d="M125.551 172.092H171.124" stroke="#222531" stroke-width="2" stroke-miterlimit="10"/>
<path d="M125.551 163.954H171.124" stroke="#222531" stroke-width="2" stroke-miterlimit="10"/>
<path d="M125.551 180.229H153.22" stroke="#222531" stroke-width="2" stroke-miterlimit="10"/>
<rect x="228" y="104" width="119" height="40" rx="4" fill="#141724"/>
<path d="M245.366 130.525C240.429 130.525 236.479 126.572 236.479 121.631C236.479 116.689 240.429 112.736 245.366 112.736C250.304 112.736 254.254 116.689 254.254 121.631C254.254 126.473 250.304 130.525 245.366 130.525Z" fill="#222531"/>
<path d="M250.699 126.177C249.316 124.793 248.032 124.002 245.366 124.002C242.601 124.002 241.416 124.892 240.033 126.177C241.317 127.659 243.292 128.647 245.465 128.647C247.44 128.647 249.217 127.857 250.501 126.572C250.501 126.473 250.699 126.374 250.699 126.177C250.798 126.177 250.699 126.177 250.699 126.177Z" fill="#989FB0"/>
<path d="M245.365 122.322C247.001 122.322 248.327 120.995 248.327 119.357C248.327 117.72 247.001 116.393 245.365 116.393C243.728 116.393 242.402 117.72 242.402 119.357C242.402 120.995 243.728 122.322 245.365 122.322Z" fill="#989FB0"/>
<path d="M260.551 124.092H306.124" stroke="#222531" stroke-width="2" stroke-miterlimit="10"/>
<path d="M260.551 115.954H306.124" stroke="#222531" stroke-width="2" stroke-miterlimit="10"/>
<path d="M260.551 132.229H288.22" stroke="#222531" stroke-width="2" stroke-miterlimit="10"/>
<rect x="228" y="152" width="119" height="40" rx="4" fill="#141724"/>
<path d="M245.366 178.525C240.429 178.525 236.479 174.572 236.479 169.631C236.479 164.689 240.429 160.736 245.366 160.736C250.304 160.736 254.254 164.689 254.254 169.631C254.254 174.473 250.304 178.525 245.366 178.525Z" fill="#222531"/>
<path d="M250.699 174.177C249.316 172.793 248.032 172.002 245.366 172.002C242.601 172.002 241.416 172.892 240.033 174.177C241.317 175.659 243.292 176.647 245.465 176.647C247.44 176.647 249.217 175.857 250.501 174.572C250.501 174.473 250.699 174.374 250.699 174.177C250.798 174.177 250.699 174.177 250.699 174.177Z" fill="#989FB0"/>
<path d="M245.365 170.322C247.001 170.322 248.327 168.995 248.327 167.357C248.327 165.72 247.001 164.393 245.365 164.393C243.728 164.393 242.402 165.72 242.402 167.357C242.402 168.995 243.728 170.322 245.365 170.322Z" fill="#989FB0"/>
<path d="M260.551 172.092H306.124" stroke="#222531" stroke-width="2" stroke-miterlimit="10"/>
<path d="M260.551 163.954H306.124" stroke="#222531" stroke-width="2" stroke-miterlimit="10"/>
<path d="M260.551 180.229H288.22" stroke="#222531" stroke-width="2" stroke-miterlimit="10"/>
<g filter="url(#filter0_i_204_6)">
<rect x="236" y="24.1963" width="154" height="66" rx="14" transform="rotate(-9.03978 236 24.1963)" fill="#141724"/>
<rect x="236" y="24.1963" width="154" height="66" rx="14" transform="rotate(-9.03978 236 24.1963)" fill="url(#paint0_linear_204_6)"/>
</g>
<path d="M271.175 62.917C263.129 64.1971 255.667 58.7797 254.386 50.7278C253.105 42.6759 258.517 35.2103 266.564 33.9302C274.61 32.6501 282.071 38.0675 283.352 46.1194C284.608 54.0103 279.221 61.6369 271.175 62.917Z" fill="white" fill-opacity="0.22"/>
<path d="M278.737 54.4487C276.126 52.5526 273.829 51.5971 269.484 52.2884C264.978 53.0052 263.277 54.7618 261.358 57.2137C263.834 59.2965 267.309 60.3948 270.849 59.8316C274.067 59.3195 276.759 57.5704 278.518 55.1441C278.492 54.983 278.788 54.7708 278.737 54.4487C278.898 54.4231 278.737 54.4487 278.737 54.4487Z" fill="white"/>
<path d="M269.047 49.5509C271.713 49.1268 273.53 46.6199 273.106 43.9517C272.681 41.2836 270.176 39.4645 267.509 39.8887C264.843 40.3129 263.026 42.8197 263.45 45.4879C263.875 48.156 266.38 49.9751 269.047 49.5509Z" fill="white"/>
<path d="M294.252 48.4966L368.512 36.6821" stroke="white" stroke-opacity="0.22" stroke-width="2" stroke-miterlimit="10"/>
<path d="M292.142 35.2358L366.402 23.4213" stroke="white" stroke-opacity="0.22" stroke-width="2" stroke-miterlimit="10"/>
<path d="M296.362 61.7573L341.448 54.5842" stroke="white" stroke-opacity="0.22" stroke-width="2" stroke-miterlimit="10"/>
<g filter="url(#filter1_di_204_6)">
<rect x="34.6943" y="73" width="81.6208" height="81.6208" rx="19" transform="rotate(17.6105 34.6943 73)" fill="#F10275"/>
</g>
<path d="M78.3476 132.062C77.3325 131.046 74.1322 128.684 70.9548 126.854C70.9204 126.906 70.886 126.957 70.8515 127.015C74.4361 121.239 73.7307 113.548 68.7123 108.53C62.8623 102.685 53.3818 102.685 47.5318 108.53C41.6818 114.385 41.6876 123.86 47.5318 129.71C52.5043 134.677 60.0921 135.428 65.8504 131.953C67.5079 134.832 69.9224 138.21 71.0637 139.351C73.0711 141.359 76.3402 141.353 78.3476 139.345C80.355 137.332 80.355 134.075 78.3476 132.062ZM64.7664 125.764C61.0959 129.429 55.1541 129.429 51.4835 125.759C47.8187 122.094 47.8129 116.152 51.4835 112.481C55.1484 108.816 61.0959 108.816 64.7607 112.481C68.4313 116.152 68.4313 122.099 64.7664 125.764Z" fill="white"/>
<defs>
<filter id="filter0_i_204_6" x="238.024" y="2.02344" width="158.41" height="85.3296" filterUnits="userSpaceOnUse" color-interpolation-filters="sRGB">
<feFlood flood-opacity="0" result="BackgroundImageFix"/>
<feBlend mode="normal" in="SourceGraphic" in2="BackgroundImageFix" result="shape"/>
<feColorMatrix in="SourceAlpha" type="matrix" values="0 0 0 0 0 0 0 0 0 0 0 0 0 0 0 0 0 0 127 0" result="hardAlpha"/>
<feOffset/>
<feGaussianBlur stdDeviation="10"/>
<feComposite in2="hardAlpha" operator="arithmetic" k2="-1" k3="1"/>
<feColorMatrix type="matrix" values="0 0 0 0 1 0 0 0 0 1 0 0 0 0 1 0 0 0 0.3 0"/>
<feBlend mode="normal" in2="shape" result="effect1_innerShadow_204_6"/>
</filter>
<filter id="filter1_di_204_6" x="0.853516" y="77.853" width="120.784" height="130.784" filterUnits="userSpaceOnUse" color-interpolation-filters="sRGB">
<feFlood flood-opacity="0" result="BackgroundImageFix"/>
<feColorMatrix in="SourceAlpha" type="matrix" values="0 0 0 0 0 0 0 0 0 0 0 0 0 0 0 0 0 0 127 0" result="hardAlpha"/>
<feMorphology radius="16" operator="erode" in="SourceAlpha" result="effect1_dropShadow_204_6"/>
<feOffset dy="24"/>
<feGaussianBlur stdDeviation="15"/>
<feComposite in2="hardAlpha" operator="out"/>
<feColorMatrix type="matrix" values="0 0 0 0 0.588235 0 0 0 0 0.164706 0 0 0 0 0.917647 0 0 0 0.5 0"/>
<feBlend mode="normal" in2="BackgroundImageFix" result="effect1_dropShadow_204_6"/>
<feBlend mode="normal" in="SourceGraphic" in2="effect1_dropShadow_204_6" result="shape"/>
<feColorMatrix in="SourceAlpha" type="matrix" values="0 0 0 0 0 0 0 0 0 0 0 0 0 0 0 0 0 0 127 0" result="hardAlpha"/>
<feOffset/>
<feGaussianBlur stdDeviation="20"/>
<feComposite in2="hardAlpha" operator="arithmetic" k2="-1" k3="1"/>
<feColorMatrix type="matrix" values="0 0 0 0 1 0 0 0 0 1 0 0 0 0 1 0 0 0 0.5 0"/>
<feBlend mode="normal" in2="shape" result="effect2_innerShadow_204_6"/>
</filter>
<linearGradient id="paint0_linear_204_6" x1="184.12" y1="16.0297" x2="203.595" y2="126.684" gradientUnits="userSpaceOnUse">
<stop stop-color="#B670D3"/>
<stop offset="0.9964" stop-color="#0F0FF2"/>
</linearGradient>
</defs>
</svg>
