<svg width="128" height="62" fill="none" xmlns="http://www.w3.org/2000/svg"><path d="M15.407 42.14c-.82-.529-1.64-.94-2.636-1.233-.938-.294-1.875-.528-2.695-.763-.644-.176-1.347-.352-1.933-.529a7.377 7.377 0 0 1-1.7-.704c-.468-.293-.878-.587-1.17-.998a2.437 2.437 0 0 1-.47-1.467c0-1.29.41-2.289 1.172-2.934.82-.646 1.816-.998 3.164-.998.82 0 1.816.059 2.87.235 1.055.176 2.226.47 3.398.998l1.171-2.817c-1.113-.646-2.343-1.057-3.632-1.292a20.495 20.495 0 0 0-3.632-.352c-2.694 0-4.862.646-6.385 1.937C1.406 32.514.586 34.275.586 36.505c0 1.232.234 2.171.703 2.993.468.763 1.113 1.409 1.874 1.937.82.528 1.7.939 2.754 1.232 1.054.352 2.109.646 3.28.94.703.175 1.348.41 1.933.586a4.65 4.65 0 0 1 1.523.763c.41.294.762.646.996 1.057.235.41.352.939.352 1.584 0 1.468-.469 2.524-1.348 3.11-.937.588-2.226.881-3.866.881-.879 0-1.933-.117-3.222-.293-1.347-.118-2.812-.587-4.393-1.291L0 52.938c1.347.704 2.753 1.232 4.276 1.526 1.524.293 2.93.41 4.16.41 3.046 0 5.448-.586 7.146-1.819 1.7-1.173 2.578-2.993 2.578-5.399 0-1.409-.234-2.524-.761-3.404-.586-.88-1.23-1.585-1.992-2.113z" fill="url(#a)"/><path d="M34.797 39.381c-.644-.88-1.464-1.526-2.519-2.054-1.054-.528-2.343-.763-3.866-.763-1.523 0-2.812.235-3.866.763a8.4 8.4 0 0 0-2.636 2.054c-.645.88-1.172 1.82-1.465 2.935a13.707 13.707 0 0 0-.469 3.462c0 1.233.117 2.407.41 3.522.293 1.115.762 2.054 1.348 2.934.644.822 1.464 1.467 2.519 1.995 1.054.47 2.343.705 3.866.705 1.582 0 2.93-.235 4.042-.763 1.055-.528 1.933-1.174 2.636-2.054a8.51 8.51 0 0 0 1.406-2.935c.293-1.115.41-2.23.41-3.404 0-1.173-.117-2.347-.41-3.462-.293-1.116-.761-2.113-1.406-2.935zm-2.46 8.686c-.117.763-.293 1.409-.586 1.996a3.584 3.584 0 0 1-1.23 1.408c-.527.352-1.23.528-2.109.528-.937 0-1.64-.176-2.226-.528a3.717 3.717 0 0 1-1.347-1.35 6.65 6.65 0 0 1-.645-1.995 15.473 15.473 0 0 1-.176-2.406c0-.763.059-1.526.176-2.29.117-.762.352-1.467.703-2.053.352-.587.762-1.116 1.348-1.468a4.099 4.099 0 0 1 2.167-.587c.879 0 1.582.176 2.109.587.527.411.937.88 1.289 1.526.293.587.527 1.291.585 2.054.118.763.118 1.526.118 2.23 0 .88-.059 1.644-.176 2.348z" fill="url(#b)"/><path d="M49.56 51.53c-.762.175-1.64.293-2.52.293-.937 0-1.64-.176-2.284-.47-.586-.293-1.055-.704-1.465-1.232a4.796 4.796 0 0 1-.761-1.937c-.176-.763-.235-1.584-.235-2.465 0-1.878.41-3.345 1.23-4.46.82-1.057 2.05-1.644 3.633-1.644.527 0 1.171.06 1.816.118.644.059 1.406.235 2.226.47l.703-2.818a12.67 12.67 0 0 0-2.754-.704 18.647 18.647 0 0 0-2.46-.176c-1.758 0-3.163.293-4.218.939-1.054.587-1.933 1.409-2.519 2.289-.586.939-1.054 1.937-1.289 3.052a15.427 15.427 0 0 0-.351 3.169c0 1.233.117 2.406.41 3.521.293 1.057.703 1.996 1.347 2.817.645.822 1.465 1.409 2.52 1.878 1.054.47 2.342.705 3.924.705 1.172 0 2.343-.118 3.456-.411 1.113-.294 2.11-.587 2.93-1.056l-.88-2.642c-.878.353-1.64.587-2.46.764z" fill="url(#c)"/><path d="M59.108 36.447h-3.925v18.135h3.925V36.447z" fill="url(#d)"/><path d="M57.175 29.345c-.703 0-1.288.234-1.698.645-.47.47-.645.998-.645 1.644 0 .645.234 1.173.645 1.584.468.47.995.646 1.698.646.762 0 1.348-.235 1.758-.646.468-.47.644-.998.644-1.585 0-.645-.234-1.173-.644-1.643a2.59 2.59 0 0 0-1.758-.645z" fill="url(#e)"/><path d="M113.998 41.67a10.25 10.25 0 0 0-.703-1.878c-.293-.587-.761-1.174-1.289-1.644a7.278 7.278 0 0 0-2.108-1.174c-.879-.293-1.875-.469-3.105-.469-1.699 0-3.105.293-4.159.939-1.055.646-1.875 1.409-2.461 2.406a9.287 9.287 0 0 0-1.23 3.052c-.234 1.056-.352 2.054-.352 2.935 0 1.232.118 2.406.352 3.462.234 1.115.644 2.054 1.289 2.876.644.822 1.464 1.467 2.519 1.995 1.054.47 2.46.705 4.1.705 1.231 0 2.402-.118 3.574-.411a15.004 15.004 0 0 0 3.398-1.291l-.762-2.465a12.96 12.96 0 0 1-2.812.88 14.87 14.87 0 0 1-2.87.294c-.879 0-1.641-.118-2.226-.411-.586-.294-1.114-.646-1.465-1.174a5.12 5.12 0 0 1-.82-1.702c-.176-.646-.234-1.35-.234-2.172h11.716v-1.408c0-.41 0-.94-.059-1.526 0-.587-.117-1.232-.293-1.82zm-11.247 2.582c.058-.646.175-1.291.293-1.937.175-.587.41-1.173.703-1.643.351-.47.761-.822 1.288-1.115.528-.294 1.172-.411 1.934-.411.703 0 1.347.117 1.816.352.468.235.878.587 1.171 1.057.293.47.469.997.586 1.584.117.646.176 1.291.176 2.054h-7.967v.059z" fill="url(#f)"/><path d="M127.179 51.236c-.644.176-1.289.293-1.816.41-.527.118-.996.118-1.406.118-.937 0-1.581-.235-1.933-.763-.351-.47-.469-1.174-.469-2.054v-9.332h5.273v-2.758h-5.214V32.22l-2.578.352c0 .06-.117.294-.175.705-.117.41-.235.821-.352 1.29-.117.47-.234.94-.351 1.292-.117.41-.176.646-.176.704l-2.753.822v2.172h2.519v10.446c0 1.409.41 2.583 1.171 3.404.82.88 2.168 1.291 4.16 1.291.761 0 1.523-.058 2.401-.234.82-.176 1.582-.411 2.285-.763l-.586-2.465z" fill="url(#g)"/><path d="M95.253 32.749v-3.228H91.21v6.867l4.042-3.639z" fill="url(#h)"/><path d="M91.21 39.85v9.743c0 1.057-.116 2.054-.292 2.817-.176.822-.527 1.526-.996 2.23-.469.646-1.113 1.292-1.933 1.879A30.095 30.095 0 0 1 85 58.397l1.055 2.876c3.046-.88 5.33-2.23 6.912-4.109 1.582-1.82 2.343-4.401 2.343-7.63V35.567l-4.1 4.285z" fill="url(#i)"/><path d="m85.587 41.435.059-11.856h-3.984v15.436l3.925-3.58z" fill="url(#j)"/><path d="M81.662 49.71v4.871h3.925v-8.98l-3.925 4.11z" fill="url(#k)"/><path d="M76.742 54.816c.351-.058.761-.058 1.171-.176.645-.117 1.23-.352 1.758-.587L79.495 52l-2.753 2.817z" fill="url(#l)"/><path d="m72.406 53.408 4.687-4.226v-6.573c0-1.115-.176-2.054-.469-2.817-.293-.763-.703-1.409-1.288-1.878-.528-.47-1.23-.822-1.992-.998a12.633 12.633 0 0 0-2.695-.293c-1.172 0-2.402.117-3.69.352-1.29.234-2.461.587-3.457 1.056.117.41.234.822.352 1.291.117.411.234.88.351 1.291a18.876 18.876 0 0 1 2.753-.704 15.39 15.39 0 0 1 2.754-.235c1.406 0 2.343.294 2.812.822.468.528.761 1.467.761 2.758v.998l-4.276.293c-.996.06-1.875.177-2.754.411-.82.235-1.581.587-2.226 1.057a5.792 5.792 0 0 0-1.523 1.643c-.351.646-.527 1.409-.527 2.23 0 .528.059 1.057.234 1.644.176.587.41 1.115.82 1.643s.938.939 1.64 1.291c.704.352 1.582.528 2.637.528.293 0 .586 0 1.054-.058.41 0 .88-.118 1.465-.235.527-.118 1.113-.352 1.757-.704.235-.235.528-.411.82-.587zm-3.397-1.233c-.996 0-1.758-.235-2.168-.704-.468-.47-.644-1.174-.644-2.054 0-.822.234-1.409.761-1.878.47-.47 1.29-.763 2.344-.822l4.042-.293v3.814a8.324 8.324 0 0 1-2.168 1.468c-.761.293-1.464.47-2.167.47z" fill="url(#m)"/><path d="M113.998 41.67a10.25 10.25 0 0 0-.703-1.878c-.293-.587-.761-1.174-1.289-1.644a7.278 7.278 0 0 0-2.108-1.174c-.879-.293-1.875-.469-3.105-.469-1.699 0-3.105.293-4.159.939-1.055.646-1.875 1.409-2.461 2.406a9.287 9.287 0 0 0-1.23 3.052c-.234 1.056-.352 2.054-.352 2.935 0 1.232.118 2.406.352 3.462.234 1.115.644 2.054 1.289 2.876.644.822 1.464 1.467 2.519 1.995 1.054.47 2.46.705 4.1.705 1.231 0 2.402-.118 3.574-.411a15.004 15.004 0 0 0 3.398-1.291l-.762-2.465a12.96 12.96 0 0 1-2.812.88 14.87 14.87 0 0 1-2.87.294c-.879 0-1.641-.118-2.226-.411-.586-.294-1.114-.646-1.465-1.174a5.12 5.12 0 0 1-.82-1.702c-.176-.646-.234-1.35-.234-2.172h11.716v-1.408c0-.41 0-.94-.059-1.526 0-.587-.117-1.232-.293-1.82zm-11.247 2.582c.058-.646.175-1.291.293-1.937.175-.587.41-1.173.703-1.643.351-.47.761-.822 1.288-1.115.528-.294 1.172-.411 1.934-.411.703 0 1.347.117 1.816.352.468.235.878.587 1.171 1.057.293.47.469.997.586 1.584.117.646.176 1.291.176 2.054h-7.967v.059z" fill="url(#n)"/><path d="M127.179 51.236c-.644.176-1.289.293-1.816.41-.527.118-.996.118-1.406.118-.937 0-1.581-.235-1.933-.763-.351-.47-.469-1.174-.469-2.054v-9.332h5.273v-2.758h-5.214V32.22l-2.578.352c0 .06-.117.294-.175.705-.117.41-.235.821-.352 1.29-.117.47-.234.94-.351 1.292-.117.41-.176.646-.176.704l-2.753.822v2.172h2.519v10.446c0 1.409.41 2.583 1.171 3.404.82.88 2.168 1.291 4.16 1.291.761 0 1.523-.058 2.401-.234.82-.176 1.582-.411 2.285-.763l-.586-2.465z" fill="url(#o)"/><path d="M91.21 39.85v9.743c0 1.057-.116 2.054-.292 2.817-.176.822-.527 1.526-.996 2.23-.469.646-1.113 1.292-1.933 1.879A30.095 30.095 0 0 1 85 58.397l1.055 2.876c3.046-.88 5.33-2.23 6.912-4.109 1.582-1.82 2.343-4.401 2.343-7.63V35.567l-4.1 4.285z" fill="url(#p)"/><path d="M81.662 49.71v4.871h3.925v-8.98l-3.925 4.11z" fill="url(#q)"/><path d="M76.742 54.816c.351-.058.761-.058 1.171-.176.645-.117 1.23-.352 1.758-.587L79.495 52l-2.753 2.817z" fill="url(#r)"/><path d="M98.768 31.868v3.58c1.465-2.054 11.423-15.494 11.423-15.494L98.768 31.868z" fill="url(#s)"/><path d="M98.768 31.868v3.58c1.465-2.054 11.423-15.494 11.423-15.494L98.768 31.868z" fill="url(#t)"/><path d="m98.768 29.58 6.385-5.811-5.038 3.463c-.351.234-.82.587-1.347.997v1.35z" fill="url(#u)"/><path fill-rule="evenodd" clip-rule="evenodd" d="M114.175 21.246c.117-.176.293-.411.41-.587l.117-.176v-.235c-.058-.94-.41-1.996-.879-2.817l-.293-.587-.527.352c-.41.293-.761.528-1.171.763l-.645-.587.703-1.232.352-.529-.586-.293c-.879-.41-1.933-.646-2.871-.704h-.234l-.176.117c-.175.176-.41.293-.585.41a21.749 21.749 0 0 1 2.519-3.227c.761-.822 1.64-1.585 2.519-2.289h.117c.058.059.058.117 0 .117a15.104 15.104 0 0 1-1.172 1.526l-.703.822 1.113.117c.527.06 1.113.118 1.64.235l.352.059.234-.294c1.055-1.408 2.343-2.7 3.456-4.108C120.853 4.46 124.309 1.937 128 0c-1.933 3.756-4.511 7.336-7.557 10.564a57.595 57.595 0 0 1-3.866 3.697l-.293.235.058.352c.118.587.235 1.115.293 1.644l.176 1.115.82-.763c.469-.411.937-.822 1.465-1.233h.117c.058.06.058.118 0 .118a23.27 23.27 0 0 1-2.109 2.64c-.82 1.233-1.875 2.114-2.929 2.877z" fill="url(#v)"/><defs><linearGradient id="a" x1="1.927" y1="11.85" x2="147.444" y2="14.253" gradientUnits="userSpaceOnUse"><stop stop-color="#fff"/><stop offset="1" stop-color="#fff"/></linearGradient><linearGradient id="b" x1="1.927" y1="11.85" x2="147.444" y2="14.253" gradientUnits="userSpaceOnUse"><stop stop-color="#fff"/><stop offset="1" stop-color="#fff"/></linearGradient><linearGradient id="c" x1="1.927" y1="11.85" x2="147.444" y2="14.253" gradientUnits="userSpaceOnUse"><stop stop-color="#fff"/><stop offset="1" stop-color="#fff"/></linearGradient><linearGradient id="d" x1="1.927" y1="11.85" x2="147.444" y2="14.253" gradientUnits="userSpaceOnUse"><stop stop-color="#fff"/><stop offset="1" stop-color="#fff"/></linearGradient><linearGradient id="e" x1="1.927" y1="11.85" x2="147.444" y2="14.253" gradientUnits="userSpaceOnUse"><stop stop-color="#fff"/><stop offset="1" stop-color="#fff"/></linearGradient><linearGradient id="f" x1="1.927" y1="11.85" x2="147.444" y2="14.253" gradientUnits="userSpaceOnUse"><stop stop-color="#fff"/><stop offset="1" stop-color="#fff"/></linearGradient><linearGradient id="g" x1="1.927" y1="11.85" x2="147.444" y2="14.253" gradientUnits="userSpaceOnUse"><stop stop-color="#fff"/><stop offset="1" stop-color="#fff"/></linearGradient><linearGradient id="h" x1="1.927" y1="11.85" x2="147.444" y2="14.253" gradientUnits="userSpaceOnUse"><stop stop-color="#fff"/><stop offset="1" stop-color="#fff"/></linearGradient><linearGradient id="i" x1="1.927" y1="11.85" x2="147.444" y2="14.253" gradientUnits="userSpaceOnUse"><stop stop-color="#fff"/><stop offset="1" stop-color="#fff"/></linearGradient><linearGradient id="j" x1="1.927" y1="11.85" x2="147.444" y2="14.253" gradientUnits="userSpaceOnUse"><stop stop-color="#fff"/><stop offset="1" stop-color="#fff"/></linearGradient><linearGradient id="k" x1="1.927" y1="11.85" x2="147.444" y2="14.253" gradientUnits="userSpaceOnUse"><stop stop-color="#fff"/><stop offset="1" stop-color="#fff"/></linearGradient><linearGradient id="l" x1="1.927" y1="11.85" x2="147.444" y2="14.253" gradientUnits="userSpaceOnUse"><stop stop-color="#fff"/><stop offset="1" stop-color="#fff"/></linearGradient><linearGradient id="m" x1="1.927" y1="11.85" x2="147.444" y2="14.253" gradientUnits="userSpaceOnUse"><stop stop-color="#fff"/><stop offset="1" stop-color="#fff"/></linearGradient><linearGradient id="n" x1="1.927" y1="11.85" x2="147.444" y2="14.253" gradientUnits="userSpaceOnUse"><stop stop-color="#fff"/><stop offset="1" stop-color="#fff"/></linearGradient><linearGradient id="o" x1="1.927" y1="11.85" x2="147.444" y2="14.253" gradientUnits="userSpaceOnUse"><stop stop-color="#fff"/><stop offset="1" stop-color="#fff"/></linearGradient><linearGradient id="p" x1="1.927" y1="11.85" x2="147.444" y2="14.253" gradientUnits="userSpaceOnUse"><stop stop-color="#fff"/><stop offset="1" stop-color="#fff"/></linearGradient><linearGradient id="q" x1="1.927" y1="11.85" x2="147.444" y2="14.253" gradientUnits="userSpaceOnUse"><stop stop-color="#fff"/><stop offset="1" stop-color="#fff"/></linearGradient><linearGradient id="r" x1="1.927" y1="11.85" x2="147.444" y2="14.253" gradientUnits="userSpaceOnUse"><stop stop-color="#fff"/><stop offset="1" stop-color="#fff"/></linearGradient><linearGradient id="s" x1="1.927" y1="11.85" x2="147.444" y2="14.253" gradientUnits="userSpaceOnUse"><stop stop-color="#fff"/><stop offset="1" stop-color="#fff"/></linearGradient><linearGradient id="t" x1="1.927" y1="11.85" x2="147.444" y2="14.253" gradientUnits="userSpaceOnUse"><stop stop-color="#fff"/><stop offset="1" stop-color="#fff"/></linearGradient><linearGradient id="u" x1="1.927" y1="11.85" x2="147.444" y2="14.253" gradientUnits="userSpaceOnUse"><stop stop-color="#fff"/><stop offset="1" stop-color="#fff"/></linearGradient><linearGradient id="v" x1="1.927" y1="11.85" x2="147.444" y2="14.253" gradientUnits="userSpaceOnUse"><stop stop-color="#fff"/><stop offset="1" stop-color="#fff"/></linearGradient></defs></svg>