<svg width="265" height="87" fill="none" xmlns="http://www.w3.org/2000/svg"><g clip-path="url(#a)"><path d="M43.218 0C19.348 0 0 19.349 0 43.218c0 23.869 19.349 43.218 43.218 43.218 23.869 0 43.218-19.35 43.218-43.218C86.436 19.348 67.086 0 43.218 0zm22.434 58.5c0 .742-.598 1.34-1.34 1.34h-5.644c-.741 0-1.34-.598-1.34-1.34V41.114c0-.143-.167-.215-.286-.12L45.083 52.953a2.67 2.67 0 0 1-3.755 0L29.37 40.994c-.096-.096-.287-.024-.287.12V58.5c0 .741-.598 1.34-1.34 1.34H22.1c-.741 0-1.34-.599-1.34-1.34V27.935c0-.741.599-1.34 1.34-1.34h3.875c.693 0 1.387.288 1.89.79L42.738 42.26a.65.65 0 0 0 .933 0L58.55 27.385a2.66 2.66 0 0 1 1.889-.79h3.875c.741 0 1.339.599 1.339 1.34V58.5z" fill="#D9272E"/><path d="M187.028 33.412v-4.664c0-.741-.598-1.34-1.34-1.34h-25.591c-.741 0-1.339.599-1.339 1.34v30.59c0 .741.598 1.34 1.339 1.34h25.591c.742 0 1.34-.599 1.34-1.34v-4.64c0-.742-.598-1.34-1.34-1.34h-18.296a.327.327 0 0 1-.335-.334v-5.31c0-.191.143-.335.335-.335h18.296c.742 0 1.34-.598 1.34-1.339v-3.994c0-.742-.598-1.34-1.34-1.34h-18.296a.327.327 0 0 1-.335-.334v-5.31c0-.191.143-.335.335-.335h18.296c.766.024 1.34-.574 1.34-1.315zM258.183 60.677h5.811c.742 0 1.22-.765.909-1.435l-14.709-30.326c-.454-.91-1.363-1.507-2.391-1.507h-3.325a2.636 2.636 0 0 0-2.391 1.507l-14.709 30.326c-.311.67.167 1.435.908 1.435h5.812c.766 0 1.459-.43 1.794-1.124l2.822-5.812a.655.655 0 0 1 .598-.383h13.681c.263 0 .478.144.598.383l2.822 5.812a1.922 1.922 0 0 0 1.77 1.124zm-16.192-13.776 3.827-7.893c.119-.239.478-.239.597 0l3.827 7.893a.338.338 0 0 1-.311.478h-7.653c-.215 0-.383-.263-.287-.478zM145.008 28.198l-14.876 14.876a.65.65 0 0 1-.933 0l-14.9-14.876a2.662 2.662 0 0 0-1.89-.79h-3.874c-.742 0-1.34.599-1.34 1.34v30.59c0 .741.598 1.34 1.34 1.34h5.644c.741 0 1.339-.599 1.339-1.34V41.95c0-.143.168-.215.287-.12l11.959 11.959a2.67 2.67 0 0 0 3.755 0l11.958-11.958c.096-.096.287-.024.287.12v17.387c0 .741.598 1.34 1.34 1.34h5.644c.741 0 1.339-.599 1.339-1.34v-30.59c0-.741-.598-1.34-1.339-1.34h-3.875a2.751 2.751 0 0 0-1.865.79zM224.102 41.065h-13.131c-.741 0-1.339.598-1.339 1.34v3.324c0 .742.598 1.34 1.339 1.34h7.534c.239 0 .383.238.311.454-1.435 3.803-5.166 6.505-9.519 6.362-5.07-.168-9.232-4.258-9.471-9.328-.263-5.62 4.233-10.26 9.806-10.26 2.272 0 4.377.789 6.051 2.08.526.407 1.292.383 1.77-.095l3.54-3.54c.55-.55.502-1.459-.096-1.961a17.498 17.498 0 0 0-11.432-4.138c-9.591.072-17.388 8.013-17.292 17.627.095 9.567 7.868 17.292 17.459 17.292 9.639 0 17.459-7.82 17.459-17.46v-.023a2.98 2.98 0 0 0-2.989-3.014z" fill="#2C2B2B"/></g><defs><clipPath id="a"><path fill="#fff" d="M0 0h265v86.436H0z"/></clipPath></defs></svg>