<svg width="278" height="40" fill="none" xmlns="http://www.w3.org/2000/svg"><path d="M41.04 2.491v35.207h-8.936v-17.77l-6.62 17.77h-8.108l-6.784-17.77v17.77H1.656V2.491h10.756l8.936 23.25 8.936-23.25H41.04zm32.93 4.484c3.474 3.321 5.13 7.805 5.13 13.12 0 5.314-1.821 9.632-5.13 13.12-3.476 3.32-7.778 5.147-13.073 5.147-5.295 0-9.598-1.66-13.073-5.148-3.475-3.487-5.13-7.805-5.13-12.953 0-5.315 1.82-9.632 5.13-12.954C51.3 3.82 55.602 2.16 60.897 2.16c5.13-.166 9.597 1.495 13.072 4.816zm-3.641 13.12c0-2.99-.828-5.48-2.648-7.474-1.82-1.992-3.971-2.823-6.95-2.823-2.813 0-5.13.997-6.784 2.823-1.655 1.993-2.648 4.484-2.648 7.474 0 2.989.828 5.48 2.648 7.473 1.82 1.993 3.971 2.823 6.784 2.823 2.813 0 5.13-.996 6.95-2.823 1.655-1.993 2.648-4.484 2.648-7.473zm36.57 5.148-.331.664c-.662 1.329-1.655 2.491-2.978 3.322-1.324.83-2.814 1.328-4.303 1.328-2.813 0-5.13-.996-7.115-2.99-1.82-1.992-2.813-4.483-2.813-7.472 0-2.99.993-5.48 2.813-7.474 1.82-1.992 4.137-2.989 7.115-2.989 1.489 0 2.979.498 4.303 1.329 1.323.83 2.316 1.992 2.978 3.321l.331.664 7.447-3.653-.331-.664c-3.144-5.647-8.109-8.636-14.728-8.636-5.295 0-9.763 1.66-13.238 5.148-3.475 3.321-5.295 7.805-5.295 13.12 0 5.314 1.82 9.632 5.295 13.12 3.475 3.32 7.943 5.148 13.238 5.148 6.454 0 11.418-2.99 14.728-8.636l.331-.665-7.447-3.985zm26.476-6.145 13.9-16.607h-10.756l-10.756 13.784V2.49h-8.604v35.207h8.604V26.904l1.821-2.326 9.928 13.12h10.591l-14.728-18.6zm46.334 8.802c0 2.823-.993 5.148-2.813 6.975-1.821 1.827-4.468 2.823-7.778 2.823h-18.864V2.491h18.368c3.309 0 5.791.83 7.612 2.657 1.82 1.827 2.813 3.986 2.813 6.643 0 2.159-.662 4.152-1.821 5.646a7.32 7.32 0 0 1-2.482 1.993c1.159.498 1.986 1.329 2.979 2.325 1.324 1.827 1.986 3.82 1.986 6.145zm-9.433-14.78c0-.83-.33-1.661-.827-2.16-.662-.498-1.324-.83-2.317-.83h-8.273v5.979h8.273c.993 0 1.821-.332 2.317-.83.662-.665.827-1.33.827-2.16zm-11.417 16.939h8.439c1.158 0 1.986-.332 2.648-.83.661-.499.992-1.33.992-2.325 0-.997-.331-1.661-.992-2.326-.662-.664-1.49-.996-2.648-.996h-8.439v6.477zm57.751 7.64h-9.763l-1.986-5.647h-13.404l-2.151 5.646h-9.763l13.569-35.207h9.929l13.569 35.207zm-14.231-13.453-4.303-11.625-4.302 11.625h8.605zm73.968-1.328v7.805h-4.303v6.975h-8.604v-6.975h-16.052V24.08l13.735-21.589h10.921v20.427h4.303zm-12.907 0v-10.96l-7.116 10.96h7.116zm-17.541 7.14v7.64h-26.642v-7.307l.331-.166c.166 0 9.598-6.809 14.893-10.629 2.151-1.494 3.31-3.155 3.31-4.816 0-2.823-2.317-5.148-5.295-5.148-3.31 0-5.296 2.823-5.958 4.318l-7.115-3.488c1.489-3.321 5.792-8.801 13.238-8.801 7.281 0 13.238 5.978 13.238 13.285 0 4.152-2.648 8.304-6.95 11.127-2.813 1.993-4.799 3.155-5.957 3.986h12.907z" fill="#E1E1E1"/></svg>