<svg width="377" height="271" viewBox="0 0 377 271" fill="none" xmlns="http://www.w3.org/2000/svg">
<path d="M80.6039 -44.3131L355.75 -0.431999C387.535 3.83751 392.318 35.3449 390.736 50.565C388.167 86.5396 382.553 166.079 380.655 196.44C378.758 226.801 350.215 230.833 336.181 229.054C323.926 227.868 295.858 224.903 281.626 222.531C267.395 220.159 259.884 222.334 257.907 223.717L250.791 229.054L203.945 263.448C187.934 275.307 178.051 268.587 173.11 263.448C160.459 249.216 133.498 218.974 126.857 211.858C120.215 204.742 107.09 201.382 101.358 200.591C48.5822 194.068 53.3264 195.254 23.084 188.731C-1.10987 183.513 -1.62379 149.396 1.14348 132.99C4.89907 103.143 13.5962 33.3683 18.3401 -6.95486C23.084 -47.278 61.8259 -48.6617 80.6039 -44.3131Z" fill="url(#paint0_linear_109_252)"/>
<path d="M80.6039 -44.3131L355.75 -0.431999C387.535 3.83751 392.318 35.3449 390.736 50.565C388.167 86.5396 382.553 166.079 380.655 196.44C378.758 226.801 350.215 230.833 336.181 229.054C323.926 227.868 295.858 224.903 281.626 222.531C267.395 220.159 259.884 222.334 257.907 223.717L250.791 229.054L203.945 263.448C187.934 275.307 178.051 268.587 173.11 263.448C160.459 249.216 133.498 218.974 126.857 211.858C120.215 204.742 107.09 201.382 101.358 200.591C48.5822 194.068 53.3264 195.254 23.084 188.731C-1.10987 183.513 -1.62379 149.396 1.14348 132.99C4.89907 103.143 13.5962 33.3683 18.3401 -6.95486C23.084 -47.278 61.8259 -48.6617 80.6039 -44.3131Z" fill="url(#paint1_linear_109_252)"/>
<path d="M261.465 39.891C240.662 30.9771 221.537 39.4957 213.432 47.0069C198.726 32.3008 187.934 27.043 184.376 26.2523C153.541 18.5435 116.775 45.2279 137.53 93.853C154.134 132.753 187.143 163.826 201.573 174.499C222.13 162.442 266.208 132.16 278.068 107.492C292.893 76.6563 287.084 50.8692 261.465 39.891Z" fill="url(#paint2_linear_109_252)"/>
<defs>
<linearGradient id="paint0_linear_109_252" x1="120.5" y1="270" x2="391" y2="-31.5" gradientUnits="userSpaceOnUse">
<stop stop-color="white"/>
<stop offset="1" stop-color="white" stop-opacity="0"/>
</linearGradient>
<linearGradient id="paint1_linear_109_252" x1="120.5" y1="270" x2="391" y2="-31.5" gradientUnits="userSpaceOnUse">
<stop stop-color="white"/>
<stop offset="1" stop-color="white" stop-opacity="0"/>
</linearGradient>
<linearGradient id="paint2_linear_109_252" x1="208.783" y1="24.9384" x2="208.783" y2="174.499" gradientUnits="userSpaceOnUse">
<stop stop-color="#F34BAC"/>
<stop offset="1" stop-color="#E255BF"/>
</linearGradient>
</defs>
</svg>
