<svg width="27" height="26" fill="none" xmlns="http://www.w3.org/2000/svg"><g clip-path="url(#a)"><path d="M4.397.429A3.53 3.53 0 0 0 .86 3.967v18.067a3.53 3.53 0 0 0 3.538 3.538h18.067a3.53 3.53 0 0 0 3.538-3.538V3.966A3.53 3.53 0 0 0 22.464.429H4.397zm9.597 2.569a5.179 5.179 0 0 1 5.173 5.174 5.178 5.178 0 0 1-5.173 5.172A5.179 5.179 0 0 1 8.82 8.172a5.18 5.18 0 0 1 5.175-5.174zm-.055 3.031a2.147 2.147 0 0 0-2.088 2.143c0 1.18.962 2.141 2.143 2.141 1.181 0 2.141-.96 2.141-2.141s-.96-2.143-2.14-2.143h-.056zM9.71 13.52c.274.001.551.077.8.234a6.571 6.571 0 0 0 6.967 0 1.515 1.515 0 1 1 1.613 2.567 9.69 9.69 0 0 1-3.003 1.243l2.893 2.893a1.515 1.515 0 1 1-2.143 2.144l-2.844-2.843-2.841 2.843a1.514 1.514 0 0 1-2.143 0 1.515 1.515 0 0 1-.001-2.144l2.892-2.893a9.715 9.715 0 0 1-3.005-1.243 1.516 1.516 0 0 1-.474-2.09 1.513 1.513 0 0 1 1.29-.71z" fill="#fff" fill-opacity=".4"/></g><defs><clipPath id="a"><path fill="#fff" transform="translate(.86 .429)" d="M0 0h25.143v25.143H0z"/></clipPath></defs></svg>