<svg width="520" height="715" viewBox="0 0 520 715" fill="none" xmlns="http://www.w3.org/2000/svg">
<mask id="mask0_5859_5712" style="mask-type:alpha" maskUnits="userSpaceOnUse" x="0" y="0" width="698" height="715">
<rect width="698" height="715" fill="white"/>
</mask>
<g mask="url(#mask0_5859_5712)">
<g filter="url(#filter0_f_5859_5712)">
<ellipse cx="233.29" cy="442.646" rx="60.2904" ry="77.0758" fill="#BA53F9" fill-opacity="0.62"/>
</g>
<path d="M627.051 499.423L637.059 484.891L680.244 533.149H738.922L662.559 447.874L730.696 349.165H677.639L627.051 422.511V284.455H583.454V533.149H627.051V499.423ZM458.97 499.423L468.978 485.028L512.163 533.286H570.841L494.478 447.874L562.615 349.165H509.559L458.97 422.511V284.455H415.373V533.149H458.97V499.423ZM714.793 438.826C714.793 492.157 757.841 535.479 810.898 535.479C863.954 535.479 907.003 492.157 907.003 438.826C907.003 385.495 863.954 342.173 810.898 342.173C757.841 342.173 714.793 385.358 714.793 438.826ZM301.308 342.173C248.252 342.173 205.203 385.358 205.203 438.826C205.203 492.157 248.252 535.479 301.308 535.479C354.365 535.479 397.413 492.157 397.413 438.826C397.55 385.358 354.502 342.173 301.308 342.173ZM300.486 279.245C288.421 279.245 278.687 288.979 278.687 301.181C278.687 313.245 288.421 323.116 300.486 323.116C312.55 323.116 322.284 313.245 322.284 301.181C322.284 288.979 312.55 279.245 300.486 279.245ZM353.816 279.245C341.752 279.245 332.018 288.979 332.018 301.181C332.018 313.245 341.752 323.116 353.816 323.116C365.881 323.116 375.615 313.245 375.615 301.181C375.752 288.979 365.881 279.245 353.816 279.245ZM247.977 279.245C235.913 279.245 226.179 288.979 226.179 301.181C226.179 313.245 235.913 323.116 247.977 323.116C260.042 323.116 269.776 313.245 269.776 301.181C269.776 288.979 260.042 279.245 247.977 279.245ZM248.8 438.826C248.8 409.761 272.381 386.044 301.308 386.044C330.236 386.044 353.816 409.761 353.816 438.826C353.816 467.891 330.236 491.608 301.308 491.608C272.381 491.608 248.8 467.891 248.8 438.826ZM758.39 438.826C758.39 409.761 781.97 386.044 810.898 386.044C839.825 386.044 863.406 409.761 863.406 438.826C863.406 467.891 839.825 491.608 810.898 491.608C781.97 491.608 758.39 467.891 758.39 438.826Z" fill="black" fill-opacity="0.6"/>
<g filter="url(#filter1_f_5859_5712)">
<ellipse rx="79.9644" ry="150.748" transform="matrix(0.537761 0.843097 -0.813425 0.58167 440.708 372.688)" fill="#BA53F9" fill-opacity="0.62"/>
</g>
</g>
<defs>
<filter id="filter0_f_5859_5712" x="36.6614" y="229.232" width="393.257" height="426.829" filterUnits="userSpaceOnUse" color-interpolation-filters="sRGB">
<feFlood flood-opacity="0" result="BackgroundImageFix"/>
<feBlend mode="normal" in="SourceGraphic" in2="BackgroundImageFix" result="shape"/>
<feGaussianBlur stdDeviation="68.1693" result="effect1_foregroundBlur_5859_5712"/>
</filter>
<filter id="filter1_f_5859_5712" x="174.39" y="125.737" width="532.636" height="493.902" filterUnits="userSpaceOnUse" color-interpolation-filters="sRGB">
<feFlood flood-opacity="0" result="BackgroundImageFix"/>
<feBlend mode="normal" in="SourceGraphic" in2="BackgroundImageFix" result="shape"/>
<feGaussianBlur stdDeviation="68.1693" result="effect1_foregroundBlur_5859_5712"/>
</filter>
</defs>
</svg>
