<svg width="251" height="55" fill="none" xmlns="http://www.w3.org/2000/svg"><g clip-path="url(#a)"><path fill-rule="evenodd" clip-rule="evenodd" d="M30.174.15a27.465 27.465 0 1 0 24.445 24.52A27.43 27.43 0 0 0 30.174.15zm-.89 41.848a14.65 14.65 0 1 1-3.896-29.039 14.65 14.65 0 0 1 3.896 29.039zM69.308 1.237a6.408 6.408 0 0 0-6.254 7.731c.602 3.02 3.423 5.083 6.495 5.083h17.83L59.631 50.77a1.83 1.83 0 0 0 1.452 2.935h43.523c3.07 0 5.893-2.063 6.495-5.083a6.4 6.4 0 0 0-1.286-5.353 6.42 6.42 0 0 0-4.966-2.38H83.127L110.852 4.2a1.847 1.847 0 0 0-1.467-2.962H69.308zm173.917.147a6.505 6.505 0 0 0-4.999 6.431v21.336L203.654 1.64a1.837 1.837 0 0 0-2.981 1.444v44.053a6.501 6.501 0 0 0 4.999 6.431 6.398 6.398 0 0 0 7.776-6.26v-21.52L248.019 53.3a1.84 1.84 0 0 0 2.702-.466 1.84 1.84 0 0 0 .279-.978V7.642a6.403 6.403 0 0 0-4.938-6.238 6.397 6.397 0 0 0-2.837-.02zm-90.015 11.44c14.623 0 25.549 7.728 25.549 14.64 0 6.912-10.926 14.64-25.549 14.64-14.622 0-25.548-7.728-25.548-14.64 0-6.912 10.926-14.64 25.548-14.64zm0-12.813c-21.165 0-38.323 12.291-38.323 27.453 0 15.162 17.158 27.454 38.323 27.454 21.166 0 38.323-12.292 38.323-27.454S174.376.011 153.21.011z" fill="#0069FF"/></g><defs><clipPath id="a"><path fill="#fff" d="M0 0h251v54.942H0z"/></clipPath></defs></svg>