<svg width="286" height="57" fill="none" xmlns="http://www.w3.org/2000/svg"><g clip-path="url(#a)"><g opacity=".3" fill="#94BB1E"><path opacity=".3" d="M263.07 37.202c-.447 0-.754.196-1.006.419l-.726.726c-.056.056-.111.112-.111.196s.055.14.111.195l.726.726c.252.252.559.42 1.006.42.754 0 1.313-.587 1.313-1.341s-.559-1.341-1.313-1.341zm0 .559c.419 0 .754.335.754.782s-.335.782-.754.782c-.251 0-.419-.084-.615-.28l-.53-.53.53-.53a.843.843 0 0 1 .615-.224zM258.656 37.202c-.726 0-1.312.587-1.312 1.34 0 .755.558 1.341 1.312 1.341.447 0 .755-.195 1.006-.419l.726-.726c.056-.056.112-.111.112-.195s-.028-.14-.112-.196l-.726-.726a1.341 1.341 0 0 0-1.006-.419zm0 .559c.252 0 .419.083.615.279l.531.53-.531.531c-.196.196-.363.28-.615.28-.419 0-.754-.364-.754-.782 0-.503.335-.838.754-.838zM260.864 38.906c-.084 0-.14.056-.195.111l-.727.727a1.342 1.342 0 0 0-.419 1.005c0 .726.587 1.313 1.341 1.313s1.341-.559 1.341-1.313c0-.447-.196-.754-.419-1.005l-.726-.727c-.056-.055-.112-.111-.196-.111zm0 .698.531.53c.195.196.279.364.279.615 0 .42-.335.754-.782.754s-.782-.335-.782-.754c0-.251.084-.419.251-.614l.503-.531zM260.864 35.024c-.754 0-1.341.558-1.341 1.312 0 .447.196.754.419 1.006l.727.726c.055.056.111.112.195.112s.14-.056.196-.112l.726-.726c.251-.252.419-.559.419-1.006 0-.754-.587-1.312-1.341-1.312zm0 .558c.447 0 .782.335.782.754 0 .252-.084.42-.251.615l-.531.53-.531-.53c-.195-.196-.279-.363-.279-.615a.8.8 0 0 1 .81-.754z"/></g><path d="M278.542 45.804v1.397h2.933v9.244h1.564v-9.244h2.933v-1.397h-7.43zm-5.809 5.754h4.19v-1.34h-4.19V47.2h5.251v-1.397h-6.843v10.641h6.982V55.05h-5.418v-3.491h.028zm-3.519 3.63c-.335 0-.419-.195-.559-.53-.474-1.313-.447-1.927-.782-2.681-.139-.335-.502-.95-1.257-1.201.531-.252.81-.727.95-1.173.279-.782.363-1.955.67-2.319.112-.14.336-.279.475-.279.056 0 .112 0 .307.028l.168.028v-1.285l-.112-.028a2.343 2.343 0 0 0-.53-.055c-.503 0-1.285.167-1.704 1.117-.363.81-.419 2.094-.838 2.765-.363.586-.922.698-1.508.698h-1.313v-4.469h-1.564v10.641h1.564v-4.887h1.285c.698 0 1.396.028 1.815.754.168.28.252.698.447 1.424.168.754.335 1.425.615 1.955.391.699.949.922 1.48.922h.028c.307 0 .503-.056.726-.168l.056-.028v-1.284l-.196.056h-.223zm-10.641-4.831c-.503.475-1.229.475-1.704.475h-1.871V47.2h2.011c.474 0 1.145.056 1.592.447.223.167.558.558.558 1.284-.028.643-.279 1.145-.586 1.425zm1.089-3.855c-.838-.614-1.843-.698-2.681-.698h-3.575v10.641h1.592v-4.217H257.12c.699 0 1.788 0 2.71-.838.335-.28 1.005-1.061 1.005-2.43-.028-1.312-.642-2.066-1.173-2.458zm-13.127 5.614 1.369-4.3 1.34 4.3h-2.709zm2.346-6.312h-1.704l-3.435 10.641h1.48l.922-3.016h3.519l.978 3.016h1.731l-.056-.195-3.435-10.446zm-11.479 8.072-3.016-8.072h-2.151v10.641h1.369v-8.462l3.184 8.462h1.061l3.128-8.49v8.49h1.564v-10.64h-2.151l-2.988 8.07zm-8.826-3.52c-.53.476-1.257.476-1.731.476h-1.872V47.2h1.983c.475 0 1.173.056 1.62.447.224.167.559.558.559 1.284 0 .643-.252 1.145-.559 1.425zm1.062-3.854c-.81-.614-1.844-.698-2.682-.698h-3.575v10.641h1.592v-4.217h2.095c.726 0 1.788 0 2.709-.838.335-.28 1.006-1.061 1.006-2.43.028-1.312-.587-2.066-1.145-2.458zm-13.239 5.056h4.161v-1.34h-4.161V47.2h5.251v-1.397h-6.843v10.641h6.982V55.05h-5.418v-3.491h.028zm-11.507 4.887h1.592v-9.244h4.385v9.244h1.592v-10.64h-7.569v10.64zm-4.832-4.608-2.849-6.033h-1.676l3.715 7.82c-.112.364-.335.894-.642 1.174a1.634 1.634 0 0 1-1.09.39c-.195 0-.335-.027-.53-.111l-.196-.084v1.397l.084.027c.168.056.419.112.726.112.587 0 1.257-.223 1.76-.67.698-.614 1.005-1.48 1.285-2.235l3.239-7.82h-1.452l-2.374 6.033zm-6.2.95c-.168.893-.643 1.452-.81 1.675-.475.475-.894.727-1.62.727-1.201 0-1.899-.755-2.29-1.565-.336-.726-.475-1.731-.475-2.625 0-.726.083-1.843.558-2.653.587-1.034 1.369-1.313 2.179-1.313.838 0 1.396.28 1.871 1.006.279.447.447.921.531 1.284l.028.14.139-.028 1.369-.251-.028-.14c-.14-1.005-.614-1.9-1.229-2.458-.866-.81-1.787-.977-2.653-.977-.698 0-2.123.111-3.24 1.424-.335.391-1.229 1.592-1.201 3.882 0 1.369.335 2.765 1.005 3.799 1.062 1.62 2.486 1.843 3.436 1.843h.028c.782 0 1.731-.14 2.625-1.117.615-.642 1.033-1.508 1.201-2.374l.028-.14-1.452-.307v.168z" fill="#94BB1E"/><path d="M43.32 16.45c-3.408 0-5.698 1.397-7.57 3.24l-6.73 6.927 6.73 6.926c1.872 1.843 4.162 3.24 7.57 3.24 5.613 0 9.915-4.553 9.915-10.166 0-5.614-4.274-10.167-9.916-10.167zm0 4.357c3.1 0 5.557 2.57 5.557 5.81 0 3.267-2.43 5.809-5.558 5.809-1.787 0-3.072-.559-4.496-1.983l-3.882-3.854 3.854-3.827c1.452-1.396 2.737-1.955 4.524-1.955z" fill="#004819"/><path d="M9.915 16.45C4.273 16.45 0 21.003 0 26.617c0 5.613 4.273 10.166 9.887 10.166 3.407 0 5.698-1.397 7.57-3.24l6.73-6.926-6.703-6.927c-1.871-1.843-4.19-3.24-7.569-3.24zm0 4.357c1.788 0 3.072.559 4.525 1.983l3.882 3.855-3.882 3.798c-1.453 1.452-2.737 1.983-4.525 1.983-3.1 0-5.558-2.542-5.558-5.81 0-3.267 2.43-5.809 5.558-5.809z" fill="#94BB1E"/><path d="M26.62 29.019c-.587 0-6.927 6.73-6.927 6.73-1.843 1.872-3.24 4.162-3.24 7.57 0 5.613 4.553 9.887 10.166 9.887 5.614 0 10.167-4.274 10.167-9.887 0-3.408-1.397-5.698-3.24-7.57l-6.927-6.73zm0 5.92 3.826 3.855c1.424 1.48 1.983 2.737 1.983 4.525 0 3.156-2.514 5.558-5.81 5.558-3.323 0-5.809-2.374-5.809-5.558 0-1.788.559-3.073 1.955-4.525l3.854-3.854z" fill="#41884C"/><path d="M26.62 0c-5.614 0-10.167 4.273-10.167 9.887 0 3.407 1.397 5.697 3.24 7.569l6.926 6.73 6.927-6.73c1.843-1.872 3.24-4.162 3.24-7.57C36.786 4.274 32.233 0 26.619 0zm0 4.357c3.267 0 5.809 2.43 5.809 5.558 0 1.787-.559 3.072-1.983 4.524l-3.827 3.855-3.826-3.855c-1.424-1.452-1.983-2.737-1.983-4.524 0-3.184 2.486-5.558 5.81-5.558z" fill="#B5D054"/><path d="M111.971 35.023c-2.151 0-3.492-1.703-3.492-4.552v-4.413c0-2.43 1.369-4.245 3.492-4.245 2.29 0 3.714 1.871 3.714 6.535 0 3.436-.754 6.675-3.714 6.675zm2.904-17.176a6.705 6.705 0 0 0-1.033-.084c-2.095.112-3.994.81-5.39 1.648v-.643c0-.251.111-.726-.503-.726h-3.436c-.977.084-1.731.782-1.759 1.648v21.45c0 3.1 2.206 5.027 4.916 5.027h.223c.279 0 .559-.111.559-.614v-7.737c1.173.699 2.653 1.257 4.636 1.285.726 0 1.368-.056 1.983-.167 3.575-.531 6.815-3.743 6.815-10.725.028-5.782-2.43-10.027-7.011-10.362zM256.814 33.292c-.754 1.313-1.871 1.731-2.961 1.731-1.089 0-2.206-.419-2.96-1.731-.475-.838-.922-2.179-.922-4.944 0-1.508.084-3.49 1.034-4.971.67-1.09 1.564-1.592 2.848-1.592 1.285 0 2.151.503 2.849 1.592.95 1.48 1.061 3.435 1.061 4.971-.027 2.765-.474 4.078-.949 4.944zm-2.961-15.501c-2.011 0-4.72.475-7.094 2.793-.977.95-3.044 3.491-3.044 7.764 0 3.296 1.285 6.229 3.184 8.044 1.396 1.313 3.687 2.597 6.926 2.597 3.24 0 5.53-1.284 6.927-2.597 1.927-1.843 3.212-4.776 3.212-8.044 0-4.273-2.095-6.815-3.044-7.764-2.347-2.318-5.084-2.793-7.067-2.793zM218.604 21.785c1.117 0 2.038.586 2.569 1.312.223.308.391.754.531 1.257.167.475.475.81.977.81h4.19a.368.368 0 0 0 .363-.419c-.363-1.843-1.257-3.659-2.57-4.86-1.508-1.396-3.798-2.122-6.116-2.122-2.598 0-4.916 1.005-6.48 2.402-1.564 1.396-3.24 4.05-3.24 8.239 0 3.491 1.201 6.368 2.989 8.1 1.061 1.005 3.156 2.485 6.619 2.485 3.1 0 5.055-1.173 6.172-2.122 1.229-1.09 2.179-2.71 2.626-4.553.028-.14 0-.39-.335-.39h-4.329c-.503.027-.727.306-.894.753 0 0-.028.056-.056.14 0 .028 0 .028-.028.056 0 .028-.028.056-.028.084a3.428 3.428 0 0 1-.391.698c-.698 1.089-1.424 1.34-2.458 1.34-.977 0-1.927-.251-2.737-1.62-.558-.95-.866-2.346-.866-4.999 0-3.156.475-4.385.838-5 .531-.949 1.536-1.591 2.654-1.591zM86.78 26.198c0-1.23.447-2.402 1.117-3.128a4.25 4.25 0 0 1 3.044-1.285c1.564 0 2.486.754 3.044 1.536.56.81.838 1.927.81 2.877H86.78zm4.077-8.407c-1.815 0-4.357.28-6.73 2.29-1.593 1.369-3.604 3.882-3.604 8.379 0 3.854 1.509 6.312 2.933 7.736 1.508 1.509 3.994 2.85 7.373 2.85 2.738 0 4.944-.727 6.536-1.844a8.456 8.456 0 0 0 3.212-4.301c.056-.168.14-.53-.307-.53h-4.804c-.28 0-.587.334-.67.474a3.876 3.876 0 0 1-.67 1.033c-.56.559-1.509 1.173-2.99 1.173-1.926 0-3.044-1.005-3.658-2.15-.475-.894-.726-2.123-.67-3.24h13.378c.531-.084.726-.391.754-1.117v-.168c-.056-3.323-1.145-5.698-2.346-7.122-1.396-1.704-3.854-3.463-7.737-3.463zM161.993 31.951c-1.285-2.653-2.43-4.245-3.52-4.385 0 0 1.453-.083 2.43-2.765.335-.95 1.285-3.128 1.927-4.468.224-.503.615-1.034 1.034-1.537.056-.055.084-.167.084-.251 0-.224-.196-.419-.419-.447h-4.19c-1.145.028-1.703.922-2.067 1.816-.614 1.424-.865 2.318-1.759 4.3-.419.95-1.201 1.956-2.905 1.956h-1.229v-7.374c0-.251.112-.726-.502-.726h-3.715c-.978.084-1.76.81-1.76 1.676v15.696c0 .447.028 1.062.224 1.648.419.894 1.229 1.648 2.262 1.648h2.625c.671 0 .866-.363.866-.866v-8.267h1.062c2.29 0 3.295 2.625 4.273 4.469.894 1.704 2.458 4.72 5.223 4.58h3.295c.224-.028.391-.195.391-.419 0-.083-.027-.14-.055-.223-.782-1.257-2.514-4.078-3.575-6.06zM76.89 12.345H60.467c-1.033 0-1.983.865-1.983 2.038v18.965c0 .726.084 1.592.447 2.458a5.308 5.308 0 0 0 4.19 3.016h.754c.53 0 .614-.252.614-.838V18.657c.084-.363.42-.67.81-.67h6.731c.391 0 .726.307.81.67 0 0-.028 14.384 0 14.663 0 .726.056 1.592.42 2.458a5.308 5.308 0 0 0 4.189 3.016h.754c.53 0 .614-.251.614-.838v-23.6c.028-.95-.81-2.011-1.927-2.011zM245.753 18.49c.056-.196.028-.448-.363-.448h-19.216c-.419 0-.447.252-.391.447.587 1.955 2.039 3.799 4.106 3.91h2.095c.446.056.81.42.81.894V33.85c0 .755.111 1.257.419 1.956a5.217 5.217 0 0 0 4.161 2.988h.754c.531 0 .615-.251.615-.838V23.293c0-.447.363-.838.81-.894h2.094c2.067-.084 3.519-1.927 4.106-3.91zM285.747 38.04c-.782-1.257-2.514-4.106-3.575-6.089-1.285-2.653-2.43-4.245-3.519-4.413 0 0 1.452-.084 2.429-2.765.336-.921 1.285-3.128 1.928-4.468.223-.503.614-1.034 1.033-1.537.056-.056.084-.167.084-.251a.454.454 0 0 0-.419-.447h-4.19c-1.145.028-1.703.922-2.066 1.816-.615 1.424-.866 2.318-1.76 4.3-.419.95-1.201 1.956-2.905 1.956h-1.201v-7.346c0-.251.112-.726-.502-.726h-3.715c-.978.084-1.732.81-1.76 1.676v15.696c0 .447.028 1.062.224 1.648.419.894 1.229 1.648 2.29 1.648h2.625c.671 0 .866-.363.866-.866v-8.267h1.062c2.29 0 3.295 2.625 4.273 4.469.894 1.704 2.458 4.72 5.223 4.58h3.295c.224-.028.391-.195.391-.419-.055-.083-.083-.14-.111-.195zM175.537 35.024c-2.15 0-3.491-1.704-3.491-4.553v-4.413c0-2.43 1.368-4.245 3.491-4.245 2.29 0 3.715 1.871 3.715 6.535.028 3.436-.726 6.676-3.715 6.676zm2.933-17.177a6.717 6.717 0 0 0-1.034-.084c-2.122.112-3.994.81-5.418 1.648v-.643c0-.25.112-.726-.503-.726h-3.435c-.978.084-1.732.782-1.76 1.648v21.451c0 3.1 2.207 5.026 4.916 5.026h.223c.28 0 .587-.111.587-.614v-7.736c1.173.698 2.653 1.256 4.636 1.284.698 0 1.369-.056 1.983-.167 3.575-.53 6.843-3.743 6.843-10.725 0-5.782-2.43-10.027-7.038-10.362zM193.272 26.198c0-1.23.447-2.402 1.117-3.128a4.201 4.201 0 0 1 3.044-1.285c1.564 0 2.486.754 3.045 1.536.558.81.838 1.927.81 2.877h-8.016zm4.078-8.407c-1.816 0-4.357.28-6.731 2.29-1.592 1.369-3.603 3.882-3.603 8.379 0 3.854 1.508 6.312 2.904 7.736 1.536 1.509 3.994 2.85 7.374 2.85 2.709 0 4.915-.727 6.535-1.844 1.117-.782 2.458-2.123 3.212-4.301.056-.168.14-.53-.307-.53h-4.804c-.279 0-.586.334-.642.474a3.365 3.365 0 0 1-.699 1.033c-.558.559-1.508 1.173-2.988 1.173-1.927 0-3.044-1.005-3.631-2.15-.475-.894-.726-2.123-.67-3.24h13.378c.531-.084.726-.391.754-1.117v-.168c-.056-3.323-1.145-5.698-2.374-7.122-1.368-1.704-3.826-3.463-7.708-3.463zM136.829 18.126H124.148c0 3.714 3.631 4.971 6.313 4.971h12.68c0-3.714-3.631-4.971-6.312-4.971zM136.829 26.002H124.148c0 3.715 3.631 4.972 6.313 4.972h12.68c0-3.687-3.631-4.972-6.312-4.972zM136.829 33.878H124.148c0 3.687 3.631 4.972 6.313 4.972h12.68c0-3.687-3.631-4.972-6.312-4.972z" fill="#004819"/></g><defs><clipPath id="a"><path fill="#fff" d="M0 0h286v56.614H0z"/></clipPath></defs></svg>