<svg width="60" height="60" fill="none" xmlns="http://www.w3.org/2000/svg"><rect width="60" height="60" rx="12" fill="#79B1FC"/><path d="M30 14a8 8 0 1 0 0 16.001A8 8 0 0 0 30 14zm-9.982 18A4.004 4.004 0 0 0 16 36c0 3.382 1.666 5.932 4.27 7.594 2.1 1.338 4.796 2.098 7.74 2.33.02-.204.052-.41.104-.618l.75-2.996a6.38 6.38 0 0 1 1.68-2.97l7.34-7.34H20.018zm11.94 8.754 9.66-9.66a3.741 3.741 0 0 1 5.29 5.292l-9.66 9.658a4.393 4.393 0 0 1-2.04 1.156l-2.996.748a1.78 1.78 0 0 1-2.158-2.156l.75-2.996a4.36 4.36 0 0 1 1.156-2.04l-.002-.002z" fill="#fff"/></svg>