<svg width="215" height="227" viewBox="0 0 215 227" fill="none" xmlns="http://www.w3.org/2000/svg">
<g filter="url(#filter0_di_55_4348)">
<path d="M42.1064 92.1063C42.1064 62.8793 42.1064 48.2657 51.1861 39.186C60.2658 30.1063 74.8794 30.1063 104.106 30.1063L110.106 30.1063C139.334 30.1063 153.947 30.1063 163.027 39.186C172.106 48.2657 172.106 62.8793 172.106 92.1063L172.106 98.1063C172.106 127.333 172.106 141.947 163.027 151.027C153.947 160.106 139.334 160.106 110.106 160.106L104.106 160.106C74.8794 160.106 60.2658 160.106 51.1861 151.027C42.1064 141.947 42.1064 127.333 42.1064 98.1063L42.1064 92.1063Z" fill="url(#paint0_linear_55_4348)"/>
<path d="M42.1064 92.1063C42.1064 62.8793 42.1064 48.2657 51.1861 39.186C60.2658 30.1063 74.8794 30.1063 104.106 30.1063L110.106 30.1063C139.334 30.1063 153.947 30.1063 163.027 39.186C172.106 48.2657 172.106 62.8793 172.106 92.1063L172.106 98.1063C172.106 127.333 172.106 141.947 163.027 151.027C153.947 160.106 139.334 160.106 110.106 160.106L104.106 160.106C74.8794 160.106 60.2658 160.106 51.1861 151.027C42.1064 141.947 42.1064 127.333 42.1064 98.1063L42.1064 92.1063Z" fill="#0270F1"/>
<path d="M42.1064 92.1063C42.1064 62.8793 42.1064 48.2657 51.1861 39.186C60.2658 30.1063 74.8794 30.1063 104.106 30.1063L110.106 30.1063C139.334 30.1063 153.947 30.1063 163.027 39.186C172.106 48.2657 172.106 62.8793 172.106 92.1063L172.106 98.1063C172.106 127.333 172.106 141.947 163.027 151.027C153.947 160.106 139.334 160.106 110.106 160.106L104.106 160.106C74.8794 160.106 60.2658 160.106 51.1861 151.027C42.1064 141.947 42.1064 127.333 42.1064 98.1063L42.1064 92.1063Z" fill="url(#paint1_radial_55_4348)"/>
</g>
<path d="M113.106 84.7139C121.106 89.3327 125.106 91.6421 125.106 95.1062C125.106 98.5703 121.106 100.88 113.106 105.498L111.606 106.365C103.606 110.983 99.6064 113.293 96.6064 111.561C93.6064 109.829 93.6064 105.21 93.6064 95.9722L93.6064 94.2402C93.6064 85.0025 93.6064 80.3837 96.6064 78.6517C99.6064 76.9196 103.606 79.229 111.606 83.8479L113.106 84.7139Z" fill="white"/>
<defs>
<filter id="filter0_di_55_4348" x="0.106445" y="12.1064" width="214" height="214" filterUnits="userSpaceOnUse" color-interpolation-filters="sRGB">
<feFlood flood-opacity="0" result="BackgroundImageFix"/>
<feColorMatrix in="SourceAlpha" type="matrix" values="0 0 0 0 0 0 0 0 0 0 0 0 0 0 0 0 0 0 127 0" result="hardAlpha"/>
<feMorphology radius="23" operator="erode" in="SourceAlpha" result="effect1_dropShadow_55_4348"/>
<feOffset dy="24"/>
<feGaussianBlur stdDeviation="32.5"/>
<feComposite in2="hardAlpha" operator="out"/>
<feColorMatrix type="matrix" values="0 0 0 0 0.588235 0 0 0 0 0.164706 0 0 0 0 0.917647 0 0 0 1 0"/>
<feBlend mode="normal" in2="BackgroundImageFix" result="effect1_dropShadow_55_4348"/>
<feBlend mode="normal" in="SourceGraphic" in2="effect1_dropShadow_55_4348" result="shape"/>
<feColorMatrix in="SourceAlpha" type="matrix" values="0 0 0 0 0 0 0 0 0 0 0 0 0 0 0 0 0 0 127 0" result="hardAlpha"/>
<feOffset/>
<feGaussianBlur stdDeviation="30.5"/>
<feComposite in2="hardAlpha" operator="arithmetic" k2="-1" k3="1"/>
<feColorMatrix type="matrix" values="0 0 0 0 1 0 0 0 0 1 0 0 0 0 1 0 0 0 0.7 0"/>
<feBlend mode="normal" in2="shape" result="effect2_innerShadow_55_4348"/>
</filter>
<linearGradient id="paint0_linear_55_4348" x1="151.106" y1="181.606" x2="49.1065" y2="21.6057" gradientUnits="userSpaceOnUse">
<stop stop-color="#0B85DA"/>
<stop offset="1" stop-color="#03C3FF"/>
</linearGradient>
<radialGradient id="paint1_radial_55_4348" cx="0" cy="0" r="1" gradientUnits="userSpaceOnUse" gradientTransform="translate(37.818 11.1235) rotate(44.8364) scale(248.145 194.209)">
<stop offset="0.03125" stop-color="#D83575"/>
<stop offset="0.591558" stop-color="#7E03F4"/>
<stop offset="1" stop-color="#1010F2"/>
</radialGradient>
</defs>
</svg>
