<svg width="434" height="302" viewBox="0 0 434 302" fill="none" xmlns="http://www.w3.org/2000/svg">
<rect x="77.9511" y="87.0655" width="295.394" height="207.925" rx="22" transform="rotate(0.257946 77.9511 87.0655)" stroke="white" stroke-opacity="0.1" stroke-width="2"/>
<circle cx="99.1638" cy="107.591" r="3.0614" transform="rotate(0.257946 99.1638 107.591)" fill="white" fill-opacity="0.19"/>
<circle cx="108.785" cy="107.634" r="3.0614" transform="rotate(0.257946 108.785 107.634)" fill="white" fill-opacity="0.19"/>
<circle cx="118.407" cy="107.678" r="3.0614" transform="rotate(0.257946 118.407 107.678)" fill="white" fill-opacity="0.19"/>
<rect x="187.171" y="128.542" width="78.1387" height="35.8136" rx="5" transform="rotate(0.257946 187.171 128.542)" fill="white" fill-opacity="0.06"/>
<path d="M188.921 146.458L264.007 146.796" stroke="#D6DCE8" stroke-opacity="0.26" stroke-width="1.5"/>
<path d="M237.222 130.201L237.078 162.237" stroke="#D6DCE8" stroke-opacity="0.26" stroke-width="1.5"/>
<path d="M194.458 137.171L223.759 137.303" stroke="#D6DCE8" stroke-opacity="0.26" stroke-width="2" stroke-linecap="round"/>
<path d="M243.293 137.391L250.618 137.424" stroke="#D6DCE8" stroke-opacity="0.26" stroke-width="2" stroke-linecap="round"/>
<path d="M194.38 154.361L223.682 154.493" stroke="#D6DCE8" stroke-opacity="0.26" stroke-width="2" stroke-linecap="round"/>
<path d="M243.215 154.581L250.541 154.614" stroke="#D6DCE8" stroke-opacity="0.26" stroke-width="2" stroke-linecap="round"/>
<rect x="96.0103" y="128.132" width="78.1387" height="146.51" rx="5" transform="rotate(0.257946 96.0103 128.132)" fill="white" fill-opacity="0.06"/>
<rect x="186.76" y="176.649" width="78.1387" height="97.9649" rx="5" transform="rotate(0.257946 186.76 176.649)" fill="white" fill-opacity="0.06"/>
<rect x="277.636" y="197.176" width="78.1387" height="78.1387" rx="5" transform="rotate(0.257946 277.636 197.176)" fill="white" fill-opacity="0.06"/>
<path d="M107.259 160.74L163.421 160.993" stroke="#D6DCE8" stroke-opacity="0.26" stroke-width="2" stroke-miterlimit="10"/>
<path d="M107.311 149.346L163.472 149.599" stroke="#D6DCE8" stroke-opacity="0.26" stroke-width="2" stroke-miterlimit="10"/>
<path d="M107.208 172.136L163.37 172.389" stroke="#D6DCE8" stroke-opacity="0.26" stroke-width="2" stroke-miterlimit="10"/>
<path d="M285.71 211.863L341.872 212.116" stroke="#D6DCE8" stroke-opacity="0.26" stroke-width="2" stroke-miterlimit="10"/>
<path d="M107.156 183.531L137.272 183.667" stroke="#D6DCE8" stroke-opacity="0.26" stroke-width="2" stroke-miterlimit="10"/>
<path d="M285.659 223.259L315.774 223.394" stroke="#D6DCE8" stroke-opacity="0.26" stroke-width="2" stroke-miterlimit="10"/>
<path d="M299.193 262.851L293.891 262.893C292.878 262.979 292.184 262.014 292.115 261.201L292.096 248.914C292.01 247.897 292.972 247.201 293.782 247.132L299.085 247.09C300.098 247.003 300.792 247.968 300.861 248.781L300.879 261.068C300.965 262.085 300.224 262.968 299.193 262.851Z" fill="#D6DCE8" fill-opacity="0.26"/>
<path d="M312.669 262.93L307.366 262.973C306.353 263.059 305.659 262.094 305.591 261.281L305.698 243.248C305.612 242.232 306.573 241.535 307.384 241.466L312.686 241.424C313.699 241.338 314.393 242.302 314.462 243.116L314.355 261.148C314.441 262.165 313.479 262.861 312.669 262.93Z" fill="#D6DCE8" fill-opacity="0.26"/>
<path d="M340.368 263.055L335.066 263.098C334.052 263.184 333.359 262.219 333.29 261.406L333.397 243.373C333.311 242.357 334.273 241.66 335.083 241.591L340.386 241.549C341.399 241.463 342.092 242.427 342.161 243.241L342.054 261.273C342.14 262.29 341.178 262.986 340.368 263.055Z" fill="#D6DCE8" fill-opacity="0.26"/>
<path d="M325.925 262.825L320.623 262.867C319.61 262.953 318.916 261.988 318.847 261.175L318.861 237.211C318.775 236.194 319.736 235.498 320.547 235.429L325.849 235.387C326.862 235.3 327.556 236.265 327.625 237.079L327.611 261.043C327.697 262.059 326.956 262.942 325.925 262.825Z" fill="#AAB2C5" fill-opacity="0.31"/>
<path d="M133.75 217.641L133.861 205.299C147.198 206.049 157.499 217.319 157.524 230.96C157.488 239.706 152.898 247.506 146.036 252.002L140.105 240.889C143.152 238.605 145.04 234.923 145.186 230.563C145.266 224.137 140.115 218.502 133.75 217.641Z" fill="#AAB2C5" fill-opacity="0.31"/>
<path d="M130.58 205.262L130.468 217.599C126.568 218 123.013 220.235 120.895 223.636L110.714 216.753C114.926 210.208 122.037 205.738 130.58 205.262Z" fill="#F1F3F9" fill-opacity="0.28"/>
<path d="M108.862 219.683L119.296 226.589C118.923 227.84 118.549 229.091 118.663 230.645C118.513 237.833 124.399 243.793 131.849 243.985C133.915 243.924 135.749 243.584 137.352 242.964L143.3 253.817C139.793 255.542 135.845 256.454 131.737 256.321C117.579 256.264 106.293 244.647 106.315 230.502C106.414 226.653 107.279 222.877 108.862 219.683Z" fill="#D6DCE8" fill-opacity="0.26"/>
<path d="M197.943 201.666L213.058 216.807L230.125 199.761L249.779 196.955" stroke="#AAB2C5" stroke-opacity="0.31" stroke-width="2" stroke-miterlimit="10"/>
<path d="M198.29 204.802C199.954 204.81 201.308 203.466 201.316 201.801C201.323 200.136 199.981 198.781 198.317 198.773C196.653 198.766 195.299 200.109 195.291 201.774C195.284 203.439 196.626 204.795 198.29 204.802Z" fill="white" fill-opacity="0.29"/>
<path d="M198.285 205.802C200.502 205.812 202.306 204.022 202.316 201.806C202.326 199.589 200.538 197.783 198.322 197.773C196.105 197.763 194.301 199.553 194.291 201.77C194.281 203.986 196.069 205.792 198.285 205.802Z" stroke="#AAB2C5" stroke-opacity="0.31" stroke-width="2"/>
<path d="M213.163 219.822C214.827 219.829 216.182 218.486 216.189 216.821C216.197 215.156 214.854 213.8 213.191 213.793C211.527 213.785 210.172 215.129 210.165 216.794C210.157 218.459 211.5 219.815 213.163 219.822Z" fill="white" fill-opacity="0.29"/>
<path d="M213.159 220.822C215.376 220.832 217.179 219.042 217.189 216.825C217.199 214.609 215.412 212.803 213.195 212.793C210.978 212.783 209.175 214.573 209.165 216.789C209.155 219.006 210.942 220.812 213.159 220.822Z" stroke="#AAB2C5" stroke-opacity="0.31" stroke-width="2"/>
<path d="M230.472 202.777C232.136 202.784 233.491 201.441 233.498 199.776C233.506 198.111 232.163 196.755 230.499 196.748C228.836 196.74 227.481 198.084 227.473 199.749C227.466 201.414 228.808 202.769 230.472 202.777Z" fill="white" fill-opacity="0.29"/>
<path d="M230.468 203.777C232.684 203.787 234.488 201.997 234.498 199.78C234.508 197.564 232.72 195.758 230.504 195.748C228.287 195.738 226.483 197.528 226.473 199.744C226.463 201.961 228.251 203.767 230.468 203.777Z" stroke="#AAB2C5" stroke-opacity="0.31" stroke-width="2"/>
<path d="M249.765 199.969C251.428 199.977 252.783 198.633 252.791 196.968C252.798 195.304 251.455 193.948 249.792 193.94C248.128 193.933 246.773 195.276 246.766 196.941C246.758 198.606 248.101 199.962 249.765 199.969Z" fill="white" fill-opacity="0.29"/>
<path d="M249.76 200.969C251.977 200.979 253.781 199.189 253.791 196.973C253.8 194.756 252.013 192.95 249.796 192.94C247.58 192.93 245.776 194.72 245.766 196.937C245.756 199.153 247.543 200.959 249.76 200.969Z" stroke="#AAB2C5" stroke-opacity="0.31" stroke-width="2"/>
<path d="M198.733 237.056L198.599 266.999" stroke="#D6DCE8" stroke-opacity="0.26" stroke-width="3.86365" stroke-miterlimit="10"/>
<path d="M198.69 246.715L198.629 260.238" stroke="#AAB2C5" stroke-opacity="0.31" stroke-width="3.86365" stroke-miterlimit="10"/>
<path d="M214.188 237.126L214.053 267.069" stroke="#D6DCE8" stroke-opacity="0.26" stroke-width="3.86365" stroke-miterlimit="10"/>
<path d="M214.17 240.99L214.153 244.853" stroke="#AAB2C5" stroke-opacity="0.31" stroke-width="3.86365" stroke-miterlimit="10"/>
<path d="M229.642 237.196L229.507 267.139" stroke="#D6DCE8" stroke-opacity="0.26" stroke-width="3.86365" stroke-miterlimit="10"/>
<path d="M229.616 242.991L229.573 252.65" stroke="#AAB2C5" stroke-opacity="0.31" stroke-width="3.86365" stroke-miterlimit="10"/>
<path d="M245.097 237.265L244.962 267.208" stroke="#D6DCE8" stroke-opacity="0.26" stroke-width="3.86365" stroke-miterlimit="10"/>
<path d="M245.071 243.061L244.984 262.379" stroke="#AAB2C5" stroke-opacity="0.31" stroke-width="3.86365" stroke-miterlimit="10"/>
<path d="M260.551 237.335L260.416 267.278" stroke="#D6DCE8" stroke-opacity="0.26" stroke-width="3.86365" stroke-miterlimit="10"/>
<path d="M260.508 246.994L260.473 254.721" stroke="#AAB2C5" stroke-opacity="0.31" stroke-width="3.86365" stroke-miterlimit="10"/>
<g filter="url(#filter0_di_55_4699)">
<path d="M392.874 41.7717L378.807 177.891C378.174 184.013 372.616 188.534 366.498 187.902L286.156 179.599C280.039 178.967 275.522 173.405 276.154 167.283L290.221 31.1633C290.854 25.0415 296.413 20.5206 302.53 21.1528L382.872 29.4556C388.99 30.0878 393.507 35.6499 392.874 41.7717Z" fill="url(#paint0_linear_55_4699)"/>
</g>
<path d="M392.64 41.2619L391.632 49.874L289.384 40.4779L290.392 31.8657C291.153 25.3587 296.798 20.4611 302.891 21.0211L382.916 28.3751C389.01 28.9351 393.401 34.7549 392.64 41.2619Z" fill="#4D37E9"/>
<path d="M301.467 34.389C303.319 34.5539 305.008 33.1314 305.239 31.2116C305.47 29.2919 304.156 27.6019 302.304 27.437C300.452 27.2721 298.763 28.6947 298.532 30.6144C298.301 32.5342 299.615 34.2241 301.467 34.389Z" fill="#EAEEF9"/>
<path opacity="0.6" d="M312.264 35.505C314.116 35.6699 315.805 34.2473 316.036 32.3276C316.267 30.4078 314.953 28.7179 313.101 28.553C311.249 28.3881 309.56 29.8107 309.329 31.7304C309.098 33.6501 310.412 35.3401 312.264 35.505Z" fill="#EAEEF9"/>
<path opacity="0.4" d="M322.879 36.6022C324.731 36.7671 326.419 35.3445 326.65 33.4247C326.881 31.505 325.568 29.8151 323.716 29.6501C321.864 29.4852 320.175 30.9078 319.944 32.8276C319.713 34.7473 321.027 36.4373 322.879 36.6022Z" fill="#EAEEF9"/>
<path d="M297.915 148.602L362.624 155.289" stroke="white" stroke-opacity="0.1" stroke-width="3.68701" stroke-miterlimit="10"/>
<path d="M299.375 134.467L364.085 141.154" stroke="white" stroke-opacity="0.1" stroke-width="3.68701" stroke-miterlimit="10"/>
<path d="M314.847 120.977L351.696 124.785" stroke="white" stroke-opacity="0.8" stroke-width="5.53052" stroke-miterlimit="10"/>
<path d="M315.119 163.748L341.143 166.438" stroke="white" stroke-opacity="0.1" stroke-width="3.68701" stroke-miterlimit="10"/>
<circle cx="338.781" cy="82.3871" r="23.5072" transform="rotate(5.90017 338.781 82.3871)" stroke="white" stroke-opacity="0.1" stroke-width="2"/>
<g clip-path="url(#clip0_55_4699)">
<path d="M339.1 82.0901C340.241 82.2655 341.291 82.0083 342.223 81.3252C343.154 80.6423 343.715 79.7178 343.89 78.5771C344.065 77.4368 343.808 76.3863 343.125 75.455C342.442 74.524 341.517 73.9631 340.377 73.7877C339.236 73.6123 338.186 73.8696 337.255 74.5525C336.324 75.2354 335.763 76.16 335.587 77.3005C335.412 78.4412 335.669 79.4916 336.352 80.4227C337.035 81.3537 337.96 81.9148 339.1 82.0901Z" fill="white"/>
<path d="M345.603 88.1577C345.631 87.8182 345.64 87.4447 345.63 87.0471C345.62 86.6466 345.587 86.2643 345.531 85.911C345.473 85.5458 345.375 85.1788 345.238 84.8206C345.096 84.4488 344.914 84.116 344.695 83.8316C344.467 83.5342 344.17 83.2777 343.814 83.0691C343.459 82.8615 343.052 82.7213 342.604 82.6524C342.428 82.6254 342.247 82.6714 341.885 82.8348C341.663 82.9356 341.403 83.0518 341.113 83.1799C340.865 83.289 340.538 83.3768 340.142 83.4407C339.755 83.5033 339.371 83.5063 339.002 83.4495C338.633 83.3927 338.268 83.2746 337.917 83.0986C337.559 82.9187 337.273 82.7369 337.07 82.5584C336.834 82.351 336.621 82.1621 336.436 81.9968C336.141 81.7324 335.982 81.634 335.806 81.607C335.358 81.5381 334.927 81.5496 334.527 81.6411C334.125 81.7329 333.765 81.8885 333.457 82.1038C333.163 82.3095 332.889 82.572 332.643 82.8839C332.405 83.1845 332.201 83.5048 332.036 83.836C331.876 84.1562 331.729 84.5107 331.599 84.8897C331.471 85.2654 331.367 85.6246 331.292 85.9577C331.219 86.2839 331.155 86.6244 331.101 86.9701C330.963 87.8698 331.137 88.6422 331.618 89.266C332.094 89.8817 332.79 90.264 333.686 90.4018L341.985 91.6779C342.881 91.8157 343.659 91.6602 344.298 91.2157C344.945 90.7657 345.343 90.0811 345.481 89.1811C345.534 88.8338 345.575 88.4894 345.603 88.1577Z" fill="white"/>
</g>
<g filter="url(#filter1_di_55_4699)">
<rect x="34.6948" y="166" width="81.6208" height="81.6208" rx="19" transform="rotate(17.6105 34.6948 166)" fill="#E79079"/>
</g>
<g clip-path="url(#clip1_55_4699)">
<path d="M77.2697 223.099L64.2926 219.622C63.7255 219.47 63.1393 219.808 62.9874 220.375C62.91 220.664 62.963 220.957 63.1041 221.196L69.7935 232.782C69.927 233.035 70.1642 233.234 70.4604 233.313C70.8179 233.409 71.1805 233.313 71.4382 233.088C74.3836 231.082 76.7158 228.157 77.9524 224.582C77.9833 224.525 78.0069 224.465 78.0234 224.404C78.1754 223.837 77.8404 223.252 77.2697 223.099Z" fill="white"/>
<path d="M66.4935 199.592C65.9255 199.444 65.3439 199.78 65.192 200.347L61.3276 214.769C61.1747 215.34 61.5094 215.925 62.0766 216.077L76.5022 219.942C77.0693 220.094 77.6554 219.756 77.8083 219.185C79.5229 210.749 74.6605 202.327 66.4935 199.592Z" fill="white"/>
<path d="M65.6051 230.758L57.8158 217.267C57.6847 217.034 57.6451 216.749 57.7196 216.471L61.7427 201.441C61.8947 200.874 61.559 200.292 60.9918 200.14C52.2075 198.352 43.4392 203.698 41.0884 212.471C38.6447 221.591 44.0562 230.969 53.1759 233.413C57.3367 234.527 61.5486 234.007 65.1329 232.246C65.4072 232.118 65.6236 231.874 65.7078 231.56C65.7823 231.282 65.7389 230.995 65.6051 230.758Z" fill="white"/>
</g>
<defs>
<filter id="filter0_di_55_4699" x="235.538" y="0.815187" width="197.952" height="247.981" filterUnits="userSpaceOnUse" color-interpolation-filters="sRGB">
<feFlood flood-opacity="0" result="BackgroundImageFix"/>
<feColorMatrix in="SourceAlpha" type="matrix" values="0 0 0 0 0 0 0 0 0 0 0 0 0 0 0 0 0 0 127 0" result="hardAlpha"/>
<feOffset dy="20.2786"/>
<feGaussianBlur stdDeviation="20.2786"/>
<feColorMatrix type="matrix" values="0 0 0 0 0.397708 0 0 0 0 0.47749 0 0 0 0 0.575 0 0 0 0.27 0"/>
<feBlend mode="normal" in2="BackgroundImageFix" result="effect1_dropShadow_55_4699"/>
<feBlend mode="normal" in="SourceGraphic" in2="effect1_dropShadow_55_4699" result="shape"/>
<feColorMatrix in="SourceAlpha" type="matrix" values="0 0 0 0 0 0 0 0 0 0 0 0 0 0 0 0 0 0 127 0" result="hardAlpha"/>
<feOffset/>
<feGaussianBlur stdDeviation="10"/>
<feComposite in2="hardAlpha" operator="arithmetic" k2="-1" k3="1"/>
<feColorMatrix type="matrix" values="0 0 0 0 1 0 0 0 0 1 0 0 0 0 1 0 0 0 0.3 0"/>
<feBlend mode="normal" in2="shape" result="effect2_innerShadow_55_4699"/>
</filter>
<filter id="filter1_di_55_4699" x="0.854004" y="170.853" width="120.784" height="130.784" filterUnits="userSpaceOnUse" color-interpolation-filters="sRGB">
<feFlood flood-opacity="0" result="BackgroundImageFix"/>
<feColorMatrix in="SourceAlpha" type="matrix" values="0 0 0 0 0 0 0 0 0 0 0 0 0 0 0 0 0 0 127 0" result="hardAlpha"/>
<feMorphology radius="16" operator="erode" in="SourceAlpha" result="effect1_dropShadow_55_4699"/>
<feOffset dy="24"/>
<feGaussianBlur stdDeviation="15"/>
<feComposite in2="hardAlpha" operator="out"/>
<feColorMatrix type="matrix" values="0 0 0 0 0.588235 0 0 0 0 0.164706 0 0 0 0 0.917647 0 0 0 0.5 0"/>
<feBlend mode="normal" in2="BackgroundImageFix" result="effect1_dropShadow_55_4699"/>
<feBlend mode="normal" in="SourceGraphic" in2="effect1_dropShadow_55_4699" result="shape"/>
<feColorMatrix in="SourceAlpha" type="matrix" values="0 0 0 0 0 0 0 0 0 0 0 0 0 0 0 0 0 0 127 0" result="hardAlpha"/>
<feOffset/>
<feGaussianBlur stdDeviation="20"/>
<feComposite in2="hardAlpha" operator="arithmetic" k2="-1" k3="1"/>
<feColorMatrix type="matrix" values="0 0 0 0 1 0 0 0 0 1 0 0 0 0 1 0 0 0 0.5 0"/>
<feBlend mode="normal" in2="shape" result="effect2_innerShadow_55_4699"/>
</filter>
<linearGradient id="paint0_linear_55_4699" x1="258.819" y1="-3.17921" x2="362.47" y2="204.996" gradientUnits="userSpaceOnUse">
<stop stop-color="#B670D3"/>
<stop offset="0.9964" stop-color="#0F0FF2"/>
</linearGradient>
<clipPath id="clip0_55_4699">
<rect width="17.438" height="17.438" fill="white" transform="translate(331.882 72.4814) rotate(8.74151)"/>
</clipPath>
<clipPath id="clip1_55_4699">
<rect width="38.7646" height="38.7646" fill="white" transform="translate(46.2749 193.115) rotate(15)"/>
</clipPath>
</defs>
</svg>
