<svg width="267" height="49" fill="none" xmlns="http://www.w3.org/2000/svg"><g clip-path="url(#a)"><path d="M262.44 1.598a2.963 2.963 0 0 1 2.962 2.962V44.35a2.963 2.963 0 0 1-2.962 2.962H4.56a2.966 2.966 0 0 1-2.962-2.962V4.56A2.962 2.962 0 0 1 4.56 1.598h257.88zm0-1.598H4.56A4.564 4.564 0 0 0 0 4.56V44.35a4.564 4.564 0 0 0 4.56 4.56h257.88a4.564 4.564 0 0 0 4.56-4.56V4.56A4.563 4.563 0 0 0 262.44 0z" fill="url(#b)"/><path d="M71.874 11.681C69.87 10.03 67.114 9.201 63.6 9.2H51.92a.997.997 0 0 0-.76.304 1.1 1.1 0 0 0-.262.802v28.343a.994.994 0 0 0 .304.739 1.005 1.005 0 0 0 .739.304h4.171c.288.012.57-.088.785-.28a.984.984 0 0 0 .304-.763V28.46h6.4c3.513 0 6.27-.805 8.273-2.415 2.002-1.61 3.004-3.984 3.004-7.122 0-3.159-1.002-5.573-3.004-7.242zm-4.635 10.705c-.889.801-2.17 1.198-3.855 1.198h-6.258v-9.492h6.258c1.744 0 3.043.418 3.897 1.252.834.835 1.285 2.015 1.285 3.525 0 1.51-.443 2.72-1.327 3.517zm33.187 4.81a8.475 8.475 0 0 0 4.289-3.112 9.011 9.011 0 0 0 1.502-5.31c0-3.06-1.008-5.412-3.025-7.055-2.016-1.644-4.81-2.471-8.381-2.483H83.547a.997.997 0 0 0-.764.305 1.118 1.118 0 0 0-.283.784v28.323a1.04 1.04 0 0 0 1.047 1.043h4.005a1.062 1.062 0 0 0 1.013-.642c.052-.127.078-.264.076-.4v-10.43h5.965l5.57 10.32c.184.316.419.598.697.835.313.233.699.348 1.088.325h4.005a.912.912 0 0 0 .635-.258.865.865 0 0 0 .283-.655 1.072 1.072 0 0 0-.133-.476l-6.325-11.114zm-1.827-5.114c-.873.767-2.18 1.152-3.922 1.155h-6.049v-9.144h6.05c1.743 0 3.05.399 3.92 1.197.869.8 1.307 1.936 1.307 3.417 0 1.48-.438 2.607-1.306 3.375zm36.571 12.544h-14.602v-7.863h13.321c.288.01.569-.092.784-.284a.988.988 0 0 0 .305-.764v-2.74a1.057 1.057 0 0 0-.305-.785 1.08 1.08 0 0 0-.784-.304h-13.321v-7.618h14.28c.287.01.567-.091.78-.284a.975.975 0 0 0 .305-.763V10.3a1.054 1.054 0 0 0-.303-.784 1.04 1.04 0 0 0-.782-.306h-19.19a1 1 0 0 0-.76.305 1.104 1.104 0 0 0-.283.784v28.348a1.002 1.002 0 0 0 .304.739 1.008 1.008 0 0 0 .739.304h19.512a1.11 1.11 0 0 0 .784-.28.988.988 0 0 0 .304-.763v-2.962a.972.972 0 0 0-.304-.76 1.11 1.11 0 0 0-.784-.3zM171.782 9.2h-3.484a1.45 1.45 0 0 0-1.305.834l-8.394 15.599-8.411-15.586a1.447 1.447 0 0 0-1.305-.835h-3.526a.994.994 0 0 0-.763.305 1.118 1.118 0 0 0-.28.784v28.348a1.035 1.035 0 0 0 .305.739 1.036 1.036 0 0 0 .738.304h3.755a.982.982 0 0 0 .759-.304c.188-.2.29-.465.284-.739V19.93l6.049 11.494a1.664 1.664 0 0 0 1.494.955h1.827a1.533 1.533 0 0 0 1.435-.956l6.041-11.493v18.72a1.035 1.035 0 0 0 .643.964c.127.052.263.079.4.078h3.755c.287.012.568-.088.784-.28a.995.995 0 0 0 .304-.763V10.304a1.041 1.041 0 0 0-1.088-1.088l-.017-.017zm15.711 0h-4.172a1.048 1.048 0 0 0-.738.284.988.988 0 0 0-.305.763v28.369a1.035 1.035 0 0 0 .305.738 1.036 1.036 0 0 0 .738.305h4.172a1 1 0 0 0 .764-.305c.186-.2.287-.465.279-.738V10.246a1.024 1.024 0 0 0-.279-.763 1.048 1.048 0 0 0-.755-.267l-.009-.017zm31.072 25.428h-14.626v-7.865h13.321c.288.01.569-.091.784-.283a.99.99 0 0 0 .304-.764v-2.74a1.04 1.04 0 0 0-1.088-1.09h-13.321v-7.617h14.28c.287.01.567-.091.78-.284a.988.988 0 0 0 .305-.763V10.3a1.054 1.054 0 0 0-.303-.784 1.04 1.04 0 0 0-.782-.306h-19.22a.996.996 0 0 0-.759.305 1.1 1.1 0 0 0-.284.784v28.348a1.035 1.035 0 0 0 .305.739 1.032 1.032 0 0 0 .738.304h19.566c.288.012.569-.088.785-.28a.99.99 0 0 0 .304-.763v-2.962a.995.995 0 0 0-.304-.76 1.11 1.11 0 0 0-.785-.3zm33.375 3.658-6.299-11.089a8.475 8.475 0 0 0 4.255-3.112 9.003 9.003 0 0 0 1.535-5.31c0-3.06-1.008-5.412-3.024-7.055-2.017-1.644-4.81-2.471-8.382-2.483h-11.264a.994.994 0 0 0-.763.305 1.12 1.12 0 0 0-.284.784v28.323a1.04 1.04 0 0 0 1.047 1.043h4.005a1.054 1.054 0 0 0 1.013-.642.984.984 0 0 0 .076-.4v-10.43h5.966l5.574 10.32c.181.317.415.599.692.835a1.67 1.67 0 0 0 1.089.325h4.009a.9.9 0 0 0 .63-.258.852.852 0 0 0 .284-.655c-.01-.17-.06-.337-.146-.484l-.013-.017zm-8.126-16.203c-.871.767-2.178 1.152-3.922 1.155h-6.049v-9.144h6.041c1.743 0 3.051.399 3.921 1.197.868.8 1.306 1.936 1.306 3.417 0 1.48-.43 2.607-1.297 3.375z" fill="url(#c)"/><path opacity=".5" d="M41.678 24.059a1.819 1.819 0 0 0-.835-.868L17.147 9.508c-1.201-.693-2.186-.126-2.186 1.251v27.376c0 1.39.984 1.957 2.186 1.252l23.696-13.684c.37-.188.663-.495.835-.872.05-.125.075-.258.075-.392a1.088 1.088 0 0 0-.075-.38z" fill="url(#d)"/><path opacity=".5" d="M41.678 24.059a1.818 1.818 0 0 0-.835-.868L17.147 9.508c-1.201-.693-2.186-.126-2.186 1.251v21.782l26.7-7.714c.05-.125.075-.258.075-.393a1.087 1.087 0 0 0-.058-.375z" fill="url(#e)"/><path opacity=".5" d="M41.678 24.059a1.819 1.819 0 0 0-.835-.868L17.147 9.508c-1.201-.693-2.186-.126-2.186 1.251v13.692h26.787c.001-.134-.023-.267-.07-.392z" fill="url(#f)"/><path d="m14.962 16.35 26.7 7.709a1.819 1.819 0 0 0-.834-.868L17.13 9.508c-1.201-.693-2.186-.126-2.186 1.251l.017 5.59z" fill="url(#g)"/></g><defs><linearGradient id="b" x1="133.5" y1="48.815" x2="133.5" y2=".108" gradientUnits="userSpaceOnUse"><stop stop-color="#D49143"/><stop offset=".13" stop-color="#E7AB5D"/><stop offset=".26" stop-color="#F4BE6F"/><stop offset=".39" stop-color="#FCC97A"/><stop offset=".54" stop-color="#FFCD7E"/><stop offset="1" stop-color="#DE984D"/></linearGradient><linearGradient id="c" x1="73110.3" y1="690.966" x2="73110.3" y2="2907.09" gradientUnits="userSpaceOnUse"><stop stop-color="#D49143"/><stop offset=".13" stop-color="#E7AB5D"/><stop offset=".26" stop-color="#F4BE6F"/><stop offset=".39" stop-color="#FCC97A"/><stop offset=".54" stop-color="#FFCD7E"/><stop offset="1" stop-color="#DE984D"/></linearGradient><linearGradient id="d" x1="-787.721" y1="-677.152" x2="2375.18" y2="2103.21" gradientUnits="userSpaceOnUse"><stop stop-color="#D49143"/><stop offset=".13" stop-color="#E7AB5D"/><stop offset=".26" stop-color="#F4BE6F"/><stop offset=".39" stop-color="#FCC97A"/><stop offset=".54" stop-color="#FFCD7E"/><stop offset="1" stop-color="#DE984D"/></linearGradient><linearGradient id="e" x1="854.368" y1="735.429" x2="1985.08" y2="2033.2" gradientUnits="userSpaceOnUse"><stop stop-color="#D49143"/><stop offset=".13" stop-color="#E7AB5D"/><stop offset=".26" stop-color="#F4BE6F"/><stop offset=".39" stop-color="#FCC97A"/><stop offset=".54" stop-color="#FFCD7E"/><stop offset="1" stop-color="#DE984D"/></linearGradient><linearGradient id="f" x1="984.673" y1="409.395" x2="1620.78" y2="1527.55" gradientUnits="userSpaceOnUse"><stop stop-color="#D49143"/><stop offset=".13" stop-color="#E7AB5D"/><stop offset=".26" stop-color="#F4BE6F"/><stop offset=".39" stop-color="#FCC97A"/><stop offset=".54" stop-color="#FFCD7E"/><stop offset="1" stop-color="#DE984D"/></linearGradient><linearGradient id="g" x1="1111.4" y1="326.792" x2="1716.71" y2="1416.02" gradientUnits="userSpaceOnUse"><stop stop-color="#D49143"/><stop offset=".13" stop-color="#E7AB5D"/><stop offset=".26" stop-color="#F4BE6F"/><stop offset=".39" stop-color="#FCC97A"/><stop offset=".54" stop-color="#FFCD7E"/><stop offset="1" stop-color="#DE984D"/></linearGradient><clipPath id="a"><path fill="#fff" d="M0 0h267v48.911H0z"/></clipPath></defs></svg>