<svg width="28" height="28" viewBox="0 0 28 28" fill="none" xmlns="http://www.w3.org/2000/svg">
<path d="M13 20.5C13 22.598 13.862 24.495 15.25 25.857C14.533 25.951 13.781 26 13 26C7.21 26 3 23.433 3 19.715V19C3 18.2044 3.31607 17.4413 3.87868 16.8787C4.44129 16.3161 5.20435 16 6 16H14.5C13.5241 17.2971 12.9975 18.8768 13 20.5ZM13 2C13.7879 2 14.5681 2.15519 15.2961 2.45672C16.0241 2.75825 16.6855 3.20021 17.2426 3.75736C17.7998 4.31451 18.2417 4.97595 18.5433 5.7039C18.8448 6.43185 19 7.21207 19 8C19 8.78793 18.8448 9.56815 18.5433 10.2961C18.2417 11.0241 17.7998 11.6855 17.2426 12.2426C16.6855 12.7998 16.0241 13.2417 15.2961 13.5433C14.5681 13.8448 13.7879 14 13 14C11.4087 14 9.88258 13.3679 8.75736 12.2426C7.63214 11.1174 7 9.5913 7 8C7 6.4087 7.63214 4.88258 8.75736 3.75736C9.88258 2.63214 11.4087 2 13 2ZM27 20.5C27 22.2239 26.3152 23.8772 25.0962 25.0962C23.8772 26.3152 22.2239 27 20.5 27C18.7761 27 17.1228 26.3152 15.9038 25.0962C14.6848 23.8772 14 22.2239 14 20.5C14 18.7761 14.6848 17.1228 15.9038 15.9038C17.1228 14.6848 18.7761 14 20.5 14C22.2239 14 23.8772 14.6848 25.0962 15.9038C26.3152 17.1228 27 18.7761 27 20.5ZM21.214 16.54C21.17 16.3845 21.0765 16.2476 20.9476 16.1501C20.8188 16.0527 20.6616 15.9999 20.5 15.9999C20.3384 15.9999 20.1812 16.0527 20.0524 16.1501C19.9235 16.2476 19.83 16.3845 19.786 16.54L19.07 18.838H16.752C16.025 18.838 15.722 19.808 16.311 20.254L18.186 21.674L17.47 23.972C17.245 24.693 18.037 25.292 18.625 24.847L20.5 23.427L22.375 24.847C22.963 25.293 23.755 24.693 23.53 23.972L22.814 21.674L24.689 20.254C25.277 19.809 24.975 18.838 24.248 18.838H21.93L21.214 16.541V16.54Z" fill="white" fill-opacity="0.4"/>
</svg>
