<svg width="36" height="36" viewBox="0 0 36 36" fill="none" xmlns="http://www.w3.org/2000/svg">
<circle opacity="0.5" cx="18" cy="18" r="17.5" stroke="white"/>
<path fill-rule="evenodd" clip-rule="evenodd" d="M23.8798 22.403C23.8798 25.0123 20.4898 25.3139 17.9405 25.3139L17.7581 25.3138C16.1339 25.3096 11.9998 25.2014 11.9998 22.3871C11.9998 19.8311 15.2535 19.4895 17.7834 19.4766L18.1229 19.4764C19.747 19.4805 23.8798 19.5888 23.8798 22.403ZM17.9405 20.6637C14.7448 20.6637 13.1248 21.2432 13.1248 22.3871C13.1248 23.5414 14.7448 24.1264 17.9405 24.1264C21.1355 24.1264 22.7548 23.5469 22.7548 22.403C22.7548 21.2487 21.1355 20.6637 17.9405 20.6637ZM17.9405 9.5832C20.1365 9.5832 21.9223 11.4689 21.9223 13.7869C21.9223 16.105 20.1365 17.9899 17.9405 17.9899H17.9165C15.725 17.9828 13.9498 16.0962 13.9572 13.7846C13.9572 11.4689 15.7438 9.5832 17.9405 9.5832ZM17.9405 10.7137C16.3348 10.7137 15.0282 12.092 15.0282 13.7869C15.023 15.4764 16.3198 16.8539 17.9188 16.8602L17.9405 17.4255V16.8602C19.5455 16.8602 20.8513 15.4811 20.8513 13.7869C20.8513 12.092 19.5455 10.7137 17.9405 10.7137Z" fill="white"/>
</svg>
