<svg width="205" height="103" viewBox="0 0 205 103" fill="none" xmlns="http://www.w3.org/2000/svg">
<path d="M193 88.9999L193.702 89.7119L193 88.9999ZM64.5 93.4999L64.033 94.3841L64.5 93.4999ZM3.55537 102.328C3.73659 102.85 4.30643 103.126 4.82813 102.945L13.3298 99.9913C13.8515 99.8101 14.1275 99.2402 13.9463 98.7185C13.7651 98.1968 13.1952 97.9208 12.6735 98.102L5.1165 100.727L2.49142 93.1701C2.31019 92.6484 1.74036 92.3723 1.21865 92.5536C0.696945 92.7348 0.420931 93.3046 0.602154 93.8263L3.55537 102.328ZM164.369 2.27599C174.97 10.8894 189.055 25.5569 196.902 41.5406C200.823 49.5263 203.157 57.7797 202.776 65.7364C202.397 73.6642 199.32 81.363 192.298 88.2878L193.702 89.7119C201.08 82.4368 204.37 74.2647 204.774 65.8321C205.176 57.4284 202.71 48.8318 198.698 40.6592C190.679 24.3262 176.363 9.44371 165.631 0.723764L164.369 2.27599ZM192.298 88.2878C183.499 96.965 173.801 99.9892 164.495 99.5945C155.157 99.1984 146.151 95.3534 138.827 90.1829C131.491 85.005 125.942 78.5698 123.457 73.1164C122.21 70.3801 121.787 68.0089 122.161 66.2071C122.517 64.4922 123.619 63.1627 125.809 62.4509L125.191 60.5488C122.381 61.462 120.718 63.32 120.203 65.8005C119.706 68.1939 120.306 71.0259 121.637 73.9459C124.308 79.805 130.134 86.4947 137.673 91.8168C145.223 97.1464 154.593 101.176 164.411 101.593C174.262 102.011 184.501 98.7848 193.702 89.7119L192.298 88.2878ZM125.809 62.4509C128.223 61.6665 129.256 62.09 129.668 62.6006C129.905 62.8942 130.084 63.367 130.111 64.0907C130.139 64.8126 130.011 65.7178 129.703 66.7857C128.464 71.0901 124.513 77.3514 118.493 83.155C106.476 94.7412 86.6865 104.085 64.967 92.6156L64.033 94.3841C86.8135 106.414 107.524 96.5085 119.882 84.5948C126.049 78.6484 130.255 72.0971 131.625 67.3391C131.97 66.1414 132.148 65.0153 132.11 64.0155C132.072 63.0175 131.817 62.0782 131.224 61.3445C129.978 59.8004 127.777 59.7082 125.191 60.5488L125.809 62.4509ZM64.967 92.6156C46.988 83.1211 33.0009 82.5062 22.7851 85.7467C12.5958 88.9788 6.29193 96.0064 3.60002 101.564L5.39998 102.436C7.87473 97.3266 13.7709 90.7043 23.3899 87.6531C32.9824 84.6102 46.412 85.0787 64.033 94.3841L64.967 92.6156Z" fill="#9029F6"/>
</svg>
