<svg width="269" height="45" fill="none" xmlns="http://www.w3.org/2000/svg"><g clip-path="url(#a)"><path d="m125.191 12.793 5.846-4.308h-19.568v25.877h19.568v-4.308h-13.983v-6.626h11.927V19.12h-11.927v-6.327h8.137zM95.725 30.053h-5.823V22.88h5.823c3.544 0 5.196 1.2 5.196 3.587 0 2.445-1.75 3.586-5.196 3.586zm.979-11.482h-6.802v-5.778h10.85l5.846-4.315H84.316v25.884h11.662c6.539 0 10.291-2.964 10.291-8.128 0-4.942-3.4-7.663-9.572-7.663M146.773 22.724h-4.951v-9.93h4.951c3.587 0 5.543 1.762 5.543 4.964 0 3.201-1.969 4.966-5.543 4.966zm.118-14.246h-10.653v25.884h5.584v-7.336h5.069c6.798 0 11.022-3.575 11.022-9.293 0-5.717-4.222-9.255-11.022-9.255zM74.734 28.758a10.01 10.01 0 0 1-4.821 1.208c-5.036 0-8.69-3.586-8.69-8.544s3.654-8.543 8.69-8.543a8.511 8.511 0 0 1 5.081 1.59L79 11.516l-.264-.231c-2.343-2.054-5.468-3.134-9.04-3.134-3.877 0-7.394 1.304-9.904 3.68-2.511 2.375-3.913 5.745-3.913 9.456 0 3.71 1.387 7.136 3.903 9.594 2.515 2.458 6.032 3.826 9.883 3.826 4.025 0 7.542-1.403 9.923-3.957l-3.616-2.668-1.238.676z" fill="#21A038"/><path d="M170.331 10.392c.741-.544 1.838-1.062 3.292-1.554 1.454-.492 3.218-.74 5.292-.74 1.33-.012 2.657.118 3.958.39a9.593 9.593 0 0 1 3.052 1.183 5.564 5.564 0 0 1 1.957 2.015c.456.813.685 1.787.685 2.922 0 2.985-1.53 5.02-4.588 6.103 3.947.592 5.921 2.614 5.92 6.067a7.475 7.475 0 0 1-.666 3.127 6.752 6.752 0 0 1-1.999 2.514 10.298 10.298 0 0 1-3.309 1.684 15.12 15.12 0 0 1-4.565.627 18.526 18.526 0 0 1-3.311-.277 16.13 16.13 0 0 1-2.772-.738 11.477 11.477 0 0 1-2.145-1.037 6.446 6.446 0 0 1-1.425-1.166v-5.696a8.185 8.185 0 0 0 1.516 1.85 9.685 9.685 0 0 0 2.147 1.479c.874.44 1.8.77 2.756.978a14.79 14.79 0 0 0 3.311.35 9.124 9.124 0 0 0 2.22-.259 5.764 5.764 0 0 0 1.794-.758c.49-.316.901-.74 1.203-1.238a3.32 3.32 0 0 0 .443-1.738c0-1.16-.45-2.01-1.35-2.554-.9-.543-2.361-.815-4.384-.815h-3.927v-3.805h3.885a6.925 6.925 0 0 0 2.11-.277c.505-.15.972-.409 1.367-.758.336-.306.596-.686.76-1.11.163-.438.244-.901.24-1.368a3.058 3.058 0 0 0-.37-1.536 2.921 2.921 0 0 0-1.036-1.053 5.142 5.142 0 0 0-1.555-.611c-.631-.14-1.275-.221-1.922-.24a9.409 9.409 0 0 0-2.794.326 9.952 9.952 0 0 0-2.405 1.017c-.703.417-1.359.91-1.956 1.468a9.217 9.217 0 0 0-1.424 1.664l-.005-6.436zM194.453 34.361V8.469h11.25c5.82 0 8.729 2.145 8.729 6.436 0 1.48-.307 2.713-.924 3.7-.615.985-1.591 1.74-2.924 2.264 1.604.273 2.776.907 3.514 1.904.74.997 1.11 2.347 1.11 4.051 0 1.333-.234 2.48-.701 3.44a6.025 6.025 0 0 1-2.017 2.343 9.11 9.11 0 0 1-3.182 1.332c-1.393.298-2.815.44-4.239.424l-10.616-.002zm10.581-14.943c1.48 0 2.646-.308 3.497-.925.852-.616 1.276-1.479 1.276-2.589 0-1.036-.363-1.825-1.091-2.367-.728-.541-1.92-.813-3.57-.815h-6.068v6.696h5.956zm.327 10.69c1.774 0 3.078-.29 3.912-.87.834-.579 1.253-1.497 1.257-2.754 0-1.26-.444-2.147-1.332-2.665-.888-.517-2.146-.775-3.774-.775h-6.358v7.064h6.295zM225.456 30.294a2.67 2.67 0 0 0 1.331-.326c.394-.224.738-.631 1.036-1.222L216.504 8.47h5.365l8.329 15.018 6.806-15.018h4.847l-9.507 20.493a17.05 17.05 0 0 1-1.556 2.792 8.496 8.496 0 0 1-1.589 1.738c-.5.41-1.074.718-1.691.908a6.502 6.502 0 0 1-1.868.26 7.372 7.372 0 0 1-1.683-.186 7.842 7.842 0 0 1-1.314-.406v-4.81a3.77 3.77 0 0 0 1.258.76 4.415 4.415 0 0 0 1.555.277M249.576 34.361h-4.623V8.47h4.623v10.875h3.885l8.324-10.875h5.624l-9.878 12.318L269 34.361h-5.92l-9.396-11.206h-4.108V34.36z" fill="#5AB0FF"/><path d="M37.88 8.328a21.517 21.517 0 0 1 2.534 4.26l-19.262 14.39-8.05-5.114v-6.153l8.05 5.115L37.881 8.328z" fill="#21A038"/><path d="M4.89 21.43c0-.275 0-.55.02-.815l-4.884-.25a21.629 21.629 0 0 0 1.581 9.268 21.394 21.394 0 0 0 4.588 6.948l3.461-3.505a16.432 16.432 0 0 1-3.531-5.34 16.613 16.613 0 0 1-1.234-6.306z" fill="url(#b)"/><path d="M21.147 4.95c.272 0 .543.01.815.024l.241-4.946a20.951 20.951 0 0 0-16.008 6.25l3.46 3.504a16.18 16.18 0 0 1 5.27-3.586 16 16 0 0 1 6.222-1.246z" fill="url(#c)"/><path d="M21.144 37.912c-.272 0-.543 0-.815-.021l-.243 4.943a20.823 20.823 0 0 0 9.148-1.603 21.085 21.085 0 0 0 6.847-4.65l-3.445-3.503a16.111 16.111 0 0 1-11.492 4.834z" fill="url(#d)"/><path d="m30.314 7.826 4.112-3.072A20.889 20.889 0 0 0 21.141 0v4.95a16.03 16.03 0 0 1 9.174 2.876z" fill="url(#e)"/><path d="M42.294 21.43a21.998 21.998 0 0 0-.326-3.84l-4.552 3.4v.44c.002 2.302-.474 4.578-1.397 6.685a16.425 16.425 0 0 1-3.96 5.53l3.283 3.678a21.356 21.356 0 0 0 5.145-7.196 21.641 21.641 0 0 0 1.807-8.696z" fill="#21A038"/><path d="M21.145 37.911a16.04 16.04 0 0 1-6.595-1.416 16.228 16.228 0 0 1-5.458-4.013l-3.627 3.326a21.125 21.125 0 0 0 7.101 5.217 20.867 20.867 0 0 0 8.58 1.838V37.91z" fill="url(#f)"/><path d="M10.243 9.216 6.961 5.543a21.357 21.357 0 0 0-5.146 7.192A21.61 21.61 0 0 0 0 21.43h4.89c0-2.301.475-4.577 1.398-6.685a16.425 16.425 0 0 1 3.955-5.53z" fill="url(#g)"/></g><defs><linearGradient id="b" x1="7.226" y1="35.948" x2="1.761" y2="20.358" gradientUnits="userSpaceOnUse"><stop offset=".14" stop-color="#F1E813"/><stop offset=".3" stop-color="#E6E418"/><stop offset=".58" stop-color="#C9DA26"/><stop offset=".89" stop-color="#A2CC39"/></linearGradient><linearGradient id="c" x1="7.576" y1="7.12" x2="21.37" y2="1.932" gradientUnits="userSpaceOnUse"><stop offset=".06" stop-color="#0FA7DF"/><stop offset=".54" stop-color="#0098F8"/><stop offset=".92" stop-color="#0290EA"/></linearGradient><linearGradient id="d" x1="19.752" y1="39.819" x2="35.318" y2="36.348" gradientUnits="userSpaceOnUse"><stop offset=".12" stop-color="#A2CC39"/><stop offset=".28" stop-color="#86C239"/><stop offset=".87" stop-color="#219F38"/></linearGradient><linearGradient id="e" x1="20.106" y1="1.724" x2="33.427" y2="5.781" gradientUnits="userSpaceOnUse"><stop offset=".06" stop-color="#0290EA"/><stop offset=".79" stop-color="#0C89CA"/></linearGradient><linearGradient id="f" x1="6.675" y1="35.247" x2="21.189" y2="40.6" gradientUnits="userSpaceOnUse"><stop offset=".13" stop-color="#F1E813"/><stop offset=".3" stop-color="#EAE616"/><stop offset=".53" stop-color="#D8DF1F"/><stop offset=".8" stop-color="#BAD52D"/><stop offset=".98" stop-color="#A2CC39"/></linearGradient><linearGradient id="g" x1="1.727" y1="21.993" x2="7.669" y2="6.737" gradientUnits="userSpaceOnUse"><stop offset=".07" stop-color="#A2CC39"/><stop offset=".26" stop-color="#81C45E"/><stop offset=".92" stop-color="#0FA7DF"/></linearGradient><clipPath id="a"><path fill="#fff" d="M0 0h269v44.193H0z"/></clipPath></defs></svg>