<svg width="520" height="647" viewBox="0 0 520 647" fill="none" xmlns="http://www.w3.org/2000/svg">
<path d="M615.924 429.574C617.246 480.905 601.338 562.062 570.74 603.284C540.142 644.506 496.62 674.277 447.127 687.842C397.634 701.407 345.025 697.982 297.706 678.115C250.386 658.248 211.086 623.085 186.083 578.244C161.081 533.403 151.819 481.47 159.777 430.743C167.735 380.015 192.453 333.42 229.984 298.401C267.515 263.382 315.692 241.96 366.819 237.556C417.946 233.153 487.444 255.49 530.403 283.576L484.549 316.198C450.995 294.26 411.061 284.209 371.128 287.648C331.194 291.087 293.565 307.82 264.251 335.172C234.937 362.524 215.63 398.918 209.414 438.539C203.199 478.161 210.433 518.724 229.961 553.748C249.49 588.772 280.186 616.236 317.146 631.754C354.105 647.271 395.196 649.946 433.854 639.351C472.511 628.756 506.505 605.503 530.404 573.306C554.303 541.109 566.728 501.826 565.695 461.733L615.924 429.574Z" fill="white" fill-opacity="0.15"/>
<path fill-rule="evenodd" clip-rule="evenodd" d="M390.398 531.558L303.318 481.282L302 410.461L393.035 464.732L571.222 335L602.17 377.507L390.682 531.486L390.58 531.663L390.501 531.618L390.462 531.646L390.398 531.558Z" fill="white" fill-opacity="0.15"/>
<ellipse cx="436.935" cy="332.707" rx="375.589" ry="167.33" transform="rotate(-30 436.935 332.707)" fill="url(#paint0_radial_5859_5792)" fill-opacity="0.88"/>
<ellipse cx="162" cy="487.5" rx="132.5" ry="168" transform="rotate(-90 162 487.5)" fill="url(#paint1_radial_5859_5792)" fill-opacity="0.88"/>
<defs>
<radialGradient id="paint0_radial_5859_5792" cx="0" cy="0" r="1" gradientUnits="userSpaceOnUse" gradientTransform="translate(436.935 332.707) rotate(90) scale(167.33 375.589)">
<stop stop-color="#C4E01B"/>
<stop offset="1" stop-color="#C4E01B" stop-opacity="0"/>
</radialGradient>
<radialGradient id="paint1_radial_5859_5792" cx="0" cy="0" r="1" gradientUnits="userSpaceOnUse" gradientTransform="translate(162 487.5) rotate(121.388) scale(144.744 145.928)">
<stop stop-color="#C4E01B"/>
<stop offset="1" stop-color="#C4E01B" stop-opacity="0"/>
</radialGradient>
</defs>
</svg>
