<svg width="520" height="715" viewBox="0 0 520 715" fill="none" xmlns="http://www.w3.org/2000/svg">
<mask id="mask0_5859_5713" style="mask-type:alpha" maskUnits="userSpaceOnUse" x="0" y="0" width="698" height="715">
<rect width="698" height="715" fill="white"/>
</mask>
<g mask="url(#mask0_5859_5713)">
<g filter="url(#filter0_f_5859_5713)">
<ellipse rx="98.1809" ry="185.089" transform="matrix(0.537761 0.843097 -0.813425 0.58167 494.195 285.437)" fill="#3FFFD1" fill-opacity="0.75"/>
</g>
<g filter="url(#filter1_f_5859_5713)">
<ellipse cx="197.872" cy="398.977" rx="62.8721" ry="80.3763" fill="#3FFFD1" fill-opacity="0.75"/>
</g>
<path d="M296.146 499.423C295.172 495.865 293.239 488.971 283.079 488.971C277.174 488.971 268.249 493.195 268.249 509.82C268.249 520.376 272.71 530.158 283.079 530.158C289.903 530.158 294.689 526.038 296.146 518.818H308.41C305.98 531.645 297.617 540.561 282.855 540.561C267.205 540.561 256 529.919 256 509.651C256 489.042 267.853 478.59 283.009 478.59C300.628 478.59 307.741 490.75 308.41 499.423H296.146Z" fill="white" fill-opacity="0.1"/>
<path d="M323.421 511.932L337.839 495.376H351.883L336.555 512.24L352.294 539.024H338.573L328.174 520.277L323.421 525.239V539.024H311.977V495.376H323.421V511.932Z" fill="white" fill-opacity="0.1"/>
<path d="M394.163 517.113C394.163 532.847 383.61 540.168 371.926 540.168C360.26 540.168 349.621 532.954 349.621 517.215C349.621 501.463 360.26 494.24 371.926 494.24C383.61 494.24 394.163 501.377 394.163 517.113ZM361.388 517.113C361.388 522.705 363.084 530.487 371.926 530.487C380.771 530.487 382.393 522.791 382.393 517.215C382.393 511.605 380.771 503.906 371.926 503.906C363.084 503.906 361.388 511.519 361.388 517.113Z" fill="white" fill-opacity="0.1"/>
<path d="M437.164 495.372V539.023H425.72V504.558H413.474V518.018C413.474 534.713 408.447 539.979 400.407 539.979C398.407 539.979 395.138 539.656 393.445 539.023V530.488C393.682 530.657 395.138 530.814 396.831 530.814C400.269 530.814 402.048 529.118 402.048 515.827V495.372H437.164Z" fill="white" fill-opacity="0.1"/>
<path d="M454.456 511.932L468.874 495.376H482.918L467.575 512.24L483.329 539.024H469.609L459.227 520.277L454.456 525.239V539.024H443.012V495.376H454.456V511.932Z" fill="white" fill-opacity="0.1"/>
<path d="M525.196 517.113C525.196 532.847 514.661 540.168 502.977 540.168C491.293 540.168 480.672 532.954 480.672 517.215C480.672 501.463 491.293 494.24 502.977 494.24C514.661 494.24 525.196 501.377 525.196 517.113ZM492.442 517.113C492.442 522.705 494.135 530.487 502.977 530.487C511.782 530.487 513.463 522.791 513.463 517.215C513.463 511.605 511.782 503.906 502.977 503.906C494.135 503.906 492.442 511.519 492.442 517.113Z" fill="white" fill-opacity="0.1"/>
<path d="M339.187 468.722C348.938 468.722 372.951 467.013 390.897 453.91V463.849H427.104L427.141 420.146L442.259 404.495L475.17 463.849H518.612L468.755 379.041L517.316 325.589H472.844L427.141 378.033V277.287H390.897V293.226C379.861 281.376 361.971 272.414 334.075 272.414C273.692 272.414 262.355 309.149 262.355 329.712C262.355 357.968 277.544 373.671 304.003 380.086L341.516 389.321C361.301 394.212 375.449 397.804 375.449 412.449C375.449 431.983 354.874 436.601 336.366 436.601C302.445 436.601 296.801 416.824 296.801 406.293H259.531C259.531 429.415 271.35 468.722 339.187 468.722ZM363.87 357.474L318.406 346.404C310.676 344.61 298.596 341.513 298.596 326.889C298.596 310.179 316.335 304.519 331.236 304.519C365.154 304.519 368.251 324.323 369.258 332.791H390.897V367.566C382.958 362.93 373.587 359.919 363.87 357.474Z" fill="white" fill-opacity="0.1"/>
</g>
<defs>
<filter id="filter0_f_5859_5713" x="159.637" y="-25.3422" width="669.114" height="621.558" filterUnits="userSpaceOnUse" color-interpolation-filters="sRGB">
<feFlood flood-opacity="0" result="BackgroundImageFix"/>
<feBlend mode="normal" in="SourceGraphic" in2="BackgroundImageFix" result="shape"/>
<feGaussianBlur stdDeviation="87.4842" result="effect1_foregroundBlur_5859_5713"/>
</filter>
<filter id="filter1_f_5859_5713" x="-13.6068" y="169.994" width="422.958" height="457.966" filterUnits="userSpaceOnUse" color-interpolation-filters="sRGB">
<feFlood flood-opacity="0" result="BackgroundImageFix"/>
<feBlend mode="normal" in="SourceGraphic" in2="BackgroundImageFix" result="shape"/>
<feGaussianBlur stdDeviation="74.3034" result="effect1_foregroundBlur_5859_5713"/>
</filter>
</defs>
</svg>
