<svg width="579" height="641" fill="none" xmlns="http://www.w3.org/2000/svg"><path fill-rule="evenodd" clip-rule="evenodd" d="M17.96 36.022c29.69-50.324 97.65-72.208 184.381-66.182 35.912 2.495 74.94 9.775 115.616 21.743-41.453 42.289-81.231 93.99-116.024 152.965-34.798 58.982-60.818 118.81-77.786 175.551-30.148-29.816-55.396-60.458-74.948-90.686-47.217-73-60.928-143.068-31.239-193.391zM123.567 322.05C19.942 219.86-26.433 107.735 16.414 35.11 59.26-37.517 179.827-51.149 319.383-9.869c102.189-103.62 214.31-149.993 286.934-107.146 72.626 42.847 86.258 163.415 44.976 302.973C754.9 288.142 801.265 400.254 758.421 472.875c-42.844 72.621-163.4 86.255-302.947 44.983-102.185 103.612-214.3 149.98-286.922 107.135-72.62-42.844-86.255-163.398-44.985-302.943zm329.957 195.228c-29.811 30.14-60.446 55.381-90.668 74.93-73 47.217-143.068 60.928-193.392 31.239-50.323-29.69-72.207-97.65-66.181-184.381 2.494-35.904 9.772-74.923 21.735-115.589 42.288 41.45 93.987 81.225 152.958 116.017 58.981 34.797 118.808 60.816 175.548 77.784zm1.427-1.448c-56.853-16.914-116.872-42.962-176.062-77.883-59.181-34.915-110.999-74.844-153.294-116.42 16.914-56.854 42.962-116.875 77.884-176.067 34.917-59.184 74.849-111.003 116.427-153.3 56.847 16.914 116.858 42.96 176.041 77.876 59.192 34.923 111.018 74.861 153.318 116.446-16.914 56.845-42.959 116.855-77.875 176.036-34.92 59.19-74.856 111.014-116.439 153.312zm1.95.577c40.668 11.965 79.688 19.242 115.594 21.737 86.73 6.026 154.69-15.858 184.38-66.182 29.69-50.323 15.978-120.391-31.239-193.391-19.547-30.22-44.786-60.853-74.923-90.661-16.968 56.731-42.984 116.549-77.776 175.521-34.797 58.98-74.579 110.685-116.036 152.976zm192.941-331.875c11.969-40.677 19.249-79.706 21.745-115.62 6.026-86.73-15.858-154.69-66.182-184.38-50.324-29.69-120.391-15.979-193.391 31.239-30.226 19.55-60.866 44.796-90.68 74.941C378.067 7.68 437.886 33.697 496.859 68.49c58.983 34.799 110.691 74.583 152.983 116.042zm-305.54-92.413 37.151 125.425c5.278 17.82 23.561 28.411 41.646 24.124l127.283-30.174-125.424 37.151c-17.821 5.279-28.412 23.562-24.125 41.646l30.174 127.284-37.151-125.425c-5.279-17.82-23.562-28.411-41.646-24.124L224.926 298.2l125.425-37.151c17.82-5.279 28.411-23.562 24.124-41.646L344.302 92.119z" fill="url(#a)" fill-opacity=".3"/><defs><linearGradient id="a" x1="40.229" y1="-77.013" x2="718.212" y2="642.265" gradientUnits="userSpaceOnUse"><stop stop-color="#fff"/><stop offset=".292" stop-color="#fff" stop-opacity=".29"/><stop offset=".547" stop-color="#fff" stop-opacity=".63"/><stop offset=".75" stop-color="#fff" stop-opacity=".17"/><stop offset="1" stop-color="#fff" stop-opacity=".96"/></linearGradient></defs></svg>