<svg width="60" height="60" fill="none" xmlns="http://www.w3.org/2000/svg"><rect width="60" height="60" rx="12" fill="#79B1FC"/><path d="M39.999 13.75a1.25 1.25 0 0 0-2.135-.885l-5 5a1.25 1.25 0 0 0-.365.885v6.982l-1.853 1.85A2.506 2.506 0 0 0 27.5 30a2.501 2.501 0 1 0 4.915-.648l1.852-1.852h6.983a1.25 1.25 0 0 0 .885-.365l5-5A1.25 1.25 0 0 0 46.249 20h-6.25v-6.25zm4.86 14.195A15 15 0 1 1 32.056 15.14l-.957.957a3.75 3.75 0 0 0-1.1 2.653A11.25 11.25 0 1 0 41.249 30a3.75 3.75 0 0 0 2.65-1.1l.96-.955zm-14.86-6.695a8.75 8.75 0 1 0 8.75 8.75H35.3l-.312.312a5 5 0 1 1-5.303-5.302l.313-.313V21.25z" fill="#fff"/></svg>