<svg width="28" height="28" fill="none" xmlns="http://www.w3.org/2000/svg"><g clip-path="url(#a)"><path fill-rule="evenodd" clip-rule="evenodd" d="M27.429 14c0 7.574-6.141 13.714-13.715 13.714C6.141 27.714 0 21.574 0 14 0 6.426 6.14.286 13.714.286 21.288.286 27.43 6.426 27.43 14zm-13.223-3.59c-1.334.554-4 1.703-7.998 3.445-.65.258-.99.51-1.02.758-.053.418.47.582 1.181.805.097.031.198.062.3.096.701.228 1.643.494 2.132.504.445.01.94-.174 1.488-.548 3.735-2.523 5.663-3.797 5.784-3.824.086-.02.205-.045.285.027.08.07.072.206.064.242-.053.22-2.103 2.128-3.166 3.116-.331.307-.566.525-.614.576-.107.11-.217.217-.322.319-.651.626-1.138 1.097.027 1.865.56.369 1.008.674 1.455.978.488.333.975.664 1.606 1.078.16.105.313.213.463.32.568.405 1.079.769 1.71.712.365-.035.745-.379.937-1.406.453-2.43 1.347-7.691 1.554-9.86a2.41 2.41 0 0 0-.023-.54.578.578 0 0 0-.196-.371c-.164-.134-.418-.163-.532-.16-.515.009-1.306.284-5.115 1.868z" fill="#fff" fill-opacity=".4"/></g><defs><clipPath id="a"><path fill="#fff" transform="translate(0 .286)" d="M0 0h27.429v27.429H0z"/></clipPath></defs></svg>