<svg width="213" height="213" viewBox="0 0 213 213" fill="none" xmlns="http://www.w3.org/2000/svg">
<g filter="url(#filter0_di_55_5063)">
<path d="M52.2275 99.3472C43.5442 75.3445 39.2026 63.3431 43.9618 53.1889C48.7209 43.0347 60.7223 38.693 84.725 30.0098L89.6525 28.2272C113.655 19.544 125.657 15.2024 135.811 19.9615C145.965 24.7207 150.307 36.7221 158.99 60.7248L160.773 65.6523C169.456 89.655 173.797 101.656 169.038 111.811C164.279 121.965 152.278 126.306 128.275 134.99L123.347 136.772C99.3447 145.456 87.3434 149.797 77.1891 145.038C67.0349 140.279 62.6933 128.277 54.0101 104.275L52.2275 99.3472Z" fill="url(#paint0_linear_55_5063)"/>
<path d="M52.2275 99.3472C43.5442 75.3445 39.2026 63.3431 43.9618 53.1889C48.7209 43.0347 60.7223 38.693 84.725 30.0098L89.6525 28.2272C113.655 19.544 125.657 15.2024 135.811 19.9615C145.965 24.7207 150.307 36.7221 158.99 60.7248L160.773 65.6523C169.456 89.655 173.797 101.656 169.038 111.811C164.279 121.965 152.278 126.306 128.275 134.99L123.347 136.772C99.3447 145.456 87.3434 149.797 77.1891 145.038C67.0349 140.279 62.6933 128.277 54.0101 104.275L52.2275 99.3472Z" fill="#0270F1"/>
</g>
<g clip-path="url(#clip0_55_5063)">
<path d="M96.6784 110.598L132.602 97.8923C134.446 97.2401 135.955 95.8821 136.798 94.117C137.641 92.3519 137.748 90.3243 137.096 88.4803L131.768 73.4156C131.115 71.5715 129.757 70.0621 127.992 69.2194C126.227 68.3766 124.2 68.2696 122.356 68.9218L113.085 72.2006C112.65 70.9712 111.745 69.9649 110.568 69.4031C109.391 68.8413 108.04 68.7699 106.81 69.2047L104.493 70.0244L103.878 68.2862C103.722 67.8249 103.751 67.3208 103.961 66.8813C104.171 66.4418 104.544 66.1016 105.001 65.9332C106.384 65.444 107.516 64.4255 108.149 63.1017C108.781 61.7778 108.861 60.2571 108.372 58.8741L107.962 57.7153C107.799 57.2543 107.459 56.8769 107.018 56.6662C106.577 56.4556 106.07 56.4288 105.609 56.5918C105.148 56.7549 104.77 57.0944 104.56 57.5357C104.349 57.9769 104.322 58.4838 104.485 58.9449L104.895 60.1037C105.052 60.5649 105.022 61.069 104.812 61.5086C104.602 61.9481 104.229 62.2883 103.772 62.4567C102.389 62.9458 101.257 63.9644 100.625 65.2882C99.9926 66.612 99.9123 68.1327 100.401 69.5157L101.016 71.254L98.6986 72.0737C97.4692 72.5085 96.4629 73.4138 95.9011 74.5906C95.3392 75.7673 95.2679 77.119 95.7027 78.3484L86.4321 81.6272C84.5881 82.2794 83.0786 83.6374 82.2359 85.4025C81.3931 87.1676 81.2861 89.1952 81.9383 91.0393L87.2664 106.104C87.9186 107.948 89.2766 109.457 91.0417 110.3C92.8068 111.143 94.8344 111.25 96.6784 110.598ZM123.564 92.6142C123.106 92.7763 122.61 92.7989 122.139 92.679C121.667 92.5591 121.242 92.3022 120.917 91.9408C120.592 91.5793 120.381 91.1295 120.312 90.6483C120.242 90.1671 120.317 89.6761 120.526 89.2373C120.736 88.7986 121.071 88.4318 121.489 88.1833C121.907 87.9349 122.389 87.816 122.874 87.8416C123.36 87.8673 123.827 88.0363 124.216 88.3274C124.606 88.6184 124.9 89.0184 125.062 89.4768C125.28 90.0915 125.244 90.7674 124.963 91.3557C124.682 91.9441 124.179 92.3968 123.564 92.6142ZM124.921 81.7042C125.379 81.5421 125.875 81.5195 126.347 81.6394C126.818 81.7592 127.243 82.0161 127.568 82.3776C127.893 82.739 128.104 83.1888 128.174 83.67C128.243 84.1512 128.168 84.6423 127.959 85.081C127.749 85.5198 127.415 85.8866 126.997 86.135C126.579 86.3835 126.096 86.5024 125.611 86.4767C125.125 86.4511 124.658 86.2821 124.269 85.991C123.879 85.6999 123.585 85.2999 123.423 84.8415C123.205 84.2269 123.241 83.551 123.522 82.9626C123.803 82.3743 124.306 81.9216 124.921 81.7042ZM118.646 78.7083C119.105 78.5462 119.601 78.5236 120.072 78.6435C120.543 78.7634 120.968 79.0203 121.293 79.3817C121.619 79.7432 121.829 80.1929 121.899 80.6741C121.968 81.1554 121.894 81.6464 121.684 82.0852C121.475 82.5239 121.14 82.8907 120.722 83.1391C120.304 83.3876 119.822 83.5065 119.336 83.4809C118.851 83.4552 118.384 83.2862 117.994 82.9951C117.605 82.7041 117.31 82.304 117.148 81.8457C116.931 81.231 116.966 80.5551 117.247 79.9667C117.528 79.3784 118.031 78.9257 118.646 78.7083ZM118.788 86.4809C118.95 86.9393 118.972 87.4355 118.852 87.9067C118.733 88.3779 118.476 88.803 118.114 89.1282C117.753 89.4534 117.303 89.6641 116.822 89.7337C116.341 89.8033 115.85 89.7286 115.411 89.5191C114.972 89.3096 114.605 88.9747 114.357 88.5568C114.108 88.1388 113.989 87.6566 114.015 87.171C114.041 86.6855 114.21 86.2185 114.501 85.829C114.792 85.4395 115.192 85.1451 115.65 84.983C116.265 84.7656 116.941 84.8013 117.529 85.0822C118.118 85.3631 118.57 85.8663 118.788 86.4809ZM93.8375 93.3496L95.5758 92.7348L94.961 90.9966C94.7979 90.5356 94.8247 90.0287 95.0354 89.5874C95.2461 89.1462 95.6234 88.8066 96.0844 88.6436C96.5455 88.4805 97.0523 88.5073 97.4936 88.718C97.9349 88.9287 98.2744 89.306 98.4375 89.767L99.0522 91.5053L100.79 90.8905C101.251 90.7275 101.758 90.7542 102.2 90.9649C102.641 91.1756 102.98 91.553 103.143 92.014C103.307 92.475 103.28 92.9819 103.069 93.4231C102.858 93.8644 102.481 94.2039 102.02 94.367L100.282 94.9818L100.897 96.72C101.06 97.181 101.033 97.6879 100.822 98.1292C100.611 98.5704 100.234 98.91 99.7731 99.073C99.3121 99.2361 98.8052 99.2093 98.3639 98.9986C97.9227 98.7879 97.5832 98.4106 97.4201 97.9495L96.8053 96.2113L95.0671 96.8261C94.6061 96.9891 94.0992 96.9624 93.6579 96.7517C93.2166 96.541 92.8771 96.1636 92.7141 95.7026C92.551 95.2416 92.5778 94.7347 92.7885 94.2935C92.9992 93.8522 93.3765 93.5127 93.8375 93.3496Z" fill="white"/>
</g>
<defs>
<filter id="filter0_di_55_5063" x="0" y="-0.000244141" width="213" height="213" filterUnits="userSpaceOnUse" color-interpolation-filters="sRGB">
<feFlood flood-opacity="0" result="BackgroundImageFix"/>
<feColorMatrix in="SourceAlpha" type="matrix" values="0 0 0 0 0 0 0 0 0 0 0 0 0 0 0 0 0 0 127 0" result="hardAlpha"/>
<feMorphology radius="23" operator="erode" in="SourceAlpha" result="effect1_dropShadow_55_5063"/>
<feOffset dy="24"/>
<feGaussianBlur stdDeviation="32.5"/>
<feComposite in2="hardAlpha" operator="out"/>
<feColorMatrix type="matrix" values="0 0 0 0 0.588235 0 0 0 0 0.164706 0 0 0 0 0.917647 0 0 0 0.22 0"/>
<feBlend mode="normal" in2="BackgroundImageFix" result="effect1_dropShadow_55_5063"/>
<feBlend mode="normal" in="SourceGraphic" in2="effect1_dropShadow_55_5063" result="shape"/>
<feColorMatrix in="SourceAlpha" type="matrix" values="0 0 0 0 0 0 0 0 0 0 0 0 0 0 0 0 0 0 127 0" result="hardAlpha"/>
<feOffset/>
<feGaussianBlur stdDeviation="30.5"/>
<feComposite in2="hardAlpha" operator="arithmetic" k2="-1" k3="1"/>
<feColorMatrix type="matrix" values="0 0 0 0 1 0 0 0 0 1 0 0 0 0 1 0 0 0 0.7 0"/>
<feBlend mode="normal" in2="shape" result="effect2_innerShadow_55_5063"/>
</filter>
<linearGradient id="paint0_linear_55_5063" x1="168.334" y1="140.465" x2="37.0309" y2="39.3689" gradientUnits="userSpaceOnUse">
<stop stop-color="#0B85DA"/>
<stop offset="1" stop-color="#03C3FF"/>
</linearGradient>
<clipPath id="clip0_55_5063">
<rect width="59" height="59" fill="white" transform="translate(69 63.6726) rotate(-19.4777)"/>
</clipPath>
</defs>
</svg>
