<svg width="195" height="195" viewBox="0 0 195 195" fill="none" xmlns="http://www.w3.org/2000/svg">
<path d="M184.832 98.1681L194.456 98.7631L194.131 104.023C194.069 105.037 193.8 105.804 193.325 106.326C192.849 106.859 192.229 107.102 191.466 107.055C190.548 106.998 189.889 106.52 189.489 105.622C189.285 106.22 188.964 106.667 188.527 106.963C188.088 107.271 187.565 107.406 186.957 107.369C186.075 107.314 185.427 106.939 185.015 106.243C184.604 105.547 184.434 104.609 184.507 103.428L184.832 98.1681ZM189.054 100.171L186.192 99.9942L185.967 103.626C185.888 104.914 186.325 105.588 187.279 105.647C187.78 105.678 188.154 105.527 188.402 105.195C188.65 104.875 188.796 104.352 188.841 103.624L189.054 100.171ZM192.882 100.408L190.396 100.254L190.191 103.564C190.119 104.733 190.494 105.343 191.317 105.393C191.77 105.421 192.1 105.316 192.306 105.077C192.513 104.839 192.636 104.391 192.677 103.735L192.882 100.408Z" fill="#0985C7"/>
<path d="M193.109 113.312L185.749 111.82L191.942 119.074L191.557 120.971L182.107 119.056L182.452 117.352L189.795 118.84L183.623 111.572L184.004 109.692L193.455 111.608L193.109 113.312Z" fill="#0985C7"/>
<path d="M186.553 131.702L188.15 127.191L186.275 126.527C185.193 126.144 184.358 125.747 183.768 125.335C183.175 124.935 182.654 124.453 182.208 123.889L180.234 129.466L186.553 131.702ZM190.086 126.127L187.359 133.832L179.654 131.105L179.325 132.034L175.253 130.593L175.803 129.038L178.49 129.989L181.211 122.301L178.524 121.35L179.074 119.795L183.146 121.236L182.83 122.132C183.204 122.721 183.703 123.246 184.325 123.707C184.944 124.18 185.817 124.615 186.943 125.014L190.086 126.127Z" fill="#0985C7"/>
<path d="M176.531 144.132L180.532 136.414C179.693 135.979 178.874 135.911 178.074 136.21C177.283 136.513 176.652 137.122 176.179 138.034C175.827 138.713 175.655 139.357 175.662 139.967C175.664 140.587 175.854 141.102 176.233 141.514L175.301 143.312C174.532 142.537 174.099 141.619 174.002 140.56C173.91 139.516 174.159 138.427 174.747 137.292C175.495 135.849 176.492 134.912 177.738 134.481C178.989 134.066 180.304 134.217 181.683 134.931C183.073 135.652 183.962 136.651 184.349 137.929C184.737 139.206 184.559 140.561 183.817 141.994C183.058 143.458 182.059 144.386 180.818 144.78C179.583 145.189 178.255 145.026 176.833 144.289L176.531 144.132ZM181.613 137.015L178.487 143.046C179.279 143.309 180.02 143.282 180.709 142.966C181.397 142.65 181.956 142.079 182.385 141.251C182.808 140.434 182.953 139.648 182.82 138.892C182.681 138.147 182.279 137.522 181.613 137.015Z" fill="#0985C7"/>
<path d="M178.301 148.911C178.508 150.256 178.136 151.602 177.186 152.95C176.235 154.297 175.095 155.094 173.766 155.341C172.447 155.595 171.152 155.274 169.883 154.379C168.613 153.484 167.882 152.375 167.688 151.054C167.503 149.739 167.886 148.408 168.837 147.061C169.794 145.703 170.923 144.891 172.223 144.623C173.532 144.363 174.822 144.68 176.091 145.575C177.361 146.471 178.097 147.583 178.301 148.911ZM173.618 153.592C174.484 153.442 175.234 152.918 175.867 152.02C176.501 151.121 176.746 150.234 176.604 149.359C176.461 148.483 175.945 147.732 175.057 147.105C174.168 146.478 173.287 146.244 172.415 146.404C171.542 146.563 170.789 147.092 170.155 147.991C169.522 148.889 169.28 149.771 169.429 150.637C169.572 151.513 170.088 152.264 170.976 152.891C171.865 153.518 172.745 153.751 173.618 153.592Z" fill="#0985C7"/>
<path d="M166.762 163.574C166.707 164.933 166.084 166.183 164.893 167.324C163.702 168.464 162.43 169.028 161.079 169.016C159.735 169.012 158.526 168.449 157.452 167.326C156.378 166.204 155.872 164.976 155.935 163.642C156.006 162.317 156.637 161.084 157.828 159.943C159.028 158.795 160.291 158.214 161.619 158.2C162.954 158.196 164.159 158.754 165.233 159.877C166.307 160.999 166.817 162.231 166.762 163.574ZM161.269 167.27C162.147 167.289 162.983 166.919 163.778 166.158C164.572 165.398 164.983 164.575 165.01 163.688C165.038 162.801 164.676 161.965 163.924 161.179C163.172 160.394 162.353 159.996 161.466 159.985C160.578 159.974 159.738 160.348 158.944 161.109C158.15 161.869 157.743 162.688 157.724 163.567C157.696 164.454 158.058 165.29 158.81 166.075C159.562 166.861 160.382 167.259 161.269 167.27Z" fill="#0985C7"/>
<path d="M144.23 178.642L145.751 177.659C146.215 178.07 146.749 178.28 147.353 178.288C147.956 178.297 148.553 178.11 149.145 177.727C150.068 177.13 150.624 176.393 150.812 175.518C151 174.642 150.795 173.742 150.198 172.819C149.621 171.926 148.903 171.387 148.043 171.203C147.181 171.035 146.318 171.23 145.455 171.788C144.783 172.223 144.328 172.752 144.09 173.375C143.859 174.008 143.885 174.653 144.168 175.31L142.633 176.303C142.141 175.169 142.077 174.079 142.44 173.034C142.792 171.995 143.526 171.115 144.639 170.395C145.934 169.558 147.237 169.263 148.549 169.51C149.858 169.773 150.928 170.547 151.758 171.832C152.589 173.116 152.854 174.418 152.554 175.736C152.26 177.064 151.461 178.15 150.157 178.994C149.093 179.682 148.028 179.993 146.962 179.929C145.895 179.864 144.985 179.435 144.23 178.642Z" fill="#0985C7"/>
<path d="M131.959 182.476L139.805 178.735C139.399 177.883 138.787 177.334 137.968 177.089C137.155 176.854 136.285 176.958 135.357 177.4C134.667 177.729 134.141 178.139 133.779 178.629C133.406 179.125 133.246 179.651 133.3 180.208L131.472 181.08C131.326 179.997 131.535 179.004 132.097 178.101C132.654 177.213 133.509 176.494 134.663 175.944C136.13 175.245 137.49 175.099 138.744 175.508C139.992 175.932 140.95 176.845 141.618 178.248C142.292 179.661 142.398 180.994 141.936 182.246C141.474 183.499 140.515 184.473 139.059 185.167C137.571 185.877 136.213 186.014 134.987 185.579C133.755 185.161 132.794 184.229 132.105 182.783L131.959 182.476ZM140.305 179.867L134.173 182.79C134.647 183.478 135.253 183.903 135.993 184.067C136.733 184.231 137.524 184.112 138.365 183.711C139.196 183.315 139.786 182.775 140.135 182.092C140.474 181.415 140.531 180.673 140.305 179.867Z" fill="#0985C7"/>
<path d="M129.92 188.668L129.482 187.284C129.004 188.663 127.995 189.596 126.457 190.083C125.011 190.54 123.685 190.452 122.482 189.817C121.271 189.197 120.439 188.17 119.985 186.734C119.534 185.31 119.628 184.002 120.267 182.81C120.893 181.621 121.936 180.797 123.394 180.335C124.818 179.885 126.167 180.048 127.44 180.823L125.981 176.209L127.638 175.685L131.578 188.144L129.92 188.668ZM123.429 188.352C124.212 188.769 125.122 188.813 126.159 188.485C127.196 188.157 127.919 187.59 128.328 186.784C128.741 185.989 128.785 185.079 128.461 184.053C128.14 183.039 127.584 182.332 126.793 181.93C126.002 181.529 125.088 181.492 124.051 181.82C123.015 182.147 122.292 182.696 121.883 183.464C121.467 184.248 121.421 185.152 121.745 186.177C122.073 187.214 122.634 187.939 123.429 188.352Z" fill="#0985C7"/>
<path d="M116.845 182.487L118.47 191.993L113.276 192.881C112.275 193.052 111.466 192.966 110.85 192.623C110.222 192.282 109.843 191.734 109.714 190.98C109.559 190.073 109.873 189.323 110.657 188.728C110.028 188.666 109.519 188.456 109.131 188.098C108.73 187.742 108.479 187.264 108.376 186.663C108.227 185.791 108.444 185.075 109.027 184.515C109.61 183.955 110.485 183.575 111.651 183.375L116.845 182.487ZM115.862 187.056L115.379 184.229L111.792 184.842C110.52 185.06 109.965 185.64 110.126 186.582C110.211 187.077 110.443 187.407 110.823 187.572C111.191 187.74 111.734 187.762 112.452 187.639L115.862 187.056ZM116.509 190.837L116.089 188.381L112.82 188.94C111.666 189.137 111.158 189.642 111.297 190.455C111.374 190.903 111.552 191.2 111.831 191.346C112.111 191.492 112.575 191.51 113.223 191.399L116.509 190.837Z" fill="#0985C7"/>
<path d="M104.226 193.973L103.965 186.467L98.3508 194.177L96.4162 194.245L96.0814 184.607L97.8189 184.546L98.0791 192.035L103.712 184.342L105.629 184.275L105.964 193.913L104.226 193.973Z" fill="#0985C7"/>
<path d="M82.9316 189.922L84.732 190.11C84.8363 190.721 85.1207 191.22 85.585 191.605C86.0494 191.99 86.6322 192.219 87.3333 192.292C88.4267 192.406 89.3212 192.181 90.0168 191.617C90.7125 191.053 91.1174 190.224 91.2317 189.131C91.3422 188.073 91.1207 187.203 90.5673 186.52C90.0008 185.848 89.2065 185.459 88.1844 185.352C87.3882 185.269 86.7022 185.396 86.1264 185.732C85.5494 186.08 85.1649 186.599 84.9728 187.287L83.1545 187.097C83.4832 185.906 84.1167 185.017 85.055 184.43C85.9814 183.842 87.1042 183.617 88.4233 183.755C89.9564 183.915 91.1564 184.503 92.0234 185.519C92.8773 186.545 93.2248 187.819 93.0659 189.34C92.907 190.862 92.2972 192.042 91.2365 192.88C90.1745 193.73 88.8711 194.075 87.3262 193.913C86.0664 193.782 85.0416 193.356 84.2518 192.637C83.4619 191.917 83.0219 191.012 82.9316 189.922Z" fill="#0985C7"/>
<path d="M70.9745 185.207L79.4299 187.225C79.649 186.306 79.5171 185.495 79.0342 184.79C78.5486 184.097 77.806 183.631 76.8064 183.392C76.0626 183.215 75.3959 183.203 74.8063 183.357C74.2051 183.508 73.7505 183.818 73.4425 184.285L71.4725 183.815C72.0392 182.881 72.825 182.239 73.8298 181.889C74.8202 181.548 75.9372 181.526 77.1808 181.823C78.7615 182.2 79.9113 182.941 80.6304 184.047C81.335 185.161 81.507 186.473 81.1465 187.984C80.7832 189.507 80.0285 190.611 78.8823 191.296C77.7362 191.98 76.3786 192.135 74.8096 191.761C73.2057 191.378 72.063 190.633 71.3817 189.524C70.6859 188.424 70.5238 187.096 70.8954 185.538L70.9745 185.207ZM79.1079 188.419L72.5005 186.843C72.437 187.675 72.6417 188.387 73.1147 188.979C73.5877 189.571 74.2774 189.976 75.184 190.192C76.0789 190.405 76.8768 190.356 77.5778 190.044C78.267 189.73 78.7771 189.188 79.1079 188.419Z" fill="#0985C7"/>
<path d="M57.5401 174.907L52.6662 183.228L48.1195 180.565C47.2431 180.051 46.6795 179.465 46.4287 178.805C46.1676 178.14 46.2303 177.477 46.6169 176.818C47.0819 176.024 47.8055 175.651 48.7876 175.7C48.3464 175.248 48.0922 174.76 48.0252 174.236C47.9479 173.706 48.0633 173.178 48.3713 172.652C48.8183 171.889 49.4452 171.481 50.252 171.427C51.0589 171.373 51.9727 171.646 52.9934 172.244L57.5401 174.907ZM53.8477 177.771L55.2972 175.297L52.1577 173.458C51.0442 172.805 50.2459 172.891 49.7627 173.716C49.5091 174.149 49.4744 174.551 49.6586 174.923C49.8325 175.288 50.234 175.654 50.8629 176.023L53.8477 177.771ZM51.909 181.081L53.1682 178.931L50.3072 177.255C49.2968 176.663 48.5832 176.723 48.1665 177.435C47.937 177.826 47.8822 178.168 48.002 178.46C48.1219 178.752 48.4654 179.064 49.0325 179.396L51.909 181.081Z" fill="#0985C7"/>
<path d="M40.4966 175.587L45.1329 169.679L35.8718 171.957L34.349 170.762L40.302 163.176L41.6697 164.249L37.0445 170.143L46.3086 167.89L47.8173 169.074L41.8643 176.66L40.4966 175.587Z" fill="#0985C7"/>
<path d="M26.9073 161.355L30.2166 164.812L31.6537 163.436C32.4823 162.643 33.213 162.075 33.8458 161.734C34.4704 161.384 35.135 161.137 35.8396 160.992L31.7494 156.719L26.9073 161.355ZM30.2952 167.02L24.6434 161.115L30.5472 155.463L29.8655 154.751L32.9857 151.763L34.126 152.955L32.0674 154.925L37.7068 160.817L39.7654 158.846L40.9057 160.037L37.7855 163.025L37.1286 162.338C36.4341 162.408 35.7408 162.616 35.0486 162.965C34.3482 163.305 33.5665 163.888 32.7033 164.714L30.2952 167.02Z" fill="#0985C7"/>
<path d="M20.3638 146.922L25.4773 153.953C26.2407 153.397 26.668 152.695 26.7593 151.845C26.8409 151.003 26.5795 150.166 25.975 149.335C25.5251 148.716 25.0261 148.274 24.4779 148.008C23.9227 147.732 23.3762 147.672 22.8386 147.826L21.6472 146.188C22.6847 145.847 23.6989 145.87 24.6899 146.258C25.6642 146.642 26.5274 147.352 27.2795 148.386C28.2354 149.7 28.6273 151.011 28.4553 152.318C28.2665 153.623 27.5441 154.732 26.2879 155.646C25.0221 156.567 23.7312 156.915 22.4152 156.69C21.0992 156.465 19.9667 155.701 19.0178 154.396C18.0478 153.063 17.6642 151.753 17.867 150.468C18.0531 149.18 18.7936 148.065 20.0884 147.123L20.3638 146.922ZM24.4562 154.651L20.4602 149.157C19.8708 149.749 19.5634 150.423 19.538 151.18C19.5126 151.938 19.774 152.693 20.3223 153.447C20.8635 154.191 21.5018 154.673 22.2371 154.891C22.9654 155.1 23.7051 155.02 24.4562 154.651Z" fill="#0985C7"/>
<path d="M15.3097 146.387C14.0145 145.971 12.9766 145.036 12.1962 143.584C11.4158 142.131 11.2123 140.755 11.5858 139.455C11.9487 138.162 12.8144 137.147 14.1827 136.412C15.5511 135.677 16.8696 135.517 18.1381 135.935C19.3962 136.357 20.4154 137.295 21.1958 138.748C21.9819 140.211 22.204 141.584 21.8621 142.867C21.5096 144.155 20.6493 145.166 19.2809 145.902C17.9125 146.637 16.5888 146.799 15.3097 146.387ZM13.2167 140.105C12.9634 140.947 13.0969 141.852 13.6172 142.82C14.1375 143.789 14.8211 144.405 15.6682 144.668C16.5153 144.932 17.4177 144.807 18.3756 144.292C19.3334 143.778 19.9362 143.094 20.1838 142.242C20.4314 141.39 20.2951 140.48 19.7748 139.511C19.2545 138.543 18.5737 137.932 17.7323 137.679C16.8852 137.415 15.9827 137.54 15.0249 138.055C14.067 138.57 13.4643 139.253 13.2167 140.105Z" fill="#0985C7"/>
<path d="M7.4045 129.634C6.214 128.975 5.37611 127.858 4.89085 126.282C4.40558 124.706 4.47161 123.316 5.08893 122.113C5.69484 120.914 6.74007 120.086 8.22463 119.629C9.70919 119.171 11.0335 119.27 12.1977 119.924C13.3504 120.582 14.1694 121.699 14.6547 123.275C15.1435 124.863 15.0963 126.252 14.5133 127.445C13.9188 128.641 12.8793 129.467 11.3947 129.924C9.91013 130.382 8.58007 130.285 7.4045 129.634ZM6.56369 123.066C6.15272 123.843 6.10899 124.756 6.4325 125.807C6.75602 126.858 7.30787 127.594 8.08806 128.017C8.86826 128.439 9.77795 128.49 10.8171 128.17C11.8563 127.85 12.5797 127.296 12.9871 126.508C13.3946 125.72 13.4365 124.801 13.113 123.75C12.7895 122.699 12.2394 121.968 11.4627 121.557C10.6825 121.135 9.77285 121.084 8.73366 121.404C7.69446 121.724 6.97114 122.278 6.56369 123.066Z" fill="#0985C7"/>
<path d="M4.06202 102.842L4.25704 104.642C3.68109 104.873 3.25384 105.256 2.97529 105.791C2.69673 106.326 2.59543 106.944 2.67138 107.645C2.78981 108.738 3.19793 109.565 3.89576 110.127C4.59359 110.688 5.48895 110.909 6.58184 110.791C7.6391 110.676 8.44312 110.277 8.99391 109.592C9.53153 108.897 9.74498 108.038 9.63428 107.017C9.54803 106.221 9.27994 105.576 8.83 105.084C8.36817 104.594 7.78039 104.327 7.06664 104.284L6.86969 102.466C8.10326 102.537 9.10559 102.969 9.87668 103.763C10.6465 104.545 11.1028 105.595 11.2457 106.914C11.4118 108.447 11.0896 109.744 10.2791 110.805C9.45553 111.856 8.28346 112.464 6.76291 112.628C5.24236 112.793 3.96072 112.445 2.91798 111.585C1.86337 110.725 1.2524 109.524 1.08505 107.979C0.948603 106.72 1.14884 105.628 1.68576 104.705C2.22268 103.781 3.01476 103.16 4.06202 102.842Z" fill="#0985C7"/>
<path d="M6.17084 89.6225L5.93601 98.3129C6.87962 98.3384 7.64665 98.0423 8.23709 97.4247C8.81559 96.8068 9.11872 95.9841 9.14648 94.9568C9.16714 94.1923 9.04139 93.5374 8.76925 92.9921C8.49743 92.4348 8.10133 92.0536 7.58094 91.8482L7.63565 89.8235C8.66578 90.186 9.45541 90.823 10.0045 91.7344C10.542 92.6336 10.7935 93.7222 10.759 95.0004C10.7151 96.625 10.2263 97.9028 9.29273 98.834C8.3475 99.7528 7.0985 100.191 5.54572 100.149C3.98099 100.107 2.7457 99.5954 1.83986 98.6146C0.934014 97.6338 0.50288 96.337 0.546457 94.7244C0.591003 93.0759 1.08557 91.8042 2.03015 90.9092C2.9631 90.002 4.22986 89.57 5.83042 89.6133L6.17084 89.6225ZM4.70072 98.2436L4.88423 91.4526C4.05651 91.5617 3.40166 91.9086 2.91969 92.4933C2.43771 93.078 2.18414 93.8362 2.15896 94.768C2.13411 95.6878 2.34636 96.4586 2.79574 97.0804C3.24543 97.6903 3.88043 98.078 4.70072 98.2436Z" fill="#0985C7"/>
<path d="M1.52339 85.1006L2.95624 85.3343C1.94095 84.2849 1.56314 82.964 1.82282 81.3718C2.06711 79.874 2.74381 78.7312 3.85292 77.9435C4.95217 77.1421 6.24475 76.8626 7.73067 77.1049C9.20479 77.3454 10.3298 78.0193 11.1056 79.1266C11.8834 80.2221 12.1492 81.5246 11.9029 83.0343C11.6625 84.5085 10.9091 85.6388 9.64287 86.4251L14.419 87.2042L14.1392 88.9202L1.24352 86.8166L1.52339 85.1006ZM4.73327 79.4492C4.00822 79.9606 3.55817 80.7529 3.38313 81.8261C3.20809 82.8994 3.388 83.8005 3.92288 84.5294C4.44596 85.2565 5.23818 85.7066 6.29955 85.8797C7.34913 86.0509 8.23151 85.874 8.94669 85.349C9.66188 84.8239 10.107 84.0248 10.282 82.9515C10.4571 81.8782 10.2939 80.9859 9.79247 80.2745C9.28118 79.5494 8.49485 79.1003 7.43348 78.9271C6.36032 78.7521 5.46025 78.9261 4.73327 79.4492Z" fill="#0985C7"/>
<path d="M12.9117 76.2046L3.69597 73.3665L5.24672 68.33C5.54561 67.3592 5.9872 66.6762 6.57149 66.281C7.15929 65.8744 7.81862 65.7836 8.54948 66.0086C9.42879 66.2794 9.95708 66.8985 10.1343 67.8658C10.4735 67.3326 10.8905 66.9734 11.3851 66.7881C11.8832 66.5914 12.4235 66.5827 13.0059 66.7621C13.851 67.0223 14.392 67.5391 14.6291 68.3122C14.8661 69.0854 14.8105 70.0374 14.4624 71.168L12.9117 76.2046ZM9.27795 73.2663L12.0187 74.1103L13.0894 70.6327C13.4692 69.3992 13.2023 68.6418 12.2887 68.3605C11.8091 68.2128 11.4098 68.2711 11.0909 68.5355C10.7754 68.7885 10.5105 69.2633 10.296 69.96L9.27795 73.2663ZM5.61223 72.1374L7.99324 72.8706L8.96905 69.7014C9.31366 68.5821 9.09198 67.9012 8.30402 67.6585C7.87008 67.5249 7.52482 67.5499 7.26826 67.7334C7.0117 67.917 6.78672 68.3229 6.59332 68.951L5.61223 72.1374Z" fill="#0985C7"/>
<path d="M8.22831 59.9847L15.0429 63.1408L10.6987 54.6497L11.5122 52.893L20.2622 56.9454L19.5316 58.5232L12.7332 55.3746L17.0536 63.8745L16.2477 65.6149L7.49773 61.5625L8.22831 59.9847Z" fill="#0985C7"/>
<path d="M21.2411 43.071L20.2638 44.5948C19.6706 44.4131 19.0977 44.4431 18.5451 44.6849C17.9926 44.9267 17.526 45.3443 17.1453 45.9378C16.5518 46.8631 16.3506 47.7634 16.5418 48.6384C16.7329 49.5135 17.2911 50.2478 18.2164 50.8413C19.1115 51.4156 19.9883 51.6089 20.8468 51.4213C21.7017 51.2173 22.4065 50.6828 22.9613 49.8177C23.3935 49.1438 23.5889 48.4741 23.5473 47.8085C23.4956 47.1365 23.2053 46.5599 22.6765 46.0787L23.6635 44.5397C24.5797 45.3688 25.089 46.3343 25.1913 47.4364C25.3001 48.5283 24.9965 49.6326 24.2804 50.7491C23.4482 52.0466 22.3835 52.8544 21.0866 53.1723C19.786 53.4737 18.492 53.2115 17.2046 52.3857C15.9172 51.5599 15.1375 50.4847 14.8655 49.1603C14.5835 47.8294 14.8618 46.5101 15.7005 45.2025C16.3843 44.1363 17.225 43.4121 18.2225 43.0298C19.2201 42.6476 20.2263 42.6613 21.2411 43.071Z" fill="#0985C7"/>
<path d="M30.9294 34.3367L25.3175 40.9759C26.0384 41.5854 26.8222 41.8334 27.6691 41.72C28.5068 41.5989 29.2574 41.146 29.9208 40.3612C30.4145 39.7771 30.7254 39.1871 30.8535 38.5913C30.9894 37.9864 30.9182 37.4412 30.6402 36.9557L31.9477 35.4089C32.5256 36.3356 32.7443 37.3263 32.6037 38.381C32.4618 39.419 31.9781 40.4262 31.1527 41.4026C30.1036 42.6438 28.9237 43.3362 27.6131 43.48C26.301 43.6069 25.0519 43.1689 23.8656 42.166C22.6702 41.1554 22.0252 39.9841 21.9305 38.6523C21.8359 37.3205 22.3093 36.0386 23.3507 34.8066C24.4152 33.5472 25.5958 32.8632 26.8924 32.7545C28.1876 32.629 29.4466 33.0831 30.6694 34.1169L30.9294 34.3367ZM24.3962 40.1501L28.7816 34.9619C28.0671 34.53 27.3391 34.3917 26.5975 34.5472C25.8559 34.7026 25.1843 35.1362 24.5826 35.8481C23.9886 36.5508 23.6728 37.2853 23.6353 38.0516C23.6055 38.8087 23.8591 39.5082 24.3962 40.1501Z" fill="#0985C7"/>
<path d="M46.0146 26.9606L40.7491 18.8818L45.1635 16.004C46.0143 15.4494 46.7907 15.2072 47.4926 15.2774C48.2045 15.3411 48.7692 15.6933 49.1868 16.334C49.6892 17.1048 49.699 17.9186 49.2162 18.7754C49.8181 18.5828 50.3684 18.5735 50.867 18.7477C51.3756 18.9154 51.7964 19.2545 52.1291 19.7651C52.612 20.5059 52.6971 21.2492 52.3845 21.9951C52.0719 22.7409 51.42 23.4368 50.4291 24.0828L46.0146 26.9606ZM45.1026 22.3772L46.6685 24.7798L49.7166 22.7928C50.7977 22.088 51.0772 21.3352 50.5552 20.5343C50.2812 20.1139 49.937 19.9032 49.5228 19.9022C49.1185 19.8947 48.6111 20.09 48.0005 20.488L45.1026 22.3772ZM43.0081 19.1637L44.3685 21.2509L47.1463 19.4401C48.1273 18.8006 48.3927 18.1355 47.9424 17.4447C47.6945 17.0643 47.4132 16.8625 47.0986 16.8394C46.784 16.8163 46.3514 16.9842 45.8009 17.3431L43.0081 19.1637Z" fill="#0985C7"/>
<path d="M53.0768 11.3359L56.2831 18.1274L58.3928 8.82566L60.1432 7.99911L64.2603 16.7195L62.6881 17.4619L59.4894 10.6865L57.3559 19.9798L55.6217 20.7987L51.5046 12.0783L53.0768 11.3359Z" fill="#0985C7"/>
<path d="M71.8745 5.5339L67.3009 6.94236L67.8864 8.84391C68.224 9.9403 68.4034 10.8478 68.4246 11.5665C68.4573 12.2816 68.3806 12.9867 68.1945 13.6817L73.8472 11.9409L71.8745 5.5339ZM65.2925 6.02292L73.1035 3.61747L75.5088 11.4292L76.4509 11.1391L77.7221 15.2677L76.1462 15.753L75.3075 13.0292L67.5136 15.4293L68.3522 18.1532L66.7763 18.6385L65.5051 14.5099L66.413 14.2303C66.6623 13.5784 66.7865 12.8649 66.7854 12.09C66.7958 11.3116 66.6252 10.3514 66.2735 9.2093L65.2925 6.02292Z" fill="#0985C7"/>
<path d="M87.7791 6.14338L79.1997 7.54288C79.3516 8.47461 79.7863 9.17255 80.5036 9.63671C81.2191 10.0891 82.0839 10.2325 83.0981 10.0671C83.8528 9.94398 84.4725 9.69761 84.957 9.32798C85.4533 8.95643 85.7535 8.4958 85.8575 7.94608L87.8564 7.62001C87.6936 8.69996 87.2161 9.59513 86.4239 10.3055C85.6417 11.0022 84.6196 11.4535 83.3577 11.6593C81.7539 11.9209 80.4072 11.6805 79.3175 10.9381C78.2378 10.1819 77.5729 9.03719 77.3228 7.50396C77.0708 5.95894 77.3415 4.64951 78.1349 3.57568C78.9283 2.50185 80.1211 1.83508 81.7131 1.57538C83.3406 1.30991 84.6824 1.55718 85.7385 2.31719C86.8046 3.06349 87.4665 4.22684 87.7242 5.80725L87.7791 6.14338ZM79.0359 6.31642L85.7403 5.22279C85.4778 4.43016 85.0143 3.85196 84.3496 3.48817C83.6849 3.12439 82.8927 3.01752 81.9728 3.16757C81.0647 3.3157 80.3475 3.6688 79.8211 4.22688C79.3064 4.78303 79.0447 5.47955 79.0359 6.31642Z" fill="#0985C7"/>
<path d="M90.4417 1.85672C91.3956 0.886547 92.6968 0.379187 94.3451 0.334637C95.9935 0.290088 97.3141 0.726587 98.3071 1.64414C99.2998 2.54974 99.8171 3.779 99.8591 5.33193C99.9011 6.88485 99.4507 8.13429 98.5081 9.08024C97.5651 10.0143 96.2694 10.5035 94.6211 10.5481C92.9608 10.593 91.6347 10.1745 90.6426 9.29282C89.6503 8.39916 89.1331 7.17587 89.0912 5.62295C89.0492 4.07003 89.4994 2.81462 90.4417 1.85672ZM96.9939 2.80931C96.356 2.20493 95.4876 1.91759 94.3887 1.94729C93.2898 1.97699 92.4322 2.31097 91.816 2.94925C91.1997 3.58753 90.9062 4.45019 90.9356 5.53724C90.965 6.62428 91.3046 7.46983 91.9544 8.07389C92.6043 8.67795 93.4786 8.96513 94.5775 8.93543C95.6764 8.90573 96.528 8.57191 97.1324 7.93395C97.7486 7.29567 98.0421 6.43301 98.0127 5.34596C97.9833 4.25892 97.6437 3.41337 96.9939 2.80931Z" fill="#0985C7"/>
<path d="M109.235 2.28765C110.359 1.52226 111.735 1.27853 113.36 1.55646C114.985 1.8344 116.195 2.5202 116.99 3.61387C117.787 4.69576 118.055 6.00234 117.793 7.53361C117.531 9.06488 116.846 10.2024 115.737 10.9463C114.63 11.6783 113.263 11.9054 111.638 11.6275C110.001 11.3475 108.782 10.6784 107.981 9.62006C107.182 8.54995 106.913 7.24926 107.175 5.71799C107.437 4.18672 108.123 3.04328 109.235 2.28765ZM115.475 4.50041C114.967 3.78317 114.172 3.33191 113.088 3.14662C112.004 2.96134 111.098 3.12157 110.369 3.62734C109.64 4.1331 109.184 4.92193 109.001 5.99382C108.818 7.0657 108.986 7.96127 109.505 8.68052C110.025 9.39977 110.826 9.85203 111.91 10.0373C112.994 10.2226 113.894 10.0614 114.611 9.55359C115.34 9.04782 115.796 8.259 115.979 7.18711C116.163 6.11522 115.994 5.21966 115.475 4.50041Z" fill="#0985C7"/>
<path d="M135.065 11.4834L133.373 10.8411C133.428 10.2231 133.281 9.66863 132.93 9.17772C132.58 8.68681 132.075 8.31627 131.416 8.06611C130.388 7.67603 129.466 7.66469 128.649 8.03211C127.832 8.39953 127.229 9.09716 126.839 10.125C126.461 11.1194 126.453 12.0173 126.813 12.8187C127.189 13.6132 127.858 14.1928 128.818 14.5574C129.567 14.8415 130.262 14.8946 130.905 14.7167C131.552 14.5277 132.056 14.1248 132.418 13.508L134.127 14.1567C133.505 15.2242 132.665 15.9216 131.608 16.2489C130.562 16.5805 129.419 16.5109 128.179 16.0403C126.738 15.4933 125.728 14.618 125.15 13.4143C124.587 12.2036 124.576 10.8832 125.119 9.45318C125.662 8.02311 126.553 7.03849 127.793 6.49931C129.037 5.94897 130.385 5.94939 131.837 6.5006C133.021 6.95004 133.903 7.62347 134.483 8.52089C135.063 9.41831 135.257 10.4058 135.065 11.4834Z" fill="#0985C7"/>
<path d="M145.32 19.0131L137.662 14.8986C137.215 15.7302 137.135 16.5485 137.422 17.3536C137.714 18.1481 138.312 18.7885 139.218 19.2749C139.891 19.6369 140.533 19.8188 141.142 19.8207C141.762 19.8282 142.281 19.6456 142.698 19.2729L144.482 20.2315C143.695 20.989 142.771 21.4083 141.711 21.4894C140.666 21.5656 139.58 21.3012 138.454 20.696C137.023 19.9269 136.101 18.916 135.688 17.6635C135.292 16.4062 135.462 15.0932 136.197 13.7248C136.938 12.3457 137.95 11.4719 139.233 11.1033C140.516 10.7347 141.868 10.9321 143.289 11.6956C144.742 12.4761 145.656 13.4894 146.031 14.7354C146.422 15.9766 146.239 17.3025 145.481 18.7131L145.32 19.0131ZM138.279 13.826L144.263 17.0413C144.537 16.2527 144.522 15.5118 144.216 14.8184C143.91 14.1251 143.347 13.5579 142.526 13.1167C141.715 12.6812 140.931 12.5246 140.174 12.6467C139.427 12.7744 138.795 13.1675 138.279 13.826Z" fill="#0985C7"/>
<path d="M151.542 16.9359L150.688 18.11C152.082 17.6762 153.431 17.9337 154.736 18.8827C155.963 19.7755 156.678 20.8944 156.882 22.2395C157.102 23.582 156.77 24.862 155.884 26.0797C155.005 27.2876 153.897 27.9886 152.559 28.1826C151.231 28.3837 149.948 28.0344 148.711 27.1346C147.504 26.2559 146.834 25.0741 146.702 23.5893L143.855 27.5031L142.45 26.4803L150.136 15.9131L151.542 16.9359ZM155.141 22.3474C155.011 21.4697 154.507 20.711 153.627 20.0713C152.748 19.4316 151.862 19.1864 150.971 19.3357C150.086 19.4753 149.328 19.98 148.695 20.8497C148.069 21.7098 147.83 22.5773 147.976 23.4524C148.123 24.3275 148.636 25.0849 149.515 25.7245C150.395 26.3642 151.265 26.6204 152.126 26.4931C153.003 26.3632 153.758 25.8633 154.391 24.9936C155.031 24.1142 155.281 23.2321 155.141 22.3474Z" fill="#0985C7"/>
<path d="M154.319 31.0571L160.987 24.0911L164.794 27.7353C165.528 28.4377 165.94 29.1387 166.031 29.8382C166.131 30.546 165.917 31.1761 165.388 31.7286C164.752 32.3932 163.962 32.5879 163.018 32.3127C163.342 32.855 163.476 33.3888 163.42 33.914C163.373 34.4475 163.138 34.9344 162.717 35.3746C162.105 36.0134 161.401 36.2654 160.603 36.1307C159.806 35.9959 158.98 35.5195 158.126 34.7014L154.319 31.0571ZM158.575 29.126L156.592 31.1977L159.22 33.714C160.152 34.6065 160.949 34.7075 161.61 34.0169C161.957 33.6543 162.083 33.2712 161.99 32.8676C161.905 32.4722 161.6 32.0225 161.073 31.5184L158.575 29.126ZM161.227 26.3552L159.504 28.1549L161.899 30.4481C162.745 31.2579 163.453 31.3651 164.023 30.7694C164.337 30.4414 164.47 30.1216 164.421 29.8099C164.372 29.4983 164.11 29.1152 163.635 28.6607L161.227 26.3552Z" fill="#0985C7"/>
<path d="M171.058 34.2764L165.184 38.956L174.72 38.875L175.927 40.3892L168.384 46.3978L167.301 45.0379L173.161 40.3694L163.627 40.4252L162.432 38.925L169.974 32.9164L171.058 34.2764Z" fill="#0985C7"/>
<path d="M180.352 53.4574L179.425 51.9021C179.853 51.4525 180.082 50.9266 180.113 50.3241C180.143 49.7217 179.978 49.1176 179.617 48.5119C179.055 47.5674 178.339 46.9852 177.471 46.7652C176.603 46.5452 175.697 46.7166 174.752 47.2792C173.839 47.8235 173.274 48.5216 173.058 49.3735C172.859 50.2295 173.022 51.099 173.548 51.9819C173.958 52.6697 174.47 53.1437 175.083 53.4039C175.708 53.6579 176.353 53.6559 177.02 53.3977L177.956 54.9684C176.805 55.4177 175.713 55.442 174.682 55.0411C173.656 54.6505 172.804 53.8855 172.125 52.7459C171.337 51.4216 171.09 50.1081 171.385 48.8057C171.696 47.5073 172.509 46.4667 173.823 45.6839C175.137 44.9011 176.447 44.6839 177.753 45.0323C179.07 45.3746 180.126 46.2131 180.921 47.5477C181.569 48.6359 181.841 49.7117 181.737 50.775C181.634 51.8383 181.172 52.7324 180.352 53.4574Z" fill="#0985C7"/>
<path d="M183.888 66.1802L180.472 58.1861C179.604 58.5571 179.03 59.1465 178.752 59.9543C178.484 60.7574 178.552 61.6315 178.956 62.5765C179.257 63.2797 179.644 63.8223 180.119 64.204C180.599 64.5968 181.118 64.7778 181.677 64.7469L182.473 66.6095C181.385 66.7104 180.402 66.4615 179.522 65.8627C178.659 65.2703 177.975 64.3862 177.473 63.2105C176.834 61.716 176.745 60.3508 177.204 59.1148C177.679 57.8851 178.631 56.965 180.059 56.3545C181.499 55.7393 182.835 55.6881 184.067 56.2009C185.3 56.7137 186.233 57.7118 186.867 59.1952C187.515 60.7116 187.597 62.0737 187.113 63.2814C186.644 64.4954 185.673 65.4171 184.201 66.0464L183.888 66.1802ZM181.623 57.733L184.292 63.9799C184.999 63.535 185.449 62.9463 185.643 62.2137C185.836 61.4812 185.75 60.6863 185.384 59.8292C185.022 58.9831 184.508 58.3714 183.84 57.9942C183.176 57.6279 182.437 57.5408 181.623 57.733Z" fill="#0985C7"/>
<path d="M130.281 97.3172L77.3671 70.8603C76.0373 70.1954 74.4727 71.1624 74.4727 72.6492V125.563C74.4727 127.05 76.0373 128.017 77.3671 127.352L130.281 100.895C131.755 100.158 131.755 98.0542 130.281 97.3172Z" fill="#176AB2"/>
</svg>
