<svg width="353" height="353" viewBox="0 0 353 353" fill="none" xmlns="http://www.w3.org/2000/svg">
<circle cx="176.75" cy="101.75" r="176.75" fill="url(#paint0_linear_109_253)"/>
<g clip-path="url(#clip0_109_253)">
<path opacity="0.5" d="M223.73 107.034L144.94 28.2718C142.054 25.9802 137.713 28.1674 137.713 31.5946V139.232C137.713 141.641 139.668 143.596 142.077 143.596C143.212 143.596 144.299 143.159 144.923 142.531L166.752 123.511L184.556 165.105C184.858 165.815 185.428 166.374 186.144 166.665C186.494 166.798 186.86 166.869 187.227 166.869C187.617 166.869 188.006 166.787 188.373 166.63L207.107 158.6C208.585 157.973 209.272 156.262 208.638 154.784L191.404 114.504H220.623C223.032 114.504 224.987 112.55 224.987 110.141C224.987 109.437 224.807 108.378 223.73 107.034V107.034Z" fill="#2B2257"/>
</g>
<defs>
<linearGradient id="paint0_linear_109_253" x1="33.9287" y1="255.575" x2="387.429" y2="-48.8658" gradientUnits="userSpaceOnUse">
<stop stop-color="#662976"/>
<stop offset="1" stop-color="#AB52C5"/>
</linearGradient>
<clipPath id="clip0_109_253">
<rect width="139.539" height="139.539" fill="white" transform="translate(111.631 27.3289)"/>
</clipPath>
</defs>
</svg>
