<svg width="221" height="97" viewBox="0 0 221 97" fill="none" xmlns="http://www.w3.org/2000/svg">
<path d="M6.50037 61.4998L7.2612 60.8508L6.50037 61.4998ZM127 66.4998L126.591 67.4124L127 66.4998ZM162.777 81.9998L163.448 82.7411L162.777 81.9998ZM219.796 80.9996C220.348 80.9887 220.787 80.5323 220.776 79.9801L220.6 70.9819C220.589 70.4297 220.133 69.9909 219.581 70.0017C219.028 70.0125 218.59 70.4689 218.6 71.0211L218.757 79.0196L210.759 79.1764C210.207 79.1872 209.768 79.6436 209.779 80.1958C209.789 80.748 210.246 81.1868 210.798 81.176L219.796 80.9996ZM22.5239 0.341251C18.989 4.38105 10.7321 14.9066 5.35997 26.8136C0.0237713 38.641 -2.66376 52.2967 5.73954 62.1487L7.2612 60.8508C-0.313938 51.9697 1.88657 39.3754 7.18301 27.6361C12.4436 15.9763 20.5638 5.61846 24.029 1.65826L22.5239 0.341251ZM5.73954 62.1487C20.6704 79.6537 42.1253 77.2386 57.7439 69.7771C65.5645 66.0409 72.0598 60.9856 75.7005 56.3519C77.5084 54.0509 78.6992 51.7442 78.8838 49.6806C78.9779 48.6283 78.8116 47.6138 78.304 46.7149C77.7961 45.8153 76.9899 45.1086 75.9348 44.5992L75.0653 46.4003C75.8227 46.7659 76.2899 47.2155 76.5625 47.6982C76.8354 48.1816 76.9567 48.7755 76.8917 49.5025C76.758 50.9975 75.8433 52.933 74.1279 55.1163C70.7218 59.4514 64.4985 64.3337 56.8817 67.9724C41.6256 75.2609 21.3307 77.3458 7.2612 60.8508L5.73954 62.1487ZM75.9348 44.5992C73.9699 43.6507 72.1174 43.3717 70.4503 43.7279C68.7791 44.0849 67.4029 45.0572 66.3569 46.4121C64.2918 49.0871 63.4585 53.302 63.9433 57.7945C64.9196 66.8415 71.2992 77.6096 85.266 80.972L85.7341 79.0275C72.7008 75.8899 66.8305 65.908 65.9317 57.58C65.479 53.385 66.3019 49.7562 67.94 47.6343C68.7456 46.5908 69.7327 45.9263 70.8681 45.6837C72.0076 45.4403 73.4051 45.5988 75.0653 46.4003L75.9348 44.5992ZM85.266 80.972C99.0118 84.2812 111.495 81.7053 119.616 77.8507C123.657 75.9329 126.712 73.6532 128.28 71.5358C129.056 70.4879 129.567 69.3445 129.474 68.2283C129.373 67.0147 128.591 66.1167 127.409 65.5872L126.591 67.4124C127.284 67.7228 127.455 68.0798 127.481 68.3939C127.515 68.8055 127.327 69.4625 126.673 70.3456C125.381 72.09 122.656 74.1942 118.759 76.0439C111.005 79.7242 98.9882 82.2183 85.7341 79.0275L85.266 80.972ZM127.409 65.5872C126.492 65.1762 125.581 65.0375 124.713 65.2114C123.845 65.3855 123.114 65.8541 122.525 66.495C121.378 67.7444 120.707 69.7119 120.417 71.9035C119.834 76.3221 120.725 82.2683 123.402 87.1557C126.096 92.0757 130.673 96.0265 137.442 96.1035C144.129 96.1795 152.705 92.4649 163.448 82.7411L162.106 81.2584C151.507 90.852 143.406 94.1712 137.465 94.1036C131.607 94.037 127.605 90.6668 125.156 86.195C122.689 81.6905 121.871 76.1739 122.4 72.1651C122.667 70.1431 123.256 68.6559 123.999 67.8476C124.355 67.4597 124.726 67.2487 125.106 67.1724C125.488 67.0959 125.974 67.1358 126.591 67.4124L127.409 65.5872ZM163.448 82.7411C177.706 69.8348 188.423 66.4208 197.043 67.5537C205.719 68.6942 212.578 74.4652 219.084 80.7206L220.47 79.2789C213.975 73.0343 206.696 66.8053 197.303 65.5708C187.854 64.3287 176.571 68.1647 162.106 81.2584L163.448 82.7411Z" fill="#F229F6"/>
</svg>
