<svg width="28" height="28" fill="none" xmlns="http://www.w3.org/2000/svg"><g clip-path="url(#a)"><path d="M14.142.834C6.871.834.977 6.73.977 14c0 7.271 5.894 13.166 13.165 13.166 7.272 0 13.166-5.895 13.166-13.166C27.308 6.73 21.414.834 14.142.834zm5.064 14.854s1.164 1.15 1.45 1.683c.009.011.013.022.016.028.116.196.144.348.086.462-.096.189-.425.282-.538.29h-2.057c-.142 0-.441-.037-.803-.286-.279-.195-.553-.514-.82-.826-.4-.463-.745-.864-1.093-.864a.418.418 0 0 0-.13.02c-.264.086-.601.462-.601 1.463 0 .313-.247.492-.421.492h-.943c-.32 0-1.992-.112-3.473-1.674-1.814-1.913-3.446-5.75-3.46-5.786-.102-.249.11-.382.342-.382H8.84c.277 0 .368.169.43.319.075.174.346.866.792 1.645.723 1.27 1.166 1.786 1.52 1.786a.41.41 0 0 0 .191-.05c.464-.257.378-1.91.357-2.253 0-.064-.001-.739-.239-1.063-.17-.234-.459-.323-.635-.356a.755.755 0 0 1 .273-.232c.319-.16.892-.182 1.46-.182h.318c.617.008.776.048 1 .104.452.108.462.4.422 1.4-.012.284-.025.605-.025.983 0 .083-.004.17-.004.264-.014.508-.03 1.086.33 1.323.046.03.1.045.156.045.124 0 .5 0 1.518-1.745.314-.562.586-1.146.816-1.748.02-.035.08-.145.152-.188a.365.365 0 0 1 .17-.04h2.442c.267 0 .449.04.483.143.06.164-.01.661-1.126 2.171l-.498.657c-1.01 1.325-1.01 1.392.064 2.397z" fill="#fff" fill-opacity=".4"/></g><defs><clipPath id="a"><path fill="#fff" transform="translate(.43 .286)" d="M0 0h27.429v27.429H0z"/></clipPath></defs></svg>