<svg width="21" height="20" viewBox="0 0 21 20" fill="none" xmlns="http://www.w3.org/2000/svg">
<g clip-path="url(#clip0_5408_8094)">
<path d="M16.77 10.4386C16.4591 10.0459 16.5481 9.87125 16.77 9.52028C16.774 9.51628 19.3405 5.9698 19.605 4.76708L19.6066 4.76628C19.738 4.32797 19.6066 4.00586 18.9712 4.00586H16.8686C16.3333 4.00586 16.0865 4.2823 15.9543 4.5916C15.9543 4.5916 14.8838 7.1541 13.3694 8.81516C12.8806 9.29512 12.6546 9.44897 12.3878 9.44897C12.2564 9.44897 12.0521 9.29512 12.0521 8.85682V4.76628C12.0521 4.24063 11.9022 4.00586 11.4591 4.00586H8.15305C7.81731 4.00586 7.61779 4.25105 7.61779 4.47942C7.61779 4.97781 8.375 5.0924 8.45353 6.49464V9.53711C8.45353 10.2038 8.33253 10.3264 8.0641 10.3264C7.34936 10.3264 5.61458 7.75346 4.58654 4.80874C4.37901 4.23743 4.17628 4.00666 3.63702 4.00666H1.53365C0.933494 4.00666 0.8125 4.2831 0.8125 4.5924C0.8125 5.13887 1.52724 7.85602 4.13622 11.4458C5.875 13.8961 8.32372 15.2238 10.5513 15.2238C11.8902 15.2238 12.0537 14.9289 12.0537 14.4217C12.0537 12.0804 11.9327 11.8592 12.6034 11.8592C12.9143 11.8592 13.4495 12.0131 14.6995 13.195C16.1282 14.5964 16.363 15.2238 17.1627 15.2238H19.2652C19.8646 15.2238 20.1683 14.9289 19.9936 14.3472C19.5938 13.1236 16.8918 10.6068 16.77 10.4386Z" fill="white"/>
</g>
<defs>
<clipPath id="clip0_5408_8094">
<rect width="19.2308" height="19.2308" fill="white" transform="translate(0.8125)"/>
</clipPath>
</defs>
</svg>
