<svg width="286" height="36" fill="none" xmlns="http://www.w3.org/2000/svg"><g clip-path="url(#a)" fill="#2DBE64"><path d="M161.366 35.002h-17.811V.845h15.643c7.088 0 10.921 4.427 10.921 9.675 0 2.346-1.18 4.767-2.991 6.58 2.676 1.401 4.966 4.597 4.966 7.934 0 5.833-4.534 9.968-10.728 9.968zm-9.402-6.868h8.245c2.051 0 3.377-1.524 3.377-3.36v-.07c0-1.865-1.35-3.361-3.377-3.361h-8.245v6.791zm0-13.668h6.147c2.192 0 3.519-1.524 3.519-3.36 0-1.865-1.228-3.361-3.519-3.361h-6.147v6.721zM66.706 35.002 54.46 17.538 66.32.845h-9.882l-9.45 13.692V.845h-8.606v34.157h8.607V20.998l9.472 14.004h10.244zM221.341.845V26.1c0 1.138-.508 2.006-1.566 2.006-1.496 0-1.567-1.718-1.567-2.855h-8.075c0 5.465 3.132 10.595 9.882 10.595 5.883 0 9.905-4.79 9.905-10.69V8.538h11.64v26.464h8.608V.845h-28.827z"/><path d="M105.369.844 93.46 26.048c-2.191 4.79-6.749 9.798-14.486 9.798-6.58 0-12.774-4.016-13.884-12.842h8.339c.625 3.53 3.132 5.102 5.93 5.102 2.385 0 4.003-1.426 4.46-2.251L69.618.845h9.905l9.017 16.519L95.967.844h9.402zM23.072 35.002H.176V.845h20.756c7.088 0 10.92 4.427 10.92 9.675 0 2.346-1.18 4.767-2.99 6.58 2.676 1.401 4.966 4.597 4.966 7.933-.005 5.834-4.557 9.969-10.756 9.969zM8.585 28.134h13.353c2.05 0 3.377-1.524 3.377-3.36v-.07c0-1.865-1.35-3.361-3.377-3.361H8.585v6.791zm0-13.668H19.84c2.192 0 3.518-1.525 3.518-3.36 0-1.865-1.227-3.361-3.518-3.361H8.585v6.72zM130.052 22.183c-1.326 3.12-4.171 5.324-8.146 5.324-5.592 0-8.969-4.38-8.969-9.581s3.377-9.581 8.969-9.581c3.979 0 6.82 2.227 8.146 5.37h9.257C137.573 5.906 131.04 0 121.906 0c-10.728 0-17.863 8.127-17.863 17.926v.023c0 9.822 7.135 17.926 17.863 17.926 9.134 0 15.667-5.876 17.403-13.692h-9.257zM200.006.845l-14.345 19.742V.845h-8.602v34.157h7.831l14.368-19.715v19.715h8.607V.845h-7.859zM259.907.845V23.92c0 2.128-1.204 3.412-3.4 3.412h-2.53v7.646h4.557c6.002 0 9.981-3.8 9.981-10.742V8.514h8.701v26.464h8.607V.845h-25.916z"/></g><defs><clipPath id="a"><path fill="#fff" d="M0 0h286v35.875H0z"/></clipPath></defs></svg>