<svg width="520" height="715" viewBox="0 0 520 715" fill="none" xmlns="http://www.w3.org/2000/svg">
<g filter="url(#filter0_f_5860_5806)">
<path d="M24 534.001C72.6011 534.001 112 483.633 112 421.501C112 359.369 72.6011 309.001 24 309.001C-24.6011 309.001 -64 359.369 -64 421.501C-64 483.633 -24.6011 534.001 24 534.001Z" fill="#FF3F3F" fill-opacity="0.75"/>
</g>
<path d="M600.92 398.571C603.49 393.811 606.78 386.471 598.35 382.811C591.75 379.881 586.25 378.051 586.25 378.051C586.25 378.051 587.72 381.351 586.25 386.481C585.52 389.411 582.95 395.641 578.93 403.341C572.7 403.341 571.23 402.601 571.6 400.041C571.6 400.041 569.03 401.871 570.5 406.271C571.23 408.101 572.7 409.571 574.9 411.031C573.724 413.067 572.623 415.145 571.6 417.261C561.7 426.791 547.77 438.161 540.8 442.561C532.75 447.691 533.48 437.061 536.04 431.191C536.78 429.731 537.14 428.631 537.88 427.531C541.54 426.791 550.34 424.961 558.4 418.001C568.66 409.571 567.2 403.701 563.9 401.141C560.866 399.138 557.52 397.651 554 396.741C550.7 396.001 548.87 397.111 546.3 398.571C544.1 399.671 529.45 409.201 525.41 428.991C520.28 432.291 516.61 436.321 511.12 440.361C505.25 444.761 503.79 441.821 503.06 438.521C503.06 435.961 504.16 432.291 506.36 428.621C517.72 425.321 525.78 416.531 528.71 413.231C532.01 409.201 534.94 404.431 530.18 401.501C527.54 400.401 524.85 399.423 522.12 398.571C522.12 398.571 519.55 397.471 516.98 398.941C514.42 400.041 507.45 404.071 500.12 417.631C498.66 420.561 497.19 423.501 496.46 426.061C493.89 423.861 495.72 417.261 496.83 414.331C498.29 411.031 501.23 405.901 500.49 402.971C500.12 400.771 497.19 398.201 494.26 397.101C491.33 396.371 489.49 398.201 487.66 401.141C482.9 409.941 471.9 425.331 470.06 427.531C469.34 426.431 477.76 411.401 479.23 409.201C480.7 406.271 477.77 403.341 477.77 403.341C477.77 403.341 475.57 401.501 472.63 400.041C469.7 398.571 467.13 399.671 463.1 403.341C452.84 413.601 433.42 440.721 430.85 444.021C428.28 447.321 426.09 449.891 424.62 449.151C422.42 448.051 422.79 442.551 427.55 432.651C435.25 418.361 442.58 406.641 448.45 396.741C449.55 396.371 450.65 396.371 451.75 396.001C469.7 391.971 501.95 385.001 518.08 387.941C533.11 390.871 535.31 397.841 547.41 394.911C549.61 382.441 544.84 374.751 537.14 372.911C529.44 371.081 510.39 372.551 496.83 374.751C485.46 376.581 471.53 379.511 456.14 383.181C459.81 374.381 456.14 371.451 452.48 369.621C449.18 368.151 438.91 363.751 438.91 363.751C438.91 363.751 442.21 368.881 440.38 374.381C439.65 376.951 437.45 381.711 434.51 388.311C424.99 390.511 419.12 390.511 419.49 385.011C419.49 385.011 416.19 390.871 420.59 394.911C422.79 396.741 425.72 397.841 430.12 398.211C427.18 405.171 423.89 412.871 420.59 421.301C412.52 442.921 414.72 448.421 420.59 452.451C426.45 456.121 430.85 453.551 438.55 440.721C446.25 428.261 455.77 413.961 464.57 406.271C457.97 416.901 455.04 425.331 453.21 432.291C451.38 438.891 452.47 441.451 453.94 443.291C455.604 445.748 458.061 447.559 460.9 448.421C464.2 449.521 464.57 447.691 465.67 445.121C466.77 442.551 475.57 421.661 486.57 407.001C484.37 412.871 484.73 426.431 494.99 429.001C493.53 436.321 495.36 441.451 500.12 444.021C507.09 448.051 511.49 446.221 516.98 439.991C520.65 435.591 522.48 433.761 525.05 431.931C524.68 433.761 524.68 435.591 524.68 437.431C525.05 449.521 537.51 452.821 543.38 448.791C548.14 445.121 560.23 433.021 568.3 424.231L566.1 428.631C562.43 436.331 559.87 445.121 562.8 452.821C565.73 460.521 573.8 462.721 581.5 458.321C589.19 453.551 604.58 445.121 624.01 418.361C615.58 425.331 585.89 446.961 577.1 450.981C575.26 451.351 574.53 450.621 575.63 447.681C576.36 445.121 583.33 430.461 593.59 412.501H594.69C608.99 410.671 630.61 402.241 641.24 397.101C634.64 398.201 614.48 400.041 599.82 401.501C599.82 400.771 600.55 399.671 600.92 398.571V398.571ZM509.29 423.871C514.05 416.531 520.29 409.571 522.85 407.731C527.25 404.431 528.71 406.271 527.25 408.831C523.22 415.431 515.88 420.931 509.29 423.861V423.871ZM539.71 424.231C548.51 408.831 557.31 406.271 561.7 405.901C562.07 407.371 562.8 409.931 553.64 417.631C548.14 422.391 542.64 423.861 539.71 424.231V424.231Z" fill="#153359" fill-opacity="0.27"/>
<path d="M421.69 369.251C427.92 354.221 417.29 350.551 401.53 342.121C401.53 342.121 396.4 339.561 391.63 341.391C385.77 343.591 374.4 348.721 362.68 359.721C342.15 380.611 321.99 405.901 378.07 413.961C390.53 415.801 396.4 419.461 394.2 424.961C386.13 445.121 340.32 443.291 336.65 443.291C332.99 442.921 333.35 441.091 334.82 438.891C343.98 425.691 359.38 414.691 359.38 414.691C334.45 422.761 323.82 430.821 320.16 433.761C316.49 437.061 312.83 440.361 316.13 445.121C332.25 469.681 382.1 462.351 401.16 446.221C420.59 430.091 404.83 415.431 386.13 410.671C374.03 407.731 375.87 408.471 365.61 405.531C355.71 402.601 357.18 390.871 369.27 380.241C394.2 358.991 404.83 362.281 404.83 362.281C405.93 372.911 397.86 393.811 388.7 407.001C406.66 394.171 415.46 383.901 421.69 369.251V369.251ZM542.27 529.791C545.94 524.661 547.41 522.821 547.41 522.821C547.41 522.821 548.51 521.361 547.04 519.891C545.57 518.791 540.81 515.491 540.08 517.331C539.34 519.161 535.68 529.431 533.84 534.921C533.48 534.551 538.61 534.921 542.27 529.791V529.791ZM655.53 489.471C655.53 485.801 654.43 483.971 652.6 482.501C651.13 481.401 650.03 480.301 646.73 478.471C642.33 475.911 637.21 478.471 633.54 482.871C625.11 492.041 619.61 498.271 609.34 516.591C605.541 523.486 601.877 530.454 598.35 537.491C591.39 541.151 582.59 545.551 574.16 549.951C569.03 548.111 562.8 548.111 558.76 547.381C556.94 547.011 557.3 546.651 558.03 545.551C563.53 537.481 574.9 533.451 577.1 532.721C579.3 531.991 581.13 531.621 580.03 533.091C578.93 534.551 576.36 537.491 576.36 537.491C576.36 537.491 582.96 535.651 588.09 531.251C590.29 529.421 590.66 526.851 588.82 524.651C587.36 522.451 584.42 518.431 583.32 517.331C582.22 515.861 580.76 515.131 578.92 515.861C577.1 516.231 566.1 517.691 554 531.261C550.34 535.291 547.04 542.251 547.77 546.651C543.74 551.781 535.31 561.681 528.71 566.811C532.01 557.281 534.94 548.851 536.04 544.811C537.14 540.781 534.58 539.681 531.64 537.851C530.18 537.121 528.71 537.121 524.68 540.421C518.82 545.921 500.49 560.941 498.29 563.141C495.73 565.341 494.63 565.711 495.36 562.411C495.936 560.283 496.672 558.2 497.56 556.181C502.396 552.922 506.934 549.241 511.12 545.181C530.92 527.581 543.37 506.331 547.04 487.271C547.41 484.341 546.67 482.871 545.21 481.401C543.74 479.941 539.71 477.741 539.34 477.371C538.98 477.011 536.41 476.271 533.84 477.741C531.28 479.211 523.21 484.341 506.72 509.631C494.99 529.051 491.69 538.951 487.66 551.411C486.93 554.351 486.2 556.541 486.2 558.741C481.8 561.681 477.77 564.241 474.1 566.441C479.6 551.781 484 537.121 485.1 534.191C486.56 530.151 485.83 527.591 484 525.751C482.53 524.291 478.13 522.821 478.13 522.821C478.13 522.821 479.6 524.661 478.13 527.951C477.4 529.421 475.57 533.451 472.63 538.951C472.63 537.851 472.63 536.021 471.53 534.921C469.7 533.091 465.3 528.691 463.11 527.221C460.91 525.751 459.44 525.391 457.61 526.121C456.14 526.861 449.54 528.691 442.58 538.951C437.81 545.911 435.61 555.081 435.98 561.681C434.357 563.594 432.645 565.429 430.85 567.181C429.38 568.641 428.28 568.281 427.92 564.981C427.92 561.681 430.48 545.911 431.22 536.021C431.58 531.621 431.22 531.251 429.75 529.791C428.28 528.321 424.99 525.391 421.69 529.051C418.39 532.721 406.66 548.851 397.86 559.481C397.86 559.481 404.09 548.111 408.49 539.321C410.33 534.921 411.79 529.791 407.03 527.221C401.89 524.661 397.13 522.821 393.1 522.091C393.1 522.091 397.86 525.761 396.03 532.351C394.2 538.951 391.27 546.281 388.7 553.611C373.3 562.041 349.48 574.141 340.32 573.041C339.22 562.041 346.18 550.311 353.15 540.421C356.08 539.681 359.38 538.951 363.41 538.221C376.97 534.921 386.13 533.091 386.5 537.121C391.26 531.251 387.97 522.461 380.27 522.821C374.568 523.448 368.928 524.552 363.41 526.121C370.37 516.221 378.44 504.131 382.84 497.901C393.1 495.701 402.26 493.871 408.49 493.131C416.19 492.401 416.56 492.031 413.26 496.801C409.96 501.561 402.26 511.101 398.6 516.961C408.12 512.561 418.75 507.061 426.09 502.301C433.05 497.531 431.95 493.501 430.49 490.571C429.02 487.641 424.62 481.401 424.62 481.401C424.62 481.401 420.59 475.171 410.32 477.001C393.83 480.301 319.42 492.041 314.66 484.701C314.66 484.701 308.43 510.001 335.56 506.331C342.52 505.601 350.95 503.761 359.74 502.301C357.18 504.501 348.74 512.561 336.29 532.351C327.49 533.091 319.79 531.251 319.79 528.321C319.79 528.321 318.69 541.151 330.05 542.251L326.75 547.751C322.35 555.451 320.15 565.341 324.92 573.771C329.69 582.201 342.15 585.131 356.45 577.071C365.61 571.941 376.24 565.711 385.77 558.741C385.4 559.481 385.4 560.211 385.03 560.941C382.83 566.811 384.3 569.741 386.5 571.571C388.7 573.401 390.16 574.141 393.46 570.111C396.03 566.811 408.49 550.681 416.19 541.511C412.89 552.511 407.76 571.571 416.92 575.611C426.09 579.631 430.12 571.941 434.52 566.441C434.88 566.071 435.25 565.711 435.25 565.341C435.62 566.071 435.98 567.171 436.72 567.911C440.75 573.041 446.62 573.041 452.47 569.371C455.04 567.911 457.24 565.711 459.07 564.241C457.723 567.833 456.256 571.379 454.67 574.871C447.71 578.171 440.38 581.831 431.22 585.871C407.76 596.871 402.26 600.531 399.7 607.491C396.76 614.821 403.73 627.291 424.99 621.421C448.08 612.261 457.24 598.691 466.77 578.171C467.5 576.341 468.6 574.501 469.34 572.671C473.74 570.111 479.24 566.811 484.73 563.141C485.46 566.441 487.29 567.911 488.76 568.641C491.69 570.471 494.26 571.941 498.29 568.271C502.32 564.611 508.19 558.011 520.65 545.911C518.45 551.781 515.52 559.111 513.68 565.711C512.58 569.371 512.95 571.571 515.88 572.671C518.82 573.771 523.22 576.341 526.15 573.401C529.08 570.471 540.45 556.911 547.77 548.481C548.488 549.182 549.373 549.688 550.34 549.951C556.57 551.781 563.9 549.951 569.4 551.051C552.9 559.111 537.88 566.441 537.14 567.171C535.68 567.911 535.31 569.011 536.04 570.841C536.78 572.671 538.24 574.871 540.44 576.701C549.24 584.031 562.44 577.801 571.23 573.041C579.66 568.641 585.53 560.941 580.03 553.981C578.93 552.881 577.83 551.781 576.36 551.051C582.59 547.751 588.82 544.081 595.06 541.151C591.39 549.211 588.82 555.811 587.72 559.481C585.52 566.081 588.82 567.541 592.12 569.011C595.05 570.471 597.62 567.171 601.29 562.771C609.72 553.251 618.88 543.351 618.88 543.351C618.88 543.351 619.25 542.981 619.25 543.351C619.25 544.451 619.25 545.181 614.48 555.451C612.28 560.211 609.35 570.841 613.75 577.441C618.15 584.401 627.31 583.301 633.17 579.641C640.14 575.241 646 570.471 650.77 564.971C645.326 568.16 639.548 570.742 633.54 572.671C628.78 574.141 626.21 575.241 626.21 570.111C626.58 564.971 630.61 550.681 632.81 543.711C634.64 537.111 635.74 535.651 629.51 533.451C626.58 532.351 625.48 533.451 623.64 534.921C619.98 537.851 604.58 552.881 599.45 557.641C595.79 560.941 597.25 558.011 600.92 550.681L610.82 535.281C655.9 507.431 655.16 492.401 655.53 489.471V489.471ZM452.48 582.201C449.91 586.971 446.61 592.101 443.31 596.501C431.58 611.521 409.59 621.051 406.66 612.621C403.73 604.191 417.66 597.961 424.62 594.661C429.75 592.101 440.75 587.701 452.48 582.201V582.201ZM468.24 545.551C463.84 552.511 457.97 559.481 451.38 564.251C444.78 568.271 441.85 564.251 446.24 556.181C450.64 548.111 459.81 538.581 465.3 536.381C467.87 535.651 470.43 535.651 468.24 545.551ZM501.22 547.751C504.82 539.65 508.984 531.811 513.68 524.291C524.68 506.331 538.24 491.301 538.98 490.201C540.08 489.101 541.18 488.371 540.81 490.571C540.44 492.771 537.14 506.331 525.41 521.721C515.89 534.181 507.45 542.621 501.22 547.751ZM569.76 560.571C565.73 562.771 558.03 566.441 551.8 567.911C549.97 568.271 549.6 567.541 552.17 566.071C553.64 565.341 563.53 559.111 575.27 552.511C577.83 555.081 573.8 558.011 569.77 560.571H569.76ZM645.64 501.201C638.3 511.831 624.38 523.191 616.68 529.051C630.98 508.891 644.17 494.231 646.74 492.401C649.67 489.471 649.3 495.331 645.64 501.201V501.201ZM552.54 240.961C552.54 234.361 547.41 232.531 547.41 232.531C547.41 232.531 540.81 229.971 538.98 229.601C537.14 229.231 534.94 230.331 533.11 231.801C532.01 232.531 530.18 234.371 527.98 236.571C526.88 237.671 526.15 239.131 525.05 240.231C518.82 248.291 509.29 262.961 503.79 286.781C502.69 291.911 501.59 297.781 500.49 304.741C500.49 305.841 500.12 306.571 500.12 307.671C486.56 316.831 488.76 304.741 489.86 293.371C490.23 290.441 490.23 287.871 490.96 284.951C512.96 260.021 517.36 237.661 517.36 230.701C517.36 223.741 513.32 222.641 513.32 222.641C513.32 222.641 507.82 220.801 505.99 220.801C504.16 220.801 502.32 220.801 499.39 223.001C485.46 237.301 471.53 265.891 471.9 293.011C472.27 313.541 484.73 320.871 500.12 312.811C498.29 346.521 528.72 345.421 542.64 330.031C557.3 313.531 562.8 299.241 562.8 299.241C545.2 324.161 511.85 347.621 517.72 306.211C518.08 302.541 518.82 298.871 519.55 295.581C553.64 254.161 552.54 240.961 552.54 240.961V240.961ZM491.33 280.551C494.99 256.721 502.69 237.661 504.89 233.271C507.45 228.141 510.75 227.041 511.49 229.971C514.05 249.761 497.56 272.851 491.33 280.551ZM543.74 245.361C544.11 250.131 537.14 269.561 520.28 288.981C528.71 259.661 543.74 245.361 543.74 245.361ZM464.94 316.461C463.1 314.261 464.2 302.171 464.57 298.141C464.94 294.111 463.47 292.281 460.17 290.081C456.87 287.881 454.31 287.511 452.47 288.981C450.64 290.441 441.47 299.241 434.15 306.941C435.98 302.541 438.91 294.841 446.25 288.241C453.58 281.641 462 286.411 462.74 287.141C463.47 287.881 463.84 288.241 464.94 287.511C466.04 286.781 464.94 284.951 464.94 284.951C459.07 272.851 448.08 271.021 440.38 277.251C420.95 293.381 421.68 306.571 423.15 310.971C424.25 315.371 430.48 319.401 436.35 312.801C442.58 305.841 446.98 298.501 452.11 292.641C450.28 298.141 444.41 324.901 458.71 327.461C472.63 330.031 473.73 312.071 473.73 312.071C471.9 317.201 467.13 318.671 464.93 316.471L464.94 316.461ZM421.69 295.941C423.89 279.811 423.52 231.801 421.32 220.441C419.12 244.261 402.62 284.211 399.32 308.401C392.36 296.681 394.56 278.721 396.4 269.921C398.23 261.121 385.4 259.661 378.8 261.861C379.54 266.261 358.28 294.481 337.39 309.141C340.69 298.141 360.84 265.151 379.9 242.801C389.43 231.071 388.33 228.141 380.27 224.471C372.21 220.801 368.54 219.701 365.61 222.271C362.68 225.201 353.51 234.001 353.51 234.001C353.51 234.001 365.24 228.141 359.38 235.831C353.51 243.531 319.43 288.611 315.39 308.771C311.36 328.931 332.99 332.231 343.25 321.231C353.51 310.601 374.77 280.181 374.77 280.181C374.77 280.181 372.21 319.031 393.1 322.701C412.89 326.001 419.49 312.071 421.69 295.941V295.941ZM294.5 265.151C294.87 228.131 276.54 224.471 257.85 222.271C244.65 220.801 191.15 219.701 171.35 220.071C157.79 220.071 92.5503 220.441 74.5803 227.771C63.9603 232.171 58.0903 240.971 55.5203 253.791C53.6903 262.221 54.4203 272.121 54.0603 281.651C53.6903 291.551 55.1603 412.131 54.7903 451.721C54.7903 479.211 54.7903 498.271 54.4303 526.851C54.4303 536.381 55.5303 547.751 56.9903 553.611C60.6603 566.811 72.3902 581.471 106.11 581.831C131.642 582.198 157.178 582.198 182.71 581.831C184.54 599.061 182.71 626.181 171.35 657.331C170.61 659.531 169.52 661.731 168.78 663.931C167.68 666.501 166.58 668.701 168.42 670.531C169.88 672.001 170.98 672.371 173.18 671.631C173.91 671.271 175.01 670.901 175.75 670.531H176.11C177.596 669.767 178.955 668.779 180.14 667.601C192.61 658.801 226.69 629.481 235.49 582.571C251.62 582.571 267.74 581.101 276.91 574.871C290.11 565.711 294.51 552.141 294.51 529.421V265.151H294.5ZM269.94 471.511C270.31 516.231 268.48 548.851 268.48 548.851C267.01 573.771 226.33 574.141 226.33 574.141C222.3 627.281 176.85 663.201 176.85 663.201C179.584 657.761 181.91 652.126 183.81 646.341C191.51 622.521 194.07 605.661 194.81 596.491C196.27 581.471 195.91 568.271 191.14 558.381C187.48 550.311 179.04 546.281 170.98 542.251C162.206 537.688 153.409 533.168 144.59 528.691C127.73 520.261 125.53 514.391 124.07 507.061C121.87 494.961 122.6 334.431 122.6 316.461C122.97 280.551 127 275.421 148.26 270.281C186.01 261.481 257.12 248.291 257.12 248.291C269.94 246.091 269.22 260.021 269.58 270.651C270.68 304.371 269.21 396.741 269.94 471.511Z" fill="#153359" fill-opacity="0.27"/>
<path d="M125.9 573.042C117.1 573.042 109.77 573.042 101.7 572.302C90.71 571.202 80.08 565.702 74.95 557.642C67.25 545.182 68.35 525.392 67.99 505.962C67.62 487.272 67.25 324.162 67.25 321.602C67.25 314.272 67.25 303.272 67.62 295.582C67.99 277.252 65.42 254.522 74.58 243.532C78.25 239.132 84.85 235.472 92.18 234.002C110.14 230.702 142.03 229.972 169.15 229.602C197.01 229.232 239.89 231.802 249.05 232.532C251.25 232.532 256.02 232.902 256.02 234.362C256.02 236.202 251.62 236.562 249.79 236.932C241.72 238.762 151.55 258.192 136.16 263.332C120.03 269.192 116 277.982 114.54 299.612C113.8 312.812 112.34 483.612 112.7 496.432C113.07 510.732 113.8 519.892 122.6 527.232C126.26 530.522 131.76 534.182 138 537.482C148.62 542.982 159.99 549.212 166.58 553.242C166.95 553.612 167.32 553.612 167.68 553.982C169.15 555.082 172.08 556.912 174.65 559.482C176.85 561.682 178.68 564.242 179.41 567.182C179.78 568.642 180.51 570.482 180.88 572.302C167.32 573.402 139.46 573.042 125.9 573.042" fill="#EE2D3A" fill-opacity="0.27"/>
<g filter="url(#filter1_f_5860_5806)">
<path d="M147.773 447.376C182.438 501.725 290.671 488.482 389.517 417.798C488.363 347.114 540.392 245.755 505.726 191.407C471.061 137.058 362.828 150.301 263.982 220.985C165.136 291.669 113.107 393.028 147.773 447.376Z" fill="#FF3F3F" fill-opacity="0.75"/>
</g>
<defs>
<filter id="filter0_f_5860_5806" x="-272" y="101.001" width="592" height="641" filterUnits="userSpaceOnUse" color-interpolation-filters="sRGB">
<feFlood flood-opacity="0" result="BackgroundImageFix"/>
<feBlend mode="normal" in="SourceGraphic" in2="BackgroundImageFix" result="shape"/>
<feGaussianBlur stdDeviation="104" result="effect1_foregroundBlur_5860_5806"/>
</filter>
<filter id="filter1_f_5860_5806" x="-70.9668" y="-50.0601" width="795.432" height="738.903" filterUnits="userSpaceOnUse" color-interpolation-filters="sRGB">
<feFlood flood-opacity="0" result="BackgroundImageFix"/>
<feBlend mode="normal" in="SourceGraphic" in2="BackgroundImageFix" result="shape"/>
<feGaussianBlur stdDeviation="104" result="effect1_foregroundBlur_5860_5806"/>
</filter>
</defs>
</svg>
