<svg width="331" height="236" viewBox="0 0 331 236" fill="none" xmlns="http://www.w3.org/2000/svg">
<rect x="6.02771" y="1.00449" width="323" height="227" rx="22" transform="rotate(0.257946 6.02771 1.00449)" stroke="white" stroke-opacity="0.2" stroke-width="2"/>
<circle cx="29.4531" cy="23.6818" r="3.5" fill="white" fill-opacity="0.2"/>
<circle cx="39.9668" cy="23.7286" r="3.5" fill="white" fill-opacity="0.2"/>
<circle cx="50.4805" cy="23.7765" r="3.5" fill="white" fill-opacity="0.2"/>
<path d="M305.356 68.8954H211.859C209.754 68.8954 208 67.14 208 65.0335V41.8619C208 39.7554 209.754 38 211.859 38H305.356C307.461 38 309.215 39.7554 309.215 41.8619V65.0335C309.391 67.14 307.636 68.8954 305.356 68.8954Z" fill="white" fill-opacity="0.15"/>
<path d="M296.411 56.0819H220.28C219.403 56.0819 218.702 55.3798 218.702 54.5021V52.3956C218.702 51.5178 219.403 50.8157 220.28 50.8157H296.411C297.288 50.8157 297.99 51.5178 297.99 52.3956V54.5021C297.99 55.3798 297.288 56.0819 296.411 56.0819Z" fill="white" fill-opacity="0.27"/>
<path d="M305.356 108.919H211.859C209.754 108.919 208 107.164 208 105.057V81.7103C208 79.6038 209.754 77.8484 211.859 77.8484H305.356C307.461 77.8484 309.215 79.6038 309.215 81.7103V104.882C309.391 107.164 307.636 108.919 305.356 108.919Z" fill="white" fill-opacity="0.15"/>
<g opacity="0.1">
<path d="M305.137 201H211.85C209.75 201 208 199.588 208 197.893V179.107C208 177.413 209.75 176 211.85 176H305.137C307.238 176 308.988 177.413 308.988 179.107V197.752C309.163 199.588 307.413 201 305.137 201Z" stroke="#D6DCE8" stroke-width="2" stroke-miterlimit="10" stroke-dasharray="2.94 2.94"/>
</g>
<path d="M296.411 96.1048H220.28C219.403 96.1048 218.702 95.4026 218.702 94.5249V92.4184C218.702 91.5407 219.403 90.8385 220.28 90.8385H296.411C297.288 90.8385 297.99 91.5407 297.99 92.4184V94.5249C297.99 95.4026 297.288 96.1048 296.411 96.1048Z" fill="white" fill-opacity="0.27"/>
<path d="M305.356 148.895H211.859C209.754 148.895 208 147.14 208 145.033V121.862C208 119.755 209.754 118 211.859 118H305.356C307.461 118 309.215 119.755 309.215 121.862V145.033C309.391 147.14 307.636 148.895 305.356 148.895Z" fill="white" fill-opacity="0.15"/>
<path d="M296.411 136.082H220.28C219.403 136.082 218.702 135.38 218.702 134.502V132.395C218.702 131.518 219.403 130.816 220.28 130.816H296.411C297.288 130.816 297.99 131.518 297.99 132.395V134.502C297.99 135.38 297.288 136.082 296.411 136.082Z" fill="white" fill-opacity="0.27"/>
<path d="M305.356 69.071H211.859C209.754 69.071 208 67.3156 208 65.2091V41.8619C208 39.7554 209.754 38 211.859 38H305.356C307.461 38 309.215 39.7554 309.215 41.8619V65.0335C309.215 67.3156 307.461 69.071 305.356 69.071Z" fill="white"/>
<path d="M295.669 56.0143H219.539C218.662 56.0143 217.96 55.3121 217.96 54.4344V52.3279C217.96 51.4502 218.662 50.748 219.539 50.748H295.669C296.546 50.748 297.248 51.4502 297.248 52.3279V54.4344C297.248 55.3121 296.546 56.0143 295.669 56.0143Z" fill="#8D36BD"/>
<g opacity="0.1" filter="url(#filter0_d_55_4983)">
<path d="M186 49.625V191.375C186 197.75 180.782 203 174.445 203H33.5545C27.2182 203 22 197.75 22 191.375V49.625C22 43.25 27.2182 38 33.5545 38H174.445C180.782 38 186 43.25 186 49.625Z" fill="url(#paint0_linear_55_4983)"/>
</g>
<path opacity="0.5" d="M165.877 81.5758L167.575 80.8206C168.141 80.6318 168.141 79.8765 167.575 79.6877L165.877 78.9324C163.801 77.9884 162.103 76.289 161.16 74.2121L160.405 72.5127C160.216 71.9463 159.462 71.9463 159.273 72.5127L158.518 74.2121C157.575 76.289 155.877 77.9884 153.801 78.9324L152.103 79.6877C151.537 79.8765 151.537 80.6318 152.103 80.8206L153.801 81.5758C155.877 82.5199 157.575 84.2193 158.518 86.2962L159.273 87.9956C159.462 88.562 160.216 88.562 160.405 87.9956L161.16 86.2962C161.915 84.2193 163.613 82.5199 165.877 81.5758Z" fill="white"/>
<path opacity="0.5" d="M147.575 70.8136L148.708 70.2471C149.085 70.0583 149.085 69.6807 148.708 69.4919L147.575 69.1142C146.066 68.5478 144.934 67.4149 144.368 65.9044L143.802 64.7715C143.613 64.3939 143.236 64.3939 143.047 64.7715L142.67 65.9044C141.915 67.4149 140.783 68.5478 139.462 69.1142L138.142 69.6807C137.953 69.6807 137.953 70.2471 138.142 70.2471L139.274 70.8136C140.783 71.38 141.915 72.5129 142.67 74.0234L143.236 75.1563C143.425 75.534 143.802 75.534 143.991 75.1563L144.368 74.0234C144.934 72.5129 146.066 71.38 147.575 70.8136Z" fill="white"/>
<path opacity="0.5" d="M162.103 59.862L163.046 59.4844C163.235 59.2955 163.235 59.1067 163.046 58.9179L162.103 58.5403C160.971 58.1627 160.216 57.2186 159.65 56.0857L159.273 55.1416C159.084 54.9528 158.895 54.9528 158.707 55.1416L158.329 56.0857C157.952 57.2186 157.008 57.9738 155.876 58.5403L155.31 58.9179C154.933 59.1067 154.933 59.4844 155.31 59.4844L156.254 59.862C157.386 60.2396 158.141 61.1837 158.707 62.3166L159.084 63.2607C159.273 63.4495 159.461 63.4495 159.65 63.2607L160.027 62.3166C160.216 61.1837 161.159 60.2396 162.103 59.862Z" fill="white"/>
<mask id="mask0_55_4983" style="mask-type:alpha" maskUnits="userSpaceOnUse" x="24" y="38" width="164" height="165">
<path opacity="0.4" d="M188 49.625V191.375C188 197.75 182.782 203 176.445 203H35.5545C29.2182 203 24 197.75 24 191.375V49.625C24 43.25 29.2182 38 35.5545 38H176.445C182.782 38 188 43.25 188 49.625Z" fill="url(#paint1_linear_55_4983)"/>
</mask>
<g mask="url(#mask0_55_4983)">
<path d="M149.41 201.063C148.43 202.698 146.798 203.679 145.165 204.659C129.488 219.372 108.26 228.199 85.3988 228.199C67.1098 228.199 49.8005 222.314 35.4306 212.506C31.185 209.89 27.5925 206.294 24 203.025C25.9595 200.409 29.2254 198.775 36.0838 196.159L38.6965 195.178C43.9219 193.217 51.4335 190.601 60.9046 186.351C62.5375 185.697 63.5173 184.716 64.4971 183.735C65.1502 183.081 65.4768 182.755 65.4768 181.774C66.13 180.793 66.4566 179.158 66.4566 178.177V160.196C65.8034 159.542 65.8034 159.542 65.4768 159.215C63.8439 157.253 62.8641 154.638 62.8641 151.368L61.8843 150.715C57.3121 151.695 57.6387 147.118 56.6589 137.637C56.0057 134.041 56.6589 133.06 58.6184 132.406L60.2514 130.444C56.9855 122.925 55.6791 116.386 55.6791 110.828C55.6791 102.001 59.2716 96.1159 64.4971 93.5004C61.2312 87.2886 61.2312 85 61.2312 85C61.2312 85 79.5202 88.2694 86.0519 86.9616C93.8901 85.3269 106.627 87.6155 111.199 98.0775C119.037 101.347 121.65 105.924 122.63 111.155C123.61 119.655 119.037 128.483 118.058 132.079V132.733C119.037 133.387 119.691 134.368 119.037 137.964C118.058 146.791 118.058 152.022 113.812 151.042L109.566 158.561C109.566 159.542 109.566 159.542 108.913 160.196C108.913 161.83 108.913 164.446 108.913 178.504C108.913 180.139 109.566 182.101 110.546 183.081C111.199 183.735 111.199 184.062 111.526 184.062C112.506 185.043 113.485 186.024 114.792 186.024C125.243 190.274 132.754 193.543 138.306 195.505C143.858 197.794 147.451 199.428 149.41 201.063Z" fill="white"/>
<path d="M149.41 201.6C148.43 203.203 146.798 204.164 145.165 205.126C129.488 219.546 108.26 228.198 85.3988 228.198C67.1098 228.198 49.8005 222.43 35.4306 212.817C31.185 210.253 27.5925 206.728 24 203.523C25.9595 200.96 29.2254 199.357 36.0838 196.794L38.6965 195.832C43.9219 193.909 51.4335 191.346 60.9046 187.18C62.5375 186.539 63.5173 185.578 64.4971 184.616C69.7225 191.987 78.2138 196.473 88.0115 196.473C97.4826 196.473 105.974 191.987 111.199 185.257C112.179 186.219 113.159 187.18 114.465 187.18C124.916 191.346 132.428 194.55 137.98 196.473C143.858 198.396 147.451 199.998 149.41 201.6Z" fill="#636E85"/>
<path d="M117.462 132.14C118.115 130.162 116.809 126.866 115.829 125.217C115.829 124.558 115.176 124.558 115.176 124.228C111.584 116.646 103.747 114.009 96.2369 113.68C76.6448 112.691 75.3387 116.317 69.461 111.042C71.4203 113.68 71.4202 118.624 68.4814 123.899C66.5222 127.525 62.6038 129.832 59.0119 130.821C50.1955 110.713 54.767 97.8564 63.2569 93.5709C59.9915 87.3076 59.9915 85 59.9915 85C59.9915 85 78.2775 88.2965 84.8082 86.9779C92.645 85.3297 105.38 87.6372 109.951 98.186C117.788 101.483 120.4 106.098 121.38 111.372C123.339 119.613 118.441 128.514 117.462 132.14Z" fill="#AAB2C5"/>
<path d="M66.792 178.861V159.992C66.1331 159.306 66.1331 159.306 65.8037 158.963V157.934C66.792 159.649 67.7802 161.364 69.4273 162.393L83.5924 173.029C86.8866 175.773 91.4985 175.773 94.7927 173.029L107.969 161.021C108.628 160.335 108.958 160.335 109.617 159.992C109.617 161.707 109.617 164.452 109.617 179.204C109.617 180.233 109.617 180.919 110.275 181.948H66.792C66.1331 180.576 66.792 179.89 66.792 178.861Z" fill="url(#paint2_linear_55_4983)"/>
</g>
<defs>
<filter id="filter0_d_55_4983" x="0" y="27" width="208" height="209" filterUnits="userSpaceOnUse" color-interpolation-filters="sRGB">
<feFlood flood-opacity="0" result="BackgroundImageFix"/>
<feColorMatrix in="SourceAlpha" type="matrix" values="0 0 0 0 0 0 0 0 0 0 0 0 0 0 0 0 0 0 127 0" result="hardAlpha"/>
<feOffset dy="11"/>
<feGaussianBlur stdDeviation="11"/>
<feColorMatrix type="matrix" values="0 0 0 0 0.397708 0 0 0 0 0.47749 0 0 0 0 0.575 0 0 0 0.27 0"/>
<feBlend mode="normal" in2="BackgroundImageFix" result="effect1_dropShadow_55_4983"/>
<feBlend mode="normal" in="SourceGraphic" in2="effect1_dropShadow_55_4983" result="shape"/>
</filter>
<linearGradient id="paint0_linear_55_4983" x1="103.947" y1="34.1834" x2="103.947" y2="204.779" gradientUnits="userSpaceOnUse">
<stop stop-color="#FDFEFF"/>
<stop offset="0.9964" stop-color="#ECF0F5"/>
</linearGradient>
<linearGradient id="paint1_linear_55_4983" x1="105.947" y1="34.1834" x2="105.947" y2="204.779" gradientUnits="userSpaceOnUse">
<stop stop-color="#FDFEFF"/>
<stop offset="0.9964" stop-color="#ECF0F5"/>
</linearGradient>
<linearGradient id="paint2_linear_55_4983" x1="87.9536" y1="181.2" x2="87.9536" y2="168.622" gradientUnits="userSpaceOnUse">
<stop stop-color="white"/>
<stop offset="1" stop-color="#6F6F6F"/>
</linearGradient>
</defs>
</svg>
