<svg width="328" height="233" viewBox="0 0 328 233" fill="none" xmlns="http://www.w3.org/2000/svg">
<rect x="2.99549" y="1.00449" width="323" height="227" rx="22" transform="rotate(0.257946 2.99549 1.00449)" stroke="white" stroke-opacity="0.2" stroke-width="2"/>
<circle cx="26.4531" cy="23.6818" r="3.5" fill="white" fill-opacity="0.2"/>
<circle cx="36.9668" cy="23.7286" r="3.5" fill="white" fill-opacity="0.2"/>
<circle cx="47.4805" cy="23.7765" r="3.5" fill="white" fill-opacity="0.2"/>
<g opacity="0.1" filter="url(#filter0_d_55_4948)">
<path d="M306 56.85V189.15C306 195.1 301.1 200 295.15 200H162.85C156.9 200 152 195.1 152 189.15V56.85C152 50.9 156.9 46 162.85 46H295.15C301.1 46 306 50.9 306 56.85Z" fill="url(#paint0_linear_55_4948)"/>
</g>
<path opacity="0.3" d="M163.028 59.2297C164.961 59.2297 166.528 57.6627 166.528 55.7297C166.528 53.7967 164.961 52.2297 163.028 52.2297C161.095 52.2297 159.528 53.7967 159.528 55.7297C159.528 57.6627 161.095 59.2297 163.028 59.2297Z" fill="white"/>
<path opacity="0.3" d="M173.554 59.2297C175.487 59.2297 177.054 57.6627 177.054 55.7297C177.054 53.7967 175.487 52.2297 173.554 52.2297C171.621 52.2297 170.054 53.7967 170.054 55.7297C170.054 57.6627 171.621 59.2297 173.554 59.2297Z" fill="white"/>
<path opacity="0.3" d="M183.904 59.2297C185.837 59.2297 187.404 57.6627 187.404 55.7297C187.404 53.7967 185.837 52.2297 183.904 52.2297C181.971 52.2297 180.404 53.7967 180.404 55.7297C180.404 57.6627 181.971 59.2297 183.904 59.2297Z" fill="white"/>
<path d="M287.887 188H169.103C166.288 188 164 184.771 164 180.798V82.2022C164 78.2286 166.288 75 169.103 75H287.887C290.703 75 292.99 78.2286 292.99 82.2022V180.798C293.166 184.771 290.879 188 287.887 188Z" stroke="white" stroke-opacity="0.28" stroke-miterlimit="10" stroke-dasharray="3 3"/>
<path opacity="0.4" d="M266.427 125H190.573C189.699 125 189 124.2 189 123.2V120.8C189 119.8 189.699 119 190.573 119H266.427C267.301 119 268 119.8 268 120.8V123.2C268 124 267.301 125 266.427 125Z" fill="white"/>
<path opacity="0.4" d="M244.431 138H213.569C212.697 138 212 137.333 212 136.5V134.5C212 133.667 212.697 133 213.569 133H244.431C245.303 133 246 133.667 246 134.5V136.5C246 137.333 245.303 138 244.431 138Z" fill="white"/>
<path d="M119.356 80.4902H25.8592C23.7542 80.4902 22 78.7347 22 76.6282V53.4567C22 51.3501 23.7542 49.5947 25.8592 49.5947H119.356C121.461 49.5947 123.215 51.3501 123.215 53.4567V76.6282C123.391 78.7347 121.636 80.4902 119.356 80.4902Z" fill="white" fill-opacity="0.15"/>
<path d="M110.411 67.6767H34.2804C33.4033 67.6767 32.7017 66.9745 32.7017 66.0968V63.9903C32.7017 63.1126 33.4033 62.4104 34.2804 62.4104H110.411C111.288 62.4104 111.99 63.1126 111.99 63.9903V66.0968C111.99 66.9745 111.288 67.6767 110.411 67.6767Z" fill="white" fill-opacity="0.27"/>
<path d="M119.356 120.514H25.8592C23.7542 120.514 22 118.759 22 116.652V93.3049C22 91.1984 23.7542 89.443 25.8592 89.443H119.356C121.461 89.443 123.215 91.1984 123.215 93.3049V116.477C123.391 118.759 121.636 120.514 119.356 120.514Z" fill="white" fill-opacity="0.15"/>
<g opacity="0.1">
<path d="M119.356 160.538H25.8592C23.7542 160.538 22 158.782 22 156.676V133.329C22 131.222 23.7542 129.467 25.8592 129.467H119.356C121.461 129.467 123.215 131.222 123.215 133.329V156.5C123.391 158.782 121.636 160.538 119.356 160.538Z" stroke="#D6DCE8" stroke-width="2" stroke-miterlimit="10" stroke-dasharray="2.94 2.94"/>
</g>
<path d="M110.411 107.699H34.2804C33.4033 107.699 32.7017 106.997 32.7017 106.12V104.013C32.7017 103.135 33.4033 102.433 34.2804 102.433H110.411C111.288 102.433 111.99 103.135 111.99 104.013V106.12C111.99 106.997 111.288 107.699 110.411 107.699Z" fill="white" fill-opacity="0.27"/>
<path d="M119.356 200.561H25.8592C23.7542 200.561 22 198.806 22 196.699V173.527C22 171.421 23.7542 169.666 25.8592 169.666H119.356C121.461 169.666 123.215 171.421 123.215 173.527V196.699C123.391 198.806 121.636 200.561 119.356 200.561Z" fill="white" fill-opacity="0.15"/>
<path d="M110.411 187.747H34.2804C33.4033 187.747 32.7017 187.045 32.7017 186.167V184.061C32.7017 183.183 33.4033 182.481 34.2804 182.481H110.411C111.288 182.481 111.99 183.183 111.99 184.061V186.167C111.99 187.045 111.288 187.747 110.411 187.747Z" fill="white" fill-opacity="0.27"/>
<path d="M167.594 150.181H74.0974C71.9924 150.181 70.2383 148.426 70.2383 146.319V122.972C70.2383 120.866 71.9924 119.11 74.0974 119.11H167.594C169.699 119.11 171.453 120.866 171.453 122.972V146.144C171.453 148.426 169.699 150.181 167.594 150.181Z" fill="white"/>
<path d="M191.979 142.387C193.992 142.387 195.603 143.999 195.603 146.014V169.39C195.603 174.629 191.576 178.66 186.34 178.66H171.036C169.425 178.66 167.814 178.257 167.009 177.048C163.384 173.823 155.732 167.375 154.121 164.957C153.718 164.151 153.315 163.748 153.315 162.942V157.702C153.315 154.478 155.732 152.06 158.954 152.06H160.968V162.136H162.176V141.178C162.176 139.163 163.787 137.551 165.8 137.551C167.814 137.551 169.425 139.163 169.425 141.178V145.208H170.633V139.969C170.633 137.954 172.244 136.341 174.258 136.341C176.272 136.341 177.883 137.954 177.883 139.969V145.208H179.494V142.387C179.494 140.372 181.105 138.76 183.118 138.76C185.132 138.76 186.743 140.372 186.743 142.387V145.208H188.354C188.757 143.596 189.965 142.387 191.979 142.387Z" fill="white" stroke="#8D36BD" stroke-width="2" stroke-miterlimit="10" stroke-linecap="round" stroke-linejoin="round"/>
<path d="M157.908 137.125H81.777C80.8999 137.125 80.1982 136.422 80.1982 135.545V133.438C80.1982 132.561 80.8999 131.858 81.777 131.858H157.908C158.785 131.858 159.486 132.561 159.486 133.438V135.545C159.486 136.422 158.785 137.125 157.908 137.125Z" fill="#8D36BD"/>
<defs>
<filter id="filter0_d_55_4948" x="130" y="35" width="198" height="198" filterUnits="userSpaceOnUse" color-interpolation-filters="sRGB">
<feFlood flood-opacity="0" result="BackgroundImageFix"/>
<feColorMatrix in="SourceAlpha" type="matrix" values="0 0 0 0 0 0 0 0 0 0 0 0 0 0 0 0 0 0 127 0" result="hardAlpha"/>
<feOffset dy="11"/>
<feGaussianBlur stdDeviation="11"/>
<feColorMatrix type="matrix" values="0 0 0 0 0.397708 0 0 0 0 0.47749 0 0 0 0 0.575 0 0 0 0.27 0"/>
<feBlend mode="normal" in2="BackgroundImageFix" result="effect1_dropShadow_55_4948"/>
<feBlend mode="normal" in="SourceGraphic" in2="effect1_dropShadow_55_4948" result="shape"/>
</filter>
<linearGradient id="paint0_linear_55_4948" x1="228.95" y1="42.4378" x2="228.95" y2="201.66" gradientUnits="userSpaceOnUse">
<stop stop-color="#FDFEFF"/>
<stop offset="0.9964" stop-color="#ECF0F5"/>
</linearGradient>
</defs>
</svg>
