<svg width="327" height="235" viewBox="0 0 327 235" fill="none" xmlns="http://www.w3.org/2000/svg">
<rect x="2.02723" y="1.00449" width="323" height="227" rx="22" transform="rotate(0.257946 2.02723 1.00449)" stroke="white" stroke-opacity="0.2" stroke-width="2"/>
<circle cx="25.5155" cy="23.6817" r="3.5" transform="rotate(0.257946 25.5155 23.6817)" fill="white" fill-opacity="0.2"/>
<circle cx="36.0291" cy="23.7286" r="3.5" transform="rotate(0.257946 36.0291 23.7286)" fill="white" fill-opacity="0.2"/>
<circle cx="46.5428" cy="23.7765" r="3.5" transform="rotate(0.257946 46.5428 23.7765)" fill="white" fill-opacity="0.2"/>
<path d="M36.6984 169C35.7883 169 34.8986 168.91 34.0376 168.74L33.8435 169.721C31.9272 169.342 30.1411 168.589 28.5667 167.543L29.12 166.71C27.6266 165.718 26.3375 164.443 25.3329 162.967L24.5061 163.529C23.4404 161.962 22.6724 160.182 22.2851 158.271L23.2651 158.073C23.091 157.214 22.9995 156.326 22.9995 155.418V152.839H21.9995V147.681H22.9995V142.524H21.9995V137.366H22.9995V132.209H21.9995V127.051H22.9995V121.894H21.9995V116.736H22.9995V111.579H21.9995V106.421H22.9995V101.264H21.9995V96.1063H22.9995V90.9488H21.9995V85.7913H22.9995V80.6338H21.9995V75.4762H22.9995V70.3187H21.9995V65.1612H22.9995V62.5825C22.9995 61.6741 23.091 60.7862 23.2651 59.9272L22.2851 59.7285C22.6724 57.8176 23.4404 56.0377 24.5061 54.4709L25.3329 55.0334C26.3375 53.5565 27.6266 52.282 29.12 51.29L28.5667 50.457C30.1411 49.4112 31.9272 48.6582 33.8435 48.279L34.0376 49.2599C34.8986 49.0895 35.7883 49 36.6984 49H39.1199V48H43.9628V49H48.8057V48H53.6487V49H58.4916V48H63.3345V49H68.1775V48H73.0204V49H77.8633V48H82.7063V49H87.5492V48H92.3922V49H97.2351V48H102.078V49H106.921V48H111.764V49H116.607V48H121.45V49H126.293V48H131.136V49H135.979V48H140.822V49H145.665V48H150.507V49H155.35V48H160.193V49H165.036V48H169.879V49H172.301C173.211 49 174.1 49.0895 174.961 49.2599L175.156 48.279C177.072 48.6582 178.858 49.4112 180.432 50.457L179.879 51.29C181.372 52.282 182.662 53.5565 183.666 55.0334L184.493 54.4709C185.559 56.0377 186.327 57.8176 186.714 59.7285L185.734 59.9272C185.908 60.7862 186 61.6741 186 62.5825V65.167H187V70.3359H186V75.5048H187V80.6737H186V85.8426H187V91.0115H186V96.1804H187V101.349H186V106.518H187V111.687H186V116.856H187V122.025H186V127.194H187V132.363H186V137.532H187V142.701H186V147.87H187V153.038H186V155.623C186 156.533 185.911 157.418 185.742 158.272L186.722 158.466C186.343 160.382 185.584 162.155 184.522 163.707L183.697 163.142C182.698 164.602 181.408 165.853 179.9 166.819L180.439 167.661C178.871 168.666 177.083 169.384 175.147 169.742L174.965 168.758C174.108 168.917 173.217 169 172.301 169H169.879V170H165.036V169H160.193V170H155.35V169H150.507V170H145.665V169H140.822V170H135.979V169H131.136V170H126.293V169H121.45V170H116.607V169H111.764V170H106.921V169H102.078V170H97.2351V169H92.3922V170H87.5492V169H82.7063V170H77.8634V169H73.0204V170H68.1775V169H63.3345V170H58.4916V169H53.6486V170H48.8057V169H43.9628V170H39.1198V169H36.6984Z" stroke="white" stroke-opacity="0.2" stroke-width="2" stroke-miterlimit="10" stroke-dasharray="5.01 5.01"/>
<path fill-rule="evenodd" clip-rule="evenodd" d="M90.5391 121.52C90.5391 120.012 91.8188 118.789 93.3975 118.789H118.142C119.721 118.789 121.001 120.012 121.001 121.52C121.001 123.028 119.721 124.251 118.142 124.251H93.3975C91.8188 124.251 90.5391 123.028 90.5391 121.52Z" fill="#9F60CB"/>
<path fill-rule="evenodd" clip-rule="evenodd" d="M105.665 89.4605C107.244 89.4605 108.523 90.6831 108.523 92.1914V111.414C108.523 112.922 107.244 114.145 105.665 114.145C104.086 114.145 102.807 112.922 102.807 111.414V92.1914C102.807 90.6831 104.086 89.4605 105.665 89.4605Z" fill="#9F60CB"/>
<path fill-rule="evenodd" clip-rule="evenodd" d="M103.647 89.4653C104.756 88.4083 106.549 88.4012 107.667 89.4492L120.144 101.141C121.271 102.197 121.288 103.926 120.183 105.003C119.077 106.08 117.268 106.096 116.141 105.04L105.683 95.24L95.4161 105.024C94.2985 106.089 92.4886 106.087 91.3737 105.019C90.2589 103.951 90.2611 102.222 91.3788 101.157L103.647 89.4653Z" fill="#9F60CB"/>
<g filter="url(#filter0_d_55_4930)">
<path d="M288.102 202H159.897C152.263 202 146 195.761 146 188.158V99.842C146 92.2387 152.263 86 159.897 86H288.102C295.736 86 302 92.2387 302 99.842V188.158C302 195.761 295.736 202 288.102 202Z" fill="url(#paint0_linear_55_4930)"/>
</g>
<path d="M300.135 171.477C302.437 171.477 304.278 173.319 304.278 175.623V202.342C304.278 208.331 299.675 212.938 293.69 212.938H276.197C274.355 212.938 272.514 212.477 271.593 211.095C267.45 207.41 258.703 200.039 256.862 197.275C256.402 196.353 255.941 195.893 255.941 194.971V188.982C255.941 185.297 258.703 182.533 262.386 182.533H264.688V194.05H266.069V170.094C266.069 167.791 267.911 165.948 270.212 165.948C272.514 165.948 274.355 167.791 274.355 170.094V174.701H275.736V168.712C275.736 166.409 277.578 164.566 279.88 164.566C282.181 164.566 284.023 166.409 284.023 168.712V174.701H285.864V171.477C285.864 169.173 287.706 167.33 290.007 167.33C292.309 167.33 294.15 169.173 294.15 171.477V174.701H295.992C296.452 172.859 297.833 171.477 300.135 171.477Z" fill="white" stroke="#3E19A6" stroke-width="2" stroke-miterlimit="10" stroke-linecap="round" stroke-linejoin="round"/>
<path d="M234.321 138.079C237.019 138.079 239.206 135.896 239.206 133.203C239.206 130.51 237.019 128.326 234.321 128.326C231.623 128.326 229.436 130.51 229.436 133.203C229.436 135.896 231.623 138.079 234.321 138.079Z" fill="#A927CA"/>
<path d="M235.103 164.022H198.759C196.414 164.022 195.046 161.291 196.414 159.536L214.586 134.179C215.759 132.618 218.103 132.618 219.276 134.179L237.448 159.536C238.816 161.486 237.448 164.022 235.103 164.022Z" fill="#A927CA"/>
<path opacity="0.7" d="M247.608 163.631H232.171C229.827 163.631 228.654 161.096 229.827 159.34L237.447 148.612C238.62 147.052 240.769 147.052 241.941 148.612L249.562 159.34C251.321 161.096 249.953 163.631 247.608 163.631Z" fill="#4A5CFF"/>
<defs>
<filter id="filter0_d_55_4930" x="124" y="75" width="200" height="160" filterUnits="userSpaceOnUse" color-interpolation-filters="sRGB">
<feFlood flood-opacity="0" result="BackgroundImageFix"/>
<feColorMatrix in="SourceAlpha" type="matrix" values="0 0 0 0 0 0 0 0 0 0 0 0 0 0 0 0 0 0 127 0" result="hardAlpha"/>
<feOffset dy="11"/>
<feGaussianBlur stdDeviation="11"/>
<feColorMatrix type="matrix" values="0 0 0 0 0.397708 0 0 0 0 0.47749 0 0 0 0 0.575 0 0 0 0.27 0"/>
<feBlend mode="normal" in2="BackgroundImageFix" result="effect1_dropShadow_55_4930"/>
<feBlend mode="normal" in="SourceGraphic" in2="effect1_dropShadow_55_4930" result="shape"/>
</filter>
<linearGradient id="paint0_linear_55_4930" x1="223.949" y1="83.3168" x2="223.949" y2="203.251" gradientUnits="userSpaceOnUse">
<stop stop-color="#FDFEFF"/>
<stop offset="0.9964" stop-color="#ECF0F5"/>
</linearGradient>
</defs>
</svg>
