<svg width="380" height="380" fill="none" xmlns="http://www.w3.org/2000/svg"><mask id="b" fill="#fff"><path fill-rule="evenodd" clip-rule="evenodd" d="M23.483 21.055C46.549-1.646 86.045-3.669 131.61 11.925c18.866 6.456 38.718 15.917 58.783 28.123-28.218 16.725-56.881 38.726-83.913 65.331-27.037 26.608-49.495 54.92-66.669 82.871-11.885-20.258-21.03-40.26-27.184-59.227C-2.237 83.214.417 43.756 23.483 21.055zm15.736 168.162C-1.676 119.739-10.51 53.107 22.781 20.342c33.292-32.764 99.772-22.868 168.588 19.13C260.845-1.42 327.474-10.255 360.238 23.037c32.765 33.292 22.868 99.773-19.131 168.589 40.887 69.471 49.717 136.094 16.428 168.856-33.29 32.763-99.765 22.869-168.576-19.122-69.473 40.889-136.098 49.72-168.86 16.43-32.763-33.289-22.87-99.763 19.12-168.573zm148.774 151.551c-20.254 11.881-40.251 21.023-59.215 27.176-45.808 14.864-85.266 12.211-107.967-10.855-22.701-23.067-24.724-62.562-9.131-108.127 6.455-18.862 15.914-38.709 28.116-58.77 16.724 28.216 38.724 56.878 65.327 83.909 26.608 27.035 54.919 49.493 82.87 66.667zm.976-.575c-28.02-17.161-56.431-39.662-83.133-66.794-26.698-27.127-48.74-55.889-65.45-84.173 17.16-28.02 39.662-56.432 66.795-83.135 27.129-26.7 55.892-48.742 84.178-65.452 28.016 17.16 56.422 39.658 83.121 66.786 26.704 27.134 48.749 55.901 65.461 84.192-17.16 28.014-39.658 56.42-66.786 83.119-27.132 26.702-55.898 48.746-84.186 65.457zm.966.59c20.061 12.203 39.909 21.662 58.771 28.117 45.565 15.594 85.061 13.57 108.127-9.131 23.067-22.701 25.72-62.159 10.856-107.967-6.153-18.962-15.294-38.957-27.174-59.21-17.172 27.946-39.627 56.253-66.659 82.856-27.035 26.607-55.701 48.61-83.921 65.335zM340.531 190.65c12.206-20.066 21.668-39.918 28.125-58.785 15.594-45.565 13.57-85.06-9.131-108.127C336.824.672 297.366-1.982 251.558 12.883c-18.967 6.154-38.966 15.297-59.223 27.181 27.947 17.172 56.254 39.628 82.858 66.66 26.608 27.036 48.612 55.704 65.338 83.926z"/></mask><path d="m131.61 11.924-.324.946.324-.946zM23.483 21.055l.701.713-.701-.713zm166.91 18.993.51.86 1.432-.848-1.423-.866-.519.854zm-83.913 65.33.701.713-.701-.713zM39.811 188.25l-.862.506.843 1.436.871-1.419-.852-.523zm-27.184-59.227.951-.309-.95.309zm10.154-108.68-.701-.713.701.712zM39.22 189.216l.854.52.312-.511-.304-.517-.862.508zM191.37 39.472l-.521.854.511.312.517-.304-.507-.862zm168.869-16.435.713-.702-.713.702zm-19.131 168.589-.854-.521-.312.512.304.516.862-.507zm16.428 168.856.701.713-.701-.713zM188.959 341.36l.521-.854-.511-.312-.517.304.507.862zm-168.86 16.43-.714.702.713-.702zm108.679 10.154-.308-.951.308.951zm59.215-27.176.506.862 1.436-.843-1.419-.871-.523.852zM20.811 357.089l-.713.701.713-.701zM11.68 248.962l-.946-.324.946.324zm28.116-58.77.86-.509-.849-1.433-.865 1.423.854.519zm65.327 83.909.713-.702-.713.702zm.713-.702.712-.701-.712.701zm83.133 66.794-.523.853.513.314.518-.306-.508-.861zM40.386 189.226l-.853-.522-.314.513.306.517.86-.508zm66.795-83.135.702.713-.702-.713zm84.178-65.452.523-.853-.513-.314-.518.306.508.86zm83.121 66.786.713-.701-.713.701zm65.461 84.192.852.522.315-.513-.306-.518-.861.509zm-66.786 83.119.701.712-.701-.712zm-83.22 66.047-.51-.86-1.432.849 1.422.865.52-.854zm58.771 28.117-.324.946.324-.946zm118.983-117.098-.952.308.952-.308zm-27.174-59.21.863-.505-.843-1.437-.872 1.419.852.523zm-66.659 82.856.702.713-.702-.713zm66.675-84.798-.861.51.849 1.433.866-1.423-.854-.52zm28.125-58.785-.946-.324.946.324zm-9.131-108.127.713-.701-.713.701zM251.558 12.883l.308.95-.308-.95zm-59.223 27.181-.506-.862-1.436.842 1.419.872.523-.852zm82.858 66.66-.713.701.713-.701zm-143.26-95.746C86.256-4.654 46.263-2.768 22.781 20.342l1.403 1.426C46.835-.525 85.834-2.685 131.286 12.87l.647-1.892zm58.979 28.216c-20.117-12.238-40.034-21.733-58.979-28.216l-.647 1.892c18.788 6.43 38.574 15.859 58.587 28.033l1.039-1.709zm-1.029-.006c-28.291 16.768-57.018 38.82-84.105 65.478l1.403 1.425c26.978-26.55 55.578-48.501 83.722-65.182l-1.02-1.72zm-84.105 65.478c-27.09 26.661-49.6 55.037-66.819 83.06l1.704 1.047c17.13-27.878 39.536-56.127 66.518-82.682l-1.403-1.425zm-94.102 24.665c6.18 19.046 15.356 39.114 27.273 59.425l1.725-1.012c-11.854-20.205-20.966-40.141-27.096-59.03l-1.902.617zM22.78 20.342C-.7 43.452-3.225 83.41 11.676 129.331l1.902-.617C-1.249 83.019 1.533 44.06 24.184 21.768l-1.403-1.426zm-.701-.712C5.138 36.303-.992 61.505 2.186 91.119c3.178 29.62 15.675 63.784 36.172 98.605l1.723-1.015c-20.4-34.656-32.767-68.547-35.907-97.804-3.14-29.262 2.958-53.758 19.309-69.85L22.08 19.63zm169.81 18.988C157.4 17.57 123.441 4.53 93.876.878 64.317-2.771 39.021 2.958 22.08 19.63l1.403 1.425C39.833 4.963 64.423-.743 93.63 2.864c29.202 3.606 62.891 16.512 97.217 37.462l1.042-1.708zm169.061-16.283C344.278 5.395 319.076-.737 289.463 2.441c-29.618 3.178-63.781 15.674-98.602 36.17l1.015 1.723c34.656-20.398 68.545-32.765 97.801-35.905 29.261-3.14 53.757 2.959 69.848 19.31l1.426-1.404zm-18.99 169.812c21.049-34.49 34.089-68.45 37.74-98.014 3.65-29.56-2.078-54.857-18.75-71.798l-1.426 1.403c16.092 16.351 21.798 40.94 18.191 70.15-3.606 29.202-16.513 62.891-37.463 97.217l1.708 1.042zm16.275 169.048c16.94-16.672 23.071-41.871 19.895-71.482-3.177-29.616-15.67-63.776-36.162-98.594l-1.724 1.014c20.395 34.653 32.76 68.54 35.897 97.793 3.139 29.26-2.959 53.753-19.309 69.843l1.403 1.426zm-169.798-18.982c34.487 21.046 68.444 34.084 98.007 37.733 29.556 3.649 54.851-2.08 71.791-18.751l-1.403-1.426c-16.35 16.091-40.937 21.798-70.143 18.192-29.2-3.604-62.886-16.509-97.21-37.455l-1.042 1.707zM19.385 358.492c16.672 16.94 41.873 23.071 71.484 19.894 29.617-3.177 63.779-15.672 98.597-36.165l-1.014-1.723c-34.654 20.396-68.542 32.761-97.796 35.9-29.26 3.139-53.754-2.959-69.845-19.309l-1.426 1.403zm18.98-169.796C17.322 223.182 4.284 257.139.635 286.701c-3.649 29.556 2.08 54.851 18.751 71.791l1.426-1.403C4.72 340.739-.986 316.152 2.619 286.946c3.604-29.2 16.508-62.885 37.454-97.209l-1.707-1.041zm90.722 180.199c19.042-6.179 39.105-15.352 59.412-27.265l-1.012-1.725c-20.201 11.85-40.132 20.96-59.017 27.088l.617 1.902zM20.098 357.79c23.11 23.482 63.068 26.006 108.989 11.105l-.617-1.902c-45.695 14.828-84.654 12.045-106.946-10.606l-1.426 1.403zm-9.364-109.152c-15.632 45.678-13.746 85.67 9.364 109.152l1.426-1.403C-.77 333.736-2.93 294.738 12.626 249.285l-1.892-.647zm28.208-58.965c-12.235 20.113-21.727 40.025-28.208 58.965l1.892.647c6.429-18.784 15.854-38.565 28.024-58.573l-1.708-1.039zm-.006 1.029c16.767 28.29 38.818 57.015 65.474 84.1l1.426-1.403c-26.55-26.977-48.5-55.574-65.18-83.716l-1.72 1.019zm65.474 84.1c26.661 27.09 55.036 49.599 83.059 66.818l1.047-1.704c-27.877-17.129-56.126-39.535-82.68-66.517l-1.426 1.403zm.713-.702c26.756 27.187 55.231 49.74 83.323 66.946l1.045-1.706c-27.946-17.115-56.294-39.565-82.943-66.642l-1.425 1.402zm-65.598-84.366c16.754 28.359 38.846 57.185 65.598 84.366l1.425-1.402c-26.644-27.073-48.635-55.77-65.301-83.981l-1.722 1.017zm66.955-84.356c-27.188 26.757-49.74 55.232-66.947 83.326l1.706 1.044c17.116-27.946 39.565-56.294 66.644-82.944l-1.403-1.426zm84.371-65.6c-28.361 16.754-57.188 38.847-84.371 65.6l1.403 1.426c27.074-26.646 55.773-48.638 83.985-65.305l-1.017-1.721zm84.342 66.946c-26.753-27.183-55.223-49.733-83.311-66.938l-1.045 1.705c27.942 17.115 56.285 39.562 82.93 66.636l1.426-1.403zm65.609 84.384c-16.756-28.365-38.852-57.196-65.609-84.384l-1.426 1.403c26.65 27.078 48.645 55.782 65.313 83.998l1.722-1.017zm-66.946 84.34c27.183-26.752 49.733-55.221 66.937-83.309l-1.705-1.045c-17.115 27.941-39.561 56.284-66.635 82.929l1.403 1.425zm-84.379 65.606c28.363-16.755 57.193-38.85 84.379-65.606l-1.403-1.425c-27.077 26.648-55.778 48.642-83.993 65.309l1.017 1.722zm-.062.583c20.114 12.235 40.027 21.727 58.967 28.209l.648-1.892c-18.785-6.429-38.567-15.855-58.575-28.025l-1.04 1.708zm58.967 28.209c45.678 15.632 85.671 13.746 109.153-9.364l-1.403-1.425c-22.651 22.292-61.65 24.452-107.102 8.897l-.648 1.892zm109.153-9.364c23.481-23.11 26.006-63.067 11.105-108.989l-1.903.617c14.828 45.695 12.046 84.654-10.605 106.947l1.403 1.425zm11.105-108.989c-6.179-19.04-15.351-39.101-27.262-59.406l-1.726 1.011c11.849 20.2 20.958 40.129 27.085 59.012l1.903-.617zm-94.082 24.668c27.085-26.656 49.592-55.026 66.809-83.045l-1.704-1.047c-17.128 27.873-39.531 56.117-66.508 82.667l1.403 1.425zm-84.113 65.482c28.294-16.768 57.024-38.822 84.113-65.482l-1.403-1.425c-26.981 26.553-55.583 48.506-83.73 65.187l1.02 1.72zm150.94-150.473c12.239-20.119 21.734-40.036 28.217-58.981l-1.892-.648c-6.43 18.789-15.859 38.576-28.034 58.589l1.709 1.04zm28.217-58.981c15.632-45.678 13.746-85.67-9.364-109.152l-1.426 1.403c22.293 22.65 24.453 61.649 8.898 107.101l1.892.648zm-9.364-109.152C337.128-.445 297.17-2.97 251.249 11.93l.617 1.903C297.561-.994 336.52 1.789 358.812 24.44l1.426-1.403zM251.249 11.93c-19.045 6.18-39.11 15.356-59.42 27.27l1.012 1.726c20.204-11.853 40.137-20.964 59.025-27.093l-.617-1.903zm24.657 94.091c-26.658-27.086-55.028-49.593-83.047-66.81l-1.047 1.704c27.873 17.128 56.118 39.532 82.668 66.509l1.426-1.403zm65.485 84.118c-16.769-28.295-38.824-57.027-65.485-84.118l-1.426 1.403c26.555 26.983 48.509 55.587 65.19 83.735l1.721-1.02z" fill="url(#a)" fill-opacity=".4" mask="url(#b)"/><path d="M178.623 186.5a11.37 11.37 0 0 0 8.043-3.332 11.37 11.37 0 0 0 0-16.086 11.375 11.375 0 1 0-8.043 19.418zm35.875-8.75a8.749 8.749 0 1 1-17.498 0 8.749 8.749 0 0 1 17.498 0zm-28 28a19.207 19.207 0 0 1 6.976-14.829 6.971 6.971 0 0 0-3.476-.921h-22.75a7.005 7.005 0 0 0-4.95 2.05 7.005 7.005 0 0 0-2.05 4.95s0 14 18.375 14c3.336 0 6.066-.462 8.299-1.214a19.284 19.284 0 0 1-.424-4.036zm35 0a15.75 15.75 0 1 1-31.5 0 15.75 15.75 0 0 1 31.5 0zm-7.511-6.489a1.755 1.755 0 0 0-1.91-.38 1.755 1.755 0 0 0-.568.38l-9.261 9.265-2.261-2.265a1.755 1.755 0 0 0-2.478 0 1.75 1.75 0 0 0 0 2.478l3.5 3.5a1.757 1.757 0 0 0 2.478 0l10.5-10.5a1.757 1.757 0 0 0 0-2.478z" fill="#8FC1F6"/><defs><linearGradient id="a" x1=".58" y1=".824" x2="379.756" y2=".824" gradientUnits="userSpaceOnUse"><stop stop-color="#0A4392"/><stop offset="1" stop-color="#0C90D1"/></linearGradient></defs></svg>