<svg width="142" height="113" viewBox="0 0 142 113" fill="none" xmlns="http://www.w3.org/2000/svg">
<path d="M89.1054 2.54774L88.8745 1.57476L89.1054 2.54774ZM32.6056 43.0476L32.0727 42.2014L32.6056 43.0476ZM7.43391 111.788C7.84309 112.159 8.4755 112.128 8.84643 111.719L14.8912 105.051C15.2621 104.642 15.2311 104.01 14.8219 103.639C14.4128 103.268 13.7804 103.299 13.4094 103.708L8.03631 109.635L2.10928 104.262C1.7001 103.891 1.06769 103.922 0.696759 104.331C0.325823 104.74 0.356823 105.373 0.766 105.744L7.43391 111.788ZM141.249 13.2824C133.757 6.98244 112.875 -4.12034 88.8745 1.57476L89.3363 3.52072C112.535 -1.98418 132.787 8.7797 139.962 14.8131L141.249 13.2824ZM88.8745 1.57476C73.5812 5.20367 67.0244 17.9182 65.4279 29.0938C64.6299 34.68 65.0504 39.9818 66.2891 43.7142C66.9047 45.5691 67.7546 47.1342 68.849 48.1257C69.9945 49.1633 71.4329 49.5765 72.9678 48.9796L72.2429 47.1156C71.5278 47.3937 70.8725 47.2601 70.1918 46.6434C69.46 45.9805 68.7514 44.784 68.1873 43.0842C67.0666 39.7072 66.6434 34.7278 67.4078 29.3766C68.9363 18.6772 75.1295 6.89181 89.3363 3.52072L88.8745 1.57476ZM72.9678 48.9796C74.2973 48.4626 75.2371 47.5868 75.5467 46.3789C75.8464 45.2098 75.4884 43.9814 74.7985 42.8713C73.4214 40.6556 70.4492 38.4371 66.4599 36.925C58.4097 33.8737 45.8319 33.5382 32.0727 42.2014L33.1384 43.8938C46.3792 35.557 58.3013 35.9715 65.751 38.7952C69.5117 40.2206 72.0394 42.2209 73.0998 43.927C73.6286 44.7779 73.7237 45.4362 73.6094 45.8823C73.5049 46.2897 73.1634 46.7576 72.2429 47.1156L72.9678 48.9796ZM32.0727 42.2014C20.9543 49.2018 14.53 62.2504 10.9771 75.5139C7.41664 88.8057 6.68592 102.512 7.10675 111.097L9.10435 110.999C8.69185 102.584 9.41113 89.0895 12.909 76.0314C16.4145 62.9448 22.6568 50.4934 33.1384 43.8938L32.0727 42.2014Z" fill="#EFB475"/>
</svg>
