<svg width="28" height="28" fill="none" xmlns="http://www.w3.org/2000/svg"><g clip-path="url(#a)"><path d="M26.858 7.722a3.185 3.185 0 0 0-.876-1.451c-.429-.408-.955-.7-1.529-.848-2.146-.566-10.745-.566-10.745-.566a87.57 87.57 0 0 0-10.731.537 3.611 3.611 0 0 0-1.53.869A3.31 3.31 0 0 0 .559 7.72a33.246 33.246 0 0 0-.557 6.28 33.185 33.185 0 0 0 .557 6.278 3.23 3.23 0 0 0 .886 1.45c.424.404.952.695 1.533.85 2.175.564 10.731.564 10.731.564a87.76 87.76 0 0 0 10.745-.537c.574-.148 1.1-.44 1.53-.848.417-.396.719-.898.874-1.452.394-2.07.586-4.173.572-6.28.03-2.115-.162-4.229-.571-6.305v.001zM10.974 17.913v-7.825l7.155 3.913-7.155 3.912z" fill="#fff" fill-opacity=".4"/></g><defs><clipPath id="a"><path fill="#fff" transform="translate(0 .286)" d="M0 0h27.429v27.429H0z"/></clipPath></defs></svg>