<svg width="19" height="20" viewBox="0 0 19 20" fill="none" xmlns="http://www.w3.org/2000/svg">
<g clip-path="url(#clip0_5408_8098)">
<path d="M0.425781 10.0003C0.425781 4.90228 4.55853 0.769531 9.65655 0.769531C14.7546 0.769531 18.8873 4.90228 18.8873 10.0003C18.8873 15.0983 14.7546 19.2311 9.65655 19.2311C4.55853 19.2311 0.425781 15.0983 0.425781 10.0003Z" fill="white"/>
<path fill-rule="evenodd" clip-rule="evenodd" d="M9.46976 0.769531C9.42614 4.56714 9.1778 6.69245 7.76325 8.107C6.3487 9.52155 4.22339 9.76989 0.425781 9.81351V10.3646C4.22339 10.4082 6.3487 10.6565 7.76325 12.0711C9.15562 13.4635 9.41807 15.5445 9.46755 19.2311H10.0231C10.0725 15.5445 10.335 13.4635 11.7273 12.0711C13.1197 10.6787 15.2007 10.4163 18.8873 10.3668V9.81127C15.2007 9.76182 13.1197 9.49937 11.7273 8.107C10.3128 6.69245 10.0645 4.56714 10.0209 0.769531H9.46976Z" fill="#79B1FC"/>
</g>
<defs>
<clipPath id="clip0_5408_8098">
<rect width="18.4615" height="18.4615" fill="white" transform="translate(0.425781 0.769531)"/>
</clipPath>
</defs>
</svg>
